<svg id="b607b4c4-80a4-4016-af01-b0010b655948" data-name="Layer 1" xmlns="http://www.w3.org/2000/svg" width="32" height="32" viewBox="0 0 32 32"><title>baleset_ikon</title><rect x="-0.23" y="-0.23" width="32.46" height="32.46" fill="#fb630f"/><path d="M27.28,17.64l-5.64-3,4.28-4.73-6.24,1.34.24-6.38L16,9.93l-3.92-5,.24,6.38L6.08,9.93l4.28,4.73-5.64,3,6.32.88-2.4,5.91L14,21l2,6.07L18,21l5.4,3.39L21,18.52Zm-10,.33L17,20.74l-1.4-2.41-2,2,.47-2.75-2.78.22L13.47,16l-2.28-1.62H14l-.7-2.7,2.15,1.78,1.2-2.52.5,2.74,2.53-1.15L18.28,14.9l2.69.74-2.62,1,1.59,2.3Z" fill="#fff"/></svg>