<svg id="b33bb8d5-6010-43d6-920e-719c069cc504" data-name="Layer 1" xmlns="http://www.w3.org/2000/svg" width="32" height="32" viewBox="0 0 32 32"><title>beruhazas_ikon</title><rect x="-0.23" y="-0.23" width="32.46" height="32.46" fill="#4097cd"/><path d="M11.28,3.7a.41.41,0,0,0-.58,0L6.25,8.16a2.82,2.82,0,0,0-.47.66L4.09,12.37A.62.62,0,0,0,4.2,13l1.49,1.49a.41.41,0,0,0,.58,0L8.19,12.6a.41.41,0,0,1,.58,0L23.08,26.91a.4.4,0,0,0,.57,0l2.63-2.63a.41.41,0,0,0,0-.58L12,9.4a.41.41,0,0,1,0-.58L13.9,6.9a.41.41,0,0,0,0-.58Z" fill="#fff"/><path d="M12.56,17.61a.41.41,0,0,0-.58,0L9.58,20a.81.81,0,0,1-.68.19l-.29-.08a1.23,1.23,0,0,0-.76.07l-1.93.89a1.3,1.3,0,0,0-.54.55l-.9,1.92a1.41,1.41,0,0,0-.07.76l.18.66c.06.21.23.26.39.1l2.27-2.26a.41.41,0,0,1,.58,0l2.06,2.07a.4.4,0,0,1,0,.57L7.43,27.92c-.16.16-.21.34-.12.41a1.13,1.13,0,0,0,.57.08L10,28.23a1.34,1.34,0,0,0,.7-.33l1.5-1.5a1.29,1.29,0,0,0,.32-.7l.19-2.11a2.25,2.25,0,0,0,0-.44s.1-.16.26-.32l2.11-2.11a.41.41,0,0,0,0-.58Z" fill="#fff"/><path d="M17.16,13a.41.41,0,0,1,0-.58l2.4-2.4a.77.77,0,0,0,.18-.68l-.07-.29a1.31,1.31,0,0,1,.06-.76l.9-1.93a1.4,1.4,0,0,1,.54-.54l1.93-.9a1.32,1.32,0,0,1,.76-.06l.65.17c.22.06.27.24.11.39L22.36,7.7a.41.41,0,0,0,0,.58l2.06,2.07a.41.41,0,0,0,.58,0l2.47-2.47c.16-.16.34-.21.41-.12a1.15,1.15,0,0,1,.08.58l-.19,2.11a1.33,1.33,0,0,1-.32.7L26,12.65a1.29,1.29,0,0,1-.7.32l-2.11.19a2.24,2.24,0,0,1-.44,0,1.17,1.17,0,0,0-.32.26l-2.11,2.11a.41.41,0,0,1-.58,0Z" fill="#fff"/></svg>