<svg id="a68e424d-bd2c-4f67-8d7c-3567acbcafd8" data-name="Layer 1" xmlns="http://www.w3.org/2000/svg" width="32" height="32" viewBox="0 0 32 32"><title>burgonya_ikon</title><rect x="-0.23" y="-0.23" width="32.46" height="32.46" fill="#9fd041"/><path d="M28.8,20.58c-2.07-8.27-4.61-10.46-9.18-11.92S12.14,2,7.52,4c0,0-5.88,1.22-4.34,7.3a8.26,8.26,0,0,0,1.07,2.43,6,6,0,0,1,2-3.16.65.65,0,1,1,.78,1,5,5,0,0,0-1.65,3.5,12,12,0,0,0,2.24,1.78c0-2.55,1.37-3.17,1.56-3.25a.65.65,0,0,1,.49,1.21s-.94.55-.71,2.79c1.91,1,3.64,1.46,4.08,1.95,1,1.07,1.22,5.94,4.5,7.88S30.87,28.85,28.8,20.58ZM11,6.17a.64.64,0,0,1-.8.45,3.79,3.79,0,0,0-4,1.5.65.65,0,0,1-.54.29.59.59,0,0,1-.36-.11.64.64,0,0,1-.18-.9,5,5,0,0,1,5.44-2A.65.65,0,0,1,11,6.17ZM21.78,21A2.85,2.85,0,0,0,20,23.41a.66.66,0,0,1-.64.67h0a.64.64,0,0,1-.64-.64,4.14,4.14,0,0,1,2.5-3.64.65.65,0,0,1,.88.3A.66.66,0,0,1,21.78,21Zm.51-5.35c-4.93,1.67-5,5.38-5,5.54a.66.66,0,0,1-.65.64h0a.65.65,0,0,1-.64-.65c0-.19.07-4.78,5.91-6.76a.66.66,0,0,1,.83.41A.65.65,0,0,1,22.29,15.62Z" fill="#fff"/></svg>