<svg id="ac477014-3e1b-4454-bf9a-5c2d0c4ff4ee" data-name="Layer 1" xmlns="http://www.w3.org/2000/svg" width="32" height="32" viewBox="0 0 32 32"><title>erdo_ikon</title><rect x="-0.23" y="-0.23" width="32.46" height="32.46" fill="#f9c112"/><path d="M26.75,12.71a5.55,5.55,0,0,0-5.22-5.54,5.54,5.54,0,0,0-11.06,0A5.54,5.54,0,0,0,6.3,16a5.78,5.78,0,0,0-.36,2,5.56,5.56,0,0,0,5.55,5.55,5.48,5.48,0,0,0,2.95-.86V30h3.12V22.37a5.55,5.55,0,0,0,8.35-6.74A5.5,5.5,0,0,0,26.75,12.71ZM16,14.62s0,.08,0,.12a.35.35,0,0,1,0-.08Z" fill="#fff"/></svg>