<svg id="f3767724-ffa8-41a7-baf3-eaab750af9e2" data-name="Layer 1" xmlns="http://www.w3.org/2000/svg" width="32" height="32" viewBox="0 0 32 32"><title>iparitermeles_ikon</title><rect x="-0.23" y="-0.23" width="32.46" height="32.46" fill="#73c5e1"/><path d="M25.45,18.09a9.65,9.65,0,0,0,0-3.5l-2.05-.13a7.9,7.9,0,0,0-.84-2.06l1.38-1.56A10,10,0,0,0,21.5,8.33L20,9.68a8.05,8.05,0,0,0-2.14-.94l-.13-2.08a9.92,9.92,0,0,0-2-.2,9.29,9.29,0,0,0-1.5.13l-.12,2a7.9,7.9,0,0,0-2.33.93L10.22,8.14a10,10,0,0,0-2.48,2.41l1.35,1.52a7.66,7.66,0,0,0-1,2.42L6,14.61a11,11,0,0,0-.16,1.73A9.74,9.74,0,0,0,6,18.06l2,.13a7.76,7.76,0,0,0,1,2.42L7.74,22.13a10.1,10.1,0,0,0,2.48,2.4l1.56-1.38a7.63,7.63,0,0,0,2.33.93l.12,2a10.59,10.59,0,0,0,1.5.12,9.92,9.92,0,0,0,2-.19l.13-2.09A7.74,7.74,0,0,0,20,23l1.52,1.35a10,10,0,0,0,2.44-2.51l-1.38-1.55a7.83,7.83,0,0,0,.84-2.07Zm-9.72,1.34a3.1,3.1,0,1,1,3.1-3.09A3.09,3.09,0,0,1,15.73,19.43Z" fill="#fff"/></svg>