<svg id="fddc73cd-d437-481c-9976-30f61a4f526c" data-name="Layer 1" xmlns="http://www.w3.org/2000/svg" width="32" height="32" viewBox="0 0 32 32"><title>kereset_ikon</title><rect x="-0.23" y="-0.23" width="32.46" height="32.46" fill="#eb65a0"/><ellipse cx="15.98" cy="16.04" rx="4.9" ry="4.25" fill="#fff"/><circle cx="7.83" cy="16.02" r="1.63" fill="#fff"/><path d="M2.22,7.84V24.16H29.78V7.84ZM27.76,19.09l-.45.45a1.53,1.53,0,0,0-.6-.12,1.63,1.63,0,0,0-1.63,1.63,1.53,1.53,0,0,0,.12.6l-.56.55H7.36l-.51-.5A1.58,1.58,0,0,0,7,21.05a1.62,1.62,0,0,0-1.62-1.63,1.59,1.59,0,0,0-.66.14l-.47-.47V13.31L5,12.57a1.6,1.6,0,0,0,.39,0A1.62,1.62,0,0,0,7,11a1.72,1.72,0,0,0,0-.39l.8-.8h16.5l.86.86a1.84,1.84,0,0,0,0,.33,1.63,1.63,0,0,0,1.63,1.63,1.12,1.12,0,0,0,.32,0l.73.73Z" fill="#fff"/><circle cx="24.25" cy="16.02" r="1.63" fill="#fff"/></svg>