<svg id="a3d95602-c512-4c37-9d4e-8cf2e5dfd130" data-name="Layer 1" xmlns="http://www.w3.org/2000/svg" width="32" height="32" viewBox="0 0 32 32"><title>mozi_ikon</title><rect x="-0.23" y="-0.23" width="32.46" height="32.46" fill="#4097cd"/><rect x="4" y="14.54" width="1.82" height="4.87" rx="0.81" fill="#fff"/><path d="M27.84,13.41h-.78a.4.4,0,0,0-.27.12l-2.31,2.59h-1V14.79a.81.81,0,0,0-.81-.81H7.4a.82.82,0,0,0-.81.81v9.63a.81.81,0,0,0,.81.81H22.63a.81.81,0,0,0,.81-.81V22.17h.93l2.41,2.59a.42.42,0,0,0,.28.12h.78a.16.16,0,0,0,.16-.16V13.57A.16.16,0,0,0,27.84,13.41Z" fill="#fff"/><circle cx="11.03" cy="10.18" r="3.4" fill="#fff"/><circle cx="18.55" cy="10.18" r="3.4" fill="#fff"/></svg>