<svg id="ae4d9beb-fa9e-4431-baea-882e362f751d" data-name="Layer 1" xmlns="http://www.w3.org/2000/svg" width="32" height="32" viewBox="0 0 32 32"><title>munkanelkuliseg_ikon</title><rect x="-0.23" y="-0.23" width="32.46" height="32.46" fill="#9b539c"/><circle cx="12.41" cy="6.14" r="2.53" fill="#fff"/><path d="M24.07,26.6l-1.81-7.75a1.45,1.45,0,0,0-1.41-1.13l-4.6,0L15,10.87a2.22,2.22,0,1,0-4.38.78l1.26,7.1a2.23,2.23,0,0,0,2.19,1.83,1.51,1.51,0,0,0,.3,0h.1l5.17.05,1.55,6.64a1.46,1.46,0,0,0,1.42,1.13,1.86,1.86,0,0,0,.33,0A1.47,1.47,0,0,0,24.07,26.6Z" fill="#fff"/><path d="M16.15,23.48c-1.58,0-3.89-.19-5.1-1.22-1.76-1.49-2.92-7.54-3.14-8.74a1,1,0,0,1,.8-1.16,1,1,0,0,1,1.16.81c.56,3.11,1.67,6.89,2.47,7.57s3.58.84,5.23.69a1,1,0,0,1,1.09.9,1,1,0,0,1-.9,1.09C17.59,23.43,17,23.48,16.15,23.48Z" fill="#fff"/></svg>