<svg id="bcbe00db-c811-45ec-8dc3-eb0af0be3063" data-name="Layer 1" xmlns="http://www.w3.org/2000/svg" width="32" height="32" viewBox="0 0 32 32"><title>nepesseg_ikon</title><rect x="-0.23" y="-0.23" width="32.46" height="32.46" fill="#5bb12f"/><circle cx="11.83" cy="6.75" r="1.87" fill="#fff"/><path d="M11.91,26.36a.8.8,0,0,0,.78.66c.66,0,.74-.79.74-.79V20.11H15.9s-1.17-3.59-1.66-5.06c1.72-1,1.64-1.49,1.61-1.77s-.33-1.68-.63-2.74a1.66,1.66,0,0,0-1.41-1.36H9.62a1.66,1.66,0,0,0-1.41,1.36c-.3,1.06-.6,2.47-.63,2.74s-.11.82,1.61,1.77c-.49,1.47-1.66,5.06-1.66,5.06H10v6.12s.08.76.74.79a.82.82,0,0,0,.79-.66s0-.11.17-.11A.21.21,0,0,1,11.91,26.36Z" fill="#fff"/><circle cx="20.54" cy="6.75" r="1.87" fill="#fff"/><path d="M20.69,26.4a.79.79,0,0,0,.85.71.74.74,0,0,0,.76-.59L23,17s.1.75.78.75.71-.78.71-.78,0-4.47,0-6.12a1.68,1.68,0,0,0-1.79-1.8l-2.06,0s-.17,0-.17,0l-2,0a1.68,1.68,0,0,0-1.8,1.8c0,1.65-.05,6.12-.05,6.12s0,.78.71.78S18,17,18,17l.69,9.48a.72.72,0,0,0,.75.59.79.79,0,0,0,.85-.71s0-.13.21-.13S20.69,26.4,20.69,26.4Z" fill="#fff"/></svg>