<svg id="bc1eccd0-8dcf-48a3-96ae-0b1aada5f1fe" data-name="Layer 1" xmlns="http://www.w3.org/2000/svg" width="32" height="32" viewBox="0 0 32 32"><title>turizmus_ikon</title><rect x="-0.23" y="-0.23" width="32.46" height="32.46" fill="#5bb12f"/><path d="M12.44,9.54V9a1.23,1.23,0,0,1,1.23-1.22h4.66A1.23,1.23,0,0,1,19.56,9v.58h1.5V9a2.72,2.72,0,0,0-2.73-2.72H13.67A2.72,2.72,0,0,0,10.94,9v.58Z" fill="#fff"/><path d="M4.62,22.24v1.85a1.67,1.67,0,0,0,1.67,1.67h2A3.73,3.73,0,0,0,4.62,22.24Z" fill="#fff"/><path d="M4.62,12.28v1.85a3.72,3.72,0,0,0,3.71-3.52h-2A1.67,1.67,0,0,0,4.62,12.28Z" fill="#fff"/><path d="M27.38,14.13V12.28a1.67,1.67,0,0,0-1.67-1.67h-2A3.72,3.72,0,0,0,27.38,14.13Z" fill="#fff"/><path d="M27.38,24.09V22.24a3.73,3.73,0,0,0-3.71,3.52h2A1.67,1.67,0,0,0,27.38,24.09Z" fill="#fff"/><path d="M27.38,21.24V15.13a4.72,4.72,0,0,1-4.71-4.52H9.33a4.72,4.72,0,0,1-4.71,4.52v6.11a4.72,4.72,0,0,1,4.71,4.52H22.67A4.72,4.72,0,0,1,27.38,21.24Z" fill="#fff"/></svg>