<svg id="Layer_1" data-name="Layer 1" xmlns="http://www.w3.org/2000/svg" viewBox="0 0 1920 1136"><defs><style>.cls-1{fill:none;stroke:#000;stroke-linecap:round;stroke-linejoin:round;}</style></defs><title>erdogazdalkodas_simple</title><g id="HATCH"><path class="cls-1" d="M826.1,591.5c-3.34,2.19-6.43,4.76-9.6,7.2,1.6-.15,3.11.4,4.5.4-3.85,1.26-5.49,10.92-7.6,15a30.25,30.25,0,0,0-3.4,11.5c-.9,8.31-4.16,7.31-10.7,12.1-5.6,4.1-3.74,9.91-10.1,12.9-.32-.8-.62-1.53-.9-2.3-4.12,2.59-6.21,9.2-12.1,9.9.82,2.8,1.31,6.26,1.9,9.5.92-1.05,2.47-1.53,3.4-2.6.21,2.93-1.39,7.53-5.4,6.9,2.49,6.28-4.21,8.56-7,13.4-.79,1.36-.91,4-1.65,5.55a70.6,70.6,0,0,1-4.55,6.95c-3.07,4.6-5.67,8.54-4.9,14.3.67,5,1.85,8.81.3,13.65-1.84,5.76-4.32,13.35-10,17.15-.77-1.26-2.32-2.21-2.9-3.6.88,8.85-3.41,13.34-3.35,21.75,0,3.49-1,8.3-1,10.9,0,2.2.79,4.86,1.65,8.3,1.69,6.74,1.21,13.67,2.7,20.45,1,4.67,1.28,7.89.83,11-1.19,8.28-.53,2.27-5.33,6.72-.16.14-1.58,4-1.8,4.6l-1-2.6c-.31,1.1-1.55,2.54-1.9,3.9-2.42-1-3.47,1.92-5.6,3.53a43,43,0,0,1-7.2,4.47c2.18,3,3.49,5.78,3.3,8.9a19,19,0,0,1,6.6-4.4l.5,2.4c2.19-1.67,4.38-3.36,6.6-5-.51,5,2.61,9.32,2.4,14.2,1.6-.81,3.68-.63,5.3-1.4-2.16,6.34,1.1,13.77-1.11,19.83a82,82,0,0,1-6.89,13.27c-1,1.37-6.49,6.95-8.05,7.45-2.26.72-3.89-.92-5.25-.9-.18,0-1.77-1.63-1.9-1.65-1.39-.21-1.5,1.93-2.8,1.9-2.79-.06-1.88-1.07-4.2.9-1.68-1.7-2.21-3.12-1-5.9-.19.17-.26.14-.2-.1-4.46.93-19.11,7.32-21.1,5.9-2.55,4.5-6.09,8-7.6,12.8-.9,2.87-.07,6-1.7,9.5-2.17,4.67-1.89,4.76-2.45,9.3-.44,3.6.42,5.62-2.63,9.17-2.31,2.71-3.37,2.7-5.82,3.83,0,0-2.83-1-3.75-.7s-.92,3.08-2,3.45c-3.7,1.22-6.27-.92-9.1.45-1.81.87-1,3.58-3.5,4.6-1.43.59-2.7-2-3.9-1.6-4,1.18-5.32,5.12-7.83,6-1,.39-1.42,1.87-2.72,2.3-2,.66-.71-1.76-2.25-1.55-2.86.4-3.74-.07-6.6,1.1,2.92-10.77-6,0-6.9-7.6-8.41,3.68-5.12,16.52-16.4,16-2.64-2.23-3.49-4.58-5.4-10.1-1.61-4.64-.62-6.15-4.5-5.2-2.48.61-4.94,4.85-5.3,6.8.33,0,.46.15.4.4,7.32-1.89.56,10.69-1.5,12.5-2.6-.25-1.33,0-3.8,1l.8.6c-4.76.53-1,8.41-6,11.9,0-.81.14-1.15.1-2.3a1.23,1.23,0,0,1-.6-.1c.68,5.28-4,7.24-5.55,10.65-2,4.55-6.49,18.5-3.15,21.15-2.88,1.43-5.83,2.69-8.8,3.9,1.78,1.66,2.34,2.71,5.1,3-3.07,4.07-3.62,7.17-7.6,10.1-3.26,2.4-12,3.66-13.7,6.4,3.43,4.31,1.56,5.58,8.8,9.8-1.3,1.33-.92,3.34-1.8,4.2-1.76,1.72-6.87,1.54-9.8,2.2a5.6,5.6,0,0,0,1.7-.2c-.21,6,4,10.06,3.7,16.3a20,20,0,0,0,4.8-.9c-.58-1.28-.73-3-1.5-4.2a19.44,19.44,0,0,1,4.8,1.1,13,13,0,0,0,0,1.4,5.83,5.83,0,0,1,6.4.3c-1.4.17-2.69,1.12-4.3,1.2,1.31,5.18,19.43,3.37,13.5,8.9,1.62.47,2.86,1.86,4.2,2.3-2.74.61-1.8,9.81-1.8,9.8-4,.87-9.12-.73-12.3,3.5,1-3-.09-2.23-1-4.8-1.38,1.07-4.66,1.35-5.75,2.45-1.37,1.39-.88,4.65-2.35,5.55-5.59,3.42-8.25-12.37-12.7-16.35-14.81-13.25-33.81-9-52.2-12.55-2.58-.5-5.77-2.68-8.5-1.62-5.21,2-.28,1.83-1.27,3.77-.87,1.68,4.48,3.44-2.61,3.21-3.37-.11-5.16-1.21-4.42-4-1.25.88-4.52,3.3-6,2.9-3.89-1.05,0-4.33-3.2-5.5-4.62-1.68-12.39,5.59-14.1-3,2.43-3,2.64.32,5.4.7.48.07,11.37-.06,11.35-2.15,0-2.58-6.2.4-7.8.07-6.31-1.27,0-3.25,2.65-2.82-6.16-1.34.67-2.78-1.15-6.1-2.55-4.64-3.68,5.31-7.25,4-2.09-.77-4.44-10.54-7.9-5.5-.69,1,6.14,5.35-1,7.8-8.41,2.88-.1-4.94-.05-5.4.53-5.21-6,.69-7.95-.3-5.08-2.59,4.61-2.9.1-6.3-.07-.05-6.14.31-7,.1-2.37-.57-4.49-2.59-6.9-3.4,1.36-1,12-3.27,11.7-4.8-.57-2.62-12-1.89-13.5-1.4a.65.65,0,0,1-.1-.4c.46-.26,1.34-.1,1.8-.2-.73-1.32-.59-3.13-1.4-4.5,12.61-1.51-8.29-4.65-9.7-6.5,2.61.08,5.16,2.09,7.5-.3-4.1,1.51-2.87-2-4.4-2.8a24.4,24.4,0,0,0-7.1-2.7c-2.25-.51-3.14,2.47-5.3,0-1.24-1.42,5.49-.74,5.6-.7-.55-2.44,1.09-4.07,3.8-4.4-2.44-1-4.84-.6-7.6-1.4,2.84-2.47,2.24-6.16-.3-2.7-4-3.68-8.37,2.19-11-2.8,2.67-1.6,1.11-3.71-1-5.5,1.29,0,2.49-.93,3.6-1.1-2.22-1.74-3.53-3.71-2.5-6-2.71-2.31-10.31-2.84-7.3-5.5-.08-2.47-2.63-2.5-5.55-3.1-1.42-.29-1.89,1.22-2.95.8a11.92,11.92,0,0,1-2.7-2.3c-1.27-.44-3.57-1.89-5.85-2.9s-6.45-2-7.1-2.3c-2-.87-3.4-3-5.15-4.2a45.81,45.81,0,0,0-5.83-3.15c-4.66-2.28-8.93-5.63-13.47-7.35-2.53-1-2.35,1.17-5.5-1.1-2.65,1.2-5.17-.77-5.4-3.6,2.14-3.46-4.41-2-7.4-3.7s-6.19-4.19-9.1-6.2a60.63,60.63,0,0,1-6.7-5.7c-2.57-2.33-3.13-2.51-4.6-4.5-2.71-3.66-4.12-9.62-5-12.1,3.93.32,4.44,3.5,7.7,4.5,3.67,1.13,15.76-4.69,11.7,4a3.78,3.78,0,0,0,1.6.2c-.39,1.2,0,2.15.2,3.6,3.81-.3,3.83-2.18,6.8-3.5,1.72-.76,3.38.12,4.95-.5,1.76-.7.86-2.83,3.15-3.1,2.72-.33,5.39,3.14,7.2,3.2,3,.1,4.9-2.23,8.6-3.3-1.28-1.21-1.32-3-.25-4.85.63-1.11,1.81-2.21,2.5-3.2,1.35-1.93,2.34.21,2.9-4.15.24-1.85-1-3.88-.75-5.7-3.73,0-3.45-5-4.32-7.32-1.45-3.84-2.54-1.59-1.08-5.28s3.43-4.73,7-5.1c-1.85,7.83,5.09,3.57,7.4,1.6,1.33-1.13.82-3.27,3.3-4.3,2.73-1.13,5.46,1.52,8.1,1.2-.41,1-.12,2.23-.4,3.2,2.91-.11,6.63-.64,8.35-2.55,1.39-1.54.64-5.45,2.25-7.27,2.53-2.87,11.29-4.61,15.1-6.18,5.05,4.52,10.85-24.85,13.1-28.1-.29-.52-1.31-.54-1.7-.8,1.42-1.08,1.48-1.18,3.3-1.2l-.7.8c3.45-.28,1.88-1.83,3.7-3.2a68.84,68.84,0,0,0,7.73-6.79c4.49-4.58,7.44-12.06,7.87-18.91,1-16.13,2.33-33.28,2.42-49.83.05-9,4.45-16.48,5.44-25.17.94-8.35-.14-15.23,4-22.9,3.71-6.82,9.83-7.46,13.8-13.3,5.14-7.56,7.51-25.16,14.95-28.6,6.38-3,15.72,1.91,22.65.95,9.4-1.3,11.81-9.42,22.93-8.26a123.51,123.51,0,0,0,22.67,0c8.94-.66,17.55-6.77,26.32-9.08,17.89-4.7,36.88-8.11,54.42-13.51,9.93-3.06,18.81-7.28,29.16-9.21S671,632.51,681,628.8c5.15-1.91,10.29-4.16,15.26-6.5,6-2.8,6.8-2.28,13-2.2,5.55.07,23.66-5.66,16.7-14.5,16.32-6.28,32.5-11.75,48-19.9s31.82-18,48.77-21.8c1,1.28,6.18,1,6.8,3.9.66,3.13-5.43,6.78-8.5,8.9C825,579,826,587.43,826.1,591.5Z"/></g><g id="HATCH-2" data-name="HATCH"><path class="cls-1" d="M945.6,952.1q-6.54,9.81-13.1,19.6c.16,0,.23-.07.2-.2,1.66,2.79-3.75,7.49-5.2,10.4,2.61-.53,9.16,3.59,3.8,5.2.07-.75.1-2.11.2-2.8a5,5,0,0,0-2.1,2.2,6.22,6.22,0,0,0,.2-.8c-.06.07-.68.28-.4,0a9.36,9.36,0,0,0-.9,2.2c-1.95.9-8.83,4.64-9.6,7.9,3.47,1.42,2.5,2.82,2.3,5.3-.07.92-2.66,5.59-3.1,6.8-.71,2-.61,4.73-2.12,6.35-4.94,5.27-7.55-2.3-12.28.25.09-2.66-.59-2.73-1.5-4.1-4,1.48-9,.39-10.2-4.1-3.48,1.47-7.66,2.48-10.1,5.5a9.31,9.31,0,0,1-1.2-2c-1.84,2-2.17,5.59-1.2,7-1.13.47-.72,1.05-1.5,1.9h-.1a3.2,3.2,0,0,1-1.4.3c-7.43,4.38.28,8-7.6,12.4l-.8-3.1a86.78,86.78,0,0,0-6.8,10.65c-.91,2,.62,3.53-.7,5.65-.91,1.45-4.24,1.86-5.4,3s-2.6,5-5,7c-1.87,1.6-3.91,4.06-5.23,5.11,1.32-1.06-2.28,3.69-1.56,2.84-.33.39-2.58-.26-3.09.13-.85.64-1,3-2,3.52-3.77,1.92-9.76,1.4-10.7,6.9-6,.56-6.06-6.5-10.9,2.3-1.85,3.36-1.78,5.16-4.6,7-2,1.29-4.43-.23-6,.8-4.08,2.68-1.71,3.34-3.32,6.62-2.6,5.3-3.3,5.46-9.93,5.56-3.5,0-8.22.91-4.25-4.28-.47.16-.75.68-1.1,1-.74-4.25-5.11-2.92-8.6-5.6,0,1.46-7,9.22-10.1,11.1-.41-2.74-7.92-3-10.8-2.7-5.47.62-7.95,2.8-13.9,1.6-1.7-.34-3.1,1.26-4.6.4-1.95-1.12-.53-4.39-2.1-5.4-.85-.54-10.54-1.63-11.45-1.5-4,.57-5.91,5.15-9.85,5.2-3.29,0-4.17-3.47-9.2-2.65-8.25,1.34-10.52,10.87-20.55,10.43a75.31,75.31,0,0,1-15-2.18c-5-1.53-6.5-5.38-11.95-4.9-2.12.19-4.18,2.29-6.45,2.7-2.56.46-5.44-.53-8.25,0-2.16.37-3.58,2-5.95,2.15s-4.51-1.87-7.1-1.5c-4.68.67-7.94,7-10.9,8-5.77,1.85-2.85-2.09-5.1-4.1-1.58-1.41-3.73-.1-5.4-2.2-1.05-1.32.39-4.45-1.3-5.5-2.73-1.71-4.53,1.73-7.85,1.3-2.34-.3-3.5-2.88-5.15-3.2-2.13-.41-4.45.73-6.1.5-1.15-.16-1.88.77-3.65.2s-2.49-3.46-4.35-4.3c-7.84-3.53-22.57,3-27.8-4.8,5.37.3,3.27-2.06,5.65-4.13,1.73-1.5,4.43-2.67,6.65-4.47.9,2.54,2.07,1.79,1,4.8,3.18-4.23,8.27-2.63,12.3-3.5,0,0-.94-9.2,1.8-9.8-1.34-.44-2.57-1.84-4.2-2.3,5.91-5.5-12.17-3.77-13.5-8.9,1.61-.08,2.9-1,4.3-1.2a5.76,5.76,0,0,0-6.4-.3,13,13,0,0,1,0-1.4,21.26,21.26,0,0,0-4.8-1.1c.8,1.19.81,2.94,1.5,4.2a17.25,17.25,0,0,1-4.8.9c.29-6.24-3.91-10.26-3.7-16.3a5,5,0,0,1-1.7.2c3-.66,8-.47,9.8-2.2,1.24-1.18-.18-2.66,1.8-4.2-7.29-4.23-5.06-5.88-8.8-9.8,1.7-2.7,10.44-4.1,13.7-6.4,4-2.83,4.49-6.14,7.6-10.1-2.77-.29-3.3-1.36-5.1-3,3-1.19,5.93-2.46,8.8-3.9-3.33-2.64,1.12-16.61,3.15-21.15,1.53-3.41,6.23-5.37,5.55-10.65a1.23,1.23,0,0,0,.6.1c0,1-.08,1.56-.1,2.3,4.78-3.47,1.36-11.38,6-11.9l-.8-.6c2.47-1,1.2-1.25,3.8-1,2.14-1.85,8.77-14.33,1.5-12.5.06-.25-.07-.39-.4-.4.38-2.08,2.28-5.17,4.65-6.23,4.43-2,3.31-.49,5.15,4.63,2,5.5,2.74,7.85,5.4,10.1,11.49.19,7.68-12.5,16.4-16,1,7.85,9.43-3.49,6.9,7.6,4.33-2,7.08,1.33,10.2-.2,3.54-1.73,3.08-5.1,7-6,.33-.07,4-.78,4-.8.41-.22.9,1.73,1.8,1.3s1.95-2.63,2.6-2.9c.94-.39,1.82-2.48,3.7-3.1.74-.24,2.25,2.31,4.2,1.55,2.83-1.11,3.87-3.65,6.1-4.65,3.08-1.38,2.93,1.08,6.5-1.9,6.23-5.2,2.91-10.7,4.6-16.7,2.72-9.66,5.94-16,11.2-25.3,2,1.42,16.64-5,21.1-5.9-.06.24,0,.27.2.1-1.22,2.77-.69,4.21,1,5.9,1.9-1.65,5.75-2,8-1.9,1.08.06,9.3,1.65,9.35,1.7.22-.24.28-1.62.6-1.7,2,.52,3.7.57,4.7.8,1.4-5.87,4.84-4.92,8.8-7.1a12.34,12.34,0,0,1,1.9,8.7c-.19-.09,1.61.57,2,.7,1.45-2.34,3.27-4.38,2.9-6.4-4.47,6.92-4.16-10.09-1-13,2.37.21,2.85-2.74,5.8-1.8l-.1,2.1c3.14.08,4.34-2.15,4.1-5.3l.2,3c5.38-1.22,4.19-8.76,11.3-7.6.16-3.53,1-8.07,1.5-12.1-4.22-1-3.29-10.88-2.37-15.59,1.11-5.71,2.79-8.27,9.12-10.51,3.28-1.16,5.83,2.49,7.45-2.6,4,5.37,10.41-.8,14.65-3.25,1.51-.87,5.88-5.64,7.25-5.75,3.46-.29,4.54,3.85,8,2.9,2.88,5.16.63,7.21-.85,12.3-1.56,5.37,2.29,9.32.85,13.5,2.58-1.06,5.47.22,7.9.6,5.25,4.78,2.58,7-1.1,12.8-3.11,4.92-4.27,13.9-3.9,19.5,5.18.41,6.56,3.34,12.6-.7,2.41,5.25-3.13,14.67-6,19.8a17.25,17.25,0,0,1-5.15,5.9c-1.76,1.28-8.07,2.42-9.15,4-1.8,2.64-.94,4.56,3.05,4.8,2.79.17,4.51-2.53,6.9-4.2,4.53-3.16,10.49-5.33,14.5-8.9,1.42-1.27,1.78-1.68,2.9-2.6.47-.39-.75-2.07,0-2.6s3.46,0,3.82-.3c.89-.68,2.81-.54,4.18-1.6-4.82-3.75,3.51-5.24,5.3-8.1,2.66-4.24-.76-11.37,1.8-14.6.2,1.26,1.26,2.77,1.5,3.7,4.44-1.63,5.7-.08,7.6,1.8,2.65,2.63,1.78-.06,2.9,2.8.16.42-2.12,2.38-1.9,2.7,2.47,3.57,6.32,2.51,5.6-2.9a4.91,4.91,0,0,1,.7,2.1c7.79-1.1-11.33,21.92.1,21.3,0,.31-.36,1.38-.4,1.1,2.76.78,4.82-.62,7.2-1.9-.83,3.75-1.65,5.37-1.6,8.7,3.19.13,5.39,1.78,5.5,5.1,2.57-1,4.8-2.94,7-4.6,0,5,3.64,3.51,6.3,6.2,1.29,1.31,1.62,4.36,2.7,5.6,2.6,3,6.62,3.25,5.7,8.4,2.82-4.29,4.09-5.57,8.6.1.64-.76,1.82-1.17,2.5-2,3.83,5.13,11.51-1.44,12.4,1.5a26.51,26.51,0,0,1,6.2-1.9c-3.1,4.66-8.76,6.34-12,11-2.88,4.21-4.86,8.95-7.93,13.14-4.11,5.62-5.38,7.34-5,13.26,3-1.11,6.18-4.27,7.9-.3,3.19-3.46,4.52-.82,7.6-2.1,2.77-1.15,16.3-15.13,11.2-5.5A21.14,21.14,0,0,0,945.6,952.1Z"/></g><g id="HATCH-3" data-name="HATCH"><path class="cls-1" d="M515.7,666.5c-6.39-.09-8.48,1.77-13.25,5-5.07,3.49-7.41,3.53-13.75,3.2-4-.21-9.19-1.59-13-1-7.27,1-6.51,3.11-9.22,10.23-2.58,6.82-7.52,18.46-13.18,23.27-2.89,2.46-5.11,2.62-8,6-6.81,8.06-4.78,17-5.93,26.49C438.15,750,434,758.12,434,768.83c0,9.09-1,17.89-1.78,26.9-1.07,11.53.25,23.16-5.8,33.17-2.86,4.73-5.67,5-9.3,8.4-2.71,2.52-.39,5.05-4.9,5.6l.7-.8c-1.78,0-1.86.11-3.3,1.2.37.25,1.45.29,1.7.8-5,7.24-2.09,12.63-6,21-1.49,3.18-4.25,9.21-7.07,7.1-3.34,1.38-12.54,3.28-14.9,5.7-1.84,1.88-1,6.09-2.45,7.75-1.72,1.91-5.44,2.45-8.35,2.55.28-1,0-2.15.4-3.2-2.53.16-5.52-2.27-8.1-1.2s-2,3.14-3.3,4.3c-2.3,2-9.3,6.21-7.4-1.6-3.59.29-5.55,1.43-7,5.1s-.38,1.37,1.08,5.28c.84,2.25.63,7.4,4.32,7.32-.25,1.81,1,3.86.75,5.7-.6,4.34-1.42,2.23-2.55,4.1-.53.89-2.21,2.11-2.85,3.25-1.07,1.9-1.05,3.63.25,4.85-3.58,1.16-5.69,3.42-8.6,3.3-1.85-.08-4.48-3.58-7.2-3.2-2.31.32-1.37,2.42-3.1,3.1s-3.25-.27-5,.5c-3,1.32-3,3.19-6.8,3.5-.17-1.44-.6-2.37-.2-3.6a3.78,3.78,0,0,1-1.6-.2c4.06-8.69-8-2.87-11.7-4-3.26-1-3.77-4.18-7.7-4.5-.13.34.77.79.9,1.4-3.75-2.53,2.76-5-2.9-5.7,1.23-2-1.13-2.71-3.6-3.2,2-1.85-1.86-3.36-4-4.4-1.23-.59-3.87-1-4.9-1.7-1.39-1,1-2.36-.4-3-1.17-.52-2.81.93-1.95,1.25.06,0-2.7-1.28-2.55-1.25-2.75-.62-2.89-.88-5.4-2.2a31.18,31.18,0,0,0-8.85-3.25c-.12,0-1.31,1.25-1.95,1.25-1.39,0-1.6-2.47-2.7-2.6-1.68-.2-1.87,2-2.5,1.7-2-.88-2.18-2.64-4-3.6-1.46-.77-2,1-3.8-.4-1.54-1.2-.58-3.5-2.4-4.3-5.08-2.22-2.77,1.37-6.7-.2-3.52-1.4-7.86-7.33-10.35-10.25s-4.55-6.33-7.25-9c-.85-.84-6.92-4.55-5.8-2.95-2-2.9,2-1.43-.6-5.5-1.37-2.17-5.89-2.83-8-3.8-3.84-1.76-6.17-2.06-9.8-4.5-5.56-3.75-11.32-7.75-16.7-13.4a.39.39,0,0,0-.5,0c-3.63-2.87-11.56-7.66-12.5-12.2l1.5,1.1c-.27-3.7-4-5.1-2.2-8.1h0c.35-3.65-2.72-4.81-4.9-7.3-.59-3.82-1.87-10.83-5.5-13.6a.16.16,0,0,0-.2-.1.27.27,0,0,0-.3-.1c0,.32-.21.34-.4.3a2,2,0,0,1-2.4-1.3c-4-1.53-3.9-9.07-6.7-12.9-.23,0-.49.71-.8.7-.91-2-1.86-4.29-2.7-6.2-3.54-2.72-3.24-9.42-8.9-10.2-.32-.69-.77-1.55-1.1-2.1-1.21-2.94-2.92-6.64-4.7-8.3a2.55,2.55,0,0,1-.4-.5c-.17-.48-.4-.73-.8-.8l-.1-.1h-.2c0,.1,0,.13-.1.1h-.5c-.35-.1-.51-.63-.5-1.1a.34.34,0,0,1-.1-.3v.1a3.5,3.5,0,0,0-.3-1h-.1a3.53,3.53,0,0,0-.1-.6v-.4c.1,0,.13,0,.1-.1h.2c.1,0,.13,0,.1-.1h0c-3.69-5,.45-7.58-1.1-11.5l.8-.4c.57,1.28,1.14,1.6,1.7,3.2a2,2,0,0,1,1.6,0l.4.1a2.67,2.67,0,0,1,1.5.6c-.85-3.27.69-6.44-.3-9.6h0c0-.84.76-7.66-.4-9.5a9.11,9.11,0,0,1-1.3-.3c-.11.16-.22.3-.3.4,0-.12,0-.21-.1-.2h0a.16.16,0,0,1-.2.1h0a5.79,5.79,0,0,0-1.9-1,5.36,5.36,0,0,0-1.4-.2h0c-.65-.14-.94-.2-1.5-.3s-1.18-.24-1.6-.3c-1.94-1.14-3-2.79-2.2-4.7,2.72-3.2-.94-6.46.3-10.8,1.36-4.78,3.13-6.2,3-10.3-.19-5.86-1.33-4.33,1.2-9.6,1.62-.25,3.24-2.22.1-3.1-1.35-.38-2.25,1.07-3.25,1.15-1.6.13-4,4.75-3.83-1.4.08-2.35.7-2.74,3.08-1.85.15-1.93,1.42-3.46,3.6-4.5,2.32.05,4.56,1.09,5.3,3.8,1.7-1,3.09,0,4.2,2.2,1.73-3.33,6.64-7.1,9-9.55,6.2-6.31,5.79-7.81,7.05-15.65.7-4.35-.37-3.3,3.7-5.4,3.57-1.84,6.89-.36,8.8-1,3.46-1.16,6-10,5.6-13.6,6.17.11,4.49-5.21,7.8-8.9,4.21-4.7,13.24-14.94,18.3-16.25,4.43-1.15,4.42,1.12,8.5-1.25,2.14-1.25,4-3.79,5.6-4.6,6-3,12.6-4.36,15.7.4,5.45-2.19,13.18-3.42,18.5-4.2,3.65-.53,7.56.47,11.3.7,2.3.14,10.27,1.82,10.8,1.7,3.93-.89,5.25-4.47,6.22-7.6,2.11-6.73-1-7.71,8.19-9.78s9,0,10-7.87c.45-3.34,2.94-14.94,5.05-8.85,1.69-1.75,6.15-6.08,8.8-5.45,3.07.73,2.83,5,5.05,5.7,2.72.86,8-1.88,10.95-2.15,0,.32-.63.82-.7,1.2,6-.67,12.74-2.23,19.27-2.43,6.31-.18,8.64,1.43,10.73,6.63,4.94-1.48,12.8-1.14,17.85-1.35a54.88,54.88,0,0,0,15.85-3c-2.24-1.26-3.56-3.31-3.6-6.6,3.46-.08,12.24-5.76,12.9-9,.41.94,1.19,2,1.4,2.5-1.62-4.9-8.38-16.62-7.55-19.7s9.79-3.87,12.2-2.6c3.46,1.82,2.77,4.58,4.15,8.1,1.06-1.24,3-1.89,4-3.4,1.44,1.51,3.32,2.23,4.8,3.7,1.36-3.49.16-8.91.9-13.2,3.79,3.67,11.31,18,16,16.8a55.21,55.21,0,0,0,.3,7c2.65,0,6.16.26,7.9,2,.22-.73-.12-.75.2-1.4.43.58.42,1.08.9,1.7,2.35-.32,4.48-1.37,4.9-4,.94,3.85,4.32,5.41,6.3,8.8,2.73,4.67,3.77,10,7.2,15.7l-3,.4c4.22,6.6-6.68,13.07,6.8,16.3,4,1,6.63.41,10.85,3.55,3.93,2.92,3.59,6.69,6.65,9.25,5.87,1.14,4.1,4.94,5,7.6.32.93,3.72,5.15,4.4,7.4.87,2.88-2.27,7.2-.1,11,.82,1.45,4.95,3.37,6.5,5,1.81,1.9,2.57,3.86,4.15,6.25C498.75,651.45,515,658.51,515.7,666.5Z"/></g><g id="HATCH-4" data-name="HATCH"><path class="cls-1" d="M1024.7,668.3c-.35,4.76-3.4,13.93-7.2,16.9l-.3-1.9c-1.66,1.05-4,3.78-5.4,4.25-2.55.84-5.57-.68-8.25,1.6-8.14,6.91-.81,16.89,2.35,23.75,4.44,9.63,1.09,19.69,4.2,29.65,4.14,13.24,2.45,23.61-4.2,35.75-5.33,9.74-4.92,18.09-6.75,28.8-1.52,8.91,1.91,14.73-2.25,23.3-3.5,7.22-5.34,15.59-13.4,17.1-1.29.24-3.19-4.73-6,1.65-1.45,3.29.93,6-.55,9.35-1.84,4.25-6.1,4.68-9.35,7.45-2.42,2.06-8.49,7.53-9.6,10.55-2.08,5.66,1.35,2.59,4.7.1,3.83-2.85,6.1-7.56,10.1-9.9-1.23,5-5.3,10.87-7.4,13.7-3.72,5-7.68,8-10,14.2a35.89,35.89,0,0,1-6.72,12.1c-2.19,2.71-8.91,10-5.9,12.4-3.4,1.61-7.35,1.83-10.8,3.4-.89-3-8.56,3.63-12.4-1.5-.69.84-1.84,1.24-2.5,2-4.44-5.69-5.81-4.39-8.6-.1.89-5.17-3.14-5.39-5.7-8.4-1.07-1.26-1.38-4.3-2.7-5.6-2.61-2.58-6.47-1.23-6.3-6.2-2.2,1.66-4.43,3.61-7,4.6-.11-3.32-2.31-5-5.5-5.1,0-3.36.75-4.91,1.6-8.7-2.36,1.27-4.45,2.69-7.2,1.9,0,.25.44-.77.4-1.1-11.52.6,7.78-22.34-.1-21.3a4.91,4.91,0,0,0-.7-2.1c.7,5.4-3.11,6.5-5.6,2.9-.23-.33,2.07-2.26,1.9-2.7-1.06-2.71-.43-.36-2.9-2.8-1.93-1.91-3.1-3.48-7.6-1.8-.26-.86-1.31-2.51-1.5-3.7-2.58,3.18.8,10.36-1.8,14.6-1.71,2.78-10.21,4.46-5.3,8.1-2.68,2.07-5.56,1.25-8.2,3.1.61-.42-1.84,3.19-1.65,3-3.59,3.72-9.51,5.59-13.88,8.7-1.54,1.1-15,10.48-13.07,1.9.59-2.64,12.78-6.22,15.1-9.45,3.23-4.49,8.79-17.21,6.7-21.55-6.1,4-7.41,1.24-12.6.7-.64-5.47.93-14.7,3.9-19.5,3.62-5.83,6.38-8,1.1-12.8-2.43-.38-5.32-1.66-7.9-.6,1.41-4.25-2.42-8.09-.85-13.5,1.43-4.91,4-7.36.85-12.3-3.53,1-4.31-3.19-7.75-3.05-1.36.05-6,5-7.5,5.9-4.26,2.46-10.6,8.59-14.65,3.25-1.69,5-4.09,1.54-7.45,2.6-6.34,2-8,5-9.12,10.51-.94,4.73-1.84,14.6,2.37,15.59-.5,4.08-1.34,8.54-1.5,12.1-7.09-1.15-5.93,6.34-11.3,7.6l-.2-3c.27,3.16-.92,5.42-4.1,5.3l.1-2.1c-3-.88-3.4,2-5.8,1.8-3.16,2.91-3.47,19.92,1,13,.06,2-1.46,4.08-2.9,6.4-.48-.14-2.05-.72-2-.7a12.29,12.29,0,0,0-1.9-8.7c-3.94,2.19-7.43,1.24-8.8,7.1-1-.21-2.75-.27-4.7-.8-.41.36-.25,1.34-.6,1.7-4.08-4.31,4.48-6,5.7-8s.85-4.62,2-7.2c2.21-5,4.22-7.11,4.5-12.8.2-4.08-.61-8.54.7-12.6-1.61.78-3.7.59-5.3,1.4.22-4.88-2.91-9.19-2.4-14.2-2.22,1.64-4.41,3.33-6.6,5l-.5-2.4a19.4,19.4,0,0,0-6.6,4.4c.14-3.12-1.09-5.84-3.3-8.9a52.57,52.57,0,0,0,7.2-4.47c2.2-1.64,3.2-4.46,5.6-3.53.36-1.34,1.64-2.8,1.9-3.9l1,2.6c.18-.38,1.93-4.72,1.8-4.6,4.25-3.94,4.21,1,5.33-6.72.44-3,.2-6.32-.83-11-1.49-6.78-1-13.71-2.7-20.45-.81-3.24-1.83-6.05-1.8-8.15,0-2.73,1.17-7.38,1.15-11.05-.06-8.46,4.23-12.86,3.35-21.75.57,1.38,2.13,2.35,2.9,3.6,8.39-5.37,11.88-19.36,10.5-28.5-1.17-7.73-.7-7.42,3.75-14,2.84-4.2,4.8-9.85,6.52-14,2-4.68,9.27-8.46,7-14.52,3.87.54,5.62-4,5.4-6.9-.93,1.07-2.49,1.54-3.4,2.6a91.14,91.14,0,0,0-1.9-9.5c5.93-.68,7.94-7.4,12.1-9.9.27.79.55,1.5.9,2.3,3.53-1.7,3.8-2.86,5.9-6.55.51-.89-1-2.57-.2-3.75,1.42-2,3.94-1.72,5.1-2.5,5.09-3.42,11.47-6.08,16-8.2,5.37-2.51,7.88-5.71,11.7-9.2,2.28-2.09,10.83-12,14.3-11.7,4.26.33-1.23,2-.1,5.1.9,2.47,11.51,6.9,14.3,3.9-.69-1.44,1.74-4.19,4.5-6.1-.14,1.46.41,1.76,0,3.2.83-.75,2.3-1.33,3-2-.54,1.94-.4,4-1.1,6,3.56-.85,4.68-9.42,5.9-13,4.86,3.14.74,15.23-1.2,19.7,4.76.67,8.62,3.9,13.5,4.8a6.17,6.17,0,0,0-1.2-1c2.9-5.39,8.54-3.65,10.9-4.2.23.63-.12,1.12.5.9-.11,0,.18-1,.2-1.1a6.74,6.74,0,0,1,.7,1.5c3-2.34-1.23-6.82.3-9.8,1.15-2.24,10.51-6.48,12.7-7.4a36.17,36.17,0,0,0,13.7,17.2c1.79,1.18,3.51-1.65,4.8,3-.49.42-.63-.62-1.2-.4a6.41,6.41,0,0,0,.3,1.4c.6-.35.39-.09,1.3.1-.24.11-.8.28-.5.7,0,0-.37-.58-.4-.6,0,3.56,2.54,6.45,5,8.2-5.86-.76-.56,7,1.1,7.8-.87.61-1,2-1.9,2.5.7.25,1.23.44,2.2.7-.5,1.73-.57,2.3-1.1,2.8a14,14,0,0,1,.4,2.6c.45.19,1.19-.35,1.7-.3-.16,1.23.19,1.46.3,2.4,4.07-.22,11.09-.78,15.25-3.3,5.13-3.1,5.67-10.35,12.35-9,.31-2-.4.36.7-1.7-2.8-5.1-6.26-9.4-9-14.4,3.42-1.31,7.87,1.26,8-2.1,4.6,2.05,10.22,1.87,14.7,4.2-4.3-8.28-3.47-5.66,3.17-8.8,3.31-1.56,8.85-5.37,7.43-9.4a.94.94,0,0,0,1.2,0l-1.1-1.1c.49-.24.86-.08,1.1.5a.77.77,0,0,1,.3-.9,45.15,45.15,0,0,1-5.8-6c4.24-.54,7.29.28,11.3,1.2l-.9-1.3c7.58,2.5,6.44,6.74,9.55,14.45,2.52,6.24,7.57,10.1,10.35,15.05,3,5.34,5.54,9.26,7.7,14.3C1019.52,655.12,1024.19,661.51,1024.7,668.3Z"/></g><g id="HATCH-5" data-name="HATCH"><path class="cls-1" d="M644.1,339.9c-4.31,1.17-13.28-1.45-15.9-6.1a1,1,0,0,1-.7.2c4.52,7.63,7.76,12.49,16.4,19.4a7.53,7.53,0,0,0,1.2,3c-4.14-3.11-9.24.23-2.9,4.7a28.1,28.1,0,0,0-5.3-2c2.14,3,3,4.56,6.8,7-1.17-.27-2.81-.08-4-.3,3.67,6.95,14.63,10.92,15.9,19.2-6.35,4.06,5.52,11.06,4.7,15.5-2.71.07-6.45-2.79-8.9-2.75s-4.27,2.11-6.6,2.75c.37-.3.42,1.27.4,1.4a4.87,4.87,0,0,0-3,.5c2.81,3.62,5.36,6.51,8,9.6a13.19,13.19,0,0,1-1.8-.3c.47,1.82-.08,1.51-.45,2.65.08-.23-1.63,6.78-.25,5.75-2.31,1.73-14-3-15.2-5.4-5.85,2.86,2.75,22.08,6.9,25.8-1.88-.25-2.92.56-4.3.6-1.34.85-2.85,1.25-4.3.3.77.51-3.23-6.81-3.6-7.55-1.74-3.47-2-7.34-3.82-11.28-3.65-7.72-8.54-5.62-13.68-10.67-2.75-2.7-2.43-5.1-5.07-9-2.87-4.26-4.17-3.69-2.23-8.18.55-1.27-1.42-1.65.6-3.25,1-.83,4.34.78,5.8.25,3.1-1.12,6.77-5.24,3.9-9.3,2.67,1.57,4.95.75,7.6.2a50.36,50.36,0,0,0-5.2-5.8c1-.09,1.79-.79,3-1.1-2.81-5.79-8.53-9.59-12.8-14.1s-13.45-18.76-21.1-17.4l1.2.9a11.44,11.44,0,0,1-2.6-1c.05.51.89,1.54.9,1.7l-1.3.1,5.3,4.4c-3.09.29-10.52-2.19-12.7-4.1,2.51-1.18,2.09-2.11,2.8-2.5-4.51-3.7-6.72-2.35-11.42-3.38-3-.66-4.82-3-8-2.12.3.47-.1.35-.3.5,1.13,1.54.45,1.32,1.4,3a24.15,24.15,0,0,0-8.2-.4c-1-3-12.57-5.18-15.8-5.6-1.47-.19-10.51-2.92-5.1,1.3-5,3.28-13,1.25-16.9-5.2-.68.68-2.16,1.7-2.6,2.2,0,.24.13.24.5,0-4,2.67-1.79,4.7-6,6.9-2.7,1.41-9.77,2-12.12.05-1.12-.92.44-3.37-.78-4.85-.73-.88-3.29-1.38-4.55-2.9-1.83-2.21.18-3.25-1.35-4.2-1.89-1.17-6-.87-6.7-1.3a.66.66,0,0,0-.7-.2c-1.76,3.33-.43,4.95-2.5,7.3-2.52,2.85-7.75,3.89-9.8,4.1-6.44.66-10,3.12-15.9,1.7-.11.22.66.21.3.7a2.86,2.86,0,0,0-2.1-.3c0-.05.73-.36.5-.5-2.54-.2-6.36.16-7.1-2.1a1.09,1.09,0,0,0-.5-.1c-.33.15,0,.53.1.7-.79,0-1.59-.55-2.6-.5,0,0,0,1.78,0,1.7a8.64,8.64,0,0,1-7.1-4c0,.14,0,.14-.1,0a.56.56,0,0,1,.3.6c-.94-.34-.46-.37-1,.2-2.32-.58-2.25,2.61-3.6,1.3-4.38,0-8,1.07-10.6.8,1.33,1.87.13,1.19.5,3.1-2.32-.83-15.53,1.16-16.8,4-1.34-.85-.79-.05-.6-1.1-.31-.2-1.13-.13-1.3-.5a.32.32,0,0,0,.2-.4c.05,0,.7.21.7.2.62-.57.44-1.12,1.9-1.4-.55-1-.6-.64-.9-1.6,0,0,.77.27.8.1-.1-1.11-.34-.64-.3-1.2,2.14-1.28-1.34-4.41,1.9-4.8,0,0-.52-.55-.7-.5.23,0,.26-.1.1-.2,2.74-1.86-2.09-3.07-3.3-6.5a28.62,28.62,0,0,1-12,5.4c0,3.34-5.53,2.09-6.5,4.4a14,14,0,0,0-8.9,4.6,1.77,1.77,0,0,1,.7.6c-4.58-1.32-6.79-5.13-11.5-6a8.51,8.51,0,0,0-2,.3c0-.42.59-1.07.5-1.5-.5-.31-2.26-.77-2.8-1.2l.7.8a30.9,30.9,0,0,0-4.9.1c-.57,4.62-11.06-2.42-13.9-4.1-6.64-3.92-9.57.15-18.2.55-1.28.06-2-1.19-3.1-1.15-1.44.06-3.83.75-5.79.8-4.37.12-9.1.08-14.42,1.51-3.71,1-21.56,5.34-17.59,8.49-4,2.78-3.86-.7-7.27-.68-2.75,0-4.18.47-6.83.38-.43,0-6-.62-5.1-.6-3.58-1.38-8.46-1.54-10.6-5.4a9.67,9.67,0,0,1,2.2-.8c0-.07-.66-.6-.8-.5,2-.44,3.89-1.41,5.8-2-.8-1.32.27-1.35.3-1.9,6.68-5.39,1.52-2.12.7-7.45-.41-2.67.75-4.83,4.5-4.25,2.19.78,5.45-.78,8.5-1.5a4,4,0,0,0,2.1-1.1,1.07,1.07,0,0,0,.5-.3,2.38,2.38,0,0,0,1.1-.7,3.94,3.94,0,0,1,2.6-1.6c2.48-1.72,1.71-4.46,6.3-5.2v-.2c-2.8-1.2-8.09-.62-8.2-4.2-2.84-1.14-6.34.81-8.2-.9,0-.14-.06-.21-.2-.2-.79-.33-1.25-.27-1.6-1,4.88-.86,5.75-4.91,2.6-8.2h0v-.1h0c1.46-.69,2.29-1.59,2.2-2.5h-.1c-3.75,1.65-5.48-1.14-6.4-4.3-11.44-2.37-21.17,5.37-32.15,1.55-1.86-.65-3-1.38-4.85-1.95a25.56,25.56,0,0,0-7.2-1.5c-3,0-2.67,1.24-5.6,1.7-5.3.83-8.55-2.51-14.2-2.9-4-.28-8.8-.47-12.1-2.7,6.41-3.84,7.9-4.93,10.2-11.4h.4c2.39,1.07,2.88,5.52,5.8,4.2.1,0,.13,0,.1-.1s.13,0,.1-.1h.6a.61.61,0,0,1,.2.3c.51-.06.8-.27.9-.6a.35.35,0,0,0-.1-.4,2.8,2.8,0,0,0,.5-1.1q-.21-.18,0-.3c-.12-.32,0-.61.4-.8a2.41,2.41,0,0,0,1.5-.1c.77-.12,1.37-.56,1.4-1.2-.16-.59.2-1.06.8-1.4a.9.9,0,0,0,.5-.1h.2a.9.9,0,0,0,.5-.1,6.78,6.78,0,0,0,3.1-2.2,5.28,5.28,0,0,0,1.8-.2.81.81,0,0,0,.8-.2h.2l.3-.2h0a2.2,2.2,0,0,1,1.3-.5c1.69-1.47,4.66-2.18,7.4-2,2.45-.68,3.89-2.18,6.2-4-1.64-1.31-3-3-4.8-4.2.39-1.06.79-1.43,2.2-2,.8-.18.82.45,2-.4-2.67-3.89,8.12-3.6,12.1-4.4,3.06-.62,5.9-1.76,9.45-1.85.89,0,6.29.07,6.75.25,1.43.56,1.26,3,2.25,3.4,8.38,3.41,18.19,2.81,27.55,3.7-.61,4.1,5.62,13.19,9.5,15.2,5,2.57,16,.46,21.95.58,1.71,0,6.57,1,7.95.22,1.77-1,1.38-3.74,2.95-4.85,2.91-2.06,7.5-3,10.65-4.95,1.49,7.19.65,8.09,7.44,9.3s14.34.12,21.16-.5c10.06-.91,20-2.44,30.1-3.3-5.58-4.32-4.68-8.11-6-13.65-1.06-4.48-6.94-10.24,1.4-12.25-2.74-2.34-3.77-4.37-6.9-5.7,1-1.49-.67-.59,1-2.6-2.39-1.4-11.68-5.36-10.83-7.6,1-2.65,3.64-2.34,6.43-1.4,5.5-.85,12.36.62,14.8-6.2,1.07-3-1.58-2.46-1.2-4.2.33-1.52,2.56-3.52,3-5.7-.6-1.59-5.21-2.78-5.6-4.2-.17-.59,2.68-3.21,2.9-4,2-7.63,1.24-4-4.2-10.05,7.55-3.26,11.93-11,19.4-14.4h.1a1.75,1.75,0,0,0,.9-.3h.1c2.9-1.2,4.44-2.07,7-1.4h0c2.89,1.36,6.7,2.29,8.6-.7,4.37,5.45,1.06,11.2,10.5,12.8,8.52,1.44,10.15-1.82,16.3,5.1,7.69,8.65,16.08,15.3,21.7,25,3.48,6,3.89,7.14,9.75,10.4,4.72,2.62,9.87,2.92,13.45,5.8s3.09,6.67,6.6,10c5.84,5.55,6.13-.62,13,1.5,4.06,1.25,9.12,7,13.35,9.25,3.89,2.07,7.93,4,11.55,6.45,5.61,3.73,9.26,3.68,15.5,5.5a.16.16,0,0,1,.2.1,25.38,25.38,0,0,0,4.1.2h.3c3.58.05,5.26,3.11,8.5,3.6,3,.45,5.48-1.39,8.4-1.3,3.28.1,6.15,1.47,9.5,1.5,3.78,0,7.24-1.25,11-.7,14.1,2.05,8.89,15.83,10.2,22.9.28,1.49,1.83,3.44,2.2,5.2.44,2.09-.21,4.08-.1,6.2.21,4-.86,4.88,3.3,8,2.46,1.84,7.69,2.36,9.8,4.7,1.85,2.05,2.42,9.71-1,11.2,7.48,1.88.22,5.27,1.5,9,.53,1.56,6.18,4.18,7.6,5.07l.1-1.5C641.62,337.51,643.07,338.58,644.1,339.9Z"/></g><g id="HATCH-6" data-name="HATCH"><path class="cls-1" d="M456.7,371.9c-4.89,4.42-9.15,2.55-13.45,6.35-5.82,5.16-.83,11.76-3.65,18.55-.33-1-.91-2-1.2-3-2.85,10.75.31,23.12.4,35,0,5.73-.05,11.9,0,18.9.06,8.61-2.67,14.42-1.9,23.3.51,5.86.19,18.55,5.6,22.4-.84.37-1.3,1.66-1.8,2.1h-.4c-.1,0,.08-.49-.2-.5.16-.16.16-.23,0-.2,1.22,7.68,1,14.26-1.55,20.5-.9,2.19-1.9,6.28-3.75,6.1-2-.2-4.12-5.79-4.3-7.6-.24,1.59-.91,3.1-1.2,4.7-.19-9.18-9.89,2.69-14.4,4.48-1.69.66-4-1.11-5.17.2-1,1.14-.57,5.56-.68,7.17-.29,4.25,1,10.73-.45,14.45-1.49-1.46-3.36-2.19-4.8-3.7-1.06,1.44-3,2.17-4,3.4-1.21-3.12-.69-6.48-3.9-8.2.15.08-5.78.58-5.2.5-1.71.24-6.15-1.87-7.25,2.2-.83,3.06,5.94,14.82,7.55,19.7-.19-.46-1-1.59-1.4-2.5-.66,3.24-9.44,8.92-12.9,9,0,3.25,1.37,5.4,3.6,6.6a51,51,0,0,1-15.85,3c-5,.22-12.91-.12-17.85,1.35-2.41-5.11-4.17-6.77-10.73-6.63s-13.32,1.71-19.27,2.43c.07-.4.68-.85.7-1.2-2.92.27-8.23,3-10.95,2.15-2.22-.7-2-5-5.05-5.7-2.65-.63-7.11,3.7-8.8,5.45-2-5.86-3.93,3.56-4.4,6.6-1.08,7,.09,7.46-5.9,8.8-2.44.55-6.7,1-8.85,2.3-4.26,2.51-2.39.93-3.7,5.45-.95,3.27-.16,7.87-4.62,10-4.11,1.94-15.53-1.81-21.5-1.52s-15.1,1.86-21.13,4.3c-4.05-4.17-8.79-3.73-15.6-.4-1.65.81-3.53,3.34-5.7,4.6-4,2.35-4,.21-8.5,1.25-4.94,1.13-14,11.48-18.1,16-3.45,3.79-1.79,9.25-8,9.15.29,2.46-2,12.56-4.5,13.6-1.95.81-5.64-1.07-9.2.2-8.29,3-2.69,13.37-10.3,21.2-2.79,2.87-8.17,6.29-10.2,10.2-1.12-2.2-2.51-3.16-4.2-2.2-.74-2.72-3-3.75-5.3-3.8-2.15,1-3.45,2.6-3.6,4.5-2-.74-3-.6-3.1,1.3-.52,6.63,2.15,2.09,3.85,1.95.92-.08,1.87-1.58,3.25-1.25,3.1.74,1.54,3-.1,3.2-2.65,5.52-.8,5.48-1,11.2-.17,3.83-2.84,7.71-4.15,12.1h0a3.72,3.72,0,0,1-2.5,2.6v.1h0v.2h0a.34.34,0,0,0-.1.3h0c-.06.2-.11.34-.2.6-.22-2.41-1-4.51-2.2-5.1a.92.92,0,0,1,.3-.7h0l.1-.2.1-.1v-.1h0v-.2a2.32,2.32,0,0,0,0-1.2,2.35,2.35,0,0,1-.1-.6h0v-.2c-1.27-3.09-3.16-7.11-5.2-9.1a.41.41,0,0,1-.3-.5v-.2h-.5a4.35,4.35,0,0,1-.4-4.2,5.54,5.54,0,0,1,1-3.6,11.34,11.34,0,0,1,.4-1.6,7.56,7.56,0,0,0,.3-3.4,18,18,0,0,1-2.5.3.38.38,0,0,1-.3.1c-1.06-.31-1.37-1-1.2-2.1h0a4,4,0,0,1-.1-1.2c.09-2.09.25-4.68.4-6.3h.1l.1-.1h0c.09.14.12.14.1,0h0c0-.14,0-.14.1,0h.1v-.1h0v-.1h0v-.1h0v-.1h0c.1,0,.13,0,.1-.1h0v-.1h.1v-.3h.1c.12,0,.13-.08.1-.2h0a.16.16,0,0,0,.1-.2h0a16.21,16.21,0,0,0,3.8-1,5.31,5.31,0,0,0,1.2-5.3v-.1h0V667h0c-.1,0-.13,0-.1-.1v-.8a3.25,3.25,0,0,1,.8-2.6c-.32-1.74.12-3.2,1.6-3.7h0a.43.43,0,0,0,0-.4h0v-.5h0v-.2l-.1-.2h0v-.3h0c0-.1,0-.13-.1-.1V658h0v-.1c0-.1,0-.13-.1-.1h0v-.1c0-.12,0-.21-.1-.2h0v-.1h0v-.1c-.1,0-.13,0-.1-.1h0v-.1h0v-.4h0v-.1h0v-.1c-.14,0-.14,0,0-.1v-.1h0V656h0v-.1h0v-.4a.27.27,0,0,0-.1-.3h.1c-.1,0-.13,0-.1-.1v-.2h0a.16.16,0,0,0-.1-.2h0c-.14-.09-.14-.12,0-.1h-.1a.23.23,0,0,0-.2-.2h0c-1.16-.25-1.59-.94-1.3-2.4h0l-.1.1a1.33,1.33,0,0,0-.5.1h-.1c0-.1,0-.13-.1-.1h0c-.07.1-.12.07-.2,0h0c-.05-.18-.08,0-.1.1h0c-.11-.11-.14,0-.2.1h-.1a.16.16,0,0,0-.2.1h0c0,.12-.11.18-.2.2H109l-.5.4a4.37,4.37,0,0,0-.4-1.3H108a.81.81,0,0,1-.3-.5h0a2.37,2.37,0,0,0-.4-.7,3,3,0,0,1-.4-.4h0a.23.23,0,0,0-.2-.2l-.1-.3c0-.1,0-.13-.1-.1h0v-.1a2.31,2.31,0,0,0-.9-1.9h-.2a.23.23,0,0,1-.3.1s-1.26,0-1.6-.1c.48-1.91-.48-1.08-1.4-1.6a.3.3,0,0,0-.2-.3.27.27,0,0,0-.1-.3,1,1,0,0,1-.1-.4v.1c0-.4-.1-.44-.3-.2a13.71,13.71,0,0,0-.9-4,2,2,0,0,1-.7-.7h0a1.65,1.65,0,0,0-.7,0h-.5a5,5,0,0,0-.7.2h-.1a.62.62,0,0,0-.7,0h0a.16.16,0,0,1-.2.1,1,1,0,0,1-.9-.1,1.1,1.1,0,0,1-.6-.1h-.3a1,1,0,0,0-.3.2h-.3a1.26,1.26,0,0,1-1.1-.1h-.1a.38.38,0,0,0-.3-.1h-.2l-.3-.1a6.39,6.39,0,0,0-.7-.3c0-.1,0-.13-.1-.1a.89.89,0,0,0-.4-.2.16.16,0,0,0-.2-.1,1.92,1.92,0,0,0-1.1-.1h-.3a.16.16,0,0,0-.2-.1,1.6,1.6,0,0,0-1.3-.8.58.58,0,0,0-.5-.1.77.77,0,0,0-.4.1h-.1a1.31,1.31,0,0,1-.5-.2h-.2a.23.23,0,0,1-.2.2c0,.1,0,.13-.1.1a2.85,2.85,0,0,0-.9,1.9.87.87,0,0,1-.7.1c0,.1,0,.13-.1.1a4.14,4.14,0,0,1-1,.8h-.1a.45.45,0,0,0-.4.1,1,1,0,0,1-.2.3.82.82,0,0,1-.8-.3.77.77,0,0,0-.4-.1h-.3l-.1-.1h0l-.3.1h-.2l-.3.1h-.5a.3.3,0,0,1-.3.2c-.36.26-.59.44-.9.7a1.21,1.21,0,0,1-.9.2,10.45,10.45,0,0,1-1.5.3.39.39,0,0,1-.4.1c-.66,2.19-1.6,3.59-3.3,3.2h-.1a2.17,2.17,0,0,0-1.1-.5c0-.1,0-.13-.1-.1h0l-.2.2c0,.1,0,.13-.1.1h-.3a12.61,12.61,0,0,1-1.2,2.1,1.75,1.75,0,0,1-1.7-.4h-.2c0,.43-.33.54-.8.4h-.1a.75.75,0,0,0-.7-.1h-.5a.49.49,0,0,0-.3-.3c-.23-.39-.49-.49-.7-.4,0,.1,0,.13-.1.1h-.1a.3.3,0,0,1-.3-.2.16.16,0,0,0-.2-.1v-.1h0a.16.16,0,0,0-.2-.1.16.16,0,0,1-.1.2h-.8c0-.1,0-.13-.1-.1h-.1a2.62,2.62,0,0,0-.2-.6,9.26,9.26,0,0,0-.3-1.5c0-.12,0-.21-.1-.2v-.1c.1,0,.13,0,.1-.1v-.1c.14-.09.14-.12,0-.1,0-.1,0-.13-.1-.1h-.1c-.4.21-.5-.05-.6-.4a2.56,2.56,0,0,1-.6.3,1.42,1.42,0,0,1-.4-1.5c-.64-1.48-.13-2.4,1.5-2.4a.81.81,0,0,1,.6-.6,8.31,8.31,0,0,0,3-5.6c2-1.3,2.48-4.26,4.2-5.3h0a3.63,3.63,0,0,1,.1-.8,2.38,2.38,0,0,1,.3-1.2,2.15,2.15,0,0,0,.7-1.5c1.65,1.46,1.26,0,2.4-.4,1.83-.88,3.42-8.23,3.7-11a4.22,4.22,0,0,0,.7-2.6,6.92,6.92,0,0,1,.6-1.7h.1c.6-1,1.4-1.5,2.1-1,0,0,.29.81.4,1.1a1.69,1.69,0,0,1,.6-.6c.06-.24,0-.43-.2-.5-.11-.23-.11-.4.1-.5h0c.21.07.26.26.2.5s.17.59.6.3c.11.06.14.21.1.4h0c.23-.25.33,0,.4.3l.1.1a6.33,6.33,0,0,0,.3-.9c-.26,1.32-.09,2.17,1,2.5a3.81,3.81,0,0,1,1.2-2.7h.4c-.35-.7-.13-.87.4-.7a.55.55,0,0,1,.4.5c.88-1.48.44-2.85,2.6-1.9.12-.47.18-1.4.5-1.6-3.72-7.69,5.13-5.12,5.7-5.7,1.65-1.67.65-4.65.8-7.3.31-5.38.41-12.28,2.8-17.1,1.29.83,1.84,2.46,2,4.4-.32,2.81,1.29,3.74,4,2.2,1.78-.67,3.63.31,5.3,2.2.38-1.16.72-4.51,1.7-6.5.6.81,1.52,1.55,2,2.3a.6.6,0,0,0,.4.2,1,1,0,0,1,.4-.7c.1,0,.13,0,.1.1l.1-.1h0l.2-.1a4.93,4.93,0,0,0,.4.4,1.31,1.31,0,0,1,.5,1.2h0l1,2.4c.14,0,.14.07,0,.1.19.4.5.25.9-.4h.1c1.49.61,2.79,0,4.1-1.3a4.42,4.42,0,0,1,.5.1.74.74,0,0,1,.5-.2c4.45-1.51,3.76,4.81,8.1,5.8a6.43,6.43,0,0,1,2.8-.1h0a22.39,22.39,0,0,0,.9-4.9c.23.2.39.23.4-.1h.1a.52.52,0,0,1,.4.2h0c.14-.53.28-.37.4.1a5.56,5.56,0,0,1,1.3,1l.2-.1c.31.45.5.12.6,0a3.69,3.69,0,0,1-.1.5l.1.1c.4.11.5.39.4.8h0a.72.72,0,0,1,.4.6h0l.2.1a.5.5,0,0,0,.2-.3c.18,0,.29.14.3.3h0c.17-.09.14-.29,0-.5l.1-.1a1.82,1.82,0,0,0,1,.4.16.16,0,0,0,.1.2l.2-.3a.39.39,0,0,1,.3.4.74.74,0,0,0,.5-.2c.12,0,.13.08.1.2a1,1,0,0,0,.7.8.16.16,0,0,1,.2.1h.2c.07-.07.17-.17.2,0s0,.21-.1.2-.16.18,0,.2h.2v.2h.1l.5-.5a.83.83,0,0,1,.3.4,1.77,1.77,0,0,0,1.5-1.5c.06-.11.21-.14.4-.1a4.35,4.35,0,0,0,.1-1.4l.1-.1a.88.88,0,0,0,1.1.2c.23,0,.27.15.2.4a2.59,2.59,0,0,0,1,.4,11.87,11.87,0,0,0,2-1.4h.1a.39.39,0,0,0,.1-.4h0c.64.52.84.23.8.3,0,.29.12.1.2,0,.16.1.19,0,.2-.2.14,0,.21.06.2.2l.1.1h0a.16.16,0,0,1,.2.1c.86-.34,1.12-1,.8-1.5h0a1.85,1.85,0,0,1-1.5-.6,1.09,1.09,0,0,0-.4-.6,5,5,0,0,0-4-1.9,3,3,0,0,0-.6-1.2,3.25,3.25,0,0,1-.8-1.1h-.1a2.22,2.22,0,0,0-.9-1.4,18.06,18.06,0,0,1-.6-2.7c-.07,0-1.48.85-1.4.8-.57-2.66-2-4.29-3.7-4.7-1.67-.81-3.3,1.86-4.8,4.1-3.19-2.74-2.77-7.28.2-8.8h0c3.08-1.38,5.64-1.58,7.5-3.8,3.2-.78,16.62-3,17.6-8.1.78-4-5.28-5.65-8.4-6.4-2.73-.66-5.43,2.62-4.9-2-.75.19-1.47.5-2.2.7-1.93,0-2-1.63-1.2-3.7,0-.14,0-.26.2-.4v.2h0c1.23-1.91.35-3.56-1-4.7-.07,0-.62.31-.9.3-.72-5.07,2.56-5.08,4.1-9.7.22.57.63,1.43.9,2.1,1.6-.44,2.53-2.43,2.7-2.5-2.5,1.05,4.69-4.14,3.8-3.15,1.08-1.2,2.55-.79,3.55-2.1.44-.58-.16-1.89.25-2.45,1.49-2,.12-2.89,1.9-4.5,4.95-4.48,13.66-.07,13-9.9-3.87-.46-1.32-3.78-3.9-5.3-2.22-1.3-4.92-.47-7.82.15-5.31,1.13-9.43,4.5-14.28,5.75-2.17.94-3.18.82-5.1,1.1a20.07,20.07,0,0,1-1.4-1.8c.17-5.85,4.48-7.62,5.7-12.6.92-3.77-1.45-8.77-1.2-12.7-2.09.47-5.5,3.22-8.8,3.4l-.1-.1c-2.14-3.56-1.81-6.76-1.9-10.9h-.1c.2-1.26.61-2.92,1.6-3.7a14.28,14.28,0,0,0,.1,1.7c3.53-2.54,5.51-3,6.65-7.5,1.47-5.79,2.64-10.6,4-17.3a14.51,14.51,0,0,0-3.6-.1c1.18-1.41,6.39-3.11,7.68-3.5,2.83-.87,3.19-2.62,5.62-.7,1.57-2.39,3.83-4.33,5.9-6.4-.74-2.3-.1-6.34,1.6-8.8h.1c.32-.22.62-.29.9,0,5.63-1.73-.86-19,.6-24a4.18,4.18,0,0,0-.3-.6,1.9,1.9,0,0,1-.4-1.5h-.1c1-1.19,1-2.19-.1-2.8-2.32.91-4.12.33-3.8-2.4a3.22,3.22,0,0,1-1.8-1.4H157c3.3-3.47,10.84-6.29,10.3-11.6,0-.12-.08-.13-.2-.1,0-.1,0-.13-.1-.1-.08-2.1,3.61-4.5,3.2-4.3H170c.15-.22.17-.41-.2-.4h0c.19-.08.08-.15-.1-.2h0v-.1c.31-.4.31-.64.1-.8a3.35,3.35,0,0,1-.6-3.1c.26-3.09,3.16-4.86,6.1-6.2h.2a.45.45,0,0,0,.4-.1,2.81,2.81,0,0,0,.6-.3h0c.48.08,1.15.17,1.4.2,2-.33,4.86-1,5.5-.5,1.58.3-2.67,2.05-1.8,3.2a19,19,0,0,1,1.6-1.1c-.74,1-.78,1.21-1.4,2.1,1.09-.7,2.12-.87,3.2-1.6-.45.87-.72,1.88-1.2,2.7,2.54-2,6.81-3.86,6.5-6.7,3.52-2.68,9-6.16,13.4-5.2a1.41,1.41,0,0,0,1.6.1c3.91-1.54,9.16-1.49,12.1-4.2,0-.13,2.65-3,2.5-2.9.65-.84,2.88-1.68,4.7-2.4-2.42.65-1-.18-1-.2h.1a.23.23,0,0,0,.3-.1,1.93,1.93,0,0,1,.8-.2h.8c.4-.1.52-.22.5-.4s.13,0,.1.1a.18.18,0,0,0,.2-.1h0c-.18-.08,0-.09.2-.1h0c.1,0,.13,0,.1.1h.2c.07-.4.31-.56.9-.6h0a3.81,3.81,0,0,1,.6-.2c-.17.05.06-.15.1-.2h0a.16.16,0,0,0,.1-.2.52.52,0,0,0,.4-.1h0l.1-.1a.38.38,0,0,0,.5,0h0a1.39,1.39,0,0,0,.5-.1.16.16,0,0,0,.1-.2.7.7,0,0,0,.5-.2c.21,0,.32-.1.3-.3h.3c.18-.18-.06-.12-.2-.1H231c.33-.24.6-.46,1-.8h.1c.09.11.21.13.4,0s.28-.05.3-.2c.18,0,.28-.06.3-.2l1-.6s.07.34.1.4a1.61,1.61,0,0,0,1-.5c.5-.37,1-.58,1.1-.3,2.73-.91,5.67-4.6,9.5-5.6,5.51-1.44,9.72,2.37,15,4.3-.87,0,4.67.59,5.1.6,2.21.07,4.16-.4,6.3-.2,3,.28,4.51,2.73,7.8.5-4-3.16,13.86-7.49,17.59-8.49,5.3-1.42,10.07-1.39,14.42-1.51,2,0,4.33-.74,5.79-.8,1.14,0,1.82,1.21,3.1,1.15,8.59-.39,11.6-4.44,18.2-.55,2.84,1.68,13.33,8.73,13.9,4.1a18.7,18.7,0,0,1,4.9-.1l-.7-.8c.55.42,2.3.88,2.8,1.2.07.45-.54,1.07-.5,1.5a6.88,6.88,0,0,1,2-.3c4.24,1.23,7.15,4.7,11.5,6a1.77,1.77,0,0,0-.7-.6,13.92,13.92,0,0,1,8.9-4.6c1-2.31,6.49-1.06,6.5-4.4a29.06,29.06,0,0,0,12-5.4c1.17,3.48,6.07,4.64,3.3,6.5.16.1.13.16-.1.2.18-.05.72.47.7.5-3.29.53.32,3.48-1.9,4.8-.07.52.15.09.3,1.2-.06.21-.75-.13-.8-.1.29,1,.31.59.9,1.6-1.51.29-1.26.8-1.9,1.4,0,0-.67-.21-.7-.2a.32.32,0,0,1-.2.4c.18.37,1,.3,1.3.5-.18,1-.74.24.6,1.1,1.27-2.82,14.49-4.83,16.8-4-.4-1.9.84-1.22-.5-3.1,2.84.16,6-.86,10.6-.8,1.56,2.87,3.82,10.9,9.3,12.5-1.52.59-2.62,2.29-4.1,3C440.6,362.18,449.38,364.2,456.7,371.9Z"/></g><g id="HATCH-7" data-name="HATCH"><path class="cls-1" d="M956.9,412.6c.42.91.86,2.94,1.4,4.2-.14-.16-.14-.13,0,.1-4.25-.51-11.14-11.23-16-14.7.11.62.4,1.18.5,1.8a22.83,22.83,0,0,1-4.5-4.1c.3,1.51-.85-.25-1.7-.6-.47-.26-.46.45-1.3-.9a54,54,0,0,0,6.2,11.2l-1.2-.1c7.17,8.17,12.89,17.89,20.2,25.7C949,426,938.57,418,927.8,407.5a35,35,0,0,1,2.5,5.3,36.86,36.86,0,0,1-8.4-5.8c4.82,5.74,9.86,12.28,15.3,17.3-3.42-1.79-8.91-.15-6.4,4.6-1.22-.2-2.61.42-3.9.1a36.07,36.07,0,0,0,3.1,6.4c-4.33-.23-6,4.72-9.3,4.7s-10-3.61-12.8-5.2c.84,6.08-6.94-2.74-9.4-4.1s-3.9-1.28-5.5-1.7-3.18,2-5.8-1.6c-.59,2.66-1.21,5.32-1.7,8-4.25-4.17-9.88-5.93-16.5-8.4-1.18,4.06,4.17,8.83,6.5,12-.46-.08-1-.42-1.4-.5a28.07,28.07,0,0,0,2.8,5.5q-.42-.37,0-.6c1.49,4.45,4.21,7.74,7.3,11.1,4.34,4.73,7.26,9.45,11.9,13.8-5.09-.82-8.55-5.37-12.2-8.3-1.63.52-.92,1.2-3.8-.2.68,2,.46,3.53-2.5,1.9A11.4,11.4,0,0,0,879,464c0,.89-.49.89.4,3.2-1,1.3-.49-.51-1.1,1.7-5-3.92-10-8.06-14.1-12.9l.1,2.4a13.08,13.08,0,0,0-2.8-.5c-.07,3.75-.17,5.12-1.2,7.7a50.14,50.14,0,0,1-2.15,4.75c-4.1,1.38-4.93-5.43-8.59-5.91-5.24-.67-6.11,4.65-4.11,8.11,1.77,3.05,6.92,5.43,9.75,7.35-4.61.14-10.77,1.08-14.1-2.8.13,9.79-17.66-6.42-20.6-9.2-7.37-6.95-16.45-12.47-24.2-19.9,1.15-1.46-4.29-8.49-7.4-11.33-3.57-3.25-8.08-5.39-11.7-8.47-4.38-3.73-7.33-8.86-13.2-10.1,2.34,4.23,6.65,8,7.45,12.8,1.31,7.87-.77,2.53-6.65.75-3.78-1.15-4.1,1.13-7.5-.25-2.21-.9-3.93-4.21-5.8-5.7-4.8-3.81-6.4-2.71-11.8-4.2,1.32,4.19,5.58,6.46,7.1,10.5-1.2-.25-3.08.05-4.2-.3,2.5,2.24,7.76,6.66,7.45,10.2-.22,2.53-6.89-.91-2.65,5.2h-1.1c2.23,3.35,5.29,5.78,8.4,8.5-6.3-1.08-10.26-4.55-16.9-4a37.83,37.83,0,0,0,2.6,2.9c-5.69-2.29-28.67-18.36-31.7-14.5-5.91-8.16-14.07-17-23.9-21.3,2.75,0,5.41,1.5,8,1.6-2.32-4.23-6.32-7.68-10.25-10.65-2.07-1.56-5.11-4-7.55-4.85-2.66-.9-3.65.28-5-.25-5.41-2.05-21.6-14.88-14.35-19.55-1.26-8.28-12.21-12.25-15.9-19.2,1.19.22,2.83,0,4,.3-3.77-2.41-4.75-4-6.8-7a27.43,27.43,0,0,1,5.3,2c-6.2-4.42-1.25-8,2.9-4.7-1.21-1.58-.91-2.09-1.2-3-8.62-6.94-11.86-11.75-16.4-19.4a1,1,0,0,0,.7-.2c2.87,4.86,10.79,6.7,16,6.4a23.61,23.61,0,0,0-3.7-4l-.1,1.5c-1.42-.89-7.07-3.52-7.6-5.07-1.28-3.75,6-7.17-1.5-9,2.41-1.11,2.76-4.42,2.1-7.5-.85-4-.44-2.91-4.85-5.4-3.37-1.9-9.26-3.38-10.55-7.85-.34-1.18,1.75-6.21,1.5-8.25-.35-2.85-3.16-5.19-3.4-7.15s2-3.89,2.2-6.15c.26-4-2.11-9.86-3.9-13.5,4.35-.05,12,.23,15.9-.9,5-1.45,4.55-4.47,10.3-3.1,2.86.68,4.16,3.36,7.4,3.2,2.36-.12,4.27-2.64,6.5-3.2,4.66-1.17,11.14-.31,16,.25,13.36,1.55,25.09,7.33,37.95,10.25s23.66,4.64,35.6,11.7c10,5.9,20.08,6,31.5,5.6,4.57-.17,8.56-1.26,13.1-1.4,3.69-.12,8.16,2.57,11.9,2.2,2.28-.23,3.9-2.33,6.13-2.43,6.22-.25,9.89,5.34,14,9.09,5.28,4.78,9.06,5.06,15.84,5.84,2.63.3,3.26-.4,6.7,1,3.74,1.52,6.59,4,9.68,6.65,5.53,4.81,10.74,11.09,17.37,14.42,5.3,2.67,6.52,3.24,10.15-.57.93-1,2.24,1.28,2.7-1.4.54-3.17-3.56-6.38-3.1-9.35.66-4.23,5.52-1.72,8.35.1,5.63,3.62,10.37,10.82,15.15,15.55l-.4-1c2.77,6.73,10.21,12.46,14.3,18.7,6,9.08,9.42,19.62,15.7,28.5C941.32,389.13,946.15,402.67,956.9,412.6Z"/></g><g id="HATCH-8" data-name="HATCH"><path class="cls-1" d="M996,552.4c-.21,4.15-4.33,5-5.2,8.5-1.41,5.65,3.77,10.22,5.9,14.8a28,28,0,0,1,2.45,11.75c.17,7.23-5.23,13.73-3.35,20.65a42.62,42.62,0,0,0-6.5-2.9l.9,1.3c-4-.92-7.06-1.74-11.3-1.2a49.94,49.94,0,0,0,5.8,6,.76.76,0,0,0-.3.9c-.24-.58-.61-.74-1.1-.5l1.1,1.1a.94.94,0,0,1-1.2,0c1.38,4-4.1,7.83-7.43,9.4-6.66,3.15-7.44.55-3.17,8.8-4.5-2.29-10.09-2.19-14.7-4.2-.13,3.36-4.58.79-8,2.1,2.88,5,6.2,9.28,9,14.4-.9,1.66-.37.3-.7,1.7-6.86-1.16-7,5.9-12.35,9-4.25,2.45-11.12,3.09-15.25,3.3a6.18,6.18,0,0,1-.3-2.4c-.59-.07-1.16.45-1.7.3a17.31,17.31,0,0,0-.4-2.6c.54-.52.57-1.16,1.1-2.8a21.57,21.57,0,0,1-2.2-.7c.87-.57,1-1.88,1.9-2.5-1.68-.72-6.93-8.63-1.1-7.8-2.47-1.73-5-4.67-5-8.2,0,0,.39.61.4.6-.3-.42.26-.59.5-.7-.91-.19-.7-.45-1.3-.1a6.41,6.41,0,0,1-.3-1.4c.57-.21.71.81,1.2.4-1.33-4.59-3-1.85-4.8-3a36.26,36.26,0,0,1-13.7-17.2c-2.15.9-11.57,5.19-12.7,7.4-1.53,3,2.7,7.45-.3,9.8a6.31,6.31,0,0,0-.7-1.5c0,.06-.31,1.08-.2,1.1-.61.24-.28-.27-.5-.9-2.37.57-8-1.2-10.9,4.2a6.17,6.17,0,0,1,1.2,1c-4.88-.9-8.74-4.13-13.5-4.8,1.94-4.47,6.06-16.56,1.2-19.7-1.28,3.76-2.35,11.8-5.9,13,.69-2,.55-4.07,1.1-6-.67.67-2.19,1.22-3,2,.44-1.62-.17-1.58,0-3.2-2.78,1.89-5.17,4.67-4.5,6.1-1,1.1-11.71.39-13.1-.9-4.47-4.12,5.63-13.59-6.2-4.37-5.33,4.15-9.77,10.34-14.4,13.67s-8.52,3.18-13.1,6.2c-1-3.68.86-11.76,2.2-15.1,1.52-3.79,7-17.3,9.4-18.1-1.39,0-2.9-.55-4.5-.4,7-5.41,9.1-5.76,8.62-12.9-.23-3.58-.63-7.06-4-9.1,9-6.17,11.43-17.05,21.4-18.7a11.73,11.73,0,0,1-9.6-6.4c-2.48-4.6-2.38-8.77,3.5-9.8-3.29-2.79-4.94-11.33-6.1-15.8.39-.36,1.33-.13,1.8-.3.07-.43-1-1.35-1.1-1.8a6.88,6.88,0,0,0,2,.3c-4.81-4.88-.76-7.78-6.65-11.4a158.89,158.89,0,0,1-14.75-10.45c-6.67-5.22-10.3-2.07-17.1-3.85-9.25-2.42-15.59-11.62-23.9-15.9-6.11-3.15-14.12-7.4-16.6-14.4,1.6.32,2.7-.28,4.1,0-.16-.1-.13-.16.1-.2-4.82-6-14.38-9.27-20.4-16.4,6.66-.72,10.61,3,16.9,4-3.12-2.71-6.15-5.16-8.4-8.5h1.1c-4.28-6.17,2.41-2.63,2.65-5.2.34-3.54-4.95-7.95-7.45-10.2,1.14.32,3,.06,4.2.3-1.56-4-5.79-6.31-7.1-10.5,5.19,1.47,7,.43,11.6,4,1.86,1.45,3.49,4.74,5.6,5.7,3.64,1.65,3.85-.72,7.9.45,5.06,1.46,8.18,7.33,7.07-.4-.65-4.56-5.6-9.12-7.87-13.15,5.61,1.23,8.63,5.95,12.8,9.63,3.73,3.29,8.37,5.55,12.1,8.94,3.11,2.84,8.57,9.86,7.4,11.33,7.75,7.42,16.84,12.95,24.2,19.9,3,2.82,20.68,19,20.6,9.2,3.33,3.88,9.49,2.94,14.1,2.8-2.86-1.93-7.22-4-9.22-6.93-2.37-3.43-2.24-9.29,3.58-8.53,3.38.45,4.57,7.21,8.44,6.06.36-.11,1.72-3.72,2.1-4.6,1.28-2.93,1.28-3.94,1.4-8a11.16,11.16,0,0,1,2.8.5l-.1-2.4c4.06,4.84,9.09,9,14.1,12.9.63-2.16.06-.39,1.1-1.7a5.41,5.41,0,0,1-.4-3.2,10.13,10.13,0,0,1-1.4-2.2c2.94,1.64,3.14.07,2.5-1.9,2.74,1.31,2.17.9,3.8.2,3.69,2.93,7.08,7.46,12.2,8.3-4.64-4.35-7.56-9.07-11.9-13.8-3.08-3.36-5.81-6.65-7.3-11.1q-.42.22,0,.6a34.93,34.93,0,0,1-2.8-5.5c.47,0,.72.5,1.4.5-2.38-3.31-7.49-7.79-6.5-12,6.63,2.48,12.27,4.17,16.5,8.4.5-2.68,1.11-5.34,1.7-8,2.6,3.5,4.2,1.18,5.8,1.6s2.87.24,5.5,1.7c2.47,1.37,10.23,10.15,9.4,4.1a68.19,68.19,0,0,0,11.6,4.8c1.77.57,3.36-1,5.08,0,5,2.78,3.68,7.68,4.87,11.52,2.81,9,13.08,19.88,22,22.52,7.32,2.17,16,4.43,19.25,12.35-.42,1.37-.86-.53-.3,1.5-3.43,1.23-7.37,1.36-10.2,3.8,7.5,3,18.53,6.28,24.6,11.2-.76.4-1.38.93-2.1,1.3,1.43-.21,2.79.36,4.2.3-4.2,4.16,3.19,3.14,6.2,3.1-2.48,9-11.91,11.81-13.05,22.25-1.07,9.77-.36,9.87,7.72,13.68C991.57,545,996.37,547.69,996,552.4Z"/></g><g id="HATCH-9" data-name="HATCH"><path class="cls-1" d="M1286.8,574.6c.86,4.52-12.94,4-18.6,6.68a27.39,27.39,0,0,0-9.6,7c-3.88,4.68-1.08,4.35-7.1,5.7a51.49,51.49,0,0,1-18.48.75c-10.48-1.78-10.42-4.91-17.82,3.55-4.06,4.64-6.53,10.88-13.32,10.7-2.57-.07-5.11-2.73-7.68-2.75-2.25,0-5,2.63-7.2,2.4-3.79-.39-9-5.37-12.25-7.27-13.62-8.06-26.71-16.48-36.85-29.13-6.49-8.11-10.43-16.67-18.05-24.1-6.51-6.34-12.87-4.05-22-8.2-2.44,5.51.88,11.34-5.25,11.85-2.33.19-4.27-3.24-6.45-2.85-1.93.35-3.43,3.57-5.2,4.4-3.64,1.71-10.28-1-9.9,5.7-5.24-8-6.74-12.16.7-18.8-6-4.39-19.74-14-23-2.7-5.19-5.1-9-.37-13.3,1.4-1.56.64-3.91-.37-5.35.65s.33,3.4-1,4.55c-6.22,5.16-15.07-1.52-21.25-2.75-1.88-.37-12.37-2.09-13.35-.8-2.57,3.39,4.5,3,4.6,5.75.22,6.07-6.29.07-7.25-.45-7.89-4.28-12.18-3-12.25-12.65-.1-12.77,10-15.46,13.6-25.7-3.23.17-10.32,1.16-6.1-3-1.44,0-2.74-.51-4.2-.3.68-.41,1.3-.86,2-1.3-5.68-4.91-17.44-9-24.8-11.6,2.76-2.53,6.81-2.82,10.3-4-.48-2.05-.07-.27.3-1.6-2.52-5.46-9.45-10.28-15.5-12.4-2-.7-5,.32-7.22-.63-4-1.69-7.41-6.6-10.52-9.74-6.32-6.37-7.2-12.23-10-19.51-1.51-3.89-4.73-8.7,2.45-8.42a41.68,41.68,0,0,1-2.9-6.4c1.28.31,2.68-.3,3.9-.1-2.45-4.7,3.21-6.7,6.7-4.8-5.38-2.58-11.88-12-15.6-16.7a31.45,31.45,0,0,0,8.4,5.6,38.06,38.06,0,0,0-2.5-5.3c5.88,5.11,10.73,11.29,16.75,16.15,5.18,4.18,10.66,7.24,16,11.55-7-8.08-13-17.32-20.2-25.4l1.2.1a51.46,51.46,0,0,1-6.3-11.1c.67,1.12,1,.78,1.2.9a2.49,2.49,0,0,1,1.7,1.2c-.16-.08,3.51,2.65,4.4,3.4-.17-.72-.38-1.23-.5-1.9,4.29,3.84,11.9,14.8,15.7,15-.27-.23-.27-.26,0-.1-2-8.27-11.78-16-16.1-23.9-3.56-6.49-7.93-12.05-11.5-18.5-4.2-7.58-6.7-16.14-11.3-23.6-3.19-5.16-7.17-9.55-11-14.2-3.53-4.28-3.95-7.95-6.35-12.15-3.53-6.16-8.33-12.05-11.85-18.85-2.23-4.3-8.56-15.66-12.2-17.4-2.85-5.42-5.83-6.65-8.4-13.4-2.2-5.77-3.74-11.38-5-15.4-1.5-4.76-3.09-6.22-1.7-11.3h0c-.51-3.4-1.87-11.16-3.5-15.45-.5-1.31-9.37-18.06-2.2-12.85a.27.27,0,0,1,.3.1c3.81-.46,4.36,2.48,6.8-1.9.52-.93.2-4.05.1-5.1-.66-6.92-3-14.71-2.7-21.3.46.08.92.94,1.4,1.1l.4-3.3,1,1c1-3.91,4.32.43,7.5,1.5.51-.36,1.69-1.43,1.8-1.5-.27-1.81.06-2.62,0-4.5.28,1,.92,1.94,1.2,2.9-.79-.91,3,2.07,3.3,2.2,1-1.05,2.37-1.3,3.3-2.7,2,6.28,4.12,12.88,6.7,18.9,2,.07.26-1.67,2.9,2.1,3.85-7.38,6,10.57,6,10.7.44,3.57.88,8,.95,11.7,0,1.29-1.87,1.52-1.85,2.4,0,2.26,1.67,4.51,1.4,6.7-.3,2.48-2.6,4.64-3.3,7-1.59,5.34-.76,4.61.3,9.2.94,4,2.31,6.82,4.1,10.7,8.9,19.32,19.84,37.83,28.4,57,2.6,5.82,5.22,13.5,8.1,18,.07-.13.13-.13.2,0,.19-.21-.31-.31-.2-.6.15.19.15.12,0-.2,4.65,6.19,9.43,22.35,15.2,24.8-.72-1.51-.9-3.74-1.3-5,5.53,6.51,10.73,13.44,16.2,19.9-.52-.92-1-1.89-1.5-2.8,1.56,1.92,1.9,2.1,3.5,4.3-.31-.59-.28-.66.1-.2l-.6-1.2c12,16.44,24.36,37.87,41.7,46.6,8.74,4.4,17.3,10.76,25.65,13a72.7,72.7,0,0,1,20,9.3c-3.72-.76-5.74,1.44-6.1,3.5,2.78,1.83,8.5,1.91,10.2,4.7-.72.15-1.48,0-2.2.2,4.51,5.33,17.5,9,24.2,9.4a15.22,15.22,0,0,0-5.9-2.1.23.23,0,0,0,.1-.3c1.91-.29,5.42.15,7.2.1,6.12-2.61,13.36,2.61,19.3,4.8a3.61,3.61,0,0,1-2.4,1.3c-.09.21,1.37.47,1.3.6a14.14,14.14,0,0,0-1.9.3c3.62,2.86,5.41,5.2,10.5,5.9-.23.45-.86.4-1.1.8,3.23,1.27,4,4.44,6.5,6.3-.77,1-1.06,1.93-1.7,2.6,5.21,10.06,20.91,3.12,29.9,7.7-3.33.63-5.42,2.15-8.5,3.6,22.26,9.43,43.72,16.07,67.39,22.15,19.63,5,51.38,7.1,65.91,20.15-1.93,1.14-2.31,2.42-3.8,4,4.42,1.06,11.38,1.92,15,5.15a22.54,22.54,0,0,1,2.75,3.75c.53,3.34-2.06,1.75-2.4,4.1C1277.18,564.57,1282.41,569.08,1286.8,574.6Z"/></g><g id="HATCH-10" data-name="HATCH"><path class="cls-1" d="M1294.2,595.2c-1,3.32-3.77,3.36-5.88,5.52-2.29,2.37-3.09,4.16-5.12,7.08-2.5,3.59-8.82,7.14-10.3,11.15-1.71,4.65,4.35,7.8,3.2,11.55-.92,3-43.19,15.73-25.9,24,9,4.32-.71-9.06,6.7-10.6,4.22,6.88,2.59,7.27-3.49,15.35-3.61,4.8-6,9.91-9.17,15-1.52,2.38-7.61,7.77-7.34,10.49.36,3.54,8.17,5.27,8.75,9.15.69,4.63-6.17,8.72-7.35,12.95,6.59,3.5-6.7,14-8.8,16.9-5.71-4.53-7.79-3.77-14.35-.8-4.13,1.87-8.17,4-12.35,5.8,2.5,1.8,4.58,4.1,7.2,4.78,2.81.72,4-1.22,6.8.09,7.21,3.41,2.28,5.45,1.5,10-.65,3.86,2.16,7.72-2.67,11.45-4,3.11-5.88.35-10.13,1.45-4.73,1.23-10.5,6.49-15,8.85-5.6,2.92-7.4,1.59-13,2.35-4.44.61-16.16,5.29-16.55,9.4-.31,3.22,4.67,3.83,4.35,7.3-.2,2.13-7.27,6.64-9.2,8.5s-7,5.48-7.18,8c-.15,2,3.2,5.78,4,7.65,2,4.68,1.26,9.53,2.9,14-2.59,2.5-4.28,5.9-6.9,2.5a1.81,1.81,0,0,0-.4,1c-.39-.66-1-1.31-1.3-1.8-5.38,6.07-6.93,9.06-14,9.8-7.9.84-6.15-.08-9.65,3.5-2.5,2.57-7.73,11.48-11.6,9.5-2.08,1.86-4.06,4-2.7,6.3-1.29,6.16,4.9,4.85-2.51,11.92-3.7,3.53-8.16,4.58-10.39,9.28-1.55,3.27-1.31,6.43-3.65,9.85-2.11,3.08-4.79,5.78-6.9,8.9-2.45,3.63-4.26,6.7-7.22,9.6-2,2-4.52,3.06-6.43,5.35a46.44,46.44,0,0,0-2.1-6.7c-6.11,6.22-16.36,13.26-20.43,20.79-2.12,3.92-1.09,1.67-1.2,6.26-.07,3.21,3,4.4-.17,7.25-1.91-5.75-9.08-.8-13.5.7l-.5-1.7c-3.16,1.15-8.94,1.11-7.3,5-5.56,1.18-9.18,1.28-13.6,2.4a48.65,48.65,0,0,0,1-17.2c-6.32,2.26-6.1.47-10.2,6.2-2.8,3.91-6.39,8.13-8.55,12.43-2.32,4.61-1,8.39-2.24,13.38-1.27,5.25.06,3.32-4.21,5.39-4,2-9,1.28-13.1,4.65-4.32,3.59-3.64,7.07-5,11.85-1.11,3.94,1.74,2.87-2.32,5-1.3.69-1.72-1.85-1.78-2.92-5,2.82-7.69,5.59-13.6,4.3h-.1c-8,0-8.18,3.28-13.5,7.2-.86,1.84-3.63,4.27-5.7,1.7,1,5.85-6.83,6.95-11.3,9.1-.13-3.42-1.32-6.14-4.1-7.5.72-3.28,7.67-7,9.6-7.9a10,10,0,0,1,.9-2.2c-.27.25.33.09.4,0a6.22,6.22,0,0,1-.2.8,5.29,5.29,0,0,1,2.1-2.2c-.1.67-.14,2.07-.2,2.8,5.38-1.59-1.23-5.72-3.8-5.2,1.49-2.82,6.85-7.64,5.2-10.4,0,.13,0,.19-.2.2q6.59-9.76,13.1-19.6c-1.92-.28-3.8-1.72-5.6-2,5.09-9.62-8.42,4.34-11.2,5.5-3.07,1.28-4.41-1.38-7.6,2.1-1.73-3.94-4.92-.83-7.9.3-.51-7.61,3.36-10.14,8.06-17.44,5.51-8.57,10.5-19.06,21.44-21.46-3.09-2.29,3.77-9.72,5.9-12.4a36.89,36.89,0,0,0,6.72-12.1c2.3-6.19,6.27-9.21,10-14.2,2.07-2.78,6.13-8.75,7.4-13.7-2.26,1.25-15.41,16.88-16.1,11.6-.35-2.68,5.83-6.4,7.4-8.15,1.41-1.57,2.83-4.26,4.4-5.55,1.21-1,4.51-1.51,4.5-1.5,5.83-4.79,1.63-15.18,8-17.55,2.63-1,2.21,3.34,6.63,1.5,3.44-1.43,4.77-8,6.32-11.15,1.88-3.81,5.48-8.17,5.87-12.45.35-3.7-1.62-6.69-1.67-10.55-.09-7.11,1.12-19.13,3.1-26.1,3.82-13.45,14.27-21.81,11.09-37.44-1-5-3.69-9.45-4.21-14.61s1.17-10.16.22-15.25c-1.93-10.36-12.91-17.28-5.8-28,3.51-5.33,3.51-2.31,8.3-3.85,2.06-.66,4.21-2.86,6.3-4.3l.3,1.9c11.6-9.06,5-22.75.6-33a133.89,133.89,0,0,0-7.3-15c-3.12-5.63-6.65-7.8-10.2-13.55-5.25-8.5-5.21-18.21-2.55-26.95a29.91,29.91,0,0,0-1-20.15c-3.22-7.58-7.38-10.37-3.95-18.55.71-1.69,2.06-4.22,2.9-6,0-.08,2.22-5.7,2.3-5-.57-5-8.33-7.09,3.85-6.15,6.76.52,16.12,1.74,21.65,6.15,4.12-2.93,5.62-5.4,8.4-7.7,3.59-3,13.08-5.06,16.7-1.7,3.2-11.39,17.16-1.32,23.1,2.9-7.62,6.42-5.84,10.9-.7,18.7-.65-6.55,6.44-4.09,9.8-5.7,1.78-.85,3.3-4.17,5.2-4.5,2.29-.4,4.07,2.82,6.5,3,6.06.32,2.91-7,5.2-11.85,6.94,3.09,13.88,2.76,18.9,5.3,6.77,3.42,12.32,13,16.38,19.31a99.32,99.32,0,0,0,36,33.39c3.78,2,7.24,4.4,10.94,6.58,6.74,4,6.7,1.82,13.55,1.63,3.8-.11,7.45,3.79,11.46,2.74,3.64-1,6.59-6,9-8.8,1.52-1.8,2.85-4.22,4.9-5.8,4.57-3.52,1.91-2.48,8-1.35a61,61,0,0,0,20.1.8c6.36-.65,6.43.47,10.48-3.12,3-2.62,3.93-6,8.12-8.38,9.08-5.16,18.12-6.45,26.3.4-1.65,2.3-.26,2.72-1.55,4.4-1.49,1.94-6-.21-5.4,4.25C1285.54,594.44,1295.11,586.41,1294.2,595.2Z"/></g><g id="HATCH-11" data-name="HATCH"><path class="cls-1" d="M1347.3,756.5c-3.74,6.12-6,8.31-5.2,15,.6,5.36,2.62,10.89,3.9,16.1l-8.1-2.6c-.33,4.1,3.91,6.59,1,8.5h-.1c-1.24,2-1,6.13-1.1,9.2-1,1.79-5.1,9.33-6.15,9.5-3.28.52-2.51-7.15-6.2-1.65-1.06,1.59,2.34,8.24-1.25,8.85-2.06.35-16.18-22.67-19.1-26.15-2.77-3.31-6.14-6.17-9.8-7.15h.1c-1.5,6-4.4,24.73-14.1,10.5l-.5,1.6c-2.74-.76-1-2-3.3.1,0-.14,0-.14-.1,0-.08-1.61-1.23-3.32-1.3-5l-6.2,6.6-.3-2c-2.4,2.11-4.3,6.35-5.4,8.6h0a.65.65,0,0,1-.2.4c-.7,1.48-2.79,5.29-3,7.7a40.88,40.88,0,0,1-.4-6.2,30.91,30.91,0,0,1-2.4,3c-1-3.59-2.47-8.68-5.5-11.9a21.38,21.38,0,0,1-7.1,6.9c0,.14-5-9.88-3.1-9.5-2.81-.58-7.59,11.38-8.7,13.9-1.58-4.42-3.42,6.21-5-3.1-.53-3.19,2.71-9.94-3.25-6-1,.44-2,.86-2.9,1.2-.78.37-1.6.71-2.4,1-9,4.32-14.43,11.07-22.27,17.53-7.47,6.14-14,11-20.13,18.87-2.8-2.37-3.79-3.42-6.5-4.65-1.3-.59-3.52,1-4.9,0-1.9-1.5-1.52-4.89-2.92-6.3-2.65-2.67-4.47-.25-6.78-5-1.92-4-1.38-9.19-3.2-14.2-.89-2.44-4.41-6.23-4.36-8.79.06-3.43,6.64-8.16,9.49-10.8.87-.8,6.55-4.83,6.67-6.11.26-2.87-3.94-3.69-4.2-5.4-.86-5.68,5.38-7,10.15-9,8.36-3.59,13.83-1.69,22-6.25,3.08-1.71,6.14-3.75,9.3-5.25,2.28-1.08,3.62-2,5.6-2.45,1.16-.27,3.38,1.77,4.3,1.4,3.48-1.42,6.12-6.34,7.1-9.6.39-1.3-1.24-2.27-1-3.3s2.55-3.64,2.45-4.65c-.4-4-2.84-6.12-6.6-7.25-1.28-.38-3.51,1.34-4.85.95-2.31-.67-4.6-3.27-6.8-4.85,4.18-1.79,8.22-3.93,12.35-5.8,6.39-2.89,8.73-3.66,14.35.8,2.13-3,15.37-13.37,8.8-16.9,2.62-9,10.23-9.17,3.45-17.5-.81-1-4.72-3.33-4.85-4.6-.24-2.39,5.13-7,6.37-8.87,5.63-8.5,10.17-16.62,16.53-24.73-.77,5.53,1.88,5.35,2.8,7.3a19.5,19.5,0,0,1,1.6,12c7.1-2.12,0-7.53,4.25-10.7,2.72-2.05,10.24,8.95,12.35,10.9,3-4.27,3.91-11.13,7.55-14.5,2.48-2.29,2.17,1.38,4.7-1.25s-.57-5.33,3.15-8.15c6.58-5,10.64,4.1,11,9.8,3-.3,8.63-.35,11.1-1.9,5.84-3.65,4.28-8.31,11.6-11.1,4.08-1.56,8.12-1.9,11.5-4.3,2.63-1.87,3.18-4.29,6.6-6,2.43,3.48,5.17,7.72,7.4,9.2,1.8,1.19,2.55-2.33,4.73.45,1.61,2.07-.94,7.21-1.33,9.7-1,6.24-2.7,9.16-5.1,15.05-1,2.35-10,16.5-4.4,16.9-3.92,5.43-15,14.65-17.2,21,.28,0,.64-.71.9-.7-1.1,3.3-3.51,3.71-5.45,6.1-3,3.72-4.51,9-7.28,12.8-1.55,2.12-4.52,3.14-5.54,6.17-.83,2.46,2.53,3,.37,5.73l1.2.9c2.67-.36,9.14-.8,13-3.44,3.42-2.37,4-7.19,6.85-10.36,3.11-3.41,8.81-5.55,12.89-7.9-2.78,4.89-.4,12.74-1.94,18.55C1344.82,741.8,1336,751.81,1347.3,756.5Z"/></g><g id="HATCH-12" data-name="HATCH"><path class="cls-1" d="M1517.5,558.8a52.84,52.84,0,0,0-7.6,14.8c8.85-1.23-5,8.56-6,9.35-1.84,1.51-3,3.65-5.08,5.25-3.25,2.54-8.08,2.52-11.57,5-2.8,2-7.49,10.24-2.9,9.6,1.11,5.3-1.87,5.21-5.5,8.7-1.23,1.18-1.22,3.06-2.85,4.4-1.81,1.49-3.42,1.69-5.6,2.65-5.78,2.54-12.54,4-18,7.15-4.86,2.85-3.3,3.31-5.15,7.3-.81,1.75-6.14,7-6.1,7.8.16,2.87,11.85,4.8,4.7,8.5-.48.63-1.22,1.57-1.8,2.3a6.24,6.24,0,0,0-1.2,1.6,2,2,0,0,1-1.5-1h-.3a.32.32,0,0,1-.3-.3h0a3.4,3.4,0,0,0-.5-.1c0-.12,0-.21-.1-.2h0a.38.38,0,0,1-.3.1h0a5.47,5.47,0,0,1-4.1,0h0a1.73,1.73,0,0,0,.2,1.8,4,4,0,0,0,1.1,2.4,3.74,3.74,0,0,0,1,.1h.1c-.39,2.16-4,3-4.1,6.6l-2.7-1c-.67-1.45-1.66-1.15-2.6-.2h-.1c-2.89.49-5.36,5.68-2.9,7.1-1.91,3.46-5.25,5.92-5.6,9.77-.45,4.92,4.83,8.34,7.9,12.53-.4,3.47-1.57,9.74,2,13.6-2.52-.19-14-12.69-12.1-5.2l-1.4-.9c1.22,8.38,5.13,18.05,5.62,26.32.39,6.57-1.59,8.29-.12,15.23.67,3.16,4.73,12.2.8,12.85,0,0-3-1-2.7-.9-1.78-.63-1-4-2.39-4.42-.53-.17-4-.34-4.71-.38.47,7.11.8,14.15.8,21.3-2.13-1-.27-.45-2.1,1.5-.28,0-.65-.72-.7-.7,0,.78-.1,1.73-.1,2.4-.27-.27-.4-1-.6-1.2-.51.55-.09,1.67-.3,2.3l-1.8-1.3c.2,1.82-.58,3.79-.3,5.6-1.55-1.63-4.89-2.41-6-3.9-1.73-2.32-2.33-7.4-3.2-10.3-7.83,7.89-14-1.24-15.1-8.5-5.58,0-4.28,4.79-4.5,8.9-5.55-4.52-6.94-6.44-9.7-13.1-6.9,3.18-23.92,13.62-28.25,1.35-1.86-5.28,6-16.05,7-21.9.79-4.82-1.62-10.42.8-14.65-4,2.27-9.61,4.33-12.7,7.55s-3.52,8.27-7,10.71c-3.84,2.65-10.28,3.05-13,3.44l-1.2-.9c1.66-2.8-1.22-2.9-.6-5.3.84-3.22,4.17-4.42,5.77-6.6,2.6-3.53,3.78-8.87,6.66-12.4,2.14-2.63,4.86-2.89,6.07-6.5-.25,0-.63.77-.9.7,2.07-6.34,13.34-15.59,17.2-21-5.5-.86,3.34-14.27,4.4-16.9,2.37-5.91,4.11-8.81,5.1-15.05.38-2.38,2.81-7.37,1.55-9.35-2.11-3.33-3,.44-4.95-.8-2.29-1.44-4.9-5.77-7.4-9.2-1.5,1.56-3.16,1.68-4.9,2.7-.93-6.78-5.44-16.15-4.5-22.1a51.44,51.44,0,0,1,4.2-9.9c1.32,1.26,14.53,10.87,10.8,2.4,1.51,1.32,4.46,2.56,5.6,2.4,1,1.17,2.78,3.76,4,5.5,3.08-2,.17-1.49,3.5-.8,1.55-3.61,1.54-7.18-2-9.6l.2-.2c.55.35,1.28.92,1.7,1.2a19.79,19.79,0,0,1-1.4-3c-1.37-2.36-4.27-9.52-3.7-10.1.21,0,1,.7,1,.7,0-6.07,3.16,1.89,7.1,2l-1.2-1.8c2.58-1,2.13-.49,2.5-3.1a8.3,8.3,0,0,1,1.8,2.2c-1.33-2.15-6.92-15-2.4-15.8-4-8.2.92-13.36,7.1-18.35,3.3-2.66,4-4.16,7.1-8.55,5.49-7.76,13.85-10,22.1-13.6v1.8l2.2-1.1c1,2.94,1.71,6,2.5,9,3.26-1.67,5.8-8.7,7.65-9.32,3.37-1.15,5.06,4.09,7.88,4.59,5.15.93,15.2-6,19.67-8.37,0,.16,0,.16.2,0-.15,1.6.62,2.45.5,4.2,3.32-4.57,10.4-5.39,15.1-10.8a118.62,118.62,0,0,0-6.1,10.9c-.12-.43.81.27.6-.2a126.85,126.85,0,0,1-17.66,32c-6.22,8.21-13.87,16-17.84,25.09-1.22,2.82-4.08,9.79-1.2,9.6,3.37,1,7.9,1.48,10.6,2.7,3.17-1.1,9.51-4.47,10.3-2,1-.9,2.3-1.42,3.3-2.3-.91,4.33-4.68,5.69-6.6,9.4,3.53-3.46,5.46-5.91,10.7-5.9l-.1,1.8c.69-.18,1.08-.7,1.7-1.1-.37.22-.41.42-.1.6,2.07-1.68,5.74-5.15,6.5-5.4,1.95-1.46,4.06-2.39,6.3-4.7.16.23-.31.75-.3,1a36.74,36.74,0,0,0,4.2-3.6c-.08.64-.46.73-.5,1.5,1.36,0,.59-.69.8.1,3.16-2.28,6.7-4.57,9.1-6.7,3.42-3,2.51-4.2,4.15-8.78s5.75-7.84,7.85-12c7.91,7,16.36-14.19,19.7-16.3-.2,1.07,0,2.27-.2,3.4,1.78-1.18,3.11-1.54,4.5-3.3.22,0,3.16.8,4,1.1C1515.3,555,1515.51,557.66,1517.5,558.8Z"/></g><g id="HATCH-13" data-name="HATCH"><path class="cls-1" d="M1639.8,368.6c-4.1,3.66-7,8.37-11,11.8-5.27,4.47-12,5-17.65,11.5,1.49.13,2.91,1.17,4.4,1.3-3.28,4.57-4.78,1.46-7.66,2.59a22.21,22.21,0,0,0-5.94,3.66,50.62,50.62,0,0,0-9.8,10c-2.16,3.06-6.28,12.83,1.3,12.37-4.54,2.94,1.38,5.31-2.1,7.2,4.43,4.7-6.43,10.8-9.4,11.45-2.61.57-6.37-.31-9.6,1.75-3.88,3.32-8.12,11.59-10.8,16.7-1.94,3.69-.9,5.55-2.1,7.9-1.07,2.09-3.92,3.77-5.2,6.25-3.07,5.95,1.12,7.8-1.1,14.05-5.82,3.75-7.5,3.65-9.75,11.7-.54,1.94-1.55,12.49-1.75,12.7-.45.46-5-.19-7.5.5-6.78,1.91-6.19,5.37-8.2,10.5-2.14,5.45-5.6,10.66-7.9,17.3a8.87,8.87,0,0,0-5.35,2.85c-2.74,3.4,1.31,10.27-5.15,11.85.21-1.14,0-2.3.2-3.4-3.83,2.42-11,22.86-19.7,16.3-2.11,4.15-6.24,7.54-7.85,12-1.76,4.91-.59,5.62-4.15,8.78-2.38,2.11-5.94,4.42-9.1,6.7-.21-.87.61-.08-.8-.1,0-.79.41-.85.5-1.5a36.74,36.74,0,0,1-4.2,3.6c0-.27.47-.75.3-1-2.33,2.26-4.31,3.22-6.3,4.7-.76.23-4.42,3.74-6.5,5.4-.31-.18-.27-.38.1-.6a7.7,7.7,0,0,1-1.7,1.1l.1-1.8c-5.24,0-7.17,2.44-10.7,5.9,1.87-3.75,5.86-5,6.6-9.4-1,.88-2.32,1.41-3.3,2.3-.78-2.48-7.14.9-10.3,2-2.7-1.22-7.23-1.75-10.6-2.7-2.87.16,0-6.76,1.2-9.6,4-9.13,11.62-16.89,17.84-25.09a127.33,127.33,0,0,0,17.66-32c.24.54-.77-.27-.6.2a118.62,118.62,0,0,1,6.1-10.9c-4.64,5.61-11.77,6.13-15.1,10.8.13-1.74-.65-2.61-.5-4.2-.16.16-.23.16-.2,0-4.59,2.4-14.43,9.32-19.67,8.37-2.61-.46-4.38-5.57-7.43-4.72-2.3.64-4.6,7.6-8.1,9.45-.79-3-1.49-6.07-2.5-9l-2.2,1.1v-1.8q-3.3,1.43-6.7,2.6c4.48-3.06,9.2-6.51,13.6-9.9h0c8-10.31,17.36-20.09,24.75-31,7-10.35,7.55-25.31,16.85-34.4-.9-.3-.86.1-1.7,0,1.35-5,8.8-13.11,7.7-18.85-1.54-8-7.48,0-11.16,2.5-6.16,4.2-8.28,2.66-13.44,3.15.47-8.35,2.28-14.16,5.2-21.9a4.24,4.24,0,0,0,2.4-2,23.28,23.28,0,0,0,2.8.5c-.09.23.27.11.2.1-2.36,4.58,3,5.89,2.85.45,0-.34-1.9-1.92-2-3.25-.18-5,.63-2.48,3.65-4.22,2.44-1.41,5.07,1.56,5.85-3.68-.67.47-1.61.78-2.5,1.4-.1-2.88-.14-6.32,2-7.9,0,1.93,1,3,1.3,4.2,1.39-2.44,3.25-4.53,5.6-4.3-.3-4.37,3.06-10.06,7.2-10,4.68,0,4.12-6.47,4.6-9.5.63-4,4.37-9.86,4.7-1.8.8-2.66,1.11-6.11,1.8-7.1.22-3.08.39-5.21,1.2-5.6.43-8,2.76-15.75,1.7-24.35-.84-6.8-7.29-15.39-4.4-21.35.66.19.91.81,1.5,1.1.19-2.62.54-1.78,1.4-2.9-.08-7.84-1.28-14.31,1.8-20.4,1-1.92,3.56-1.86,2.8-5.9a22.59,22.59,0,0,1-3.3-3.3c-.17,1.2-.62,1.87-.8,2.9-1.47-1.63,2.73-15.7,3.2-19.7.41.34.69,1.62.9,2.1l1-1.7c.45,1.24,1.25,2.39,1.8,3.6-.14-1.48.83-3.46.8-5,4.76.75,9.14,5.68,11.9,10.3,1,1.68,3.61,5.81,4.2,7.5,1.22,3.48.11,7.35,2,10.9,5.8-2.52,4.86-7.57,11.5-9,1.92-.41,2.49,1.11,4.87.95,3.67-.25,9.62-2,10.23-6,4.72-.12,10,.47,13.4-1.9,2-1.38,3.56-6.39,6.1-6.65,12.7-1.3,4.88,16.53,2.5,22.95a16.36,16.36,0,0,0,2.2-.4c-8.33,16-10.16,34.86-17.5,51.2,4,1.57,5.6,1.61,7.4,5.6.09.2.14,5.29.15,5.3,3.1,3.17,7.2-1.9,10.35-4.4a14.67,14.67,0,0,1,0,6.5c2.49-1.44,5.07-1.92,7.4-3.9.1.48.28.31.6.1a24.74,24.74,0,0,1-3.4,6.3c1.5-1,3.32-1.27,4.9-2.1-.22.78,0,1.85-.3,2.9,7.47-2.78,11.44-8.37,17.3-14.75a48,48,0,0,0,6.3-8.35c4.31-7.32,8.06-9.29,13.8-14.8l-.2,1.3,1.4-.9c1.24.41,2.14.82,1.8,2.9,2.24.11.68-1,1.7,1.1,1.28-.37,3.69-.47,5.7-1.4A107.35,107.35,0,0,0,1612,352c.82-.57,2.32-.95,3.3-1.6.21,2.84.6,2.77,2.9,1.9-1.68,2.49-10.75,12.84-3.8,12.4-.38.91-.73,2.44-1.1,3.3,4.44-4.59,9.7-9.41,13.9-15.1,1.55-2.11,4-7.49,6.32-8.52,2.14-1,4.17,1.45,7.28,1.32-2.34,3.74-2.36,8.95-2.4,12.5C1638.35,362.22,1641.45,364.9,1639.8,368.6Z"/></g><g id="HATCH-14" data-name="HATCH"><path class="cls-1" d="M1860.5,238.5h-.5l-.1.1h0c-2.89,0-5.21,5.39-7.7,7.8-2.34,2.26-5.41,7.29-8.6,8.7-2.67,1.19-6.64.86-9.6,2-2.22.82-4.87,3.28-7.42,3.83s-7.41-1-9.58-.08c-2.83,1.16-1.13-.25-2,1.9-.76,1.87,1.88.9,2.17,2.58-.19-1.1.28,5.45-.8,3.29.78,1.55-1,2.41,3,1.93.85,4.79,2.44,5.34-3.33,7.95-4.06,1.83-6.58,1.47-10.72,1.47-5.23,0-7.49,1.51-9.95,5.48s-3.52,7.25-8,9.55-8.4,1.63-13,2.08c-6.88.66-12.58,3.43-20.81,1.54-6-1.37-10-6.23-16.39-8.47-5.77-2-9.89-1.06-13.51,4.9-2.23,3.66-4.93,10.5-3.39,14-4.54.16-3.94-1.39-7.6-1.5-2.26-.07-6,1.79-8.9.9s-4.06-4.64-7.5-3.3c.18-.07-.81,5.48-1.3,6.1s-3.92,2.18-4.75,2.65c-4.17,2.37-6.67,2.08-9.3,6.13-1.2,1.84-1.61,4.82-4.15,7-2.9,2.51-4.46,2.52-6.2,5.6-1.19,2.11-1.45,4.36-2.65,6.15-.7,1.05-3,1.57-3.35,2-.9,1.29-1.45,3.65-2.4,5.33-1.36,2.39-2.19,5.07-3.5,7.5-1.6,3-3.11,7.84-5.6,9.8-3.21,2.53-12.74,3-14.8.4-.15-.19-.1-8.81-.08-9.6a21.2,21.2,0,0,1,2.48-8.5c-2.61.1-5.38-2.15-6.85-1.55-2.62,1.07-5,6.44-6.75,8.75-4.19,5.71-9.51,10.46-13.9,15.1.38-.88.7-2.37,1.1-3.3-7,.54,2.18-10,3.8-12.4-2.3.87-2.69.94-2.9-1.9-1,.65-2.48,1-3.3,1.6a112.6,112.6,0,0,1,6.1-10.8c-2,.93-4.42,1-5.7,1.4-1.07-2.06.55-1-1.7-1.1.33-2.16-.53-2.28-1.8-2.9l-1.4.9.2-1.3c-5.76,5.36-9.55,7.3-13.7,14.6a45.74,45.74,0,0,1-6.4,8.55c-5.85,6.37-9.81,12-17.3,14.75.28-1.05.09-2.12.3-2.9-1.58.83-3.4,1.09-4.9,2.1a24.27,24.27,0,0,0,3.4-6.3c-.31.21-.51.38-.6-.1-2.39,1.94-4.89,2.45-7.4,3.9a14.38,14.38,0,0,0,0-6.5c-3.15,2.49-7.25,7.58-10.35,4.4,0,0,0-5.1,0-5.2-1.78-4.06-3.55-4.1-7.5-5.7,7.29-16.36,9.16-35.19,17.5-51.2a14.14,14.14,0,0,1-2.2.4c2.37-6.42,10.22-24.26-2.5-22.95-2.49.26-4.08,5.18-6,6.55-3.54,2.46-8.6,1.95-13.45,2-.51,4.07-6.64,5.86-10.23,6-2.26.12-3.09-1.33-4.87-.95-6.53,1.41-5.79,6.34-11.5,9-1.92-3.54-.78-7.42-2-10.9-.58-1.67-3.2-5.83-4.2-7.5-2.84-4.75-7.12-9.32-11.9-10.3,0,1.54-.94,3.52-.8,5-.5-1.24-1.34-2.35-1.8-3.6l-1,1.7c-1.08-2.51-2.27-5.65-3.6-6,.46-3.58-6.95-14.2-2.4-15.7-1.18-5.22,6.27-9.34,6.3-14.7.22,1.5,1,1.12,1.1,1.2s.13.1.2,0a5.49,5.49,0,0,1,1.7,2.1h.3a1.52,1.52,0,0,1,.4-.5c3.28-2.66,3,2.48,2.5,5.5,3.73-2.82,5,2,6.9,1.2,4.26-1.73.82-2.24,1.75-4.25,1.77-3.8,3.19-7,6.15-10.25,0,.16.07.23.2.2-.89,4.37-.37,8.54,3.9,9.8.45-.66,1.21-1.36,1.6-1.9-.26,1-.11,2.59-.4,3.7a5.88,5.88,0,0,1,4.7-.8c3.61,1-1.34,2.71,4,1.9,2.21-.33,2.72-6.72,6.3-.4-1-2.68-.48-2.69,1.3-3.7.7-.4,2.24,2.18,3.8.85,1.36-1.16.93-2.84,1-3,.6-.8-1.6-3.22,0-4.85.92-.91,1.58,2.84,1.8,2.7.7-.44,1.64,1.09,3.2-1.8.73-1.35,0-5.15.3-6.8,1.32,0,3-.89,5-1.1-1.46-3.84-6.35-1.34-6-6.2,8.54,4.27-2.35-6.76-2.82-8.65-1.15-4.57,1.43-3.2,2-7,.29-1.88-1.44-5.48-1-7.9.28-1.52,1.11-4.45,2.6-5.9.33-.32-.53-2.73,2-2.9,1.43-.09,2,3.6,2,3.6,5,.54-.27-2.92,3.8-3.3,2.44-.23,4.31,1.79,5.1,3.3a.16.16,0,0,1,.2-.1c.36-.63-.27-1.19-.4-1.8,1.54.21,2.86-.22,4.2-.2-.8-.43-1.73-1.81-2.1-2.1,4.78-.46,2.68-5.91,7-2.6.25-3.22,4.51-.19,5.5-3.9-.1.08-.51-.47-.5-.4,4,.2,8.53,5.24,14,6.05,3.9.58,14.83,1.67,16.9-1.65.16,1.43,1.15,2.31,1.2,3.7,1.35-.62,1.43-1.17,2.2-2.2-1.56-1.34-2.43-4.91.4-1.3,1.39-1.41,2.92-1.51,4.4-2.6-1.25,3.42-.36,4.91,3.3,2.8-1-2.53.26-1,.1-3.9,4.12,2.18,8.84-8,9.8-11.3.29.83.48,1.78.8,2.6.31-1.8,1.47-2.89,2-4.2,1.56,3.37-.11,3.75,1.9,6.3.32-2.34.85-2.26,1.9-5.3,3.19,1.25,9.08-2,10.6-2.7.34-.15,1.94,1.06,3.4.4s1.65-3.87,4.3-4.7a5.81,5.81,0,0,1-.5-2.1c.59.25.42.55,1.1.9,6.54-4.46,10.32-17.64,17.5-19.4-.47,1.23-.45,2.7-1,3.9,3.79-4,6,.49,6,.5,2.21-1.08,3.53-1.89,2.5-5.5,5.79,3.48,2.82-2.79,4.2-5.4,1.7-3.22,3.18-3.23,2.1.4l.3.3c1.93-1.93,1.49-2,.1-4,1.22-1.12,2.35-3.07,3.6-3.8a.61.61,0,0,1-.2-.3,8.66,8.66,0,0,0-1.5.3c.79-3.08,9.43-6,2-8.4-.47,0,.28-.85.2-.9,1.1.76,2,.67,3.1,1.6a6.36,6.36,0,0,0,1.1-3.2c-4.53-.62-.16-5.82.65-8.15-.39,1.14,2.14-4,1.65-3.35,1.93-2.6,6.32-6.54,6.1-11.6,1.7-3.14,9.58-8.75,12.7-10.8,5.79,1,2.79,8.8,11.1,4.6a2.41,2.41,0,0,1,.8.1c.23,6-5,7.25-6.07,11-.76,2.51,1.21,9.44,3.07,12.75,4-.12,6.73,1.94,10.5-.1a8.1,8.1,0,0,0,0,2.2c-.36.81-.72,1.61-1.1,2.4h0c.88,6.39-5.61,11.1-.6,14.2,2.16,2.91-.43,6.42,0,10.8.28,2.81,3.18,13.28,6.2,15.9,1.52-2,3-3.87,4.5-6a42.86,42.86,0,0,1,4.5-1.6c1.39,1.45,1.82.69,2.5-.7,1.63-.58,2.64-.78,3.5,1.7a7.55,7.55,0,0,0,6.4-4.1c1.27.16,3.62-1.37,5.7-3a15.33,15.33,0,0,0,2.7.8,9.64,9.64,0,0,1-1,1.2c1.22-.09,1,.09.7.8l-2.1,2.2a20.28,20.28,0,0,1,5.1-.9c-3.35,4.49-.33,5.9.8,10a10.29,10.29,0,0,1,1.7-.9c2.65,1.39,5.26,3.55,8.4,2.7-.19,3.53-3.48,5.16-3.73,6.65-.2,1.24.36,2.84.73,4.75.59,1.59.15,2.85,2.5,1.3,0,.74.25,2,1,2.4,2.66,1,1.33,2.9-1.5,4.1a15.42,15.42,0,0,1,1.7,1c-1,1.19-1,3.1-1.9,4.2a9,9,0,0,1,1.6,1.7c-1.8,1.06-2.21,2.44-3.6,3.6a52.13,52.13,0,0,0,8.4-.5c4.52,1.85,9,0,14.1,1,3.89.2,11.06-5,13.8-7.9,3.6-1.13,7.51-2.82,10.1-5,1.36.08,3.46-.79,4.68-.7.9.06,4.09,1.49,3,1.5,2.35,0,1.91,1.28,5,.15,1.76-.65-3.09-2.09-1.5-2.95.24-.13,10.13-1.36,9.1-1.9,1.07.56,1.78,2.06,1.5,1.9s-2.92,3.08-1.2,3.5c2.37.57,1.62-2.18,2.6-2.4,2.13-.48,2.75-4.75,5.53-1.07,1.56,2.07-1.09,4.83-.73,6.87l.1.1h.1l.3.1.3-.1h.2c.12,0,.21,0,.2-.1s.15.08.2.2a1.9,1.9,0,0,0-.4.3v.2a1.71,1.71,0,0,0,.6,2.1h.7c.05.1,0,.32-.2.4a.38.38,0,0,1-.4.1c-.73.66-.68,1.25.4,1.6a6.69,6.69,0,0,0,.7-.3,2.26,2.26,0,0,1,1.4-1.4,3,3,0,0,1,2.1,1.3c1,0,1.49.52,1.5,1.3a1.17,1.17,0,0,1,.7.1v.1c-.42.31-.74.63-.3.8a.16.16,0,0,1,.2.1c0,.45-.41.86-.9,1.1h0l.1.1h.7c.07.13,0,.23-.2.3a.16.16,0,0,1-.2.1.55.55,0,0,0-.2.6c0,.1,0,.13.1.1a1.09,1.09,0,0,1,.5.1.16.16,0,0,1,.2.1,6,6,0,0,0-.2.6.34.34,0,0,1,.3.1v.2c-.1,0-.13,0-.1.1v.1h0c.08.17-.1.26-.4.3h-.1c0,.1,0,.13-.1.1h0v.1h0c0,.1,0,.13.1.1h.2l.1-.1h0l.2-.1h.2l.2.1h0l.1.1h0c0,.1,0,.13-.1.1a2.39,2.39,0,0,1-.9.3h-.2c0,.1,0,.13-.1.1v.2h0l.1.1h0l.2.2h.1c.12,0,.21,0,.2.1.15,0,.24.17.3.4h.3a6,6,0,0,0,.8.9h.1c.09,0,.15.08.2.2h.2a.7.7,0,0,1,.5-.2.91.91,0,0,0,.5,0c.16-.12.12-.23-.1-.3h-.2l-.1-.1.1-.1h0a.49.49,0,0,0,.3-.4c-.28-.34,0-.56.4-.7.1,0,.13,0,.1.1v.2c0,.12.11.18.2.2h0a.16.16,0,0,0,.2-.1h.1c.1,0,.13,0,.1.1a.16.16,0,0,1,.2.1l.1-.1a.16.16,0,0,0,.2-.1,2.87,2.87,0,0,0,1-.2h0a19.43,19.43,0,0,1-3.9,10.8,1.13,1.13,0,0,1-.8.4,1.81,1.81,0,0,1-1.5.7c-.23,1.13-.47,2.62-.6,3.7a3.81,3.81,0,0,1-.6.2,8,8,0,0,0-3.2,2.1,4.21,4.21,0,0,0-1,1.1,2.71,2.71,0,0,1-.7.2q-.35-.27-.3,0h0l-.1.1a21.35,21.35,0,0,1-3.3,3.6,1,1,0,0,1-.5.4.34.34,0,0,0-.1.3l.1.1h.5a.56.56,0,0,1,.3.5h.9c.1,0,.13,0,.1.1s0,.13-.1.1v.1l-.1.1h0c0,.1,0,.13-.1.1v.2h0l.2.1h0l.1.1h.1l.1.1h0l.1.1h0v.1h0a1.07,1.07,0,0,1-.6.3.52.52,0,0,1-.4.2h0c-.1,0-.13,0-.1.1h0c.14.09.14.12,0,.1h0c0,.1,0,.13-.1.1-.13.22-.12.39,0,.5h.1c.12-.08.31-.2.5-.3a5.73,5.73,0,0,1,1.4-.4l.3.1.6.2a.16.16,0,0,0,.2-.1h0l.2-.1h0c.15-.08.2-.09.3,0h0l.1.3v.2l.2.1a.16.16,0,0,0,.2-.1,1,1,0,0,0,.4-.2h0c.1,0,.13,0,.1.1h0v.5h.4a1,1,0,0,0,.4-.1l.4-.2h.2a.16.16,0,0,1,.2.1h0c0,.1,0,.13-.1.1a.82.82,0,0,1-.3.2c0,.12-.11.18-.2.2v.1h0a.77.77,0,0,0-.1.4h.4c.15-.16.46-.46.6-.6a.34.34,0,0,1,.3-.1c.1,0,.13,0,.1.1h.1a12.72,12.72,0,0,0-.6,1.3v.2h0a.16.16,0,0,0,.2-.1h0a1.5,1.5,0,0,0,.2-.4h.1l.1-.1.3.1h.1l.4.2a.53.53,0,0,0,.6-.2c-.34-.23-.54-.51-.3-.8h.6l.2.1h0c.1,0,.13,0,.1.1s.14.21.1.4h.1l.1-.1h.1l.5.1v.2h0l.1.1h0s-.56.76-.6.8c.47.42.28.76-.3,1a4.27,4.27,0,0,1-.8.1c-.24.3-.09.67.3,1a3.8,3.8,0,0,0,1-1h.3c0,.1,0,.59,0,.8h.2a2.07,2.07,0,0,1,.7-.8h.4l.2.1c-.12,0-.13.08-.1.2h0a.16.16,0,0,1,.2.1,3.57,3.57,0,0,0-.4,1h.1c0,.1,0,.13.1.1h0a.34.34,0,0,1,.3.1h0c.1,0,.13,0,.1-.1h.1a4.79,4.79,0,0,0,1.8-1.2.71.71,0,0,1,.3.4c.16.09.38,0,.6-.3l.2-.1a.27.27,0,0,0,.3-.1.16.16,0,0,0,.2-.1h.1a.61.61,0,0,1,.6,0c.16.17.09.36-.1.5a1.3,1.3,0,0,1-1,1.6.27.27,0,0,0,.3-.1c.26.32.72.28.1,1.4,2-.19.91.23,1,.9h.2c.1,0,.13,0,.1-.1a.16.16,0,0,1,.2-.1A.45.45,0,0,1,1860.5,238.5Z"/></g><g id="HATCH-15" data-name="HATCH"><path class="cls-1" d="M1685.7,127.4a5.4,5.4,0,0,1-1.1,3.2c-1.13-.89-2-.86-3.1-1.6.11.07-.7.83-.2.9,7.42,2.44-1.21,5.31-2,8.4a9.72,9.72,0,0,1,1.5-.3.61.61,0,0,0,.2.3c-1.25.73-2.37,2.69-3.6,3.8,1.47,2.14,1.63,2-.1,4l-.3-.3c1.17-3.68-.43-3.55-2.1-.4-1.37,2.59,1.63,8.92-4.2,5.4,1,3.62-.29,4.43-2.5,5.5-.06,0-2.15-4.65-6-.5.55-1.2.54-2.67,1-3.9-7.18,1.76-11,14.94-17.5,19.4-.69-.39-.5-.65-1.1-.9a5.77,5.77,0,0,0,.5,2.1c-2.47.76-2.9,3.84-4.22,4.42s-3.28-.21-3.48-.12c-1.51.68-7.42,3.95-10.6,2.7-1,3-1.58,3-1.9,5.3-1.92-2.57-.29-3-1.9-6.3-.52,1.3-1.67,2.41-2,4.2-.31-.81-.51-1.77-.8-2.6-1,3.34-5.66,13.52-9.8,11.3.14,2.85-1.11,1.39-.1,3.9-3.65,2.1-4.54.6-3.3-2.8-1.47,1.07-3,1.22-4.4,2.6-2.9-3.67-1.75,0-.4,1.3-.78,1-.79,1.56-2.2,2.2,0-1.39-1-2.27-1.2-3.7-2,3.35-13,2.19-16.9,1.65-5.56-.78-9.93-5.78-14-6.05,0-.07.4.47.5.4-1,3.61-5.28.75-5.5,3.9-4.26-3.34-2.25,2.12-7,2.6.37.3,1.33,1.68,2.1,2.1-1.28-.09-2.71.41-4.2.2.13.63.73,1.15.4,1.8a.16.16,0,0,0-.2.1c-4.13-7.92-6.33,1.22-7.2,1.2-4.47-.09-.3-7.51-5.9-2.6.61-.53-2.85,5.56-2.7,4.9-.37,1.65.57,5.17.4,7-.15,1.56-1.93,5.31-1.85,6.75.17,3.06,11.76,15.54,3.55,11.45-.39,4.86,4.54,2.35,6,6.2-2,.31-3.68,1.15-5,1.1-.3,1.68.44,5.42-.3,6.8-1.52,2.82-2.51,1.4-3.2,1.8-.21.12-.89-3.47-1.7-2.75-1.89,1.68.53,4-.15,4.9a4.47,4.47,0,0,1-.85,2.85c-1.62,1.77-3.17-1.17-4-.7-1.77,1-2.27,1-1.3,3.7-3.6-6.26-4.07.06-6.3.4-5,.75-.63-.93-4-1.9a5.67,5.67,0,0,0-4.7.8c.29-1.09.12-2.73.4-3.7-.39.54-1.15,1.24-1.6,1.9-4.26-1.26-4.78-5.42-3.9-9.8-.13,0-.19,0-.2-.2-3,3.22-4.38,6.44-6.15,10.25-.91,1.94,2.47,2.54-1.75,4.25-1.95.79-3.16-4-6.9-1.2.5-3,.77-8.15-2.5-5.5a1.52,1.52,0,0,0-.4.5h-.3a5.41,5.41,0,0,0-1.7-2.1c-.07.1-.12.07-.2,0s-.87.31-1.1-1.2c0,5.37-7.46,9.45-6.3,14.7-4.52,1.61,2.88,12,2.4,15.7,8.27,2.29-3.24,20.57-.5,23.6.17-1,.62-1.77.8-2.9a22.59,22.59,0,0,0,3.3,3.3c.74,4-1.85,4-2.8,5.9-3.07,6.08-1.88,12.56-1.8,20.4-.85,1.1-1.15.45-1.4,2.9-.58-.3-.84-.93-1.5-1.1-2.93,5.87,3.55,14.63,4.4,21.35,1.06,8.41-.88,16.5-1.7,24.35-.83.38-1,2.54-1.2,5.6-.69,1-1,4.44-1.8,7.1-.33-8.06-4.07-2.17-4.7,1.8-.49,3,.06,9.51-4.6,9.5-4.16,0-7.5,5.61-7.2,10-2.35-.23-4.21,1.86-5.6,4.3-.23-1.17-1.31-2.29-1.3-4.2-2.14,1.58-2.1,5-2,7.9.88-.6,1.86-.95,2.5-1.4-.59,4.64-3.13,2.63-5.1,3.7-3.37,1.83-4.67-1.4-4.4,4.2.06,1.3,1.94,2.91,2,3.25.18,5.43-5.2,4.16-2.85-.45.08,0-.29.12-.2-.1a21.92,21.92,0,0,1-2.8-.5c-2.72,4.66-2.24.84-.8-2.2-4.08.69-2.85-3.54-5.9-3.4-2.45.11-7.78,6.9-8.9,8.9-2.15,3.85,1.13,4.7-2.6,4.7-1.24,0,1.19-3.46-2.6-2.5-3.69-5.79-2.4-10.22-9.8-3.9a11.84,11.84,0,0,1-.9-2.9c-2.52,11.77-17.61,9.15-16.7-1.1l-.9-.5a17.36,17.36,0,0,1-1.5,1.7c.1-.63,0-.67-.3-.1-2.75-3.85,3.1-10.69,5.45-14.95,2.82-5.11,3.34-5.4.51-10.79-1.06-2-3.75-4.93-4-7.56-.43-.13-1.24-1-2.2-1.2.12-1.21-.68-3.32-.5-4.8-3.54,2-4.23-11.2-5.1-14.8-1-4-1.92-10.84-.3-16,2.87-9.09,6.08-20.66,3.15-30.47-2.36-7.9-9.51-4.72-10.75-13.55-.73-5.2-.82-8.44,1.1-12.9,1.37-3.19,5-9.22,6.3-1.6.85-1.12,2-1.74,2.7-3,.44.38.54,1.13,1.1,1.4,0-2.6-.87-5.51-.4-8,.38-2,1.71-.83,2.3-2.55,2.32-6.73-.77-8.73-4.37-13.15-2.14-2.62-5.4-6-6.68-9.05-2.13-5.12-.57-4.61.25-12.6,2.43-.18,1.18-9.37,1.1-11.4-.25-6.52-2.73-10.06-4.7-16.3,8,.86-1.86-15.16-2.9-18.65-1.75-5.87-2.76-13.94-8.4-17.85.06-.15.8-.21.8-.4a11.6,11.6,0,0,0-3.7-2.2c-.32.24.08.73-.4.9a7.89,7.89,0,0,1-5.5-2.8c-1.16.09-2.72.55-4.1.7,4.52,5.43-.19,7.41-1.4,11.65-1.13,4,.31,5.45.1,9.65-3.36-1.58-7.25-6.94-9.65-9.85-2.11-2.56-1.48-2.5-4-3.95-1.48-.87-3.89-.54-5.9-2,.15.86.53,8,.6,7.9-1.94,3.82-5.52.16-7.8,4.3-2.86-3.21-6.68-1.17-10.35-4.3-2.67-2.28-2-4.33-3.85-6.3-1.43-1.5-5.34-2.23-6.5-3.4-1.78-1.81-2.11-4.17-3.6-6.5-2.15-3.37-1.67-2-4.7-4.5-2.31-1.89-2.5-3.54-5.6-4.6s-2.39,1.13-5,.4c-5.1-1.43-6.23-9.3-10.8-9-3.12-2-7.27-9-6.9-11.3.38-.85,1-1.26,2.2-.9a2.46,2.46,0,0,0,2.3-1.4,15.68,15.68,0,0,1-3.5-3.9c1-1.8,2.68-1.83,4.6-1,.25,0,.19-.16.1-.4v.1c0-.86.21-1.87,1.1-2,.12,0,.21,0,.2-.1a.16.16,0,0,0,.2-.1h0c-.67-1.21-.51-2,.9-2.2.58-.65.88-.88.8-1.9,2.2.07,1.49-.57,3.3-.7h.1a1.07,1.07,0,0,0,.6-1.2h0c.63-.21.56-.8,0-1.7a7.94,7.94,0,0,0-.6-2.2,1.86,1.86,0,0,1,.1-1.4c.1,0,.13,0,.1-.1a2.67,2.67,0,0,0-.2-2.5c-.28-.22-.43-.36-.7-.6a2.32,2.32,0,0,0-.9-.7,2.75,2.75,0,0,1-.9-1.2,2,2,0,0,1,0-1.1h0c.1,0,.13,0,.1-.1a4.43,4.43,0,0,1-.4-.9h0c0-.1-.13-.21,0-.2h.5a.16.16,0,0,1,.1-.2h.1a7.08,7.08,0,0,1,4.3,2.6,2.6,2.6,0,0,1,.7.6h0c.1,0,.13,0,.1.1s.13.08.1.2c.1,0,.13,0,.1.1h.1c.18,0,.2,0,.4-.2,3,.5,5.51,2.3,8.3,3.7h.3a7.81,7.81,0,0,1,1.7.6h.1a1.12,1.12,0,0,1,.7.1.39.39,0,0,0,.3-.2c-.06-.33.07-.4.4-.2a4.74,4.74,0,0,1,1.9.2c-.6-1.09-1.24-3.59-2-4.8,1.19,1.24,3,1.33,4,1.8.12-.48.36-.78.8-.8a.87.87,0,0,1,.5.1,6.21,6.21,0,0,1,1.4.6,3.83,3.83,0,0,0-1.5-5.2c-.17-.31-.4-1-.4-.9l.2.1h.1a.16.16,0,0,0,.2.1h0a.34.34,0,0,0,.3-.1h0v-.1c.1,0,.13,0,.1-.1h.1v-.1c.14-.19.16-.19.5-.4a1.76,1.76,0,0,1,.9.4.52.52,0,0,0,.4-.1,4.16,4.16,0,0,1,1.9,1.4q.12.21.3,0c.1,0,.13,0,.1-.1a3.46,3.46,0,0,1,2.1,1.5h0l.1.1a.39.39,0,0,1,.2.3h0c.1,0,.13,0,.1.1a.82.82,0,0,0,.3.2l.1.1h.2a3,3,0,0,1,.4.2h0a.27.27,0,0,1,.3.1h.2a5.86,5.86,0,0,0,2.4,2.2h0c2.12,1.8,5,3.69,7.1,5.6h.1a.16.16,0,0,1,.2.1h0a.16.16,0,0,1,.2.1h.4a.39.39,0,0,0,.3-.2h0c0-.1,0-.13.1-.1h.1a4.75,4.75,0,0,1,1,.3l.8.1.2-.2h.1a.38.38,0,0,0,.3-.1h.2a.27.27,0,0,1,.3.1h0a1.77,1.77,0,0,1,.6.2h.1c.1,0,.13,0,.1-.1l.2.1a20.47,20.47,0,0,0-1.5-3.3c1.45.58,3.62.6,5.2,1.4-.64-2-.6-4.21-1.3-6.2.53.31,1.2.56,1.7.9.79-.08.12-.73-.2-.8h0c.1,0,.13,0,.1-.1-.21-.17.05-.06.2,0h0v-.1h0c.1,0,.13,0,.1-.1l-.3-.2-.1-.1h0a.3.3,0,0,0-.2-.3h0v.1c0,.1,0,.13-.1.1v-.1h0v-.1c0-.12-.11-.18-.2-.2l-.1.1-.1-.1h0l-.1-.1h.3l-.1-.2-.1-.1h-.1l-.1-.1v-.1c0-.14,0-.14.1,0h.1a.34.34,0,0,0-.1-.3v-.1l-.1-.2h.1l-.1-.1h0a.16.16,0,0,0-.1-.2h.1v-.1h0a.27.27,0,0,1-.1-.3h.1l.1.1h0l-.1.1h0c0,.1,0,.13.1.1h.1a.82.82,0,0,1,.3.2h0c.1,0,.13,0,.1-.1v-.1h0c0-.1,0-.13-.1-.1a.16.16,0,0,1-.1-.2h.1v-.2l-.1-.1a.8.8,0,0,1-.3-.5.39.39,0,0,1,.2-.3h0a7.41,7.41,0,0,1,1.9-1.4,15.59,15.59,0,0,1,2.6-.9c.48-1.57,1.86-3.12,2.2-5.7a5.46,5.46,0,0,1-2.1-2.8c.41,0,.71-.07.6-.4,1.76-1.76,2.45-4,1.1-6a8.28,8.28,0,0,0,1.9-1.1h0a.23.23,0,0,0,.3-.1h0l.3.1c5.63-1.72-1.65-7.8-.8-11a2.4,2.4,0,0,0,1-2.7c.31-4-2.69-6.22-2.8-10-.08-2.58,2.22-3.79,3-5.5a9.16,9.16,0,0,0,1-4.2v-.5h0c0-.1,0-.13.1-.1V66h.1a.39.39,0,0,0,.4-.1h.2c0-.1,0-.13.1-.1,0-.16.16-.66.2-.8s0-.13.1-.1h0a1.32,1.32,0,0,0,.9,0h.3a4,4,0,0,1,.7.2h.1a.57.57,0,0,0,.5-.1,3.74,3.74,0,0,0,.4-.4l.1-.1.2-.1h.2a.27.27,0,0,1,.3.1h0a.82.82,0,0,1,.3.2h.1a11.32,11.32,0,0,0-3.1-5.6c.1,0,.13,0,.1-.1,6.64-.33,2.56-9.1,7.8-8a.16.16,0,0,0-.2-.1.16.16,0,0,0-.2-.1,491716548539.41,491716548539.41,0,0,1-.4-.2c-.57-3.08-1.68-6.44-1.2-9.3a1,1,0,0,0-.1-.4,7.85,7.85,0,0,1-.7-1.3c.09-.08.06-.13,0-.3h0l-.3-.4c-.43-.45-.56-.59-.9-1a2.86,2.86,0,0,0-.9-1,52,52,0,0,1-.8-5.9c-.19.68.8.5.8.5s-.85-.87-.7-1c3.84-1.34,5,3.6,8.4,5.3a24.49,24.49,0,0,0-.2-4.7c.15-.27.32-.54.5-.8,1.67-3.18,9.63,6.78,10.6,4.1a.84.84,0,0,0,.6.1h.2a.16.16,0,0,1,.2.1.63.63,0,0,0,.6-.5h.2a.16.16,0,0,1,.2.1c.09,0,.29-.2.5-.5.14-.12.37-.05.6.1a.27.27,0,0,0,.3-.1,4,4,0,0,1,.9.6,1.09,1.09,0,0,0,.4-.3l.2-.1a1.78,1.78,0,0,1,1.1.4h.3a3.24,3.24,0,0,0,.4-1.9h.1a1.07,1.07,0,0,1,.3-.5l.2-.5h.4a1.14,1.14,0,0,1,.5.2h.1c.14.07.31.18.5.3h0a.52.52,0,0,1,.7.1h.3a.16.16,0,0,0,.2-.1h0a16.45,16.45,0,0,0,.7-1.6,2.71,2.71,0,0,1,1.1,1.4v.5h0a9.77,9.77,0,0,1,1.9-3.6h.1a.16.16,0,0,1,.2.1c2.34.22,3.69.63,5.3,2.3,1.13-1.15,2.89-1.62,4.3-2.6a.23.23,0,0,0,.3-.1c2-.74,5.06-.17,5.5,3.3h.2c0-.11-.2-.9-.2-.9s1.27.26,1.5.2a6,6,0,0,1-.5-1.7,14,14,0,0,0,2.1.3,19,19,0,0,1,2.4.3h.2c1,0,2,.11,3,.2h1.4a12.88,12.88,0,0,1,4.6.6c2.64-.53,8.8-4.52,7.5,1,.31,1.08.77,1.19,1.4.3a26.4,26.4,0,0,1,1.3-2.3c.26,2.31.12,6,.3,7.4a.38.38,0,0,0,.4-.2h0a1.92,1.92,0,0,1,1.2.2c.94,2.87,2.48,6.46,4.2,7h.7c1.77,1.94,5.12-.45,7.9-1.4a.89.89,0,0,1,.4.2l.2.1h0a1.05,1.05,0,0,1,.3.1h.2a.27.27,0,0,1,.1.3h0l1.6,2.7v.4c0,.12,0,.21.1.2h0v.1c.44,2.08,1.15,4.12,1.7,6.1.31-.6.83-1.25,1.1-1.7a29,29,0,0,0,.4,3.3c4.27-.32,2,9.45,7,5.4a20.89,20.89,0,0,1,1.3,2.8,4.7,4.7,0,0,0,1.7-3.5h0c3.36-1.31,6-1.87,7.9,1h0l.1-.1h.6a5.36,5.36,0,0,0,1.1.8l.3.1h.6c1.05-.17,1.32.46,1.1,1.6,1.29-1.1,2.36-1.49,3,.1h0a.16.16,0,0,0,.1-.2v-.1c.22.3.66.87,1,1.3a3.35,3.35,0,0,1,.8.5,2.39,2.39,0,0,1,.6.4.77.77,0,0,0,.4.1h.1a1.47,1.47,0,0,1,.9.3,7.88,7.88,0,0,1,2,5.8c-.65,1.29-.24,2.56.9,3.7a5.64,5.64,0,0,0,4.5,1.5,2,2,0,0,0,1.7-1.9,27.14,27.14,0,0,1,2.2-6.3,5.59,5.59,0,0,0,2.2-3.1h0a.74.74,0,0,1,.7.1c.4.28.71.27.9-.1.1,0,.13,0,.1-.1h.2a4.42,4.42,0,0,1,.5.1h0l.6,1h0c1.28.41,2-.41,2.1-2.1.66,1.32.89.91.8-.7.33.71.72,1,1.3,1h0c1.18-.42,2-1.18,1.8-2.4.05-.47.08-.93.1-1.4.33.3,1,.62,1.4.9a8.1,8.1,0,0,0,.3-1.6c.24.08,1.7-.69,3,.5-.09-.78-.07-1.44-.1-2.2h0a.58.58,0,0,1,.5-.1c.1,0,.42-.15.6-.2.83,1.18,1.8,2.43,2.7,3.5a2.49,2.49,0,0,0,.4.4l1.2,1c.09,0,.15.08.2.2h0a.92.92,0,0,1,.4.5,2.28,2.28,0,0,0,1.2.8v-.1h0a.67.67,0,0,0,.1-.5h0l.1-.2v-.1l1.3.7a9.5,9.5,0,0,0,3.9,1.3h0a.34.34,0,0,1,.3-.1h0l.1.1c.12,0,.21,0,.2.1h.3a.86.86,0,0,1,.3.3h.4a2.16,2.16,0,0,0,.5-.6,2.09,2.09,0,0,0,.2-1.4h-.2a1.14,1.14,0,0,1-.2.4.16.16,0,0,1-.1.2h-.2l-.3.2h-.1l-.2-.2h0v-.1a8.4,8.4,0,0,1,.9-1.8c.1,0,.13,0,.1-.1h.1l.2-.1h0a.16.16,0,0,1,.2.1h.1c.1,0,.13,0,.1-.1h.1l.2-.3v-.1c0-.09.08-.15.2-.2a.18.18,0,0,0,.3,0,1.62,1.62,0,0,0,.4-1.2c-.1,0-.13,0-.1.1l-.1-.1a.16.16,0,0,1-.1-.2,1.3,1.3,0,0,0-.3-1.3c-.1,0-.13,0-.1-.1s-.12-.14-.1,0l-.2-.1h-.1a2.56,2.56,0,0,1,0-1.4c0-.18.13-.24.3-.1a5.15,5.15,0,0,0,.5.4h.2c.1,0,.13,0,.1.1h.2a12.51,12.51,0,0,0,.3-2.4h.1a1.84,1.84,0,0,0,.3-2.6h-.1a1.06,1.06,0,0,0-.3.3h-.6a.5.5,0,0,0-.2-.3v-.1h0a3.38,3.38,0,0,1,.9-1.5c.08-.07.13-.1.2,0a1,1,0,0,1,.4.4h.1c.09,0,.15.08.2.2h.2a.16.16,0,0,0,.2-.1c.09,0,.15-.08.2-.2a1.6,1.6,0,0,0,.3-2.1.77.77,0,0,1-.4.1c0-.1,0-.13-.1-.1h-.1a2.6,2.6,0,0,1-.4.1.34.34,0,0,0-.3.1c-.37.1-.54.22-.6.5h0a.39.39,0,0,1-.1-.4v-.3a2.11,2.11,0,0,1,.5-1.4c.07-.19.14-.41.2-.6a1.24,1.24,0,0,1,.2-.4h.1a.55.55,0,0,0,.3-.3c.1,0,.13,0,.1-.1l.1-.1h0l.1-.1h.2c.1,0,.13,0,.1.1h.2a14.13,14.13,0,0,1-.5,2.2c.56-.7,1.27-.6,1.9-1l5.6-1a31.06,31.06,0,0,1,3.8.4.16.16,0,0,1,.2.1.53.53,0,0,1,.6.2,3.66,3.66,0,0,1,1.4-1.3c.7-.51,1.56-1.11,2.3-1.6a1.33,1.33,0,0,0,1-.2c4.28,7.43,5.09-7.56,6.9-10.1h0c.1.1.18.09.3,0h.2a.16.16,0,0,0,.2-.1h.2l.3-.1h.1l.1-.1h0c.1,0,.13,0,.1-.1a.16.16,0,0,0,.2-.1l.5-.4c.91,1.26,2.12,3.71,3.1,4.8a11.09,11.09,0,0,0,1-.8c2.52,3.62,4.52,7.44,8.3,7.7.24-.58,0-1.19.7-.6a10.12,10.12,0,0,0,.1,2.4c.2-.12.39-.14.5,0l.3-.1c.64.25,1.39-.37.4,1,3,.41,2.84,10.46,3.7,14.4l.2.2.1.1a.16.16,0,0,1,.2.1,3.15,3.15,0,0,0,1.3,2.1h0a1.26,1.26,0,0,0,.6.2,2.24,2.24,0,0,1,.4.6h0l.2.1a.66.66,0,0,1,.2.5l-.1.1a.16.16,0,0,1-.1.2h0a8.55,8.55,0,0,0,.2,1.7c2-.82,2.68-.1,4.5-1.8.7,4.55,4.82,3.39,5.7-.4h0c.1,0,.13,0,.1-.1.09.14.15,0,.2-.1h.1c.1,0,.13,0,.1-.1h0c0-.14,0-.14.1,0h0c.1,0,.13,0,.1-.1,0,.14,0,.14.1,0l.1-.1h.2a.27.27,0,0,0,.1-.3h.2a1,1,0,0,0,.3-.2h.3a.16.16,0,0,1,.1.2c0-.14,0-.14.1,0v.1c.1,0,.13,0,.1.1h0a.23.23,0,0,1,.2.2h.1v.1h0c.1,0,.13,0,.1.1h.1v.1h.1v.1h.1l.1.1h0c0,.1,0,.13.1.1h0a.16.16,0,0,1,.2.1h0l.1.1a.16.16,0,0,0,.1.2h0c.1,0,.13,0,.1.1a1.25,1.25,0,0,0,.2.4v.3a.16.16,0,0,1,.2.1c.07.13.13.13.2,0h.1c.1,0,.13,0,.1-.1a1.06,1.06,0,0,1,.3-.3c.21-.39.46-.83.6-1.1h.2c0,.1,0,.13.1.1h0c.1,0,.13,0,.1.1h0l.1.4a.38.38,0,0,1,.3-.1h.1a12.08,12.08,0,0,0,1.1,7.1h0v.1h0V73l.1.2v.1h.1v.2a1.21,1.21,0,0,1,0,.8h0a.43.43,0,0,1,0,.4,1.16,1.16,0,0,1,0,.8,53,53,0,0,1,.1,5.4v.9c.1.25.12.45-.1.5,0,.1,0,.13.1.1h.1c.09-.05.25-.13,0,.1,0,.1,0,.13-.1.1h-.2a.23.23,0,0,1-.2.2h0c0,.1,0,.13-.1.1h0c-.05.12-.11.18-.2.2a.34.34,0,0,0-.1.3,9.44,9.44,0,0,0,.2,1.6,1.35,1.35,0,0,1,.2.7c.1,0,.13,0,.1.1l.1.1v.2a1.1,1.1,0,0,1,.3.6.69.69,0,0,1,.2.3,3.54,3.54,0,0,0,.9,1.2l.1.1v.1c0,.1,0,.13.1.1h.1l.1.1a2.67,2.67,0,0,0-.3.8l-.2.1v-.1h0c0,.15,0,.28-.1.3h-.1v.1h-.1v.1c.12,0,.14,0,.2.1s0,.13-.1.1a.39.39,0,0,0,.1.4h.2c-.14,0-.14,0,0,.1v.3c.1.07.07.12,0,.2h-.1v.3h0v.1h0c0,.1,0,.13-.1.1h0l.1.1h0v.1h0l.1.1h0c0,.12,0,.21-.1.2h0v.2c.1,0,.13,0,.1.1s0,.13-.1.1h.1l.2.1v.1h.1c.14.1.14.21,0,.3h-.1a.16.16,0,0,0-.1.2h.2c.11-.11.22-.16.2.1h0l-.1.1c.09.14.12.14.1,0h.1c0,.1,0,.13.1.1h0l-.1.1h-.1a.16.16,0,0,0-.1.2c0,.1,0,.13.1.1l.2-.2v.2h0c.13,0,.14-.15.1-.3a.34.34,0,0,0,.3-.1h0c.1,0,.13,0,.1-.1s.09,0,.2-.1h0l.2.2h.1a6.27,6.27,0,0,1,1.2,2.8,1.14,1.14,0,0,1,.3.6,2.12,2.12,0,0,1,.3.8,2.45,2.45,0,0,1,.2.4h0a.16.16,0,0,0,.2-.1v-.1a.23.23,0,0,1,.2.3c.1-.09.17,0,.3.1.46.58.41,1.26-.1,2.2h0c.46-.26.77-.31.5.4a31.52,31.52,0,0,1,1.1,4.5h0a6.94,6.94,0,0,1,.5,2.1c-.06,0,.89-.54.8-.5.6,4,1,8,0,11.4h0c.15.21.61.92.9,1.4l1.8-.5h.3a5.63,5.63,0,0,1,1.1-.3,5.72,5.72,0,0,0,2.2,2.6h0c2.4,1.1,3.89,3.09,3.1,5.5a2.57,2.57,0,0,0,.3,2.5h0c.28.69.8.54,1.4,0a1.28,1.28,0,0,0,.8.4,9,9,0,0,1-.5,3.9c1.56,2.2,3,4.09,5.8,3.8.37.18.93.43,1.4.6,0-.12.11-.18.2-.2a11.12,11.12,0,0,1,5.4,4.9h0c.7,0,1.4-.05,2.1-.1a1.27,1.27,0,0,1,1-.3,3.2,3.2,0,0,1,1.1.7,1,1,0,0,1,.6-.3.39.39,0,0,0,.3-.2,1.27,1.27,0,0,1,1.5-.2h.1a9,9,0,0,0,1-.8,1.3,1.3,0,0,0,.9.8h.2a1.29,1.29,0,0,1,.1.7h0c0,.1,0,.13.1.1h.1a.51.51,0,0,0,.5.5h0a.69.69,0,0,0,.4-.4h.1a.5.5,0,0,1,.4.4h0c.08.11.15.19.3.1s.13-.1.2,0a2.61,2.61,0,0,0,.2.3l.3-.1h.1a.16.16,0,0,0,.1.2v.1h0c0,.1,0,.13.1.1l.3-.1h.1a.63.63,0,0,1,0,.7,3.45,3.45,0,0,0-.3,1.1h0c.1,0,.13,0,.1.1a1.27,1.27,0,0,0,.5-.4h0c.48.57.94.39,1.4-.2l.5.1h1.1a1.11,1.11,0,0,0,.1-1.6c0-.1,0-.13-.1-.1a21.29,21.29,0,0,0,.7-6.4h0c-1.35-3.72-.33-6.29,3.3-6.8h.1a35,35,0,0,0,2.5,5.2,3,3,0,0,0-.3-1.7.41.41,0,0,1,.3-.5,16.1,16.1,0,0,1,1.9,2.2h.3a1.94,1.94,0,0,0-.3-1.5,1.88,1.88,0,0,1,1.5-1.8c.15.67.4,2.29.5,3.2h.1c1.06-1.29.81-2.73-.2-4.2a4.32,4.32,0,0,1,.9-2.1c.2.47.79,2.25.9,2.7a5.7,5.7,0,0,1,.9.5h.3a13.56,13.56,0,0,0,.4-3.8h.2a14.71,14.71,0,0,0,.4,2.7c.6-.78,1.42-1.43,2-2.3h.2a2.87,2.87,0,0,0,0,1.4h0a2,2,0,0,1,1.2,1.6,1.31,1.31,0,0,1,.6-.3,6.24,6.24,0,0,1,1.1,1c0-.14,0-.14.1,0a4.74,4.74,0,0,0,.2-4.7h.1a2.74,2.74,0,0,1,.7.7h0a.16.16,0,0,1,.2.1,3.39,3.39,0,0,0,1.5-2.5l1.3-.3h.2c1.39-1.61,1.18-3.49,3.1-1.2.15-2,1.06-.86,1.5-1.1.69-.4,1,0,1.4.5h0c.83-.71,1.39-1.07,1.6-.7.21-.12.38.57.6,1.6h0c.22-.88.4-1.5,1.2-1.9.33,1.2.9.68.8.6a2.82,2.82,0,0,0,1.1-1.4.65.65,0,0,1,.4-.1h0a1.28,1.28,0,0,0,1.2-1c.21-.16.24-.39.1-.7v-.1a.65.65,0,0,0,.4.1h0c-.1-.23-.07-.33.1-.3a3.28,3.28,0,0,0,2-2.5.64.64,0,0,1,.7.1l.2-.3c.18-.41.08-.69-.3-.8h-.2v-.9l.1-.1h0l.1.1a4.84,4.84,0,0,1,2.9,2.8h0l.4.2.7.5h0a1.26,1.26,0,0,1,.5.3,4.34,4.34,0,0,1,.6,1.1.16.16,0,0,1,.1.2h0c.1,0,.13,0,.1.1.33.61.57,1.1.9,1.7l.8-.2c-.18-1.65.73-1.79,1-2.7a2.19,2.19,0,0,0,.8.1c.78.32,1.37.23,1.3-1a4.84,4.84,0,0,1,1.1-1.8c.41,1.35,1,1.9,1.3,3.1h0a11.49,11.49,0,0,0,0,4.6h0c.1,0,.13,0,.1-.1h0a4.28,4.28,0,0,1,.6-1c.32-.73,1-2.31,1.1-2.5l.1.1a.23.23,0,0,0,.1.3,14.17,14.17,0,0,0,4.7-2.4h0l.2.3a1.22,1.22,0,0,1,.3.4C1684.26,123.13,1682.47,127,1685.7,127.4Z"/></g><g id="HATCH-16" data-name="HATCH"><path class="cls-1" d="M1427.9,434.4c-7,8.1-15.83,11.15-21.4,20.4-1.9,3.15-3.37,7.24-6,10.15-3.65,4-8.39,6.28-10.85,11.35.17,0,.2.07.1.3.6-.09,1.18-.52,1.8-.6-4.36,8.59-13.1,12-19.5,18.2-4.14,4-7.55,8.69-12.85,12.7-4.69,3.55-9.37,6-14.15,9-1.73,1.07-3.73,2.87-5.6,4s-3.82.28-5,2.6c-3,1.89-9.8,3.59-11.6,1.3,1.23-.7.57-.27,1.2-.9a.16.16,0,0,1-.2-.1c-5.4,1.64-9.12,1.06-14.2-1.1,7.26-2.76,2.92-7-2.8-5.2l1.3-1.3c-1.76.32-3.34-.16-5,0,0-2.9-.59-1.26-2.4-3.2-3.91-4.19,1.93-5.32-7.15-4.92-5.4.24-11.76,2.61-17.15,3.72,2.09,2.31,4.33,4.84,7.7,5.4-11.55,7.15-35.58-9.55-46.2-14.4a12.09,12.09,0,0,0,4.1-5.2c-7.36-4.06-5.72-11.23-10.8-15.3,3.09-5.24-3.62-6.85-7.7-7.6-5.69-1.05-5.43.51-11.52,2.52-7.57,2.5-19.44,3.23-27,2.2-4-.53-20.62-4.64-15.85,6.18-4,.32-8.55.26-12.48,1.32-4.17,1.13-6.49,3.79-11.22,3.33-10.06-1-15.91-4.63-26.4-3.55l1.1,2.5c-3-.81-6.75-.79-9.35-2.55-.91-.62-1.88-4-4.15-4.95.26-.42.85-.42,1.1-.9-5.09-.79-7.13-3-10.8-5.9a11.76,11.76,0,0,1,1.8-.4s-1.31-.39-1.3-.5a3.81,3.81,0,0,0,2.4-1.3c-2.64-1.09-5.23-2.33-7.9-3.4,5.07-1.46,14.83-.54,17.9-3.8,2-2.7-2.12-13.51,8.1-12.1-.4.5-1.05.67-1.5,1.3,1.19,1.31,1.19.08.9,1.7l1.7-.3a.73.73,0,0,0-.5.9,29.49,29.49,0,0,1,3.9-4.2c1.63-1.07,4.55-1.88,6.15-2.77,1.84-1,1.37-2.75,3.35-3.56,4.11-1.67,7.82-1,12.5-3.17-.84-3.73,5.44-9.92,7.7-12.95,4-5.35,9-11.44,13.88-17.13,4.25-4.94,10.34-10.09,13.2-15.92,1.62-3.31,1.91-7.11,3.07-10.68,1.35-4.16,3.69-7.91,3.75-12.52-.94.54-2.2.59-3.4,1.6.3-4.9,4.13-6.6,6-10.6,1.62-3.45.38-9.43,5.6-10.4,3-.56,5,4.65,6,6.85,2.47,5.32,2.55,6.87,5.65,9.35,1.17.94,2.4-.39,4.3,1.5.35.34.59,4.63.7,5.6a4,4,0,0,1,1.8.4c5-3.76,7.3-7.69,9.93-13.57,3-6.77,4.51-8.1,2.07-16-1.39,1.49-2,1.41-3,3.3-1,1.32-1.33,4.59-5.8,4.4-.12-4.39-7.42-6-1.3-10.2-1.11-.57-.4-.89-1.8-1.2,3.54-6.4,1.59-13.16,5.1-17.75,1.07-1.4,5.25-4.23,7.65-5.9,3.56-2.48,6.31-4.47,9.3-5.45,1.34-.44,2.05.16,4.55-1,1.85-.86,2.37-2.92,4.4-3.7-.47,4.47.87,8.15,1,12.6,1.11-1.24,2.81-2.53,3.9-4.3,0,.84.24,1.89.3,2.7.87-2.88,1.69-5.72,2.7-8.6q-.56.85.3.3c-.35,1.7-.63,3.41-1,5.1a230.79,230.79,0,0,1,7-25.5c1.86-5.74,6.19-8.7,6.9-16.3.45-4.78-.88-10,.2-14.7.45-2,3.77-4.45,4.1-6.9.48-3.55-1.83-6.27-1.3-9.9.65-4.49,3.68-6.33,3.5-10.9,1.91,2.89,4.8.53,6.8,0,0-4.69-3.47-9.62-4.1-15.4-.48-4.44-1.58-8.45-1.7-12.6.32,1.14.53.5,1.3.7a16.58,16.58,0,0,0-2.8-3.1c-.45-1.42-.35-1-.7-2.1-3.15-2.07-11.37-15.91-9.1-20.1,1.6,2.7,1.55,2,2.8.5,3.69-2.2,14,.54,9.4-9.2a10.06,10.06,0,0,1,5.9,2.6,22.57,22.57,0,0,1,1-2.2c-.76-1.76-.54-2.89-1-4.8,2.81-2.85,2.7.32,4.5.4.82,0,5.91,0,5-.15,3.94.66,7.35,2.88,10.35,6.15,2.09,2.28,3.86,7.65,6.9,10.4,1,.93,5.09,1.82,6.4,3.3s.87,3.85,3.1,5.8c3.7,3.23,7.66,1.15,10.5,4.4,2.31-4.11,5.88-.52,7.8-4.3-.07.13-.45-7-.6-7.9,2,1.42,4.28,1.2,5.75,2,2.57,1.48,1.9,1.24,4.1,3.9,2.42,2.94,6.29,8.17,9.65,9.85.21-4.2-1.23-5.68-.1-9.65,1.21-4.26,5.89-6.19,1.4-11.65,1.43-.16,2.87-.59,4.1-.7a7.73,7.73,0,0,0,5.5,2.8c.5-.18.07-.65.4-.9a12.1,12.1,0,0,1,3.7,2.2c0,.2-.74.24-.8.4,5.64,4,6.63,11.89,8.4,17.85,1,3.47,10.94,19.56,2.9,18.65,2,6.24,4.45,9.79,4.7,16.3.08,2,1.33,11.21-1.1,11.4-.81,7.89-2.34,7.47-.3,12.5,1.27,3.14,4.59,6.48,6.73,9.15,3.53,4.42,6.72,6.45,4.42,13.05-.59,1.68-2.13.69-2.5,2.38-.52,2.36.52,5.66.55,8.22-.55-.28-.67-1-1.1-1.4-.71,1.28-1.84,1.88-2.7,3-1.29-8.19-3.35-1.57-4.8.4-3.09,4.21-3.82,5.87-3.1,11.8.36,3,.8,7.25,2.55,9,2.23,2.16,5.86.75,7.87,3.75,4.53,6.73,1.06,23.37-1,30.15s-2.71,12.64-1,18.75c.89,3.17,1.44,17.57,5.1,15.5-.18,1.45.62,3.62.5,4.8a10.68,10.68,0,0,1,2.2,1.2c.09,2.51,3,5.64,4,7.56,2.78,5.29,2.26,5.78-.51,10.79-2.34,4.24-8.22,11.12-5.45,14.95.3-.57.4-.53.3.1a17.36,17.36,0,0,0,1.5-1.7l.9.5c-.91,10.25,14.18,12.87,16.7,1.1.08,1.26.63,1.84.9,2.9,7.4-6.32,6.11-1.89,9.8,3.9C1425.81,430.5,1426.15,432.75,1427.9,434.4Z"/></g><g id="HATCH-17" data-name="HATCH"><path class="cls-1" d="M1281.9,166.3c-1.57,1.07-.68,2.4-2.7,1.9.44,1.89.24,3.08,1,4.8a22.57,22.57,0,0,0-1,2.2,10.06,10.06,0,0,0-5.9-2.6c4.56,9.74-5.71,7-9.4,9.2-1.24,1.51-1.22,2.19-2.8-.5-2.27,4.19,6,18,9.1,20.1.35,1.08.25.68.7,2.1a15.61,15.61,0,0,1,2.8,3.1c-.77-.2-1,.44-1.3-.7.08,4.16,1.22,8.16,1.7,12.6.31,2.88.2,6.25,1.2,9.3.77,2.36,2.83,2.48,2.9,6.1-2,.53-4.9,2.94-6.8,0,.18,4.57-2.85,6.41-3.5,10.9-.53,3.63,1.78,6.35,1.3,9.9-.33,2.45-3.65,4.94-4.1,6.9-1.08,4.67.25,9.92-.2,14.7-.71,7.6-5,10.56-6.9,16.3a230.79,230.79,0,0,0-7,25.5c.37-1.69.65-3.4,1-5.1q-.86.56-.3-.3c-1,2.88-1.83,5.72-2.7,8.6,0-.79-.26-1.88-.3-2.7-1.08,1.78-2.79,3.07-3.9,4.3-.13-4.45-1.47-8.13-1-12.6-2.1.78-2.46,2.74-4.4,3.7-2.39,1.18-3.31.35-4.3.7-3.17,1.11-5.87,3.25-9.55,5.75-2.41,1.64-6.41,4.43-7.45,5.78-3.73,4.79-1.63,11.26-5.3,17.87,1.44.33.61.65,1.8,1.2-6.07,4.17,1.17,5.84,1.3,10.2,4.47.19,4.8-3.08,5.8-4.4,1-1.91,1.57-1.7,3-3.3,2.49,8.1.91,9.18-2.07,16-2.54,5.82-4.87,9.95-9.93,13.57a3.92,3.92,0,0,0-1.8-.4c-.09-1-.37-5.31-.7-5.6-1.69-1.52-3.36-.76-4.3-1.5-3.06-2.43-3.26-4-5.65-9.35-1-2.2-3.06-7.4-6-6.85-5.21,1-4,6.95-5.6,10.4-1.9,4-5.77,5.62-6,10.6,1.2-1,2.45-1.05,3.4-1.6,0,4.45-2.31,7.81-3.7,11.75-1.28,3.64-1.33,7.69-3,11.15-2.87,5.95-9,11.22-13.32,16.22-4.59,5.29-9.75,11.34-13.26,16.32-2.16,3.07-9.35,10-8.32,13.76-2.09.8-4.29,2.32-6.2,2.8s-4.28-.45-6.3.37-1.52,2.55-3.35,3.56c-1.1.61-4.1,1.65-5,2.45-1.74,1.47-3.29,3-5,4.52a.73.73,0,0,1,.5-.9l-1.7.3c.32-1.66.34-.32-.9-1.7.44-.62,1.12-.81,1.5-1.3-10.24-1.41-6.11,9.39-8.1,12.1-1.86,2-14.44,4.05-18.1,3.8-7.09-.48-11.69-1.84-18.4-1.4.08,0,0,.46-.1.5a17,17,0,0,1,5.9,2.1c-6.13-.66-20.64-4.3-24.1-9.7.67-.19,1.4-.14,2.1-.3-1.59-2.83-7.35-2.87-10.1-4.8.36-2,2.32-4.24,6-3.5-9.13-6-17.19-6.51-26.1-10.1-5.84-2.36-9.87-8-16-10.58-6.66-2.86-13-9.07-17.35-11.92-9.69-11.44-18.75-23.68-27.7-35.7l.6,1.2c-.28-.46-.28-.39,0,.2-1.53-2.23-1.94-2.52-3.4-4.5.47.91.91,1.88,1.4,2.8-5.48-6.47-10.69-13.44-16.2-20,.39,1.28.58,3.49,1.3,5-5.48-1.64-11.11-18.94-15.4-24.6.14.36.14.4,0,.1-.33,1.17.53-.09.3.7-7-7.76-11.77-24.54-17.35-34.05-9.36-15.94-18.68-34.95-23.45-52.15-2.05-7.41,1.41-9.18,2.55-16.35s-1-13.84-.25-21.55c-1.11.1-1.48-18.29-5.7-10.4-2.26-3.43-1.2-1.93-2.9-2.2-2.85-5.68-4.76-12.63-6.8-18.7,2.41-.83,6.31.28,7.3.1a2.62,2.62,0,0,0,.9,1.3c.21.53.22,1.3.5,0,.43.59.48,1.17.9,1.8,2.43-2.8.28-6.42,3.6-9.1a20,20,0,0,0,1.1-2.2s-.19-3,.3-1.3h0c.36-1.15.75-2.32,1.1-1.4h-.1a1.24,1.24,0,0,0-.3,1h0c.29-.63.47-.21.6.8a3,3,0,0,1,.3,2s.55-1.17.6-1.3c.49,1.16.58,2.43,1,3.5a4.52,4.52,0,0,0,.3-.9,17.51,17.51,0,0,1,.2,2.6,4,4,0,0,0,.4-1.4c.38,1.21.65.6.9,1,1.69-.83,2,1.93,2.6,4.7a27.38,27.38,0,0,0,1.3-4.8,5.1,5.1,0,0,0,1.1-.6c1.5-5.5,2.94-5.12,5.5-1.1.1,0,.13,0,.1-.1l.1-.1h0a.89.89,0,0,0,.2-.4c.1,0,.13,0,.1-.1l.2-.1h.3l.1.1h0l.1.1h.2l.2-.3a10.23,10.23,0,0,0,.8-2.7v-.1a2.83,2.83,0,0,1,.4-.6,14.63,14.63,0,0,1,.8-2h.3a.16.16,0,0,0,.2.1h0a.16.16,0,0,0,.2-.1,3.5,3.5,0,0,1,.4-.5h.1a1.88,1.88,0,0,1,.3.7h.2l.1-.1.1-.1h0l.1.1h0a1.9,1.9,0,0,1,.1.9,3,3,0,0,0,0,1.4v.2h.3c.1,0,.13,0,.1.1a2.35,2.35,0,0,0,.1.6.34.34,0,0,0,.1.3h.1l.1-.1h.1c.1,0,.13,0,.1.1h.1a2.6,2.6,0,0,1,.1.4.39.39,0,0,0,.2.3c0,.1,0,.13.1.1h.1c.1,0,.13,0,.1-.1h.1a5,5,0,0,1,.7-.8h.3c.14.2.45.73.6,1h.2c.11-.09.23-.06.4.1,1.54,2.24,3.54.15,5.2-1.8a8.82,8.82,0,0,0,1.4-1.3c4.16,1.2,3.22,10.71,8,4.8,2-2.44,2.54-9,3.5-12.1a6.22,6.22,0,0,1,2.4-2.6,3,3,0,0,1,2.6-1.1h0c4.37.89,6.08-7.83,9.65-10.5,4.27-3.19,5.27-1.74,9.85-2.6,5.48-1,11.43-3.66,17.1-1a1.73,1.73,0,0,0,1.5-1.7,1.2,1.2,0,0,1,.9.6l.2.1a1.33,1.33,0,0,1,.4-.3.77.77,0,0,1,.4.1,6,6,0,0,0,1.5,2.3.81.81,0,0,0,.5-.6h0a3.51,3.51,0,0,0,.6.2,2.13,2.13,0,0,1,1.9,2.3c1.44.83,2.57.43,3-.7h0a.24.24,0,0,1-.4,0c-.2-.39,0-.4.4-.3h0c-2.36-2.28.75-2.28,3.1-3.3.43-.2,1-.22,1.5-.4-.25.43.21.88.2,1.2h.1c.13-.16.34-.45.5-.7,1.17-.3,2.11-.44,1.6.3.23.2-.27,1.71.6.2,1,.41.07.65.1,1.2a2.34,2.34,0,0,1,1.2,1.9l.1.2c.25.16.46.14.6-.1.87.79,1.09,1.27-.1,1h-.1a2,2,0,0,0,0,1.2h.1c2.82-.67,4.13.8,3.7,3.5h0a4.18,4.18,0,0,0,.4-1.3h.3c.88.34,1.45.94,1.2,1.6a.39.39,0,0,1-.3-.2c-.5,1-.2,1.67,1,1.8,0-3.19,5.65-9.13,8.4-3.9,1.06-2,1.51-.51,2.4-.8.39-.65.82-1.17,1.4-1.1.4.34.52.86,1,1.2a.16.16,0,0,1,.2-.1c.26-3.53,4.32-7.37,4.5-8.4-.51-1.64-.87-3.4,1.6-2.7a2.69,2.69,0,0,0,2.1-1.7,28.33,28.33,0,0,1,3.1,1.6.23.23,0,0,1,.3.1,10.27,10.27,0,0,1,2.6-.9l.3-.1a9,9,0,0,0,1,3.6c1.4,1.57,1.13,2.15-1.4,1.2a12.65,12.65,0,0,0,.7,6.7.38.38,0,0,0,.3-.1c1.92,2.87,5.91,12,8.1,11.2,3.36-.64-.77-9.07,2.1-12.9a13.46,13.46,0,0,1,2.2,0h.3c7-.35,2.86-8.57,3.4-12.3a11.7,11.7,0,0,0,2.8-2.9.23.23,0,0,0,.3-.1c2.24-1.5,2.29-3.36-.3-4.3a.81.81,0,0,1,0-.8c.56-.08.71-.46.5-1a.51.51,0,0,0,.5-.4c.51,0,.77-.29.7-.8-1.51-1.93-1.84-3.83-.6-5.2a3.54,3.54,0,0,0,0-4.1,1.74,1.74,0,0,0,.5.8c.91-1.14.91-1.95.1-2.3h.1a2.26,2.26,0,0,0-.9-1.9,2.83,2.83,0,0,0-.3-3.1h.2a3.13,3.13,0,0,0,.3-1,.57.57,0,0,1,.3.4c.07.07.17.17.2,0a6.27,6.27,0,0,0-.8-5.1c.18-.1.32-.07.5.1h.1a1.19,1.19,0,0,0-.4-1.4h-.6c-.47-.33-.22-.5.3-.6a1.1,1.1,0,0,0-.9-.5l-.3-.1a.39.39,0,0,1-.1-.4c.42-.81.89-1.69,1.3-.6h.1a4.14,4.14,0,0,0,1.2-.4c0-.19,0-.3-.2-.3a.77.77,0,0,1-.6-1.1c.55-.18.87-.3,1.4-.5.31.53.39.85,1,1.2-.12-.9,0-1.79-.1-2.6a2.47,2.47,0,0,1,1.4-.8,3.64,3.64,0,0,0,1.3-.5h.1l.6.1a2.44,2.44,0,0,0,1.6-2.5.38.38,0,0,0,.1-.3h0a1.69,1.69,0,0,1,0-1c2.1-1.55,2.14-3.38.5-5.3a2.42,2.42,0,0,0,.6-2.1,5,5,0,0,0-.4-1.2,11.61,11.61,0,0,1-1.3-2.7c-.46-.37-1.9-1.4-2.2-1.6a1.19,1.19,0,0,1,.5-.3,1.5,1.5,0,0,1,1.5-.2h.2a409763790441.33,409763790441.33,0,0,0,.4-.2c.15-.06.15-.14,0-.2a1.39,1.39,0,0,0-.5-.1,2.46,2.46,0,0,1-.6-1.3,16.34,16.34,0,0,1,2.2.4c.11-.23-.27-.37-.7-.5a9.22,9.22,0,0,1,1.4-1.6h.1a1.46,1.46,0,0,0,1.7.3,1,1,0,0,0,.1-.8h.3a.61.61,0,0,1,.6,0h.3c.1,0,.13,0,.1.1h0a1,1,0,0,0,.7.1c.23,0,.36,0,.4-.2a.52.52,0,0,0,.4-.1.57.57,0,0,0,.5-.1.39.39,0,0,0,.3-.2.83.83,0,0,1-.1-.8,3.89,3.89,0,0,0,1.1-.5l.7-.3c1.4-1.2,1.4-2.45,0-3.5a4.54,4.54,0,0,1-1-.7.5.5,0,0,1-.3-.2V76h0c.1,0,.13,0,.1-.1h0v-.1h0a1.23,1.23,0,0,1,.7-.6.16.16,0,0,0,.2-.1l.3-.1a.77.77,0,0,0,.4-.1.39.39,0,0,0,.4-.1l1.9-.1a4.42,4.42,0,0,1,.5-.1h.4a1.31,1.31,0,0,0,.5-.1h.1a.16.16,0,0,0,.2-.1,1.3,1.3,0,0,1,.7-.3c0-.1,0-.13.1-.1a1.24,1.24,0,0,1,.4-.2.34.34,0,0,0,.3-.1h1.2a.16.16,0,0,1,.2.1h.1a.34.34,0,0,1,.3.1h0l.2.1c0,.1,0,.13.1.1h0a4.72,4.72,0,0,0,.3.5,1.45,1.45,0,0,0,.7.3,2.06,2.06,0,0,0,1.4-.3,9.15,9.15,0,0,0,1.2-.3h.3a.59.59,0,0,0,.5-.1h.8a2,2,0,0,0,.6-.2h0a.82.82,0,0,0,.3-.2v-.1l.4-.2h0a.16.16,0,0,0,.2-.1h.6a.27.27,0,0,0,.3-.1h.4l.2-.1h0a6.92,6.92,0,0,0,2.2-.4,13.86,13.86,0,0,0,6.5-.3l.7-.2h0a2.55,2.55,0,0,0,1-.2,1.52,1.52,0,0,0,1-.4h0a2,2,0,0,1,.6-.2,2.6,2.6,0,0,1,.4-.1,491716548658.59,491716548658.59,0,0,0,.4-.2,6.21,6.21,0,0,0,.5-.4,26.25,26.25,0,0,1,3.1-.3h1l.1-.1a.16.16,0,0,0,.2-.1h0c.09,0,.15-.08.2-.2.1,0,.13,0,.1-.1s.13,0,.1-.1a5.47,5.47,0,0,0,.5-.4c0-.1,0-.13.1-.1l.1-.1c0-.1,0-.13.1-.1h.1l.2-.1h.2a3.94,3.94,0,0,1,.7.1h1.1a.27.27,0,0,0,.3-.1h.7a2.4,2.4,0,0,1,.9.1.92.92,0,0,0,.5-.1h.1l.3-.1h0l.2-.1h.5c.15,0,.28,0,.3-.1h0c.1,0,.13,0,.1-.1h0v-.2h.1c.1,0,.13,0,.1-.1h.2a1.78,1.78,0,0,0,.9.1h.3l.2-.1v-.1c0-.1,0-.13.1-.1h0l.1-.1h.5c1,.51,2.06,1,3.1,1.5h0l.1.1c4.2,2.27,13.06,2.68,15.7,6.1,4.59,3.76,10.35,8.62,16.1,12.1,2.46.91,4.74,2.27,7.1,3.1a45.81,45.81,0,0,0,5.3,1.7c.41.16.67.13.5-.3h0a.16.16,0,0,1,.2.1h0a2,2,0,0,0,.4-1.5,3.69,3.69,0,0,1,.6-.7c8.12,1.64,15.24,8.34,21.6,13.2,2.47,1.89,3,3.84,6.2,4.2,2.16,1.89,6,4.63,4.4,6.9a3.29,3.29,0,0,0-1.6.7c.52.88,1.32,1.59,1.8,2.5-.62,0-.86.11-1.5.1,3.48,3.46,6.86,7.6,11.1,9.4a11.54,11.54,0,0,0-2.3-3.7h0c0-.1.1-.08.2,0h.1l.1.1v-.1c0,.1,0,.13.1.1h0c-.09-.14-.15-.25,0-.1h0v-.1h.1a3.5,3.5,0,0,0,.7.4h0a.82.82,0,0,0-.1-.7c-.11-.23-.21-.46-.3-.7h0c.13.08.26.16.3,0h0a.16.16,0,0,1,.2.1h.2a.16.16,0,0,1,.2.1h.1l.2.1h.1c.14.15.32.35.3.2-.17-.14-.14-.19,0-.2a11.87,11.87,0,0,1,4.1,3.5.67.67,0,0,1-.5-.1h-.2v.1a42.7,42.7,0,0,0,4.4,3c2,.47.34-1.18-.6-2.3h0c.12.07.21.1.3,0h.1a.37.37,0,0,0,.2-.4v-.1h.2a.16.16,0,0,0,.1-.2h.1a10.6,10.6,0,0,1-.5-1.4,7.18,7.18,0,0,1-.5-1.1h.5a10.58,10.58,0,0,1,2,2.2c0,.26,0,.86,0,.9a5.09,5.09,0,0,0,.9,1.1.8.8,0,0,0,.5.3h0c.16.22.19.25.4.5h.2a1.31,1.31,0,0,0,.4.3l.1-.1h0a2,2,0,0,1,1.9.7,17.27,17.27,0,0,0,1.9,1.4c0-.12,0-.21-.1-.2h.3a14.29,14.29,0,0,0,4.9,4.7h.1c3.27.92,10.29,11.24,10.2,14.6a.16.16,0,0,1,.1.2v.1h0l.2.2h0v.1l-.1-.1v.1s.08.08-.2.1l.1.1h-.1v.1c0,.16-.1.12-.2,0h0l.1.1c-.09-.14-.12-.14-.1,0h0c0-.14-.07-.14-.1,0v0h-.1l-.2-.2h-.1l.1.1a.24.24,0,0,0-.3,0h0v.2h-.1a5.78,5.78,0,0,0,.2.7h0a.51.51,0,0,0,.2.4h0a2.6,2.6,0,0,1,.1.4.16.16,0,0,1,.1.2h0v.1c0-.15.07,0,.1.2s.17.37.1.4v.1h0c-.18-.18-.12.06-.1.2.1,0,.13,0,.1.1h0v.2h0a5.41,5.41,0,0,0,1.6,3.5c0-.17,0-.29.2-.3l.1-.1.2-.1c.13,0,.19,0,.2-.2a4.3,4.3,0,0,1-.1-1.2h.2c.1,0,.13,0,.1.1h.1a5.44,5.44,0,0,0,2.1,1.4h0c.1,0,.13,0,.1.1a20.62,20.62,0,0,1,2.1.6.62.62,0,0,0,.7-.5h.1c.1,0,.13,0,.1.1a3.22,3.22,0,0,1,.9.8h.1c-1.16-2.29-1.19-4.16-.4-5.2a3.31,3.31,0,0,0,.1-2.6c0-1.21.86-.83,1.5-.4.1-.18.23-.23.4-.1,1,.87,1,0,.8-1.2h0c-.11-1.24.2-2.62.2-3.9,1.26,1.14,3.17,2.05,4.3,3.3-.79-2.37.66-2.27.6-2.1h.6v-.5h.1c.43-.49.74-.67,1.4-.2h.4c.08-.07.13-.1.2,0a.39.39,0,0,1,.3.2,2,2,0,0,1,.6.2h0a.34.34,0,0,1,.1-.3v-.1h.2l.1-.1a.16.16,0,0,1,.2.1h.2a.45.45,0,0,0,0-.5.73.73,0,0,0-.3-.4h0a5.47,5.47,0,0,1,3.9,1.3h0a8.42,8.42,0,0,1,4.6,5.4l.3.1a1.57,1.57,0,0,1,.9.3h.5c3.9.92,3.32,6,7.1,8.5C1278,160.17,1280.7,162.46,1281.9,166.3Z"/></g><g id="HATCH-18" data-name="HATCH"><path class="cls-1" d="M842.5,558c-6,1-10.54,4.75-12,11.1-2.12-4-6.24-3.16-7.7-5.2-16.95,3.82-33.34,13.7-48.77,21.8s-31.71,13.62-48,19.9c4.36,5.77-4.14,12-9.1,13.7-4.12,1.38-6.67,0-10.65.15s-6,1-10,2.85c-15.45,7.27-29.75,9.66-46.3,12.85-15.32,3-29.4,9.12-44.66,12.34-15.79,3.33-33.8,7.17-48.75,13.22-7.11,2.88-11.92,5.35-19.59,5.84-5.87.37-14.54,3.61-20.33.14-4.18-2.51-10.3-10.55-15.22-14.44-1.61-1.27-4.71-2.76-5.95-4.35-1.41-1.81-1.64-5.66-3.25-7.85-1.46-2-4.09-3-5.85-4.95-4.4-4.78-1.24-5.68-1.75-10.65-.41-3.94-4.92-4.82-6.25-8.65.05.16,2.65-1.93,1.6-4.3-.9-2-3.61-3.44-5.5-3.8-3-2.55-2.72-6.33-6.65-9.25-4.2-3.13-6.89-2.65-10.85-3.55-13.42-3-2.74-9.83-6.8-16.3l3-.4c-3.39-5.63-4.51-11.1-7.2-15.7-1.95-3.33-5.51-5-6.3-8.8-.54,2.59-2.5,3.61-4.9,4-.52-.6-.47-1.13-.9-1.7-.31.66,0,.65-.2,1.4-1.78-1.74-5.23-2-7.9-2a59.1,59.1,0,0,1-.3-7c-4.05,1-21.27-18.85-15.77-25.22.47-.56,5.07-.78,6.27-1.18a22.31,22.31,0,0,0,6.4-3.5c2.72-1.94,6.76-8.16,6.9,0,.29-1.6,1-3.12,1.2-4.7.18,1.79,2.29,7.4,4.3,7.6,1.84.18,2.85-3.93,3.75-6.1,2.59-6.26,2.78-12.8,1.55-20.5.16,0,.16,0,0,.2.28,0,.1.47.2.5h.4c.5-.46,1-1.72,1.8-2.1-7-5-6.2-27.91-4.75-34.1,1.82-7.8,1.29-18.58.95-25.9-.57-12.06-3.32-28-.3-39.6.29,1,.89,2,1.2,3,2.9-6.8-2.2-13.37,3.65-18.55,4.33-3.84,8.56-1.86,13.45-6.35-7.33-7.68-16.1-9.72-23.4-18.1,1.48-.71,2.58-2.41,4.1-3-6-1.74-5.77-8.48-9.2-11.7,1-1.52,2.05-2.33,3.5-2.1.54-.57.06-.53,1-.2a.56.56,0,0,0-.3-.6c.09.14.12.14.1,0a8.64,8.64,0,0,0,7.1,4c0,.06,0-1.65,0-1.7,1-.05,1.77.5,2.6.5-.07-.14-.42-.57-.1-.7a1.09,1.09,0,0,1,.5.1c.77,2.27,4.56,1.88,7.1,2.1.24.15-.53.44-.5.5a2.82,2.82,0,0,1,2.1.3c.37-.51-.41-.48-.3-.7,5.88,1.42,9.41-1,15.9-1.7,2.07-.21,7.27-1.23,9.8-4.1,2.09-2.37.73-3.95,2.5-7.3a.66.66,0,0,1,.7.2c.54.27,4.94.21,6.7,1.3,1.58,1-.6,1.89,1.2,4,1.29,1.52,3.95,2.19,4.7,3.1,1.21,1.47-.36,3.91.78,4.85,2.33,1.93,9.3,1.3,11.92,0,4.45-2.21,2.12-4.15,6.2-6.95-.37.24-.53.24-.5,0,.43-.49,2-1.56,2.6-2.2,4,6.39,11.79,8.55,16.9,5.2-5.06-4.53,3.39-1.52,5.1-1.3,3.74.49,14.09,2.53,15.8,5.6a23.17,23.17,0,0,1,8.2.4c-1-1.72-.21-1.4-1.4-3,.19-.15.6,0,.3-.5,3.14-.85,5,1.47,8,2.12,4.67,1,6.91-.34,11.42,3.38-.71.38-.3,1.29-2.8,2.5,2.38,1.91,9.43,4.38,12.7,4.1l-5.3-4.4,1.3-.1c0-.15-.84-1.2-.9-1.7a11.93,11.93,0,0,0,2.6,1l-1.2-.9c7.63-1.36,16.74,12.8,21.1,17.4s10,8.32,12.8,14.1c-1.22.31-2,1-3,1.1a50.36,50.36,0,0,1,5.2,5.8c-2.71.5-4.89,1.33-7.6-.2,7,10-9.05,8.25-11.2,10.4-2.72,2.72,4.57,14.86,6.45,17.35,4.13,5.47,10,4.15,13.95,9.55,4.5,6.15,3.65,14.62,9,20.2,1.32,1.38,1.33,3.18,4.2,1.2,1.41-.07,2.39-.89,4.3-.6-4.32-3.66-12.61-22.9-6.9-25.8,1.23,2.41,12.86,7.16,15.2,5.4-1.48,1.11.25-6.11.1-5.6.4-1.35,1.17-.92.6-2.8a16,16,0,0,0,1.8.3c-2.64-3.07-5.18-6-8-9.6a4.87,4.87,0,0,1,3-.5c0-.13,0-1.7-.4-1.4,2.33-.64,4-2.71,6.6-2.75s6.19,2.82,8.9,2.75a18.39,18.39,0,0,0-.1-2.9c10.42,8.09,25.22,9.24,32.6,22.7-2.59-.1-5.25-1.56-8-1.6,9.66,4.32,18.28,13,23.9,21.3,1.8-2.33,21.58,8.24,26.1,10.85,4.8,2.77,8.29,6.87,12.7,10.15,3.55,2.64,8.08,3.73,10.7,7-.23,0-.26.1-.1.2-1.41-.28-2.52.3-4.1,0,2,5.8,9.17,10.51,14.1,13.15,8.07,4.31,14.67,12.79,23.25,16,6.82,2.59,12-.26,18.35,3.7,5.18,3.21,7.78,8,13.8,11.2,3.43,1.84,4.81.18,7,3.5,1.39,2.1-.23,5.63,2.5,8.4a6.35,6.35,0,0,1-2-.3c.06.39,1.19,1.44,1.1,1.8-.52.19-1.31,0-1.8.3,1.17,4.48,2.84,13,6.1,15.8-5.82,1.08-6,5.18-3.5,9.8C835.48,556.39,839.19,557.55,842.5,558Z"/></g><g id="HATCH-19" data-name="HATCH"><path class="cls-1" d="M1441.3,493c-8.91,12-18.72,23.4-27.8,35.1h0a174.06,174.06,0,0,1-18.2,12.55c-7.34,4.23-10.06,9.73-15.4,15.45-5.67,6.07-14.46,9.14-9.6,19.8-4.63.86,1.23,13.55,2.4,15.8a8.54,8.54,0,0,0-1.8-2.2c-.35,2.47.1,2.4-2.5,3.1l1.2,1.8c-3.94-.1-7.16-8-7.1-2a4.39,4.39,0,0,0-1-.7c-.57.59,2.32,7.73,3.7,10.1a20.3,20.3,0,0,0,1.4,3c-.41-.27-1.16-.85-1.7-1.2l-.2.2c3.55,2.42,3.54,6,2,9.6-3.28.18-.15-1.65-3.5.8-1.18-1.69-3.08-4.4-4-5.5-1.14.17-4.1-1.06-5.6-2.4,3.75,8.45-9.48-1.14-10.8-2.4-1,1.07-2.52,6-3.1,8.6-.87,4-1,4.37.4,9.4.91,3.17,2.22,6.86,2.4,10.1.56,10.27-6.38,8.39-14.6,12.4-5.23,2.55-5,7.18-9.8,10.2-2.35,1.48-8.1,1.62-10.9,1.9-.36-5.66-4-14.45-10.73-10-4.08,2.7-1,5.71-3.42,8.37s-2.29-1-4.55,1c-3.75,3.44-4.63,10.35-7.7,14.7-2.15-2-9.59-12.91-12.35-10.9-4.28,3.12,2.92,8.58-4.25,10.7.52-2.79.87-6.75-.3-9.5-.94-2.2-3.36-1.94-3.7-2.9-1-2.79.46-5.7-.1-8.2-.49-2.18-2-3.95-3.2-5.9-6.64,1.51-.8,5.37-2.25,9.2-1.87,5-8.27,1.45-8.8-3.05-.71-6,6.89-5.74,10.5-8.35,2.21-1.6,2.53-3.84,5.55-5.5,3.18-1.75,5.95-.7,9.25-2.1,9.68-4.11.54-7,1.4-13.85.51-4,8.84-10.49,12-14.25,1.51-1.83,1.78-3.37,3.45-5.15,1.36-1.45,4.29-1.5,5.35-3.55,2.36-4.56-.09-5.51-3.7-6.7-1.83-.6-7.33,5.21-3.4-2.2.79-1.5,3.87-.44,4.9-2,.49-.73-.38-1.72,1-3.6a20.17,20.17,0,0,0-6.9-3.8c5.67-4.88-9.65-12.53-8.7-18.4.57-3.48,6.36-1.59,1-7.4-3.31-3.56-10.68-4.68-15.35-5.8,1.49-1.46,1.91-2.86,3.8-4-15.56-12.83-45.61-15-65.88-20.23-23.32-6-45.78-12-67.32-22.27,3-1.37,5.2-3.13,8.5-3.6-9-3.65-24.55,1.56-29.7-7.6,1.2-4.06,5.24-2.37,8.6-1.5l-1.1-2.5c10.54-1.31,16.3,2.57,26.4,3.55,4.61.45,6.68-2.12,10.7-3.25s8.85-1.07,13-1.4c-4.65-10.38,11.29-7.08,15.4-6.3,7.48,1.42,20,.46,27.48-2.08,6.08-2.06,5.7-3.49,11.32-2.47,4.15.75,11,2.07,7.9,7.55,4.8,5.08,3.19,11.13,10.8,15.3a12.09,12.09,0,0,1-4.1,5.2c10.63,4.85,34.63,21.54,46.2,14.4-3.37-.58-5.58-3.12-7.7-5.4,5.4-1.11,11.76-3.48,17.15-3.72,8.37-.37,3.52.35,7,4.3,1.76,2,2.6,1.18,2.53,3.82,1.66-.16,3.24.32,5,0l-1.3,1.3c5.72-1.92,10,2.47,2.8,5.2,5,2.1,8.81,2.78,14.2,1.1a.16.16,0,0,0,.2.1c-.63.59,0,.23-1.2.9,1.92,2.2,8.5.66,11.6-1.3,1.07-2.11,2.77-1.57,4.65-2.65s4.11-2.84,6-4a153.82,153.82,0,0,0,14.15-9c5.33-4,8.7-8.62,12.85-12.7,6.36-6.26,15.07-9.62,19.5-18.2-.61.11-1.2.5-1.8.6.1-.23.07-.33-.1-.3,3.16-6.51,10.11-9.86,13.9-15.95,4.15-6.67,6.06-12,13.25-16.57,4.09-2.62,7.76-2.85,10.28-8.28,1.24-2.68.84-4.93,2.34-7.8,1.1-2.09,6.29-7.87,8.73-7.9s1.19,4.32,5.2,3.6c-3.74,8.81-6.25,16.54-6.8,26.1,5,.45,7.67.8,13.44-3.15,3.68-2.53,9.62-10.5,11.16-2.5,1.11,5.79-6.4,13.77-7.7,18.85,1,0,.73-.32,1.7,0C1447.87,469.84,1443.53,483.37,1441.3,493Z"/></g><g id="HATCH-20" data-name="HATCH"><path class="cls-1" d="M1044.3,490.4c-3.25.11-14.7.23-16.6-1.2a5.18,5.18,0,0,0,.2,1.3c-1.85-.08-.63-1.36-1.7.1a5.92,5.92,0,0,0-3.9-1.3l1.7,1.5c-.5.28-.94.1-.9.2-.4.17-.51.46-.3.9a10.29,10.29,0,0,1,1.3,5.3c-.93-.31-2-.38-2.9-.7-2.26.63-5.28-6.91-7.7-9h-.2c-.43,1-1.33,1.39-2.7,1.3h0c-2.17.13-5.39,2-7.6,3.9-1.69-3,2.54-6.75,4.7-8.6-.32-.47-.58-.72-.2-1s.26-.59-.1-1a46.29,46.29,0,0,1-4.8-2.8c.42.08.9.13,1,0h0a1.54,1.54,0,0,0-1-.7l-1.8-.7.2-.2h.1l.1-.1h0c.1-.09.15-.08.3,0,.35-.68-.55-1.12-1.7-1.5h0a1.78,1.78,0,0,1-1.6-.7,4.88,4.88,0,0,1,1.6.7c-1.61-1.91-1.76-2.63-3.8-3.7a8.86,8.86,0,0,1,1.8-.2,32.54,32.54,0,0,1-4.6-4.9c2.65,0,5.14,1.59,7.7,3.4a8.72,8.72,0,0,0-1.5-2.4q.35,0,.3-.3c2,2,4.4,3.05,6.9,4.5a30.34,30.34,0,0,1-2.8-4.9c.32.21.39.13.3-.1h0c.1,0,.13,0,.1-.1a.27.27,0,0,1,.3.1h0a8.73,8.73,0,0,1,5.3,6.7c-.17-1.53.13-2.9.1-4.4,2,3.61,4.29,5.78,6.5,8.1,0,0-.65.19-.7.1,1,.79,1.67,1.17,2.4,1.8.18-.11.32-.11.5.1,4.79.56,8.17,2.58,13.9,2.7h1.1a24.1,24.1,0,0,1,3.8,0h0C1034.59,485.34,1041.58,487.5,1044.3,490.4Z"/></g></svg>