<?xml version="1.0" encoding="utf-8"?>
<!-- Generator: Adobe Illustrator 23.0.1, SVG Export Plug-In . SVG Version: 6.00 Build 0)  -->
<svg version="1.1" id="Layer_1" xmlns="http://www.w3.org/2000/svg" xmlns:xlink="http://www.w3.org/1999/xlink" x="0px" y="0px"
	 viewBox="0 0 227 475" style="enable-background:new 0 0 227 475;" xml:space="preserve">
<style type="text/css">
	.st0{fill-rule:evenodd;clip-rule:evenodd;fill:#CCCCCC;}
	.st1{fill-rule:evenodd;clip-rule:evenodd;fill:#EB65A0;}
	.st2{font-family:'Roboto-Regular';}
	.st3{font-size:16px;}
	.st4{fill-rule:evenodd;clip-rule:evenodd;fill:#9FD041;}
	.st5{fill-rule:evenodd;clip-rule:evenodd;fill:#73C5E1;}
	.st6{fill-rule:evenodd;clip-rule:evenodd;fill:#5BB12F;}
	.st7{fill-rule:evenodd;clip-rule:evenodd;fill:#4097CD;}
	.st8{fill-rule:evenodd;clip-rule:evenodd;fill:#F9C112;}
	.st9{fill-rule:evenodd;clip-rule:evenodd;fill:#FB630F;}
	.st10{fill-rule:evenodd;clip-rule:evenodd;fill:#9B539C;}
</style>
<rect x="23.1" y="24.5" class="st0" width="141.5" height="32.5"/>
<rect x="23.1" y="60.2" class="st0" width="141.5" height="32.5"/>
<rect x="23.1" y="131.7" class="st0" width="141.5" height="32.5"/>
<rect x="23.1" y="167.4" class="st0" width="141.5" height="32.5"/>
<rect x="23.1" y="203.2" class="st0" width="141.5" height="32.5"/>
<rect x="23.1" y="238.9" class="st0" width="141.5" height="32.5"/>
<rect x="23.1" y="274.6" class="st0" width="141.5" height="32.5"/>
<rect x="23.1" y="310.3" class="st0" width="141.5" height="32.5"/>
<rect x="23.1" y="346.1" class="st0" width="141.5" height="32.5"/>
<rect x="23.1" y="381.8" class="st0" width="141.5" height="32.5"/>
<rect x="23.1" y="417.5" class="st0" width="141.5" height="32.5"/>
<g>
	<rect x="168.6" y="203.2" class="st1" width="32.5" height="32.5"/>
	<g>
		<ellipse cx="184.7" cy="219.2" rx="4.9" ry="4.2"/>
		<circle cx="176.6" cy="219.1" r="1.6"/>
		<path d="M171,211v16.3h27.6V211H171z M196.5,222.2l-0.4,0.4c-0.2-0.1-0.4-0.1-0.6-0.1c-0.9,0-1.6,0.7-1.6,1.6c0,0.2,0,0.4,0.1,0.6
			l-0.6,0.6h-17.3l-0.5-0.5c0.1-0.2,0.1-0.4,0.1-0.7c0-0.9-0.7-1.6-1.6-1.6c-0.2,0-0.5,0.1-0.7,0.1l-0.5-0.5v-5.8l0.7-0.7
			c0.1,0,0.3,0,0.4,0c0.9,0,1.6-0.7,1.6-1.6c0-0.1,0-0.3,0-0.4l0.8-0.8H193l0.9,0.9c0,0.1,0,0.2,0,0.3c0,0.9,0.7,1.6,1.6,1.6
			c0.1,0,0.2,0,0.3,0l0.7,0.7V222.2z"/>
		<circle cx="193" cy="219.1" r="1.6"/>
	</g>
</g>
<text transform="matrix(1 0 0 1 98.3138 259.7911)" class="st2 st3">baleset</text>
<text transform="matrix(1 0 0 1 88.4702 402.7151)" class="st2 st3">könyvtár</text>
<text transform="matrix(1 0 0 1 28.8765 188.3287)" class="st2 st3">munkanélküliség</text>
<text transform="matrix(1 0 0 1 81.6028 81.136)" class="st2 st3">népesség</text>
<text transform="matrix(1 0 0 1 104.4856 45.4049)" class="st2 st3">terület</text>
<text transform="matrix(1 0 0 1 98.2084 224.0599)" class="st2 st3">kereset</text>
<text transform="matrix(1 0 0 1 75.4781 152.598)" class="st2 st3">beruházás</text>
<text transform="matrix(1 0 0 1 115.6498 438.4466)" class="st2 st3">mozi</text>
<text transform="matrix(1 0 0 1 118.6536 295.5223)" class="st2 st3">erdő</text>
<text transform="matrix(1 0 0 1 96.7745 331.2531)" class="st2 st3">gabona</text>
<text transform="matrix(1 0 0 1 120.0089 366.9843)" class="st2 st3">tyúk</text>
<g>
	<rect x="168.6" y="310.3" class="st4" width="32.5" height="32.5"/>
	<g>
		<path d="M178.5,331.8c0,0-1.2,2.9,0.5,5.3c1.7,2.4,5,2.4,5.2,3.4c0-2.1,0.1-4.7-1-5.9C182.1,333.4,178.9,332.9,178.5,331.8z"/>
		<path d="M178.5,325.4c0,0-1.2,2.9,0.5,5.3c1.7,2.4,5,2.4,5.2,3.4c0-2.1,0.1-4.7-1-5.9C182.1,327,178.9,326.5,178.5,325.4z"/>
		<path d="M178.5,319c0,0-1.2,2.9,0.5,5.3c1.7,2.4,5,2.4,5.2,3.4c0-2.1,0.1-4.7-1-5.9C182.1,320.6,178.9,320.1,178.5,319z"/>
		<path d="M191.2,331.5c0,0,1.2,2.9-0.5,5.3c-1.7,2.4-5,2.4-5.2,3.4c0-2.1-0.1-4.7,1-5.9C187.5,333,190.7,332.6,191.2,331.5z"/>
		<path d="M191.2,325.1c0,0,1.2,2.9-0.5,5.3c-1.7,2.4-5,2.4-5.2,3.4c0-2.1-0.1-4.7,1-5.9C187.5,326.6,190.7,326.2,191.2,325.1z"/>
		<path d="M191.2,318.7c0,0,1.2,2.9-0.5,5.3c-1.7,2.4-5,2.4-5.2,3.4c0-2.1-0.1-4.7,1-5.9C187.5,320.2,190.7,319.7,191.2,318.7z"/>
		<path d="M184.6,312.6c0,0-2.2,2.5-2.2,4.2c0,1.7,1.9,4,2.1,4.9c0.7-0.9,2.7-2.8,2.7-4.9C187.2,314.7,184.6,312.6,184.6,312.6z"/>
	</g>
</g>
<g>
	<rect x="23.1" y="96" class="st0" width="141.5" height="32.5"/>
	<text transform="matrix(1 0 0 1 52.7121 116.8667)" class="st2 st3">ipari termelés</text>
</g>
<g>
	<rect x="168.6" y="96" class="st5" width="32.5" height="32.5"/>
	<path d="M194.3,114.3c0.1-0.6,0.2-1.2,0.2-1.8c0-0.6-0.1-1.2-0.2-1.8l-2-0.1c-0.2-0.7-0.5-1.4-0.8-2.1l1.4-1.6
		c-0.7-1-1.5-1.8-2.4-2.5l-1.5,1.3c-0.7-0.4-1.4-0.7-2.1-0.9l-0.1-2.1c-0.6-0.1-1.3-0.2-2-0.2c-0.5,0-1,0.1-1.5,0.1l-0.1,2
		c-0.8,0.2-1.6,0.5-2.3,0.9l-1.6-1.4c-1,0.6-1.8,1.5-2.5,2.4l1.3,1.5c-0.5,0.7-0.8,1.5-1,2.4l-2,0.1c-0.1,0.6-0.2,1.1-0.2,1.7
		c0,0.6,0.1,1.2,0.2,1.7l2,0.1c0.2,0.9,0.6,1.7,1,2.4l-1.3,1.5c0.7,0.9,1.5,1.8,2.5,2.4l1.6-1.4c0.7,0.4,1.5,0.8,2.3,0.9l0.1,2
		c0.5,0.1,1,0.1,1.5,0.1c0.7,0,1.3-0.1,2-0.2l0.1-2.1c0.8-0.2,1.5-0.5,2.1-0.9l1.5,1.3c1-0.7,1.8-1.5,2.4-2.5l-1.4-1.6
		c0.4-0.6,0.7-1.3,0.8-2.1L194.3,114.3z M184.6,115.6c-1.7,0-3.1-1.4-3.1-3.1c0-1.7,1.4-3.1,3.1-3.1c1.7,0,3.1,1.4,3.1,3.1
		C187.7,114.2,186.3,115.6,184.6,115.6z"/>
</g>
<g>
	<rect x="168.6" y="60.2" class="st6" width="32.5" height="32.5"/>
	<g>
		<g>
			<circle cx="180.7" cy="67.2" r="1.9"/>
			<path d="M180.7,86.8c0,0,0.1,0.7,0.8,0.7s0.7-0.8,0.7-0.8v-6.1h2.5c0,0-1.2-3.6-1.7-5.1c1.7-1,1.6-1.5,1.6-1.8
				c0-0.3-0.3-1.7-0.6-2.7c-0.3-1.1-1.1-1.4-1.4-1.4s-1.3,0-1.3,0c0,0-1.7,0-1.7,0s-0.9,0-1.3,0s-1.1,0.3-1.4,1.4
				c-0.3,1.1-0.6,2.5-0.6,2.7c0,0.3-0.1,0.8,1.6,1.8c-0.5,1.5-1.7,5.1-1.7,5.1h2.5v6.1c0,0,0.1,0.8,0.7,0.8s0.8-0.7,0.8-0.7
				s0-0.1,0.2-0.1S180.7,86.8,180.7,86.8z"/>
		</g>
		<g>
			<circle cx="189.4" cy="67.2" r="1.9"/>
			<path d="M189.5,86.9c0,0.2,0.2,0.7,0.9,0.7c0.6,0,0.8-0.6,0.8-0.6l0.7-9.5c0,0,0.1,0.8,0.8,0.8s0.7-0.8,0.7-0.8s0-4.5,0-6.1
				s-1.4-1.8-1.8-1.8s-2.1,0-2.1,0c0,0-0.2,0-0.2,0s-1.6,0-2.1,0s-1.8,0.1-1.8,1.8s0,6.1,0,6.1s0,0.8,0.7,0.8s0.8-0.8,0.8-0.8
				l0.7,9.5c0,0,0.1,0.6,0.8,0.6c0.6,0,0.9-0.5,0.9-0.7c0,0,0-0.1,0.2-0.1S189.5,86.9,189.5,86.9z"/>
		</g>
	</g>
</g>
<g>
	<rect x="168.6" y="417.5" class="st7" width="32.5" height="32.5"/>
	<g>
		<path d="M174.6,436.4c0,0.4-0.4,0.8-0.8,0.8h-0.2c-0.4,0-0.8-0.4-0.8-0.8v-3.3c0-0.4,0.4-0.8,0.8-0.8h0.2c0.4,0,0.8,0.4,0.8,0.8
			V436.4z"/>
		<path d="M196.7,431.2h-0.8c-0.1,0-0.2,0.1-0.3,0.1l-2.3,2.6h-1v-1.3c0-0.4-0.4-0.8-0.8-0.8h-15.2c-0.4,0-0.8,0.4-0.8,0.8v9.6
			c0,0.4,0.4,0.8,0.8,0.8h15.2c0.4,0,0.8-0.4,0.8-0.8v-2.2h0.9l2.4,2.6c0.1,0.1,0.2,0.1,0.3,0.1h0.8c0.1,0,0.2-0.1,0.2-0.2v-11.2
			C196.8,431.3,196.8,431.2,196.7,431.2z"/>
		<circle cx="179.9" cy="427.9" r="3.4"/>
		<circle cx="187.4" cy="427.9" r="3.4"/>
	</g>
</g>
<g>
	<rect x="168.6" y="274.6" class="st8" width="32.5" height="32.5"/>
	<path d="M195.6,287.6c0-3-2.3-5.4-5.2-5.5c-0.2-2.9-2.6-5.2-5.5-5.2s-5.4,2.3-5.5,5.2c-2.9,0.2-5.2,2.6-5.2,5.5
		c0,1.2,0.4,2.3,1.1,3.2c-0.2,0.6-0.4,1.3-0.4,2c0,3.1,2.5,5.5,5.5,5.5c1.1,0,2.1-0.3,2.9-0.9v7.4h3.1v-7.7c0.9,0.7,2.1,1.1,3.3,1.1
		c3.1,0,5.5-2.5,5.5-5.5c0-0.8-0.2-1.6-0.5-2.3C195.3,289.6,195.6,288.6,195.6,287.6z M184.8,289.5c0,0,0,0.1,0,0.1
		C184.8,289.6,184.8,289.5,184.8,289.5C184.8,289.5,184.8,289.5,184.8,289.5z"/>
</g>
<g>
	<rect x="168.6" y="346.1" class="st6" width="32.5" height="32.5"/>
	<path d="M194.3,356.6c0-0.1,0-0.1,0-0.2c-0.3-0.4-0.8-0.7-1.3-0.8c0.4-0.9,0-1.5-0.6-1.9c0-0.1,0.1-0.2,0.1-0.3
		c0-0.5-0.4-0.9-0.9-0.9c-0.3,0-0.6,0.1-0.7,0.4c-0.2-0.3-0.5-0.4-0.8-0.4c-0.5,0-0.8,0.3-0.9,0.8c-0.2-0.2-0.4-0.3-0.6-0.3
		c-0.5,0-0.9,0.4-0.9,0.9c0,0.5,0.4,0.9,0.9,0.9c-0.3,0.5-0.5,1.1-0.5,1.8c0,0.2,0,0.5,0.1,0.7c0,0,0,0,0,0c-0.8,1.8-2.5,3-4.6,3
		c-1.5,0-2.8-0.6-3.7-1.7c0,0,0,0-0.1,0.1c-0.2-0.6-0.8-1-1.5-1c-0.9,0-1.7,0.7-1.7,1.7c0,0.3,0.1,0.5,0.2,0.7
		c-0.7,0.2-1.2,0.8-1.2,1.6c0,0.5,0.3,1,0.7,1.3c-0.4,0.3-0.7,0.8-0.7,1.3c0,0.9,0.7,1.7,1.7,1.7c0,0,0.1,0,0.1,0
		c0.7,3.6,3.8,6.3,7.6,6.3c4.3,0,7.8-3.5,7.8-7.8c0-1.7-0.6-3.3-1.5-4.6c0,0,0,0,0,0c-0.3-0.3-0.4-0.8-0.4-1.2c0-0.5,0.2-1,0.6-1.4
		c0,0.2,0,0.4,0,0.7c0,0.1-0.1,0.2-0.1,0.3c0,0.1,0,0.1,0,0.2c0,0,0,0,0,0c0,0,0,0,0,0c0.1,0.5,0.5,0.9,1.1,0.9
		c0.6,0,1.1-0.5,1.1-1.1c0-0.1,0-0.1,0-0.2c0,0,0,0,0,0s0,0,0,0c0-0.2-0.1-0.4-0.2-0.5c-0.1-0.3-0.2-0.7-0.3-1L194.3,356.6
		C194.3,356.6,194.3,356.6,194.3,356.6z M191.1,355.6c-0.2,0-0.4-0.2-0.4-0.4c0-0.2,0.2-0.4,0.4-0.4c0.2,0,0.4,0.2,0.4,0.4
		C191.5,355.4,191.3,355.6,191.1,355.6z"/>
</g>
<g>
	<rect x="168.6" y="381.8" class="st5" width="32.5" height="32.5"/>
	<path d="M178.2,405.1l16.1,0v-18.5h-16c-1.6,0-2.9,1.3-2.9,2.9v17.2c0,1.6,1.3,2.9,2.9,2.9h16v-1.1l-16.1,0
		c-0.9-0.1-1.6-0.8-1.6-1.7S177.3,405.1,178.2,405.1z M179.2,391.4c0-0.4,0.3-0.7,0.7-0.7h9.9c0.4,0,0.7,0.3,0.7,0.7v1.5
		c0,0.4-0.3,0.7-0.7,0.7h-9.9c-0.4,0-0.7-0.3-0.7-0.7V391.4z"/>
</g>
<g>
	<rect x="168.6" y="238.9" class="st9" width="32.5" height="32.5"/>
	<path d="M196.1,256.8l-5.6-3l4.3-4.7l-6.2,1.3l0.2-6.4l-3.9,5l-3.9-5l0.2,6.4l-6.2-1.3l4.3,4.7l-5.6,3l6.3,0.9l-2.4,5.9l5.4-3.4
		l2,6.1l2-6.1l5.4,3.4l-2.4-5.9L196.1,256.8z M186.1,257.1l-0.3,2.8l-1.4-2.4l-2,2l0.5-2.7l-2.8,0.2l2.1-1.8l-2.3-1.6l2.8,0
		l-0.7-2.7l2.1,1.8l1.2-2.5l0.5,2.7l2.5-1.2l-1.4,2.4l2.7,0.7l-2.6,1l1.6,2.3L186.1,257.1z"/>
</g>
<g>
	<rect x="168.6" y="131.7" class="st7" width="32.5" height="32.5"/>
	<g>
		<path d="M180.1,135.6c-0.2-0.2-0.4-0.2-0.6,0l-4.5,4.5c-0.2,0.2-0.4,0.5-0.5,0.7l-1.7,3.6c-0.1,0.2,0,0.5,0.1,0.7l1.5,1.5
			c0.2,0.2,0.4,0.2,0.6,0l1.9-1.9c0.2-0.2,0.4-0.2,0.6,0l14.3,14.3c0.2,0.2,0.4,0.2,0.6,0l2.6-2.6c0.2-0.2,0.2-0.4,0-0.6l-14.3-14.3
			c-0.2-0.2-0.2-0.4,0-0.6l1.9-1.9c0.2-0.2,0.2-0.4,0-0.6L180.1,135.6z"/>
		<path d="M181.4,149.5c-0.2-0.2-0.4-0.2-0.6,0l-2.4,2.4c-0.2,0.2-0.5,0.2-0.7,0.2l-0.3-0.1c-0.2-0.1-0.6,0-0.8,0.1l-1.9,0.9
			c-0.2,0.1-0.4,0.3-0.5,0.5l-0.9,1.9c-0.1,0.2-0.1,0.5-0.1,0.8l0.2,0.7c0.1,0.2,0.2,0.3,0.4,0.1l2.3-2.3c0.2-0.2,0.4-0.2,0.6,0
			l2.1,2.1c0.2,0.2,0.2,0.4,0,0.6l-2.5,2.5c-0.2,0.2-0.2,0.3-0.1,0.4c0.1,0.1,0.4,0.1,0.6,0.1l2.1-0.2c0.2,0,0.5-0.2,0.7-0.3
			l1.5-1.5c0.2-0.2,0.3-0.5,0.3-0.7l0.2-2.1c0-0.2,0-0.4,0-0.4s0.1-0.2,0.3-0.3l2.1-2.1c0.2-0.2,0.2-0.4,0-0.6L181.4,149.5z"/>
		<path d="M186,144.9c-0.2-0.2-0.2-0.4,0-0.6l2.4-2.4c0.2-0.2,0.2-0.5,0.2-0.7l-0.1-0.3c-0.1-0.2,0-0.6,0.1-0.8l0.9-1.9
			c0.1-0.2,0.3-0.4,0.5-0.5l1.9-0.9c0.2-0.1,0.5-0.1,0.8-0.1l0.7,0.2c0.2,0.1,0.3,0.2,0.1,0.4l-2.3,2.3c-0.2,0.2-0.2,0.4,0,0.6
			l2.1,2.1c0.2,0.2,0.4,0.2,0.6,0l2.5-2.5c0.2-0.2,0.3-0.2,0.4-0.1c0.1,0.1,0.1,0.4,0.1,0.6l-0.2,2.1c0,0.2-0.2,0.5-0.3,0.7
			l-1.5,1.5c-0.2,0.2-0.5,0.3-0.7,0.3l-2.1,0.2c-0.2,0-0.4,0-0.4,0c0,0-0.2,0.1-0.3,0.3l-2.1,2.1c-0.2,0.2-0.4,0.2-0.6,0L186,144.9z
			"/>
	</g>
</g>
<g>
	<rect x="168.6" y="24.5" class="st4" width="32.5" height="32.5"/>
	<rect x="176.4" y="32.3" width="16.9" height="16.9"/>
</g>
<g>
	<rect x="168.6" y="167.4" class="st10" width="32.5" height="32.5"/>
	<g>
		<circle cx="181.2" cy="173.8" r="2.5"/>
		<path d="M192.9,194.3l-1.8-7.7c-0.2-0.7-0.7-1.1-1.4-1.1l-4.6,0l-1.2-6.8c-0.2-1.2-1.4-2-2.6-1.8c-1.2,0.2-2,1.4-1.8,2.6l1.3,7.1
			c0.2,1.1,1.1,1.8,2.2,1.8c0.1,0,0.2,0,0.3,0c0,0,0.1,0,0.1,0l5.2,0.1l1.5,6.6c0.2,0.7,0.8,1.1,1.4,1.1c0.1,0,0.2,0,0.3,0
			C192.6,195.8,193.1,195,192.9,194.3z"/>
		<g>
			<path d="M185,191.1c-1.6,0-3.9-0.2-5.1-1.2c-1.8-1.5-2.9-7.5-3.1-8.7c-0.1-0.5,0.3-1.1,0.8-1.2c0.5-0.1,1.1,0.3,1.2,0.8
				c0.6,3.1,1.7,6.9,2.5,7.6c0.9,0.7,3.6,0.8,5.2,0.7c0.5-0.1,1,0.4,1.1,0.9c0.1,0.5-0.4,1-0.9,1.1
				C186.4,191.1,185.8,191.1,185,191.1z"/>
		</g>
	</g>
</g>
</svg>
