<svg id="ab1bf763-0be3-4155-90c9-888b14c68ca8" data-name="mo_alap" xmlns="http://www.w3.org/2000/svg" width="2030" height="1160" viewBox="0 0 2030 1160"><title>megye_alap</title><g id="ab77582b-4e28-4fcd-a628-c3f0c8e7f84d" data-name="HATCH"><path d="M681.74,690.78c-2.18,1.67-4.07,3.58-6.18,5.34,1.75.41,2.85,1.65,4.36,2.24-4.23,1.15-.84,6.37-.57,9,.35,3.43-1,5.32-1.27,8.48-.33,4.49,1.19,11.88,3,16.14-2.36-.37-6.7,1.81-8,2.7-4.49,3-1.85.65-2.23,5.05-1,10.77-3.1,1.42-7.67,3.81l.58,1.57c-1.09,1.68-4.32,5.4-7.51,4.82,1.36,3.06,2.8,6.49,4.12,9.83.79-.75,2.06-.94,2.83-1.75l1.46,2.42c-2.88,1-1.73.67-1.54,3.31-1.58-.32-2.41.14-3.81-.29l1.7,2.17c-1.72,1.21-.76,1.67-.38,4.3-5.49,1.64-4.48,5.06-7.62,7.39,3,3.24-1.67,5.4-2.9,7-.44.58.23,2.17-.25,2.87s-2.24,1-2.62,1.71c-.64,1.17-1.87,1.31-2,2.92-.22,2.21,2.39,4.24,3,6.29.86,2.74.4,4.57.41,7.24-2.54.78-6,17.68-12.14,8.16,1.77,5.43-1.17,7.25-1.27,11.29-.1,3.51,3.43,9-.43,11,3.6,2.54,4,8,5.16,11.92,1.56,5.21,8.61,19.4-.52,18,.06,2-.51,1.52-1.09,3l-1-1.83a11.2,11.2,0,0,0-1.1,2.43c-.16-.07-1-.85-1-.84a18.89,18.89,0,0,1-3.23,2.46l.44,1.42a5.18,5.18,0,0,0-5.23,1.35c1.76,2.15,3,4.22,3.21,6.51a9,9,0,0,1,4.5-2.48l.59,1.7q2.36-1.51,4.79-2.91c.13,3.79,2.85,6.71,3.25,10.35,1.36-.46,3,0,4.39-.48-1.08,4.67,2.28,9.82,1.16,14.26-.72,2.83-3.74,7.63-4.7,8.82-4.09,5.1-5.48,3.11-9.46,2.54a12.35,12.35,0,0,0-6.23.22c-.88-.77-1.29-4.22-1.47-4.31-4.65-2.55-10.13,3.9-13.72,2a45.12,45.12,0,0,0-4.86,16.41c-.49,3.64,2.54,7.88-1,11.09-1.82,1.64-2,.49-3.16,1.11a14,14,0,0,0-2.27-.46c-.61.12-.32,2.35-1.31,2.5-2.61.38-3.48-1.05-5.74-.77-.07,0-1,2.83-1.65,3.08s-2.23-1.84-3.14-1.66c-2.09.43-2.87,3.12-4.19,3.44-2.29.56-4.09-1.08-7.07-.14,1.28-6.8-4.19-1.06-5.33-5.87-4.24,1.39-1.92,7.08-4.52,8.87-3.2,2.19-6.33-.46-7.83-3-1.29-2.17-1.74-8.46-4.74-8.23-1.5.12-3.25,3.43-3.24,4.53,0-.52,2.56,1.6,2.8,2.93.49,2.67-.71,4.31-2.37,5.72-1.8-.27-1.67-.5-1.83.88l-1.84,0c.38,1.31.36,2.41,1.05,3.39-.27.87-.91,3.63-2,4.57-.06-.61,0-.87-.17-1.7a.5.5,0,0,1-.43-.13c1,3.54-2,5.44-2.65,7.77-1.18,4.06-2.51,15.31.27,17.92a42.94,42.94,0,0,1-5.73,2.93,6.32,6.32,0,0,0,4,3.76c-2.11,2.61-.67,6.64-2.8,9-2.57,2.79-4.13,6.05-9.89,7-.82,1.06,0,5.9.71,8,.6,1.84,1.88,3.06,2.76,4.61,1.56,2.75,1.83,1.55,2.11,4,.68,5.92-2.27,4.53-7.29,5.86.47.1.71-.13,1.27-.16.27,7.11,3.74,12.83,3.88,20a20.31,20.31,0,0,0,3.78-.77c-3.31-6.29-.3-4.7,2.33-3.43a6.28,6.28,0,0,0,.17,1.69c1.91-1.22,3.92-1,5.08.76-1.32.35-1.75,1.24-3.35,1.19,1,4.6,2.15,2.94,5.1,4.21s10.29,2.33,6.35,7.16c2.15.93,2.55,2,3.43,3.47-4.23.64-.15,4.69,0,6.07.19,2.39-2.6,2.42-.62,4.66a3.69,3.69,0,0,1-3.94.07c-1,.64-1.26,1-3.24-.51-.65,1.57-1.85,2.45-2.61,3.71a5.18,5.18,0,0,0-1.08-5.62c-.94.93-4.28,1.87-4.73,2.48-1.28,1.71,0,5.36-1.44,6.3-4.66,3-7.19-13.68-9.68-17.82-3.74-6.2-12.4-14.35-19.59-14.21a78.33,78.33,0,0,1-23.28-3.5c-2-.59-4-2.61-6.37-1.65-4.63,1.89-.2,2.49-.65,5-.4,2.14,2.16,3-2.12,3.53-3.22.35-4.65-2.29-3.89-4.71-.93.93-3.54,3.92-4.81,3.61-3.46-.83.4-5.22-2.4-6.43-4.07-1.78-10.34,6.6-11.17-2.88,1.31-3.64,2.5.27,4.15.66-1.68-.4,3.73-1.55,3.43-1.5,2.54-.4,3.74,1.33,5.73-.69,3.24-3.27-5.77-.49-5.79-.49-5.48-1-.43-3.44,1.89-3.42-4.93-1.45.18-2.78-.32-4.91-1.73-7.35-2.09-.27-3.51,1.34-4.81,5.51-6.64-12.41-7.87-2.63,0,.2,1.41,1.77,1.25,3a5.23,5.23,0,0,1-3,3.89c-6,2.39-2.13-1.75-1.67-3.35.89-3.1,3.14-4.75-1.44-4.73-.2,0-2.27,5.11-4.14,1.42-1.27-2.51,1.76-2.18,1.64-3.37-.24-2.19,1.82-1.58-.71-3.2a31.09,31.09,0,0,1-6.15.12c-6.83-2.16-2.39-3.6-.87-6.53,11.27.69,2.69-7.56-4.67-3.37l-.06-.39c2.07-1,1.45-3.21.76-5.54,11.29-3.4-3.9-4-5.48-4.65-5.5-2.29,3.53-1.15,4.35-3-4,2.46-2.14-1.74-3.35-2.86-2-1.87-2.53-2.13-5.39-2.28-1.35-.07-3.77,3.21-4.56.57-.63-2.12,4-1.63,4.69-1.46C425,989.56,429,987.31,429,987c-.16-1.7-4.44-.51-6.07-1,3.06-2.84,1.43-7.63.08-3-2.39-3.16-3.18.28-5.51-.13-3.81-.68-1.69-.2-2.44-2.31.39,1.11,0-5.47-.7-3.6a19.62,19.62,0,0,1,1.44-2.76,8.74,8.74,0,0,0-1.12-5.47c-.71-1.44,1.1-1-1.18-3.1-1.33-1.21-2.38.16-3.35-.93-1.58-1.74.65-3.53,0-4.3-1.88-2.37-4.85-.46-6.26-.65-4.41-.61-.79-1.42-3.37-3.38-1.46-1.12-1.88,1.45-3.19.66s-1.5-2.93-2.84-3.56c-2.63-1.23-9.4.35-8.52-5.71-5.2.9-13.72-6.63-17.91-7.21-1.53-.22-5.53-.39-6.32-2.76-.39-1.16,1.54-3.64.49-4.69s-2.25.8-3.84.37a9.52,9.52,0,0,1-5.17-3.08c-2.14-2.27-4.23-3-6.84-5.2a55.51,55.51,0,0,1-5.11-5.71c-1.65-2.71-.72-3.1-1.49-6.51-.52-2.29-2.14-3-2.71-5.33-.62-2.61.64-3.91-.24-5.6,3.57-.42,2.93,3.76,5.8,4.53,4.13,1.11,12.9-6.43,9.31,3.73a3.24,3.24,0,0,0,1.28.1c-.4,1.45.18,2.63,0,4.13,3.39-1.1,3.06-2.43,6.1-4.71,1.38-1,2.9.12,4.1-.68,1.54-1,.81-2.81,2.74-3.49s4.66,3.12,5.75,3.26c2.47.32,4.43-2.76,7.56-3.89-1.2-1.63-1-3.25,0-5.26a20.85,20.85,0,0,1,2.32-3.48c1.36-1.83,2.24.2,2.16-4.32,0-2.24-1.26-4-.86-6.1-4.29-.06-2.05-5-3.32-7.6-1.61-3.27-3-2.35-2.7-5.63.21-2.2,2.39-4.44,3.72-4.65,4-.64,2.69,7.85,8.28,2.38,2.9-2.83,2.88-5.83,8.34-2.09.95.65,2.67,6.18,6.6,2.83,1.83-1.56.16-5.83,2.7-7.68s8.44-2,10.75-.45c-.09-4.43,2.08-6,1.62-10.93-.22-2.33-.59-9.51-1.14-10.21a9.41,9.41,0,0,0,3.12-.08c.59-.46-.09-1.93.52-2.36s2.26-.38,2.68-1c4.69-6.85,2.06-14.14,1.67-22.21-.35-7.08-1.83-14.84-1.43-21.83.26-4.62.89-8.3.84-12.88,0-3,.26-7.07,1.92-9.61,2.91-4.42,5.44-4.93,7.9-10.44,1.79-4,3.95-11.71,7.74-13,7.2-2.37,15.46,3.26,22.79-.52,4-2.07,4.81-5.23,10.11-5.58,3.79-.25,7.23.78,11,.3,7.82-1,12.16-3.52,19.22-7.74,7.42-4.42,16.17-8.3,24.11-11.76,3.82-1.66,8.12-2.47,11.65-4.55,4.33-2.56,7.66-6.12,12.24-8.38,7.69-3.8,16.12-5.07,23.47-9.8,2.26-1.46,9.15-8.26,11.79-8.55,5-.56,7.09,4.75,12.17-.47,2.83-2.92,1.76-5.55,2.54-8.94s-1.49-.73,1.78-3.73c1.38-1.27,4.58-2.09,6.25-2.69,7.24-2.63,13.81-4.89,20.62-8.72,9.39-5.3,17.12-10,27.33-14.12,7.67-3.08,8-4.47,12.85-1.7,1.56.89,7.13,3.69,6.89,7.57-.12,2-6.49,8.36-8.07,9.52C677.25,673.66,679.34,684.05,681.74,690.78Z" fill="none" stroke="#000" stroke-miterlimit="10" fill-rule="evenodd"/></g><g id="e43ac79e-ddba-44df-a541-797f96c18367" data-name="HATCH"><path d="M850.75,1015.06c-2.85,5.1-5.68,10.22-8.56,15.29.14,0,.19,0,.14-.15,1.94,2.14-.55,6.38-2.79,7.36.92,2.79,7,3.2,7.62,7-.37.07-1.91.13-2.26.15,0-2.7.05-1.88-2-2.26-.23.49.3.74,0,1.27-.19-.15-.09-1-.56-.84a4.74,4.74,0,0,0-.28,1.83c-1.12.29-1.05.31-1.55.85-2.6.79-6.77,1.13-6.59,4.4,1.32.68,2.77,1.62,3.1,2.67.82,2.66.32,1.15.13,3.46-.07.84-1.59,2.9-1.74,3.63-.11.52.84,1.8.74,2.57-.16,1.36.23,4.19-.9,5.2-4.26,3.77-8.33-4.5-12.51-3.38.08-2-1.55-3.52-2.63-4.34-4.69.46-6.67-2.46-10.2-4.32-2.66-1.4-2.48-2.18-6.5-1.43-3.26.61-4.45,2.52-6.64-.38-.23,2.48,0,5.26,1.41,6.47-1.49,3-10,2.46-2.57,9.33a24,24,0,0,1-4.49,2.28c-.36-1.08-1.34-2.12-1.56-3.23-1.69,2.64-.21,8.53-4.31,8.76,2.64,5.7,1.94,5.24-3.61,7.07,1.79,3.49-1.92,4.37-4,6.34-2.71,2.57-4.07.25-2.68,6.1-1.12-.72-2.78-.58-3.93-1.25-.24,6.27-10.82,1.2-9.64,7.81-3.36-1.41-5.69-6.22-8.58-3.32-1.55,1.55-2,7.62-1.77,9.67-4-.36-7.16-2.79-9.57,1.84,1.59,2,1.41,6.09.46,8.65-4.49-.6-15.22-.07-12.06-6.72-.5.16-.37.48-.75.8-1.73-4.23-4.88-4.44-8.5-7.32,1.24,3-1.47,2.34-3,4.11s-1.44,4.1-3.63,5.33c-.3-2.52-7.32-4.59-9.72-4.69-4.55-.21-6.48,1.42-11.37-.59-1.92-.8-2.52.44-4.08-.95s-.76-3.93-2.29-5.18c-.35-.28-9.51-3.44-9.86-3.42-3.44.23-3.9,4.33-7.26,3.74-3.61-.62-3.38-4.86-8.69-3.91-7.06,1.28-6,10.37-16.31,7-3.87-1.25-9.18-1.88-12.51-4.2-4.54-3.17-3.54-5.36-9.22-4.81-3.78.37-7.8,1.25-11.69,1.57-3.42.29-7.17-1.44-10.4-.69s-7.09,8.73-8.14,8.85c-3.82.43-3.23-4.74-4.45-6.41-.9-1.23-3.24-1.37-4.4-3.45-.92-1.63.72-4.92-1.64-6-2.12-1-3.09,2.7-6.58,1.51-2-.68-2.49-3.54-4.27-4s-4,1.18-4.76,1.06c-3.21-.53-3.72-4.32-7.54-6.08-2-.93-5.09,0-7.17-.58-1.92-.55-2.51-2.2-5.1-2.59-4.57-.67-6.43,3-9.48-3.49,4.74.36,2.69-1.82,4.38-4.56,1.53-2.46,2.86-2.52,5.15-4.78a5.31,5.31,0,0,1,1.08,5.62c.84-1.26,2-2.12,2.61-3.71,1.94,1.56,2.29,1.06,3.24.51,1.77.85,2.45.57,3.94-.07-2-2.22.8-2.28.62-4.66-.09-1.27-4.23-5.56,0-6.07-.87-1.65-1.25-2.52-3.43-3.47,3.94-4.83-3.28-5.83-6.35-7.16s-4.07.39-5.1-4.21c1.6,0,2-.84,3.35-1.19-1.15-1.78-3.18-2-5.08-.76a6.76,6.76,0,0,1-.17-1.69c-2.93-.54-5.29-3.6-2.33,3.43a17,17,0,0,1-3.78.77c-.14-7.15-3.72-12.87-3.88-20-.56,0-.8.28-1.27.16,5-1.32,7.77.14,7.37-5.65-.24-3.37-3.74-4.75-5-8.81-.66-2.19-1.57-7-.71-8,5.65-.9,7.44-4.12,9.89-7,2-2.36.71-6.39,2.8-9a6.4,6.4,0,0,1-4-3.76,38.66,38.66,0,0,0,5.73-2.93c-2.78-2.6-1.45-13.86-.27-17.92.67-2.33,3.62-4.24,2.65-7.77a.5.5,0,0,0,.43.13c.11.77.11,1.13.17,1.7,1.13-.94,1.75-3.71,2-4.57-.69-1-.68-2.08-1.05-3.39l1.84,0c.11-1.41.06-1.11,1.83-.88,1.69-1.4,2.86-3.06,2.37-5.72-.23-1.3-2.81-3.51-2.8-2.93,0-1.22,1.51-4.06,3.18-4.31,3-.46,3.35,5.58,4.8,8s4.6,5.21,7.83,3c2.6-1.79.26-7.5,4.52-8.87,1.18,4.8,6.6-.9,5.33,5.87,2.7-.81,4.41,1.34,6.24,1s2.21-2.49,3.91-2.9a31,31,0,0,1,5.57-1.22c-.35,0,.69-1.57,1.32-1.72,1.68-.41,1.58,1.53,3.2,1.16,2.16-.5,2.41-2.14,3.92-2.76s1.93,1.24,3.68.23c4.5-2.6,1.18-7.38,1.19-10.73,0-2.06,2-5.6,2.3-7.71.61-4.05.84-5.67,3.11-10,3.61,2,9-4.54,13.72-2,.2.1.57,3.53,1.47,4.31,2.42-.75,10.53-.3,13.2,2,.12-.1,0-1.09.27-1.14a31.56,31.56,0,0,0,4.27,1.23c0-3.57,2.3-3.22,4.14-3.14,5.82.23,3.25,5.33,7.8,7.11a12.56,12.56,0,0,0,2.5-3.86l-.85-.56c-2.78,4.26-4.55-4.08-4.44-6.23.21-4.27.73-2.28,2.55-3.2s1.22-1.21,3.68-1.11c1.08,0,6.2,4,4.58-1.9,1.48,6.49,3.49.07,5.18-.8,3.07-1.58,3.27-1.11,7-1.28-.14-2.59.41-5.79.47-9.16-3.61-1.14-3.71-4.38-4-9-.42-6.24.38-8.64,7.66-9.13,2.85-.19,5.35,2.24,6.93-1.07,5.51,6.45,13.69-3.71,18.89-3,5,.72,6.9,5.22,7,8.7.06,2-1.12,4.08-.65,6.41.51,2.59,2.47,2.58,2.46,5.67,2.64-.48,8.05,1.91,9.1,3.76,3.06,5.35-2.31,5.51-3.39,9.27s.28,10.36,2.16,12.07a10,10,0,0,0,3.69,1.24c4,.34,5-.87,6.69,4.64-4.08,2.27-2.52,7.43-4.3,11.11a12.59,12.59,0,0,1-3.5,4.15c-1.29,1-6,1.32-6.77,2.26-3.32,4.09,2.31,5.61,5.73,4.17s7.46-5.61,10.58-7.51c2.83-1.72,5.22-1.27,4-5.28,2.64.45,4.49.53,6.09-.61-4.74-3.47,2-3.35,3.21-5.57,1.45-2.76-.48-8.61-1.21-11.35a2.21,2.21,0,0,0,.84-.29,27,27,0,0,0,1.61,3c3.36-.68,4.56.63,6.24,2.25,1.9,1.83,1.7.73,2.7,2.57.23.44-1.38,1.6-1.13,1.95,2,2.88,5.44,3.1,4.09-1.59,4.37,3.92,1.33,9.11.67,15.76-.36,3.65-.32,3.07,3.43,4.81,1.88.86,2.07,2.31,5.52.39.44,3.13-1.33,5.19.61,8.29,1.36,2.16,5,3.19,5.7,7.13.21-.06,3.83-2.23,3.31-2.32,3.57.66-.72-1,3.41,2.64a61.64,61.64,0,0,1,8.16,7.89c3.37,4.14,8.26,7.6,9.47,12.94,1.52-1.69.35-3.24,1.81-3.28.91,0,6.31,4.52,6.87,5.63.59-.5,1.35-.7,2-1.28,2.22,1.56,3.72,4.5,5.8,3.66,2.52,1.48,1.81-1,4.73-.87,2,.09,1.66,2,2.62,2.12,1.57.25,4.06-.24,5.93,0-2,3.78-7,3.62-9.22,7.46-2.1,3.61-2.57,7.85-5,11.49-2.58,3.8-3.4,3.42-2.16,7.29a22.3,22.3,0,0,1,1,3.53c3.27-.17,6.21-2.2,8.19,1.81,3.24-2.8,3.79.4,7.22-.13,2.39-.37,3.24-1.82,5.24-3.16,1.79-1.21,2.34-3.64,4.71-2.77,1.9.69,1.43,2.56.58,3.74A66.48,66.48,0,0,0,850.75,1015.06Z" fill="none" stroke="#000" stroke-miterlimit="10" fill-rule="evenodd"/></g><g id="e13d7b75-452d-409b-a206-d84d9e0f1697" data-name="HATCH"><path d="M477.16,742.22c-8.18.31-10.93,7-19.06,7.08-3.92,0-14.69-3.08-17.59-.59-1.8,1.55-4.2,9.91-5.31,12.44s-1,4.28-3.05,6.39c-3.68,3.74-7.26,5.92-6.95,13.07.55,13-.42,26.22.95,39.54.71,7,2.08,12.39-2,18.34-.1.15-2.38.94-2.61,1.1-.51.37.08,1.73-.45,2.11a10.43,10.43,0,0,1-3.12.08c.53.69.92,7.9,1.14,10.21.46,4.9-1.66,6.5-1.62,10.93-2.43-1.61-5.36-1.06-8.24,0-7,2.58-1,3-4.38,7.39a4.19,4.19,0,0,1-3.37,1.36c-4.05,0-1.38-1.72-3.2-3-.61-.45-4.38-2.42-5.45-2.29-3.56.44-1.81,1.51-3.5,3.18-1.37,1.35.39,3.08-2.72,3.67-2.87.56-2.82-5.07-3.69-5.6-3.29-2-6.79,5.28-6.05,7.7.65,2.13,2.88,2.49,3.36,3.76.69,1.84,0,3.11.24,3.84.6,1.56-.18,2.87,2.63,2.92-.45,2,.75,3.58.78,5.68,0,1,.51,2,.15,3-.65,1.83-1.17.87-1.69,1.72s-2.13,1.93-2.86,3.45c-1,2-1.19,3.64,0,5.26-3.11,1.15-5.13,4.18-7.56,3.89-1.11-.13-3.83-3.93-5.75-3.26s-1.17,2.41-2.74,3.49c-1.18.8-2.71-.36-4.1.68-3,2.28-2.55,3.94-6.1,4.71.19-1.48-.4-2.65,0-4.13a3.24,3.24,0,0,1-1.28-.1c3.58-10.16-5.17-2.62-9.31-3.73-2.87-.77-2.23-5-5.8-4.53,0,.5.51.83.61,1.54-2.85-2.44.69-2.33.39-4.62-.17-1.31-1.21-1.59-1.77-2.38-.25-.35-2.34-1.82-2.82-2.69-.31-.57,1.52-1.64,1.32-1.79.59.44-3.16-2.58-2-.69a39,39,0,0,0-5.88-5.71c.94.59-.64-2.1-.8-2.23,1.42,1.13-2,2-2.12,2-.62,0-3.51-2.24-4.63-3s-.73-3.18-2.63-3.35c-2.42-.22-2.84,2.27-4.12,2.36-.82.05-2.71-1.58-2.08-1.74s-4.43,1.11-2.45,2c-1.77-.82-.92-2.58-2.31-3.4-1.72-1-1.68,1.31-3.92-.62-1.56-1.33,1.81-4-2.11-4.26-2.7-.15-1,3.86-3.12,3.58-1.3-.17-6.21-10-7.13-11.78-1.13-2.14-2.44-7.44-4.29-8.62-.06,0-4.67-1.44-3.52.38-1.14-1.8,1.72-1.93,1.27-2.86-1.6-3.3-1.79-3.19-5.92-4.15-1.64-.38-2,.93-2.76.85-1.43-.14-.89-2-2.34-2.51-1.94-.71.08,1.88-2,.33-.45-.34-1.12-1.44-1.33-1.53-1.11-.49-2.53-1.28-3.35-1.68-3.22-1.57-18.88-8.24-18.7-12.33l1.41.46c1.89-4-1.23-1.76-1.2-4.26,0-1.17,2.31-3.07,1.81-4.55-.82-2.45-3.43-1.45-4.15-4-.86-3.07.34-4.83-2-8.83-1,.72-2.85,1.44-4,.91-3.41-1.62-1.18-3.13-2.61-6-1.3-2.6-3-3.28-4.73-4.92-1.2-1.14-2.37-2.67-3.5-3.88-.56-.6-.72-2.47-1.3-2.91-1-.75-3-.51-4-1.15a24.38,24.38,0,0,1-2.44-1.49c-1.65-1.32-2.25-4-3.65-5.28a4.45,4.45,0,0,0-3.93-1c0-1.62-.59-1.48.09-2.69-4.49-3.42,1.33-5.58-.15-8.58,1.92-.2,2.48.17,3,1.84,1.48,0,2.81.07,4.31.13-.33-1.15.13-1.24-.39-2.28,3.58-2.3-.67-3.45,1.87-5.43-1.8-1-.37-3.69.79-5.63-3.42-1.29-7.75-.31-11.37-1.5a13,13,0,0,1-4.12-2.36c4.42-2.51,1.08-3.76,1.19-5.54.2-3.4,2-4.68,3.67-7.63,2.19-3.92-.73-5.32-.44-8.8a7.11,7.11,0,0,0,2.91-2.68c4.39.4.79-2.91-1.52-2.68-1,.1-8.7,5.79-7-.62a40.19,40.19,0,0,1,6.53-3.63c3.8-1.4,4.94,1,7.5,2.08,2.1.85,3.57.1,5.75,2.27,2.14-3.1,8.6-5.13,11.61-7.23,5.7-4,7.1-8.29,4.24-14.63,3.26-.44,5.87-2.42,9.37-2.6,4.36-.23,2.87,2.8,5.69-1.05,1.16-1.58,2.42-6.43,1.86-9,4.09.17,3.74-2.85,4.85-5.33,1.77-4,5.84-7.08,8.61-11.2,1.82-2.72,2.48-3.94,4.51-4.59s2.93.85,5-.16c1.48-.71,1.78-2.55,2.77-3.25,1.84-1.29,3.31.29,5-1.73a20.54,20.54,0,0,1,3.69,3.34A34.27,34.27,0,0,1,302.42,674c4.47.2,9.16,4.3,11.61-.2,2.23-4.09-2.56-3.64,2.56-6.2,2.26-1.13,4.38.38,5.27-.78s0-7.82.45-9.37c.45.58.67.37,1.18,1.26.38-.61,2.56-3.25,3.58-3.05,1.47.29,1.7,3.31,2.48,3.51,1.4.37,3.76-.35,5.56-.64,2.24,3.76,12.48-4.88,14.18,4.21,3.45-.09,14.24,1.63,16-1.72.38.13,1,.9,1.46,1.11.4-2.71-1.68-3.08-1.61-6.58,2.58-.54,7.76-4.63,8.13-7.41.28.69.77,1.57.92,2-.74-2.76-1.92-5.16-2.62-7.93-1.24-4.95-3.47-7,1.44-9.9,2,3.26,4-.63,5.4.5,1.62,1.28,1.78,4.89,2.09,6.22,3.38-3.89,4.34.8,6.53-.24,1.93-.91.49-5.52,1.28-9,4.61,3.51,11.57,14,17.41,13-.18,9.19,4.43,2.84,9.22,7,.24-.21.1-.87.4-1.17,1.55,1.5,6,.5,6.83-2.32.35,2.91,4.26,4.35,6.12,6.77,2.23,2.89,2.74,7.33,5.07,11.68-1,0-2,.77-3,.79,3.05,6-9,11.28,2.31,13.33,1.91.34,2.77.85,4.75.75,1.39-.07,2.73-1.7,4.77-1.19,3.75.94,4,5.67,5.11,7.15,1.42,1.87,4.52,2.28,5.4,4.62.72,1.91-.56,2.65-.49,3.75.09,1.5-.46,1.3.22,3.58.87,2.92,2.74,2,2,5.7-.9,4.46-2.44,6.67,0,10.13,1.12,1.57,3.88,2.69,4.89,4.27,1.54,2.41,1.16,5.61,2.46,8C464.87,731.09,476.8,734.78,477.16,742.22Z" fill="none" stroke="#000" stroke-miterlimit="10" fill-rule="evenodd"/></g><g id="f4e82cc7-e5e4-4c68-8fa5-730f13e8de7c" data-name="HATCH"><path d="M886.27,761.62c-.56,5.5-8.11,16.38-13,19l-.15-1.86c-2.8,1.35-5.68,3.82-8.12,4.87-2.78,1.21-6.85-.37-10,1.31-8.26,4.42-6.61,13.29-2.53,19.58,2.72,4.19,5.07,7.95,5.58,13,.4,3.89-1.1,7.78-.26,11.7,1.3,6,5.87,10.12,6.71,16.54s-1.08,10.92-4,16.39c-2.64,5-6,8.59-5.37,14.54.45,4.22,1.65,8.47,2.09,12.73.45,4.43.72,8.12,3.14,12,2.53,4.09,4.3,4.83,3.73,10.09s-.87,17.46-8.47,14.08c-2.06-.92-2.9-5.37-5.77-2.83-3.2,2.83,2.8,6.38,2.85,9.08.13,6.46-3.92,2.12-6.29,3.49a51.35,51.35,0,0,0-6.38,7.54c-5.94,11.72,10.55-2.68,11.41-2.79.24,2.84-1.28,4-1.53,6.53,0,.48,1.17,2.94,1.27,2.69-1.26,3-1.29-.17-3,1.74-3,3.42-4.75,5.47-5.06,11.32-.29,5.62-.35,5.65-2.94,9.37-1.5,2.14-6.25,8.73-2.23,10.48a19.47,19.47,0,0,1-6.63-.12c-1.29-.21-4.1-1.06-4.28-1.08-2.43-.22-5.06,1.11-6.74.13-2.08.84-3.58-2.1-5.8-3.66-.62.57-1.38.78-2,1.28-.57-1.15-6-5.66-6.87-5.63-1.47,0-.27,1.58-1.81,3.28-1.21-5.34-6.1-8.8-9.47-12.94-2.56-3.14-5-4.74-7.92-7.58-3.09-3-.43-2.64-3.44-3.13a17.71,17.71,0,0,1-3.52,2.5c-.83-3.91-4.33-4.95-5.7-7.13-1.92-3-.2-5.21-.61-8.29-3.19,2-3.77.45-5.45-.25-3.75-1.58-3.87-1.54-3.5-4.95.45-4.09,2.24-6.51,1.34-11.22-.55-2.93.28-2.13-2-4.54,1.33,4.68-2,4.49-4.09,1.59-.26-.36,1.35-1.51,1.13-1.95-.95-1.81-.88-.82-2.7-2.57s-2.82-3-6.24-2.25a26.23,26.23,0,0,1-1.61-3,2.21,2.21,0,0,1-.84.29c.74,2.76,2.65,8.57,1.21,11.35-1.14,2.21-8,2.12-3.21,5.57-1.6,1.14-3.45,1.06-6.09.61,1.41,4.64-8.82,9.07-13.41,11.54-2.6,1.39-1.8,2.9-5,2-1.74-.48-4-2.36-3-4.17,1.28-2.38,8.55-2.6,10.71-5.62,2.57-3.59.51-10.24,5-12.68-1.72-5.51-2.63-4.36-6.69-4.64a9.28,9.28,0,0,1-3.41-1.25c-2-1.76-3.59-8-2.44-12.06,1-3.7,6.39-3.82,3.47-9.06-1.13-2-6.36-4.46-9.18-4,0-3-2-3.09-2.46-5.67-.46-2.32.72-4.44.65-6.41-.12-3.46-2-8-7-8.7-5.33-.75-13.21,9.38-18.89,3-1.61,3.42-3.73.78-6.6,1-7.24.48-8.42,2.84-8,9.23.3,4.56.43,7.83,4,9,0,3.38-.61,6.56-.47,9.16-3.7.16-3.91-.27-7,1.28-1.69.85-3.65,7.38-5.18.8,1.55,5.86-3.47,1.94-4.51,1.9-2.51-.1-1.79.1-3.75,1.11-1.64.85-2.31-1.12-2.71,2.86-.21,2.08,1.82,10.87,4.6,6.57l.85.56a12.56,12.56,0,0,1-2.5,3.86c-4.55-1.81-2-6.86-7.8-7.11-1.84-.08-4.12-.44-4.14,3.14a25.38,25.38,0,0,1-4.27-1.23c-.25.19-.1,1-.27,1.14-3.71-3.13,2.66-3.73,3.48-5,1-1.49.43-3.15,1.14-5.27.62-1.88,2.38-2.71,2.7-4.65.2-1.17-.5-2.62-.61-3.77-.28-3-1.37-6.1-.68-9.09-1.33.5-3,0-4.39.48-.4-3.64-3.12-6.56-3.25-10.35q-2.41,1.39-4.79,2.91l-.59-1.7a9.6,9.6,0,0,0-4.5,2.48,12.59,12.59,0,0,0-3.21-6.51c1.68-1.32,3.17-2,5.23-1.35l-.44-1.42a15.5,15.5,0,0,0,3.23-2.46c.07,0,.83.77,1,.84a12.25,12.25,0,0,1,1.1-2.43l1,1.83c.7-1.61,1.14-.73,1.09-3,9.12,1.44,2.08-12.76.52-18-1.17-3.91-1.57-9.38-5.16-11.92,3.87-2,.32-7.48.43-11,.12-4.06,2.94-5.83,1.27-11.29,6.21,9.51,9.58-7.37,12.14-8.16,0-2.54.52-4.43-.3-7.07-.65-2.12-3.34-4.17-3.14-6.46.1-1.17.92-1.7,1.39-2.59s2.55-1.08,3.18-2c.39-.59-.06-2.17.33-2.65,1.23-1.55,5.79-4.21,2.9-7.26,3.09-2.36,2.15-5.73,7.62-7.39-.4-2.47-1.16-3,.38-4.3l-1.7-2.17c1.42.39,2.13-.07,3.81.29-.23-3.21-1-1.63,1.54-3.31L663.19,758c-.78.81-2.05,1-2.83,1.75-1.3-3.35-2.77-6.76-4.12-9.83,3.14.57,6.49-3.12,7.51-4.82l-.58-1.57c3.54-1.84,2.3,1.84,4.87,1.52,4.61-.57,2-2.81,2.21-6.47.29-4,2.29-4,6.23-5,2.46-.61,4.78-2.06,7.62-2.52,4.36-.7,7.59-1.06,10.53-4.52,2-2.28,4.07-6.46,8.16-7.72,5.3-1.63,2-.89,3.59,3.35s2.51,4.09,6.38,6.13c2.81,1.48,7.12,5.71,9.73,4.18-.31-.37-.72-.35-1-1a11.18,11.18,0,0,1,3.82-4.33c.37,1.56,1.09,1.91.89,3.43,3.18-4.38,1.85,1.75,2.74,2.7,2.1,2.28,1.15,2,2.32-2.15.76-2.69.52-6,.73-8.77,5.32,3.91,4.1,13.79,2.87,19.32,4.55,1.1,8.28,4.05,12.9,5.21a10.26,10.26,0,0,0-1.15-.85c2.19-3.3,9.83-2.74,9.93-1.55.68-.05.24-.56.47-1,3.77,3.59-.5-5.11.17-6.45,1.25-2.47,10.68-6,13.17-7.54,2.69,6.51,5.51,11.21,11.52,14.41,2,1.06,3.59-2,4.44,1.83-.38.27-.65-.16-1.14,0,.14.08.13,1,.29.86.49-.3.47-.07,1.14,0-.88.41-.24.44-.86.15-.3,2.89,1.72,4.37,3.6,5.71-4.31-.11-1.57,3.69-.82,6,.4.11.71-.37,1.14-.29-.7.47-1,1.48-1.71,1.86a10,10,0,0,0,1.72.43c-.51,1.1-.59,1.63-1,2,.2,1,.36,1.09.15,1.86.39.11,1-.28,1.43-.3-.17.91.06,1,.15,1.72a37.93,37.93,0,0,0,9-1.95c4.6-1.8,5.72-5.41,9.35-8.09,3.45-2.56,6.1-1.45,6-5.54-.11-3.21-2.94-6.77-4.18-9.59,6.11-3,14-7.18,21.84-5.52-1.53-8.11,1-6.91,7-10.92,5-3.33,8.43-10.52,12.25-13.08l-.71-.86c3-.55-.77-2.94-2.17-5.31a41.79,41.79,0,0,1,11.16-2.61l-.43-1.14a14.39,14.39,0,0,1,5.86,1c-1.55,9.59-.61,15.93,7.33,21.23-.9,2.22,3.45,13.88,6.3,13.47C876.72,745.68,886.88,752.76,886.27,761.62Z" fill="none" stroke="#000" stroke-miterlimit="10" fill-rule="evenodd"/></g><g id="aac083fd-b918-4618-876b-5e726acc455e" data-name="HATCH"><path d="M610.48,439.7c-1,.62-3.59,2.23-5.28,2.39-2.6.24-4.43-1.38-7.18-1.34a17.64,17.64,0,0,1-.32-1.88c-3,4.87,1.62,13.56,6.2,17.06a12.07,12.07,0,0,0-.39,3.21c-2.85-.9-8.86,3.57-5.25,7.49-1.55-.45-2.24.28-3.91.2.07,2.36-.24,4.39,2.83,5.33-3.33.7-3.29,1.59-2.76,4.11.24,1.12,1.87-.15,2.62,1.12a13.22,13.22,0,0,1,1.31,5.28c.34,2.71,1,3.4-.05,6.31-.77,2.07-3.13,4.06-3.23,6.72-.16,4.76,3.46,5.75-1.89,8.59-.85.45-2.47-.68-3.19-.39-1.24.51-2.38,2.12-3.42,3s-3.58,3-3.85,3.69c-1,2.59.9,4.46,1.85,6.93-1.85,1-2.17,3.7-3.75,5.63-1.27,1.57-.72,2.46-3.78,2.74a6.15,6.15,0,0,1-4.94-1.66c-3.57,2.63-3.4,15.06-.28,18.25-6.05,2.26-5.3,3.22-7.15-5.24-.6-2.7,1-6.39-1.3-8.66-1.2-1.17-3.11,0-4.35-.94-2.69-2-.9-2.05-2.09-4.46-.33-.66-2.1-3-2.15-3.37-.24-1.87.86-1,1.32-3,1.15-4.91,1-2.4,4.68-4.86,2.62-1.73,6.08-5.7,5.34-9.37,4.89,1.36,5.39-3.46,3.23-5.85,5.4-2,0-8.17-1.66-11.08s-8.44-22.32-10.77-14.26a7.16,7.16,0,0,1-.45-1.3c-.07.22-1.26,3.08-1.26,2.92,0,.76,2.74,3.2,2.39,3.88-.57,1.13-5-.48-7.09.71-2.62-4.41,4.19-4.43-.29-9-1.9,1.63-3.31,1.66-5.32,2.56-2.68-5.3-3.65.22-4.46,1.24-1,1.2-1,2.07-1.69,2.79-.14.13-3.6,1.17-4.46,1.68a14.74,14.74,0,0,0,.25-2.33c-2.54,2.39-4.33-.11-5.7-2.95-1.4,1.18-2.87,2.49-4.28,3.57a9.92,9.92,0,0,0-3.86-5c-3.61,2.83-1,4.92-2.32,7.16-.88,1.49-4,2.22-5.44,3.45-2.39-4.11-6.79-5.71-8.3-10.44-.79,1.2-2,2.71-2.68,3.68.05,1.72-2.92,8.23-4.29,10.1-2.62,3.57-5.47,3.3-9.09,1.2-1.06,2-2,2.06-3.47.43-2-2.15,0-2.72-.67-4.84-1.35-4.2-2.3-2.77-5-5.78-2.46-2.78-.64-6.8-1.54-8.1-1.75-2.53-8-.63-8.18-3.25-3,3.81-.48,7-2.31,10.58a22,22,0,0,1-5.31,5.56c-1.51,1-3.15-.94-4.31,1.55-1.81-.32-7.46-2.17-8.08,1.19-3.3-.38-2.75,1.94-4.58,2.43-.86.23-1.85-.42-3-.3-1.79.2-3.31-2.22-3,.29a20.43,20.43,0,0,1-2.32-.39c0-.21.78-.36.56-.73-1.84-1.24-5.77-.15-7.54-.7a6.31,6.31,0,0,0-.77-2,6.65,6.65,0,0,1-.12,1.31c-.08-.06-1.11-.77-.88-.85-1.1.17-.51.73-1.74,0,.07.47-.24,2-.23,2.62-4.78-1.45-5.22-1.79-7.5-5.19.05.14,0,.19-.14.15a.73.73,0,0,1,.31.72c-.83-.25-.69-.49-1.15.46-.12-.07.35-.9-.17-.87-1.86,1.2-1.86.58-1.82,2.51-1,1.07-1.31,1.58-2.85,1.81.1-.45.56-.49.55-1-2.69,1.13-4.34-.94-6.66-.42s-1.11,2.42-3.43,2.12c-.39.21,0,1-.4,1.32a3.2,3.2,0,0,0-1.73-.11c2.28,2.78-.51,3-1.36,3.67a33.61,33.61,0,0,1-5.84,3.62c-2.46,1-5.11-.05-7.5.92-2.57,1-4,3.45-5.68,4.21-.08-.87.4-.8.54-1.47-.24,0-1.15.22-1.3-.11.58-.4.57-.25,1.07-.5a16.75,16.75,0,0,1,1.17-2.46c.18-.22.76.34,1,.26-.69-1.3-.18-.82-.49-2.16-.12.11.54.36.73.13-.07-1.42-.77-.34.41-1.17-.21-.41-.37.1-.61-.41.37-.27.61.07.88-.18.37-2-.82-6.94,2-7,.07-.28-.61-.53-.59-.56a.25.25,0,0,0,.14-.3c3.67-2-2.17-5.3-2.55-8.94-4.06,3.56-10.3,8.68-13,11.16-3.38,3.07-6.35,5-9.35,7.43-2.18,1.78-2.75,2.43-5.38,4.5.05.42-.35,1.18-.09,2-2.06-1.06-1.41-2.18-3.13-3.69s-2.4-2.73-4.16-4.09c-1.16,1-.81,0-2.44.79a10.78,10.78,0,0,0,.37-2.19c.22.33-1.22-1.46-1.49-1.84-.47.88.17.13,0,1.3a10.84,10.84,0,0,0-3.32.24c-.07,4.87-2.83.92-4.73-1.1-1.43-1.52-2.05-1.49-3.66-4-.52-.81-1.57-3.34-1.87-3.61-4-3.59-2,.16-7.66,1.7-2.57.7-4,1.37-4.91-2-.85,1.12-2.56,1.59-3.4,2.71-1.2-5.49-20.89,5.09-17.53,9.22L295.63,493c-.67-3.51-4.7-2.95-6.62-3.57a19,19,0,0,1-3.22-1.36c-1.54-1.5-10.33-7.62-6.7-10.24,0-.26-.7-.7-.64-.9,2.13-.31,5.21-6,5.33-8.33.23-4.67-7.91-9.36-1.84-13.76.38.87,1.2,1.27,1.62,2.16,3.14-1.87,4.65-2.47,6.69-5a17.23,17.23,0,0,0,2.59-3.91,17.27,17.27,0,0,1,.63-3.3c0-.78,2-.8,1.84-1.63-.27-1.85-3.63-1.69-4.4-2.57-1.92-2.18-1.51-4-3.5-5.54-1.39-1-4.48,1.12-5.07-2.42-.1-.6,2.23-5,2.08-7.68-.08-1.36-1.26-2.72-1.52-3.92-.23-1,1.85-1.8,1.3-3.26.06.17-1.78.44-1.84.31s-1.87-3.59-2.08-3.86c-1.73-2.23-1.6-4-5.2-4.59-5.23-.81-8.93,4.55-14.64,3.24-5.54-1.28-9.85-9-15.31-9.31a17.38,17.38,0,0,1-1.7-1c-1.13,5.66-5.76.89-7.84-.31-3.63-2.07-9.07-2.28-12.86-5-4.58-3.31.66-3.34,2.53-7.28.82-1.71.48-7.15,2.37-6.85,3.05.49,1.75,6.42,5.84,6-.58-4.45,5.38-7.17,7.85-8.86,1.75-1.2,2.71-.71,4-3a4,4,0,0,0,3.82.33c2.85-1.59,3.5-3.19,3-6.19-.36-2.11-2.57-2.61-2.39-4.62,0-.49,2.06-1.57,1.82-.71,1-3.51-.18-2.5,4.1-3.88A55,55,0,0,1,265.9,360c1.82-.23,6.78-1.67,8.27-.7,2.55,1.67,2,5,6.18,6.64.9.34,6,.69,7.95,1,8.53,1.5,7.24-.25,9.09,6.9.78,3,4,12.91,6.63,14.72s11.07,0,14.61,0c7.4-.14,5-1.67,8.33-7,2-3.15,5.56-4.33,7.64-7.93a1.31,1.31,0,0,1,.49.12c.37,6.19-1.24,11.23,4.52,12.7,6.25,1.61,14.17-.89,20.35-2,11.09-1.94,21.75-4.44,33-5.73-6.09-7.25-5-10.15-6-18.79a37.51,37.51,0,0,0-2.44-8.55c-2.14-5.39-2.55-8.21,3.66-11-2.26-2.67-3.95-6.72-7.09-7.7,2-4.6-1.75-5-5.9-8.79-2-1.87-5.29-4.41-1.46-6.58.73-.41,3.85.33,4.92.15a12.56,12.56,0,0,0,2.9-1.52c3.91-1.17,8.28-.77,10.09-2.3,2.13-1.81,3.22-7.14,3.55-8.72.11-.55-1.23-1.55-1.1-2.42.08-.51,1.18-1,1.3-1.48,1.71-6.17,4-6.35-3-9.12a31.35,31.35,0,0,0,4.55-6.51c2.54-5.28.76-1.87-.79-5.39-.63-1.42-2.69-.44-2.45-2.39.05-.4,3.82-2.9,4.57-3.52,2.91-2.37,5.17-4.85,7.94-7.08,4.51-3.65,11-7.79,16.14-7.72,3.44.05,6.43,2.17,8.93-1.31,3.95,4.36-.38,7.43,6.47,9.88,4.94,1.77,9.51-.8,14.42.57,4.49,1.25,7.84,6,10.86,9.62,3.37,4,7.25,6.36,10.45,10.08,1.93,2.24,5.5,6.26,7,9,2.1,3.86,2.29,10.13,5.32,13.46,1.71,1.88,3.75,1.48,5.69,2.58s3.75,3.74,5.92,4.5c5.09,1.8,7.33-1.33,10.43,4.64,1.43,2.77,1.54,6.45,3.2,9.57.63,1.17,3.42,5.92,4.92,6.28,2,.48,3.94-2.39,6.16-2.74,5.78-.9,9.58,6.73,14.3,10.18,5.47,4,9.3,8.54,13.89,13,3.47,3.37,8.41,2.68,12.82,4.15,2.82.94,5.11,3.8,7.81,4.17,2,.28,3.43-1.91,5.37-2s3.45,1.45,5.3,1.59c5.71.42,9.88-4,15.49-.5,7.19,4.55,3,13.91,2.35,20.71-.24,2.7,1,2.12,1.61,5.29.48,2.59-.73,6.63-1.4,9.26-1.49,5.86-1.61,7.49,3.64,10.17,1.77.9,4.34,1.49,6.43,2.53-2.06,3.76-1.52,9.59-5.49,11.87,4.76,1,0,7-1.89,9.78a38.89,38.89,0,0,0,5.41,3.12l.7-1.76C609.05,438,610,438.77,610.48,439.7Z" fill="none" stroke="#000" stroke-miterlimit="10" fill-rule="evenodd"/></g><g id="e47b598b-c10e-492b-b52b-bc78b5fd87b2" data-name="HATCH"><path d="M445.3,523.45c-2,1.37-4,3.63-6.26,4.19-2.05.52-4.13-.59-6.28,0-4.44,1.15-5.42,5.84-8.86,7,1.59,2.79,2.37,6.84.22,9.4-.4-.78-1.12-1.37-1.49-2.14-2.24,4.52-1.93,6.36-.74,11.67.9,4-.47,15.24,2.24,15.78-1.3,3.58-.82,6.92-1.36,9.58s-2,3.78-2.84,6.31c-1.17,3.51.45,18.28,6.19,19.89-1.43.36-1.78,1.06-2.71,1.07.2-.13.2-.18,0-.14.26,2.24,1.26,5.37,1,7.62-.5,5.15-.22,2.35-3.45,6-1.76,2-1,3.48-3.73,3.41-2-.05-5-3.33-5.65-5.06-.28,1-1.2,2-1.51,3.07-1.57-5.12-5.25-2.05-8.21-.59-3.36,1.64-9,1.72-11.56,3.24-3,1.79-2.4,6.09-2.47,10.44-.15,9.64-2.27-.92-7.35,4.8-.32-1.33-.49-5-2.09-6.22-1.43-1.12-3.36,2.75-5.4-.5-4.85,2.79-2.67,5-1.44,9.9.7,2.76,1.89,5.18,2.62,7.93-.13-.36-.67-1.34-.92-2-.36,2.78-5.58,6.86-8.13,7.41-.07,3.46,2,3.94,1.61,6.58-.56-.25-1-.89-1.46-1.11-2,3.45-12.41,1.53-16,1.72-1.86-9.07-12.07-.39-14.18-4.21-1.42.23-4.09,1.4-5.42,1-.88-.25-1.07-3.47-2.62-3.88-.94-.25-3.25,2.52-3.58,3.05-.49-.86-.73-.7-1.18-1.26-.46,1.6.32,8-.46,9.08-1.14,1.57-2.17-.17-4.85,1-5.82,2.55-.59,1.9-3,6.27s-6.86.47-11.25.23a33.34,33.34,0,0,0-10.93,1.15,22.12,22.12,0,0,0-3.69-3.34c-1.64,2-3.15.43-5,1.73-1,.72-1.26,2.52-2.77,3.25-2,1-2.62-.29-4.61.36-1.84.6-.71-.25-2.51.87-.61.37-2,3-2.4,3.52-2.74,4.12-6.86,7.24-8.61,11.2-1.1,2.48-.78,5.49-4.85,5.33.61,2.51-.73,7.41-1.86,9-2.81,3.83-1.32.88-5.69,1.05-3.49.13-6.11,2.2-9.37,2.6,2.91,6.38,1.4,10.62-4.24,14.63-3,2.14-9.45,4.11-11.61,7.23-2.52-2.51-8.6-5.42-11.77-4.87-1.92.34-3.26,2.21-4.09,2.55.35-.15-3.89.91-3.74.59a3.32,3.32,0,0,0,2.37,4.51c.27.06,3-2.48,3.27-2.55,2.89-.76,7.17,2.75,2.73,2.35a6.46,6.46,0,0,1-2.91,2.68c-.33,3.3,2.54,5,.58,8.72a46.83,46.83,0,0,1-4.66,6.81c-1.1,1.27-2.26,1.59-3.31,2.68-.3-1.5-1-2.37-.9-4a12.74,12.74,0,0,1-1.63.1c2.92-3.87-4.1-7.41-5.7-9.64-1.3-1.83-1.4-2.47-.72-5.21.3-1.23,2.61-3.23,2-4.46-.73-1.49-3.54-.05-4.75-2-2.13-3.4.83-6.43,2.15-7.27,4.39-2.8,4-.17,5.28-5.32.48-1.84,2.56-5.75,2.57-6.44a10.81,10.81,0,0,0-.88-3.56c-.4-.69-1.46-.65-2.06-.76,0-.3.71-1.1.31-1.43-1,.46-1.68.13-2.78.84-1.63-2.06-2.47-5.2-5.65-4.51-.85-.74-2.06-4.67-3.81-5.75s-4.68.15-6.65,0c-2.24-.13-4.78-1.78-6.79-1.72-2.48.07-2.85,1.42-4.29,1.85-3.62,1.07-7.71,2.52-11.15,3.64-2.79.92-6.8,3.22-10.25,2.57-2.17-.41-6.16-2.75-6.26-3.84s-.24-.55-.75-1.48c5.49-3.11,7.73-8.57,11.56-11.52,1.86-1.44,3.63-1.26,5.24-2.93s2.14-6.53,2.94-8.37c1.08-2.49,1.22-4.46,4-4.92.21.37.19.81.41,1.38.42-1,.49-.12.46-1.24a.32.32,0,0,0,.18-.12c1.54.8.67.67,2,.62a5.83,5.83,0,0,1,0,1.79,4.21,4.21,0,0,0,2.82-2.66c.58-.17.77.38,1,.48,1.17-2,2.78-1.78,3.74-2.78-4.9-7.3,6.59-4,7.61-5,1.25-1.29-.33-6.68-.08-8.41.64-4.29,1.46-12.69,5.95-9,.78.63-1.1,2.61.38,3.47,1.88,1.1,3.37-1.1,5.18-.94,2.13.2,4.25,2.48,6,1.51.49-.27-.14-2.77,1-3.69,3.63-2.88,4.27,3,6.43,3.54,2,.51,4.38-1.87,6.91-2.1,4.38-.41,3,1.88,6.21,3.5,1.24.62,3.45,1.19,4.86.51,1.69-.82.12-3,1.38-3.87,1-.69,1.6.63,2.56.84.2,0,.71-.1.39-.19.6,1.59,4.74,3,6,2.89s1.54-1.73,1.65-2.33c1.8,1,4.61-.24,4.61-.24.13-.18.82-.27,1.36-.94a21.63,21.63,0,0,1-7-5.22,4.52,4.52,0,0,1-.76-2c-.22-.08-1,.51-1.15.5-1.69-5-4.62-4.22-7.72-.5-2-1.33-2.6-2.85-1-4.46,0,0-1-.44-1-.55a26.37,26.37,0,0,1,8.67-3.9c3.41-.91,16.62-1.55,9.63-7.35-3-2.5-7.38-.49-7.17-3.25a20.64,20.64,0,0,0-2.7.24c-.48-1.75-.35-2.47.29-3.17-.31-1.56-.6-2.5-2.07-2.78a7.39,7.39,0,0,1-.35-3.65c2.11-1.65,1.27-.18,2.61-2.37,1.52,2.19,2.26,1.39,2.09-1.35,5.89.25,3.27-3.54,5.87-5.67,3.11-2.57,6.34,1.11,6-4.6-.48-7.74-9.57-4.17-14.38-3-10.06,2.49-3.66-5-3.23-8.63.23-1.94-2-5.29-1.47-7.92-4.92-.72-9,2.68-9.43-5.74-.07-1.32-.32-1.95.42-3.25.2.3.35,1,.54,1.25.93-.18,2.72-.5,3.75-.81,0-3,3.53-15.52-1.58-15.35l.34-1c1.39.62,3,.45,4.36.94l-.54-1.1c2-.77,3.76-1.16,5.3.18,1-1.2,2.24-2.4,3.3-3.69-2.49-5.13,1.73-5.28,2-7.4.48-3.54-3.56-10.55-4.79-14-2-5.6-2.08-5.69-6.05-9.45-2.87-2.72-4.09-5.8,1.7-5.14.39-2.94-1-10.14,2.32-10-5-4.19-5.59-12,2.5-10.3,2,.43,3.93.69,5.06,1.77-1.44,1.25-1.25,1.68-1.65,3.1.48-.19.88-.63,1.37-.82a7,7,0,0,0-.39,1.93c.85-.42,1.35-.15,2.19-.63-.13.9.16,1.87,0,2.76,5-3.15,1.7-7.41,7.18-8.13,3.18-.42,7.55,3.41,11.8,1.59a4.49,4.49,0,0,0,2.35-4.44,12.46,12.46,0,0,1,3.12-1.11c-.27-.31-.46,0-1-.22.21-.06-.1-.17-.07-.15a2.23,2.23,0,0,0,.13-.39c2.52.48,3.14-.88,4.52-1.83a7.69,7.69,0,0,0,1.65-1.54c1.09.85.06.18.9-.27a.93.93,0,0,0,.44,0c1.68.41,1.7-3.78,4.52-4.91s2.58,0,4.21,1.32c2.3,1.8,5,5.63,6.89,7.48a19.53,19.53,0,0,0,3.22,1.36c1.95.64,5.91,0,6.62,3.57l1.84-1.22c-3.34-4.14,16.31-14.73,17.53-9.22.83-1.13,2.55-1.6,3.4-2.71.9,3.33,2.26,2.69,4.73,2.11,5.66-1.32,3.89-5.55,7.84-1.78,1.5,1.44,4.11,6.09,5.3,7.43,1.89,2.14,4.87,6.29,5,1.32a10.54,10.54,0,0,1,3.32-.24c.13-1.16-.47-.43,0-1.3.27.38,1.71,2.17,1.49,1.84a10.78,10.78,0,0,1-.37,2.19c1.63-.76,1.28.23,2.44-.79a46.23,46.23,0,0,0,4.16,4.09c1.76,1.54,1.07,2.58,3.13,3.69-.27-.88.16-1.53.09-2a156.14,156.14,0,0,1,19.71-15.33c2.7-1.78,6.11-6,8.05-7.76.38,3.64,6.22,6.93,2.55,8.94a.25.25,0,0,1-.14.3c0,.05.66.26.59.56-2.78.09-1.64,5-2,7-.28.25-.51-.09-.88.18.22.44.41,0,.61.41-1.09.78-.43-.2-.41,1.17-.16.2-.9,0-.73-.13.3,1.34-.21.87.49,2.16-.33.1-.75-.47-1-.26a16.75,16.75,0,0,0-1.17,2.46c-.49.25-.49.1-1.07.5.14.33,1.07.06,1.3.11-.14.67-.6.61-.54,1.47,1.68-.72,3-3.07,5.46-4.13s5.21,0,7.72-1c1.68-.68,3.61-2.3,5.55-3.62,1.06-.71,4.09-.68,1.65-3.67a2.8,2.8,0,0,1,1.73.11c.4-.29,0-1.13.4-1.32,2.27.3,1.12-1.59,3.43-2.12s4,1.51,6.66.42c1.48,3.52,2.25,14.61,9.36,16.47l-5.1,4.18c5.27,6.43,7.86,8.09,14.14,11.56C436.89,517.86,440.78,519.46,445.3,523.45Z" fill="none" stroke="#000" stroke-miterlimit="10" fill-rule="evenodd"/></g><g id="fa9cf60b-9ac0-4ffa-8728-22e9df013e41" data-name="HATCH"><path d="M869.63,372.41c-1.25,2.61-2.71,4.81-5.37,5.69-4.27-5.19-6.74-3.17-10.7-2.46-4.5.81-9.74,1.06-6.16,7.46-.71.33-1.49,1.23-2.32,1.61,4,5.08,3.6,10.41,4.69,15.88-4.22-1.47-6.85-.93-10.87-1.79s-6.51-4.85-11.1-5.87c1.68,5.13-4.85,5-8.12,3.82,2.92,3.22,6.19,5.26,8.75,8.27-5.86.79-9.14,6.25-12.6,10.39-1,1.23-2.54,1.21-3.33,2.49s.66,2.9.24,3.64c-.84,1.47-5.13,4.15-6.87,5.41-5.94,4.31-7.8,3.11-14.78,4-.94.12-2.49-.16-3.19,0-1.17.3-.26,1.94-1.44,2-1.9.17-4.4-.9-6.83-1.57-4.15-1.14-3.06-.47-6.67.34-5.13,1.14-5.15.95-8.36,6.74-5.46-4.47-15.71-1.84-9.82,5.89-.52.5-.82-.08-1,0,.24,1.92.69,2.7,1,2.9.07,3.19,1.94,4.9,4,6.95,1.09,1.11,3.43,2.52,4.19,3.5,1.31,1.7,2,5.05,4.14,7.35-4,.05-5.08-2.79-8-4.16s-2-.27-5.22-1.13a.5.5,0,0,1-.43.15c.16,1.52-.54,3.57-2.88,2.49.51,2.5-.17,2.34.32,4.93a8.16,8.16,0,0,0-1.57,2.2c-1.91-1.45-2.64-3.49-4.24-4.91s-3.45-.68-5-3.45c-1.28,2.5-3.21,4.51-4.79,7.45s-4.61,7.51-7.24,9.06c-3.38-3.85-3.67-5.06-7.54-1.68-.54.48-3.4,4.35-3.38,5.58.05,2.91,5.1,6,7,7.89-3.59,1.13-9.58,4.73-12,.83-.61,3.18-2.46,5-5,6.43-1.75-1.54-5.24-3-6.84-5-.9-1.14-.95-3.54-1.78-4.34-3-2.91-7.41-2.05-9.76-7.45.78-1,.66-1.65.25-2.9-1.37-4.2-2.42-2.8-6.71-5.74-1.27-.87-2.17-3.3-3.74-3.88-4-1.47-1.64.76-1.92,2.56-.59,3.71,1.73,6.74-2.22,9.25-1,.61-1.65-.76-2-.63.06,0-3.54.53-3.44.53-1.23.1-.8,1.91-2.18,1.85s-1-1.24-2-1.5c-2.83-.69-1.06-2.42-4.51-1.54-1.52.39-3.43,1.17-3.94,2.66-.66,1.91,1.48,4,1,6.23-.25,1.15-2.39,2-2.71,3.15-.47,1.71,1.17,3.62.36,5.73s-3.13,2.58-4.25,4.17c-.74,1.06-3.21,5.33-3.29,6.36-.19,2.66,2.26,5.1,1.1,6.65-2.2,2.95-14.61,1-12.46,8.42-3.34-1-7.09-3.2-10.68.29-2.05-2.21-6.74-2.84-8.09.25-.48-3.73-2.5-13.14-9.25-10.88,2.46-3.25,7.48-1.13,5.4-6.53-.58-1.48-3.36-2.86-4.67-3.19-3.64-.93-3.58,1.21-5.7,1.24-14.2.2-3.75-13.13-4.55-19.7a12.77,12.77,0,0,0-1.23-4.88,4.36,4.36,0,0,0-2.66-1.34c-.7-2.72-1.18-3.72,2.57-4.47-3.07-.94-2.76-3-2.83-5.33,1.69,0,2.36-.65,3.91-.2-3.5-3.82,2.4-8.64,5.25-7.49a8.75,8.75,0,0,1,.39-3.21c-4.57-3.48-9.28-12.22-6.2-17.06a18.07,18.07,0,0,0,.32,1.88c3.77,0,5.14,2.15,9,.74,3.16-1.15,4.26-2,1.39-4.53l-.7,1.76a40.54,40.54,0,0,1-5.41-3.12c1.91-2.7,6.69-8.8,1.89-9.78,3.89-2.3,3.56-8.07,5.49-11.87-2.78-1.35-7.38-1.9-9.39-3.73-4-3.67-.6-8.06.14-12.75s-1.35-7.53-1-10.77,1.82-5.37,1.91-8.78a40.44,40.44,0,0,0-1.76-11.07c3.37-.35,10.71-.86,13.5-2.09,3-1.3,3.73-5.33,7.65-4.78,6.27.88,4.16,4.81,10.51,2.34,4.43-1.73,5.52-2.4,10.75-2.18,9.92.4,18.8,2.77,28.29,5.35,8.43,2.29,17-.44,25.79,2.21,8.23,2.48,15.05.77,23.55-2.19,3.53-1.24,6.84-2.61,10.45-3.52,2.36-.6,5.37-.47,7.56-1.38,2-.81,3.28-2.88,5.5-3.4,5-1.16,6.26,3.41,10.51,4.38,4.8,1.09,9.79-3.42,13.87-4.48,5.58-1.44,10.39,1.4,15.81,2.17a32.86,32.86,0,0,0,12.66-.94c5.74-1.5,9.87-4.8,14.38-8.4,2-1.62,3.73-2,4.93-4.69,1-2.32-.39-4.27,1.72-6.44,1.79-1.84,11.59-4.24,14.41-4.15,4.54.15,10.43,3.77,14.29,1.86,1.77,3.7,9.78,1.62,13,5.38,3.71,4.37-.41,13.46,7.16,15C861.65,362.71,865.23,369.32,869.63,372.41Z" fill="none" stroke="#000" stroke-miterlimit="10" fill-rule="evenodd"/></g><g id="b690bbd1-07a7-4efc-9332-f19e8584fbca" data-name="HATCH"><path d="M876.56,640.86c.14,6.23-5.31,9-4.65,15.75.57,5.85,4,10.88,3.78,16.86-.25,7.66-3.58,13.35-7.28,19.77-2,3.47-2.41,7.52-4.93,8.91.89-.49-4.32-1-4-1l.43,1.14a41.79,41.79,0,0,0-11.16,2.61c1.46,2.33,5.14,4.77,2.17,5.31l.71.86c-1.8,1.19-2.94,4.23-4.81,6.31a43,43,0,0,1-7.44,6.77c-6,4-8.59,2.81-7,10.92-7.87-1.66-15.71,2.51-21.84,5.52,1.19,3,3.89,6.1,4.11,9.37.29,4.32-2.39,3.12-5.88,5.76s-4.69,6.21-9.16,8a38.06,38.06,0,0,1-9.22,2,3.65,3.65,0,0,1-.15-1.72c-.41,0-1,.42-1.43.3.19-.78,0-.85-.15-1.86.4-.39.48-1,1-2a8.4,8.4,0,0,1-1.72-.43c.67-.37,1-1.39,1.71-1.86-.41-.08-.78.42-1.14.29-.77-2.35-3.48-6.07.82-6-1.87-1.37-3.93-2.79-3.6-5.71.63.28,0,.26.86-.15-.66-.05-.64-.3-1.14,0-.15.18-.15-.78-.29-.86.52-.19.71.28,1.14,0-.83-3.88-2.46-.78-4.44-1.83-6.08-3.23-8.79-7.86-11.52-14.41C768,731,758.28,734.66,757.17,737c-.66,1.42,3.63,9.9-.17,6.45-.24.43.26.89-.47,1-.1-1.19-7.74-1.74-9.93,1.55.4.26.73.52,1.15.85-4.62-1.16-8.35-4.11-12.9-5.21,1.44-5.42,2.29-15.53-2.87-19.32-.2,2.71-.09,5.75-.69,8.4-1,4.48-.17,4.89-2.36,2.52-1-1.08.64-7-2.74-2.7.24-1.69-.45-1.63-.89-3.43a11.47,11.47,0,0,0-3.82,4.33c.3.63.7.62,1,1-1.55,1-11.45-3.7-13.59-5.47-5.13-4.25,1.07-11.75-7.17-7.59-5,2.53-7.15,8.42-10,10.13-3.75,2.25-6.84.61-10.63,2.44-1.83-4.27-3.35-11.64-3-16.14.22-3,1.55-4.94,1.31-8.23-.2-2.67-3.76-8.06.53-9.21-1.51-.63-2.64-1.84-4.36-2.24,4.39-3.7,5.38-3.79,4.86-8.49-.21-1.89-2-4.63-2.8-7.08-1.52-4.52-2-8.33-6-12,2.47-1.81,6.89-6.73,8.07-9.52.81-1.92.67-5.12,1.51-7.37,1.34-3.64,1.78-2.18,3.68-4.43.85-1,2.1-3.76,2.75-4.28,1.33-1,3.13-.36,4.37-1.48,4.16-3.79,0-1.79-3.6-.69-1.5-5.72-5.74-9.33-7.34-15-.42-1.51-2.17-5.78-1.77-7.29.62-2.34,4.77-3.17,6-4.93,2.25-3.33.25,0-.19-3.68-.37-3.18-.48-6.46-1-9.69-.56-3.51-2.73-7.22-2.23-10.91a15.11,15.11,0,0,1,1.11-3.62c.26-.84,1.27-1.26,0-3.18,1.06.21,1.57-.12,2.59.12-3.61-3.95-.26-9.92-.72-13.72-.81-6.64-3.07-3.55-7.41-5.42C669.27,560,673,545.83,663,548.73c-2.13.61-4.67,4.74-7.62,4.82-4.12.12-5.42-6.24-7.82-8.87-3.4-3.7-5.67-.58-7.64-5.11a9.26,9.26,0,0,1,.61-8.77c1.44-2.59,4.12-1.48,2.12-3.87-1.22-1.44-4-.15-5.74-2.89-2.89-4.51,1.14-7.91,5.43-9.7,1.39-.59,5.76-.32,6.63-1.68.37-.58-1.3-5.06-1.1-6.66.62-4.89,5.24-5.9,7-9.94.92-2.17-.54-3.79-.07-5.66.13-.54-.54-1.34-.46-1.88.12-.76,2.51-.42,2.66-1.34.81-4.71-2.63-6.91,3-8.89,3.61-1.27,1.37.17,4.5,1,.65.16.88,1.78,1.32,1.87,2.16.43,1.69-1.85,3.19-1.94,4.79-.3,7.38.3,7.73-5.16.4-6.25-2.64-8,4.08-4.4,1.08.59,3.84,2.17,4.73,2.86,2.63,2,2.17,1.26,3.22,3.59.65,1.44.91,2.77,0,3.92,2.34,5.41,6.75,4.54,9.76,7.45.82.8.86,3.21,1.78,4.34,1.63,2,5.06,3.48,6.84,5,2.55-1.43,4.4-3.25,5-6.43,2.41,3.9,8.4.3,12-.83-1.92-2-6.86-4.93-7-7.89,0-1.18,2.83-5.09,3.38-5.58,3.91-3.41,4-2.32,7.54,1.68,2.63-1.56,5.7-6.21,7.24-9.06s3.65-5,4.79-7.45c1.48,2.78,3.33,2,5,3.45s2.34,3.47,4.24,4.91a7,7,0,0,1,1.57-2.2c-.48-2.61.21-2.42-.32-4.93,2.3,1,3.06-1,2.88-2.49a.5.5,0,0,0,.43-.15c3.15.85,2.24-.18,5.22,1.13s4,4.21,8,4.16c-2.14-2.25-2.71-5.58-4-7.24-.8-1.06-3.23-2.45-4.37-3.61-2-2-3.9-3.77-4-6.95-.39-.22-.79-1-1-2.9.2-.08.48.43,1,0-1.07-1.43-3.56-4.07-2.51-6.13,1.56-3.05,10.35-1.37,12.33.24,2.45-4.41,5.12-7.51,10.1-8.06,3.52-.4,6.37,2.63,10,2.56,2.77-.06,4.44-2.46,8.91-2.45,4.94,0,6.23-.11,10.65-1.73,3.27,5.22,1.63,6.72,1.31,12-.34,5.73,4,12.3,7.2,17,1.59,2.32,1.65,2.9,3.71,3.85s3-.79,4.6.43c2.59,1.94,7.34,10,8.21,13.35,1.57,6.06,1.49,9.83-2.34,13.89-1.52,1.63-4.38,1.94-4.57,4.95-.18,2.83,8,11.27,9.93,14.11a63.28,63.28,0,0,0,11.51,12.44c3.42,3,8.9,8,4.22,11.63,8.15-1.4,2.52,6.21,5.63,10.69.83-.09,6.29.15,7.65.92,2.68,1.51,2.73.87,2.54,4.77a55,55,0,0,1-3.35,13.75c-2.12,5.24-5.71,8.47-6.85,14.2-1,5.23-2.21,10.53-1.44,15.86,1.2,8.32,2.6,23.39,8.52,29.29C866.25,627.44,876.9,631.46,876.56,640.86Z" fill="none" stroke="#000" stroke-miterlimit="10" fill-rule="evenodd"/></g><g id="f042ca2c-e1f7-47ce-87fb-a882c9b389a6" data-name="HATCH"><path d="M1170.27,633.29c2.49,3.24-2,11.94-5,11.53-2.19-.29-3.33-3.35-5.43-3.32-1.07,0-6.54,3-8.18,3.51-10.43,3.29-13.45,6.94-13.44,17.32-5.25-2.69-10.14-3.08-15.29-5.07-4.66-1.81-8.25-5.36-12.25-8.2-1.44,5.53-6.68,20.63-12.54,20-1.71-.18-3.28-2.51-5-2.93-2.49-.62-2,.39-4.51.12-1.65-.18-2.13,1.19-3.83.75-1.2-.31-3.27-2.47-4.28-3.29a163.55,163.55,0,0,0-13.29-9.61c-6.33-4.2-15.47-13.93-18.58-20.87-2.09-4.69-1.93-10.56-3.81-15.44-2.14-5.53-5.81-10.34-8.78-15.38-5.34,8.07-13.59,4-21,.73-2,5.45-3.11,10.74-4.7,16.27-2.26,7.9-4.24,8.73-11.76,6.59-4.4-1.25-3.61-1.6-7.51,1.85-2.33,2.07-4.71,4.8-7.48,6.31-5.53,3-14.81,1.13-16.73,9.26-2.35-3.37-5.71-6.56-5.52-10.28s3.57-8.72,5.79-11.63c1.63-2.15,7.33-5.86,7.17-8.61,0-.94-5.44-6.32-6.3-7.24-4.2-4.53-11.69-8.61-17.67-8-7.62.78-9,10.6-11.83,16.85-1.41-6.32-10.53-2.33-13.56-.13-4.21,3.06-5,5.5-9.62,7.63-1.88.86-3.66.31-5.07,2.08-.91,1.16.21,3.4-.58,4.9-1.6,3.06-5,3.35-7.11,6.23-2.4-2.47-10.35-6.23-12.71-7.31-4.4-2-11.58-3.05-16.45-3.92-.77,6,9.3,7.24,2.6,12.89-4.48-9-15.88-12-18.72-21.12-2.59-8.35-6.12-20.21-5.37-28.95a65.31,65.31,0,0,1,2.47-13.7c1.55-4.53,5.67-7.87,7-12.48.86-2.92,2.63-9.32,2.56-12.29-.09-3.82-.09-2.84-2.64-4.28-1.35-.77-6.68-1-7.65-.92-3.29-4.56,2.7-11.92-5.63-10.69,6.89-5.11-6.26-12.2-9.16-15-3.73-3.59-6.56-8.68-9.26-12.65-2-3-7.43-8.3-7-11.12.28-1.85,1.74-2.67,3-3.86,3.77-3.69,4.88-3.22,4.39-8.16-.36-3.61-.5-7.5-2.52-10.76-1.36-2.19-5.35-8.66-7.21-9.72-.46-.26-4.17,1.16-5.34.47-2.7-1.62-5.34-9.47-6.88-12.45-1.79-3.49-3-6.44-2.59-10.43.14-1.55,1.76-2.8,1.69-4.18-.09-1.84-2.78-3.84-2.65-5.43.31-3.7,6.77-5.42,8.32-8,.74-1.21.34-3.53,1.57-5.24.45-.62,2.47-1.27,3.12-1.91s.43-2.19,1.07-2.91c2.44-2.73,6.51-5.83,9.86-6.16-2.56-3-5.83-5-8.75-8.27,3.27,1.11,9.84,1.38,8.12-3.82,4.62,1,6.93,5,11.1,5.87s6.63.32,10.87,1.79c-1.09-5.47-.67-10.8-4.69-15.88.84-.37,1.6-1.28,2.32-1.61-3.62-6.37,1.68-6.65,6.16-7.46,4-.71,6.4-2.72,10.7,2.46,2.8-1,3.9-3,5.37-5.69-4.41-3.06-8-9.73-3.81-15.47-7.66-1.67-3.33-11-7.45-15.33-3.49-3.68-10.91-1.42-12.89-5.37-.53-1.08,2.58-2.13,1.88-3.26-.49-.79-2-.47-2.33-.77-2.26-1.77-4-1.12-5.87-4.34-1.32-2.34-.23-3.58-2.64-5.67-.76-.66-2.8-.2-3.76-.8-1.18-.73-.69-2.36-1.53-2.91-2.4-1.56-6-.76-7.1-2.36-1.24-1.83-2.45-10.94-.67-12.53-2.27-2.85-.31-7.43,2.9-11.05-.58-1.37-.28-4.77-.42-7.06-.19-3.14-.09-3-2.05-6.17-1.85-3-3.9-4.13.82-6.88.81-.48,4.55-.43,5.84-.61,2.25-.31,7.88-1.1,6.45-4.14,1.19-2.06.71-2.74.74-4.9.06-4.85.89-4.4,2.13-8.8.6-2.15-1.33-1.68-.22-3.74a12.12,12.12,0,0,1,3.46-2.39c2-.71,1.9-.18,3.61-.27,2.49-.12,6.19,0,8.28-.37-.27-1.41.23-1.6.37-3.23,2.18,3.76,7.13,2.75,10.67.6a52.21,52.21,0,0,0,5.39,7.49c2.65,3.32,1.22,2.61,4.16,3.56.74.24,2.1,1.53,2.67,1.55,1,0,1.07-2.22,2.63-1.64,2.81,1.05,2.73,2.44,5.11,4.47-.46.71-.79,2.09-1.31,2.78.95-.14.9,0,1.76-.15-1.82,2.57.56,4-.7,6.53-1.08,2.19-6.09,1.24-2.66,5.35-3.87,2.77-12,6.71-13.43,10.43.9-2.36,1.35,4.67.59,2.85.58,1.39,2.16,1.95,2.92,3.3,2.81,4.92,6.08,7.2,9.94,11.48,2.89,3.22,5.35,4.4,8.47,6.51,1,.66,3.72,2.63,4.38,4,1.32,2.83-.61,5.07,2.33,7.68.78.7,3.35,0,5.54,2.35.65.7-.37,2.44.73,3.5.72.7,2,1.92,2.33,2.2,4.31-.84,4-4.24,9.1-4.54,3.85-.23,9.38,1.1,12,1s6.22-.18,10.28,2.53c1.81,1.21,3.59,4.64,5.66,5.7,1.4.72,8.55.38,10.94.13,4.1-.42,10.58-3.71,14.65-2.39,5.53,1.79,5.88,5.34,12.73,4.88s11.63.61,17.46,6.35c-5.49,2.48-7,6.52-8,12,1.69-.48,6.81.25,7.58,1.55,2.27,3.8-1.94,4.31-2.65,6.78-.86,3,.16,4.43,1.23,6.91a24.87,24.87,0,0,0,2.42,4.06c.6.66,3,2.44,3.26,2.79,1.62,2.43,2.69,6.68,4.17,9.94,1-.43,8.47-3.38,8.59-3.72,1-3-3.36-4.08-5.5-3.69.14-4.46,5.58-5.79,7.83-7.91,1.71-1.61,3.77-6.47,6.44-6.67,4.07-.3,8.77,6.21,11.06,8.44,3,2.9,4.89,3.38,4.33,6.91-.29,1.86-4.26,2.28-.88,4.5-3.59,1.73.56,11.28,2.79,13.89,2.63,3.09,11.33,3,6.48,7.62,2.84,2.63,4.32,6.84,4.93,10.83.19,1.26-.9,2.74-.69,3.91s2.28,1.8,2.39,2.83c.27,2.33-1,8.67-3,11.12,3.77,1.86-.44,3.67.9,5.94s5.72,3.59,7.8,5.61c3.26,3.18,2.55,5.53,6.48,4.62.7-.17,6.63-6.4,7.12-7.31,2.1,4.7,5.05-.79,7.67,3.4.51-1.22,2-2.05,2.45-3.27,6.59,2.59.92,5-.81,7.65-.51.78-6.9,11-6.87,11.35.15,2.44,8.92,6.93,10.4,8,5.13,3.63,6.66,5.49,9.15,11.15.71,1.62-.64,2.69.31,3.93.28.36,4.12,2.07,4.74,2.47,3.33,2.18,6.46,5.07,9.86,7.36,6.61,4.46,17,8.68,22.51,14.26a33.92,33.92,0,0,1,6.09,8.82c.41,1,.36,3.69.89,5.25.94,2.78,3.65,5.28,4.31,8.15,1.07,4.65-7.9,16.45-5.55,20.55,1.31,2.3,11.07,3.51,13.91,5.48,2.6,1.81,7.84,5.79,9.15,7.59,1.13,1.57,2.88,7.83,3.46,10.26,1.45,6-1,8.15-5.23,12.74-7.17,7.79-6.64,15.64-2.32,23.52C1161.54,616.81,1164.33,632.28,1170.27,633.29Z" fill="none" stroke="#000" stroke-miterlimit="10" fill-rule="evenodd"/></g><g id="af6e9bbe-1c66-4490-b740-0bffc7efbd49" data-name="HATCH"><path d="M1183.7,677.74c-.23,5.89-6.77,3.47-9.54,6.19-.31.3-1.25,4.49-2.08,5.58a23.71,23.71,0,0,1-7.53,6.07c2,5,11.74,11.23,3.68,13.26-3.19.8-6.75-1.22-10-.56a17.53,17.53,0,0,0-3.38,1.17c-1.49.84-.64,2.22-1.9,2.89-4.44,2.34-13.11.65-8.46,8,2.21,3.48,8.23,7.22,8.42.68.06-1.92-2.87-2.77-2.37-4.76,1-4,3.19-.14,4,.33,8.6,5-2.59,10.38-6.56,15.75-3.09,4.17-5.51,8.65-8.72,12.74-4,5-5.27,5.87-.56,10.31,4.43,4.16,7.78,6.38,5.91,12.81-1.39,4.79-5.67,8.12-6.42,13s2.77,5.85,2.6,11.08c-.15,4.4,0,8.68-1.74,11.91-2.6,4.75-8.08,9.34-11.13,14.15a79.74,79.74,0,0,0-9.44-8.16c-5.43-4-6.9-1.84-13.13,1.42a148.14,148.14,0,0,0-19.61,12.87c1.75,2,4.53,7.28,6.74,8.62,3.06,1.86,6-.82,9.46-.26,4.74.76,15.72,10.68,14.89,16.91-.61,4.63-4.45,5.12-3.58,9.66,1,5.09,4,5.3,2,11.27-.31.9-2.47,4.64-3,5.59-1.29,2.47-.58,3.39-3.18,5.38-3.43,2.63-3.45,1.68-7.09.07-1.27-.56-2.31-1.61-3.67-2-3.8-1-1.38-1.1-4.91.46-2.8,1.24-6,4.45-8.64,6.32-1.8,1.28-3.85,3.68-5.85,4.42-4.19,1.54-2.5,0-6-1.19-4.06-1.38-6.48-1.26-11.07.33-4.39,1.52-7.84,2.29-7.28,6.48.58,4.37,5.47,6,6.51,10.15,1.13,4.54-3.21,7-6.39,10.79-2.15,2.56-5.28,5.32-4.83,8.19.48,3,5.16,7.54,6.88,10.08,3.53,5.2,4.45,12.54,8.13,17.12-3.06,1.7-4.5,5.24-7.48.65a1.31,1.31,0,0,0-.18,1c-2-3.64-3.64-.68-5.92,1.62-4.14,4.15-3.88,3.87-9.65,2.64-2.18-.47-8.42-3.12-10.72-2.28-2.14.78-1.39,2.63-2.32,4-1.11,1.61-4.11,5.18-6.81,6.27-3.49,1.42-4-.54-7.67,3.38a33.55,33.55,0,0,0,6.34,7.87c-3.65,3.37-14.36,5.72-15.93,9.48-.58,1.37.59,3.85-.31,5.6-.7,1.38-3.79,2.83-4.91,3.8-2.73,2.38-5,7.16-7.56,9a63.71,63.71,0,0,1-8.25,3.23c-2.15-.31-1.32-2.54-3.69-3.93-2.94-1.72-.73-.78-4,.16-2.78.79-17.68,9.45-18.41,12.09-.88,3.21,7.91,7.22,3.67,10.05-2.6-6-9.68-2.21-14.62-2.75-3.06-.33-6.07-1.77-10.38-1.1.52.62.83,1.43,1.37,2a76.87,76.87,0,0,1-10.13-1.22c-5.33-1.2-3.12.77-4.95-3.23-2.27-5-.19-14.58-9-12.53-3.33.78-7.45,7-9.54,11.18-2.83,5.69-.27,10.21,1.3,16.62-11.47,1.16-25.33-3.25-18.23,14.92-3.85.78-3.91-2.91-6.12-3.07s-4.64,1.8-6.75,1.85c-3.65.08-9.91-4.26-13.37-3.17-2.77.88-7.2,11.36-11,5.33.46,1,.45,2.45.93,3.53-2.43.54-7.84,3-10,2.26-1.08-.39-.43-1.55-1.42-2.42-2.43-2.11-2.27-4.09-5.28-5.62-.12-3.28,4-3.58,6.59-4.4.47-.47.41-.57,1.55-.85a5.12,5.12,0,0,1,.28-1.83c.42-.21.4.73.56.84.3-.54-.21-.76,0-1.27,2,.47,1.91-.51,2,2.26.32,0,1.9-.07,2.26-.15-.63-3.86-6.71-4.25-7.62-7,2.24-1,4.73-5.22,2.79-7.36,0,.15,0,.19-.14.15,2.89-5.06,5.71-10.19,8.56-15.29a61.38,61.38,0,0,1-6.49-3.38c.87-1.21,1.3-3-.58-3.74-2.25-.87-2.88,1.45-4.64,2.63-2,1.35-2.84,2.92-5.31,3.3-3.43.53-4-2.67-7.22.13-2-4-4.93-2-8.19-1.81-.14-1.23-1.24-2.9-1.42-4.23-.54-4,2.72-5.87,4.89-10.21,2.35-4.68,2-8.5,6.17-11.77,2.66-2.08,6.76-4,10.15-3.72-4.05-1.82.74-8.19,2.23-10.41,2.53-3.78,2.68-3.78,2.94-9.44.22-4.6,1.46-8.67,4.49-11.35,2.4-2.12,2,1.56,3.53-1.71a6.8,6.8,0,0,1-1.27-2.69c.24-2.56,1.89-3.69,1.53-6.53-1.89.25-12.61,13.42-12.57,4.85,0-2.77,4-4.62,5.64-6.11,1.2-1.1,1-3,2.47-3.84,1.67-.92,2.39,2,3.75,1,4.82-3.47-6.09-15.29,2.09-13.49,2.49.54,3.16,5.88,7.23,4.1,2.47-1.08,1.82-6.25,2.39-9,.85-4,3.06-7.94,1.26-12.22-1.64-3.88-4.67-5.82-5.69-10.3-1.57-6.88-4.66-19.38-1.9-25.87,5.21-12.19,12.09-18.47,5.31-32.5-2.4-5-3.68-7.71-3.55-13.08.12-4.85.09-9-2-13.46-4-8.66-12.64-15-2.4-23.89,3.09-2.67,7.61-1.16,10.58-2.24s5.84-3.85,9-5.3l.15,1.86c5.47-3.06,12.82-14.43,13-20.65.18-8.16-9.46-14.71-7.3-23.17-2.85.38-7.24-11.23-6.3-13.47-7.93-5.29-8.42-10.83-7.54-20.37.89-9.73,8.77-16.35,10-26.3,1-7.75-2.93-13.19-3.35-20.65-.31-5.63,2.27-6.41,3.95-10.82.9-2.36.18-4.5.61-6.82.29-1.6,2.46-4.32,2.2-6.12-.52-3.66-5.8-3.63-5.18-8.28,4.89.87,12,1.9,16.45,3.92,2.24,1,10.51,4.88,12.71,7.31,2.06-2.76,5.45-3.17,7-6,.73-1.31-.36-3.85.29-4.75,1.51-2.1,3.38-1.41,5.43-2.41,4.34-2.15,5.15-3.81,8.93-7.11,3-2.64,12.78-7,14.25-.39,2.82-6.17,4.2-15.83,11.58-16.82,6-.8,13.71,3.42,17.92,8,.91,1,5.83,5.84,6,6.93.4,2.81-4.7,6.25-6.51,8.62-2.39,3.12-5.86,7.83-6.13,11.93-.24,3.71,3.19,6.94,5.52,10.28,1.69-8,11.17-6.33,16.55-9.16,2.76-1.45,5.11-4.17,7.43-6.21,4-3.55,3.16-3.35,7.74-2.05,7.31,2.08,9.36,1.53,11.65-6.23,1.66-5.61,2.86-11.07,4.81-16.63,7.44,3.24,15.65,7.42,21-.73,3,5,6.64,9.85,8.78,15.38,1.88,4.88,1.72,10.75,3.81,15.44,3.11,6.94,12.25,16.67,18.58,20.87a163.55,163.55,0,0,1,13.29,9.61c1,.82,3.08,3,4.28,3.29,1.7.44,2.18-.93,3.83-.75,2.51.27,2-.74,4.51-.12,1.68.42,3.25,2.75,5,2.93,5.86.61,11.1-14.49,12.54-20,4,2.85,7.6,6.38,12.25,8.2,5.14,2,10,2.4,15.29,5.07,0-10.81,3.63-14.33,14.33-17.56.68-.2,7.31-3.59,7.59-3.59,1.91,0,3.67,2.53,5.52,3.79,4.53,3.07,9.57,4.47,12.68,9.39-6.29,2.86.37,5.79-2.13,9.18-2.1,2.84-8.61-.77-6.79,6,1.34,5,2.83.34,6.35,0C1180.32,669.15,1183.31,673.74,1183.7,677.74Z" fill="none" stroke="#000" stroke-miterlimit="10" fill-rule="evenodd"/></g><g id="a91f1e31-52e4-4a48-85ec-1f6b89eee086" data-name="HATCH"><path d="M1342.41,920.17c-3.29,4.5-6.32,7.16-6.27,12.43,0,4.54,1.87,9.77,2.71,14.22l-8.88-1.08c-1,3.83,1.32,4,.73,6.37-.16.67-1.34.52-1.55,1.14-.43,1.25-1.38,6.27-2.38,7.58-1.19,1.58-4.38,3.93-5.7,5.1-2.85,2.53-.58,2.4-4.64,2.42-1.48,0-2.43-2.61-4.91-1.08-2.75,1.69-.54,8.88-5.39,8.58-1.91-.12-4.27-5-5.74-6.14-4.36-3.43-9.42-6.77-14-10.45-3.07-2.48-4.8-2.38-8.47-3.69-2.36-.84-4.77-3.16-6.67-2.8-.77.14-1.11,1.42-2,2.87,3.09,3.13-3.34,9.88-6.67,12.35-5.73,4.24-12.62.29-17.67-3.65l-.82,1.81c-6.51-5.66-4.71,4.13-10-6.37L1223,967l-.89-2.34c-3.21,1.46-13.19,11.13-14,15.13-2-2.41-.29-8-5.6-3-.91-2.52-2.74-1.82-4.25-3.55-1-1.14-1.34-2.94-2.24-3.94a72.68,72.68,0,0,0-6.76-6c-6,7.8-15,6.34-19.61-1.44-1-1.81,1.21-6.12-2.78-4.68-2.57.92-6.88,9.73-8.05,12.21-1.86-3.58-5.81,1.4-8.71-2.83-2.19-3.2,0-7.52-3.86-9.42-2.92-1.43-12.29,0-15.73.23-5.22.39-6,2-10.68,4.63-4.06,2.25-8.91,3.18-13,5-3,1.35-4.77,3.67-8,5.62-5.54,3.32-4,.93-8.62-1.64-2-1.08-5.16-.91-7.3-2-4.41-2.3-5.44-6.36-9.26-9.39-.11-.09-2.89.14-4-.6,0,0-1.92-3-2.36-3.51-3.21-3.85-3.26-5.44-5.48-10.95-2.47-6.17-10.19-12-11.58-18.34-.77-3.52,1.49-5.33,4.14-8.49,4-4.76,8.59-6.66,5.86-12.69-1.24-2.74-8.27-7.62-6.52-11.43,1-2.07,10.12-4.33,12.38-4.73,5.66-1,4.85,1.81,9,2.78,3.14.72,5.54-2.36,8.26-4.34,3-2.13,6.06-4.57,9.14-6.46,4.38-2.67,2-2.28,6.46-.93,1.81.55,3.56,2.8,5.43,3,8.34,1.1,12.06-15.06,10.16-21.25-1.19-3.91-2.06-3-1-6.58.81-2.77,3.29-3.45,3.29-6.8,0-5.52-5.48-8.36-9-11.48s-3.24-3.47-7.31-3.66c-1.86-.09-4.43,1.18-6.12.72-3.33-.9-6.2-6.63-8.73-9.57a150.16,150.16,0,0,1,19.61-12.87c6-3.12,7.3-5,12.51-1.92,3.66,2.14,7.1,5.64,10.06,8.66,2.84-4.47,9.61-10.13,11.63-14.64,1.13-2.53,1.67-8.87,1.36-12.49-.47-5.56-4.9-6.56-2.27-12.76,1.84-4.33,5.64-7.14,6.21-12.16.4-3.51.29-4.2-2-7.11-1.45-1.85-8.1-5.58-8.33-7.83-.29-2.86,8.65-11.23,10.51-14.18,3.82-6.11,8.14-10.55,13.15-15.77,0,7.27,5.46,5.91,7.71,12,.52,1.42.62,8.68,4,2.49.77-1.43-2.9-4.45-.2-6.31,2.55-1.75,5.1,2.39,6.67,3.68a37.56,37.56,0,0,0,7.73,5.33c4.69,2.13,3.11,2.4,6.08-1.84,1.52-2.16,2.07-6,4.39-7,2.69-1.13,2.17,3.1,5.43-.06.5-.48-2.31-3.51,1.44-5.14,5-2.18,9.74,2.9,12.34,6.28,3.51,4.59,6,6.36,12.11,6.43,1.43,0,2.35,1,3.71.25,2.88-1.64.5-3.29,2-5.46,3.12-4.43,9.5-2.23,14.58-3.91,2.91-1,4.38-4.53,6.1-5.84,5.7-4.32,9.14-1.54,13.61,2.83s4.61,8.31,11.06,8.74c6.06.39,9.25-1.62,14.54,1.85,6.74,4.42,2.75,7.39,1.66,14.28-.84,5.4-1.06,14.15,2.11,18.89-6.45-.93-4.61,6.75-5.25,11.75-.74,5.77.72,7.32.77,13.19.08,7.88-.89,26.64,10.26,28.5-1.19,1.37-.22,5.75-1.31,8.75a29,29,0,0,0-2.13,7.16c-.19,1.62-1.87,6.54-1.84,6.81.37,3.28,3.07,4.34,2.67,8.46-5.3.46-5-.19-5.77,4.67-.66,4,0,8.57,0,12.6a6.25,6.25,0,0,0-7.77,3.91c-1.3,4.07,3.58,7.06,6.79,9.89-.73.58-1.07,1.55-1.88,2.09a13.21,13.21,0,0,0,3.64,2.35l.6-1.41c2.63,1.85,5.69,2.83,8.7,4.44,1.72-2.2,5.26-.81,8.38-.54,6,.52,5.79,1.49,8.16-2.63,3.72-6.46-.69-7.53,7.82-8.49,6.47-.73,4.33-.68,6.87,3.78,3.42,6,5.37,9.91,4.11,16.91C1336.64,909.16,1332.53,916.72,1342.41,920.17Z" fill="none" stroke="#000" stroke-miterlimit="10" fill-rule="evenodd"/></g><g id="e327b258-7408-49b6-8016-341e937cfb3d" data-name="HATCH"><path d="M1577.69,647.16a29.54,29.54,0,0,0-5.22,12.38c5.89-.16,2.59,8.17-2.55,5.36a18.7,18.7,0,0,1-2.56,5.16c-3.4,4.15-3.47,2.24-8.65,3.66-2.65.73-2.6-.26-4.14,2.6-2.35,4.35,2.81,10.6,4,14.81-5.4-.27-1.75,7.11-4.89,9.81-.84.72-5.64,2-6.75,2.48a67.66,67.66,0,0,0-8.12,3.9c-1.46.9-3.76,1.55-4.71,3.2-1.16,2,.58,6.57.44,8.76a21.94,21.94,0,0,1-1.37,5.56c-2.64,8-13.21,10.78-3.12,17.48,4,2.65,12.4,13,1.94,14.65-.15,2.39-.94,6.48-3.74,8-3.36,1.86-.89,0-4.83-1-.15,0-1-1-1.37-1-.08,0-.67.25-.76.25-.33,0-1.74,1.16-2.43,1.2s-1.22,1-1.83,1c-.79,0-2.09-1.2-2.74-1.12-2.71.34-2.45-2.3-3.8,1-.33.8.8,2.25,1,3,.66,2.86,2.22,7.1,6.25,5.47.09,4-4.08,5.17-6.68,7.28-4.32,3.49-3.24,4.15-5.11,9.72-2.36-.78-5.23-1.23-7.38-2.45-.77-.43-.19-1.79-1.26-2.07-3.38-.87-4.51.18-7.39.95-4.45,1.18-5.68-.31-8.39,4.71-.91,1.68-3.17,7.1-3.11,9,.14,4,4.16,2.42,4.53,4.55.25,1.47-3.63,6.08-4.38,7.28a29.75,29.75,0,0,1-2.62,4.2c-.51.59-.2,1.8-.77,2.43s-1.92.14-2.08.36c-1.85,2.57-3.93,8.53-4.71,13-.65,3.67.3,10.58,3.21,12.55,2.38,1.6,3.77-.23,6.19,2.29,1.79,1.85,3,5.22,4.38,7.43-1.41.82-3,5.25-3.84,7.14-1.54,3.28-5.14,6.22-1.72,9.31-4.56,3.55-21.08-8.06-20.61,1.74-6.18-2.57-3.75,19.4-6.16,22.59-.93,1.23-3.56,1.13-4.16,2.18-.18.3.2,2.87.11,3.45-.53,3.17,1.2,7.22-.31,9.11s-2.11,1.56-4.42,1.39c-3.44-.24-2.58-1.51-6.28-1.64-4.86-.16-5,1.67-5.91,5.83-.65,3.13-1.27,6.19-2.1,9.27a6.56,6.56,0,0,0-4.1,1.12c-.41,1.87,0,1.37-1.15,1-1.81.78-4.14,1.83-4.24,5.15-2-.94-5.44-.74-7-1.89s-2.54-4.73-3.65-6.91c-4.06,2.47-12.41,4.07-16.71,1.46-2.19-1.32-1.54-3.68-3-4.79-4.14-3.1-6,.21-6.69,5.08-2.25-1-6.23-2-8.22-3.6-1.65-1.3-2.38-5.35-4.39-6.07-2.26-.81-12,3-14.83,3.66-5.08,1.21-8.78,2.52-13.42-.75-5.93-4.18-2.86-9.17-1.63-15.56,1.18-6.06,1.57-9.21-1.1-14.93a28.31,28.31,0,0,0-3-5.33c-2.83-3.32.52-2.75-5.4-2.61-4.29.11-5.48.12-7.4,2.72-1.3,1.78-.45,7.82-2.43,9.1-4,2.62-12.18-3.76-15.6,0-3-1.62-6.09-2.63-8.7-4.44l-.6,1.41a13.12,13.12,0,0,1-3.64-2.35c.8-.52,1.15-1.53,1.88-2.09-3.22-2.74-8-5.9-6.79-9.89a6.23,6.23,0,0,1,7.77-3.91c0-4-.69-8.64,0-12.6.81-4.83.43-4.21,5.77-4.67.42-4.06-2.32-5.16-2.67-8.39,0-.37,1.64-5.18,1.84-6.88a30.18,30.18,0,0,1,2-7c1.12-3.17.41-7.36,1.46-9-11.13-1.69-10.18-20.8-10.26-28.5,0-5.83-1.5-7.53-.77-13.19.63-5-1.06-12.66,5.25-11.75-5.2-8-1.08-17.77-.37-25.86.4-4.49-.12-6.43-5-8.63-3.79-1.7-7-.74-11.28-.57-6.69.26-5.52-.62-9.12-5.27-1.8-2.33-4.39-3.95-6.61-5.79s-2.34-2.84-4.74-2.88c-1.45,0-4.44,2.17-6.27,2.47-.41-5.9-4.33-13-3.81-18.87.37-4.18,4.76-6.55,7.48-10.49,2-3,3.1-7.83,6.47-7.56,2.45.2,4.19,3.57,7.12,4,3.16.48,9.31-1.38,11.55-3.24,1.48-1.22,2.1-5,2.49-5.26,2.74-2.09,1.48.17,3.7.08,2.56-.09,5,.59,7.5.16s1.56-1.75,4.25-1.47c4.5.47,6.24,6.26,11.13,4.95,2-.53,3.39-3,5.39-3.46,1.49-.36,3.74,1,4.94.53,3.52-1.33,10-8.86,10-13.16,0-3.4-1.73-2-2.79-3.37-1.28-1.68-5.28-.11-1.38-2.76,1.74-1.19,3.67,4.43,3.6-.79,0-2.25-5.83-3.26-1.34-4-3.76-.48-2.69-7.13-.52-9.37-.33-1.05-1.36-2.75-1.86-4.27-1-3.19-2.13,1.23-1.76-4.35a31.16,31.16,0,0,1,1-4.62c1.55.73,2.48.47,3.84,1.76.7-1.79.83-4.11,1.92-5.42,4.43-5.27,8.44-2.56,7.51,3.44,4.36-.49,9.09.24,13.37-.85-.92-.82-1.3-2.26-2.22-3.08,3.72-.58,7.26-4.55,9.74-5.11-.08-1.39.66-2.45.8-3.73,1.74.63,2.92,1.6,3.23,3.1,3.56-2.23-1.6-2.57-2.4-5-.88-2.74.22-3.91,1.38-6.81-.68,0-1.45-.3-2.14-.34,1.53-2.54-.44-4.64.29-6.71,1.17-3.27,1.83-2.5,6-3.68-1.76-.53-3.48-5.81-3.72-7.77-.6-4.9-2-.31.55-4.43,1.12-1.81,5.66-5.28,7.64-6.33,2.74-1.44,4.81-1.75,7-2.82,1.07-.54,2.85-2.68,3.52-3,1.8-.82,4-.13,5.1-1.1,2.19-2,4.3-21.73,10.7-14.41,1.38-6.3,8.24.37,9.83,2.5,1.42,1.91,4.18,9.72,6.48,10.58,5.07,1.9,3.13-4.08,2.55-6.68,6.73,2,10.41,10.34,17,12.94,6.32,2.48,15.38.37,21.48,3.78,1,.55,1.23,1.69,2.27,2.41s1.78,2.52,3,3.15c.56.29,1.55-1,1.89-.82,4.26,1.77,11.67,3.83,16.25.61-1.08,4.49-2,11.8,1.72,15.21-6.29,2.39-1.55,4.13-3.12,8.64-2.06,5.91-14.15,5.51-16.33,10.64-.88,2.07,1.94,7,1.82,9.49-.13,2.81-1.47,3-.6,6,.49,1.72,2.25,2.69,2.74,4.54,4.23-3.77,21.75,7.79,26.87,9.48a52.38,52.38,0,0,0,11,1.73c3.54.27,9.63,3.28,11.41,2.34a39.57,39.57,0,0,1,1,4.64c-1-.1-2.13.55-3.17.47a11,11,0,0,0,.37,2.17c-2,.87-1.68.78-2.11,3.25,4-3.86,5.22-6.38,10.64-3,2.14,1.32,2.66,3.62,4.43,2.78,1.72,1,2.71-1,3.82-3,.16.19.45.75.69.88,2.63-2.08,4.88-.18,6.4-2.82,1.58,5.3,2.24-.81,3.78-1.6.74-.38,3.85.94,6.18-.24-3.1-8.16-.08-8.63,1.64-15.49,4.44,5.27,10.78-.13,14.14-2-.73-.74-.65-1.5-1.22-2.2,3.36.42,1-3.39,5.31-4.29,0,.88.54,1.88.54,2.83,1.85-.41,3.08-.45,4.45-1.85,1.22,1.52,3.76,1.91,4.83,2.95C1576.63,644.17,1574.88,646.12,1577.69,647.16Z" fill="none" stroke="#000" stroke-miterlimit="10" fill-rule="evenodd"/></g><g id="e9da2a02-6e74-417c-8efb-41739893f026" data-name="HATCH"><path d="M1691.4,424.13a42.7,42.7,0,0,0-4.49,5.6c-.61.85-2.25,3.71-3.11,4.43-2.81,2.35-3.84.67-7,2.18a12.07,12.07,0,0,0-2.7,1.69c-.78,1.44-1.49,1.11-1.56,2.66-.15,3.46,7.69,1.81,1.52,6.67l-4.29-4.24c-4.9,5.26-7.45,12.14-8.79,18.89-.75,3.77-.83,5.52.59,9.09.68,1.7,2,3.52,2.6,4.89.25.57,2.2.46,2.4,1,.09.28-.88,1.52-.74,1.9.23.64,1.09,5.56,1.41,7.11,0,.19-1.43,1.72-1.43,1.78,0,1.14,1.64,2,1.45,3.35-.71,5.34-4.62,9.53-6,14.55-1.08,0-3.25-1.16-4-1.18a39.54,39.54,0,0,0-5.41.22c-1.94.19-4.78-.74-7.11,1.23-4.08,3.44-6,11.37-9.56,17.1a38.08,38.08,0,0,0-4.89,10.33c-.48,1.69-1.8,4.27-1.93,5.22-.07.44-1.55.38-1.59,1.49s1.91,1.71,1.86,2.34c-.33,4.57-4.84,7.92-7.09,13.44-1.4,3.44-2.65,5.15-1.94,8.35.12.55,1.77.59,2.1,1.56a17.71,17.71,0,0,1,.32,4.64c0,3.44-1.71,12.87-7.39,10.08-1.1,2-1.34,1.07-2.74,2.33-2.36,2.12-3.31,5.84-4.18,9.73-1,4.39-2.28,6.66-3.28,10.68-.17.73.79,4.43,0,4.89s-5.67-.84-7.1-.64c-4.14.56-8.53,2.56-10.88,5.51a11.21,11.21,0,0,0-1.53,2.84c-.21.55-.53,1.5-.77,2,0,0,.33.37.35.34L1585,620l-2.08,1.3c-1,2.54-5.26,8.27-8.93,10.15-.84.43-6.24,1.21-6.47,1.69-1.53,3.18,6.61,8.62-1.7,8.48,0-1-.56-1.94-.54-2.83-4.21.9-2,4.76-5.31,4.29.57.7.5,1.46,1.22,2.2-3.37,1.79-9.69,7.34-14.14,2-1.53,6.86-4.77,7.26-1.64,15.49-2.33,1.2-5.43-.14-6.18.24-1.54.79-2.19,6.92-3.78,1.6-1.51,2.69-3.74.69-6.4,2.82-.24-.14-.52-.68-.69-.88-1,2-2.16,4.15-3.82,3-1.85.39-2-1.31-4.43-2.78-5.35-3.3-6.74-.75-10.64,3,.66-2.66,0-2.36,2.11-3.25a7.54,7.54,0,0,1-.37-2.17c1,.08,2.14-.56,3.17-.47a38,38,0,0,0-1-4.64c-1.78,1-7.79-2-11.26-2.31s-8-.74-11.14-1.76c-5.11-1.69-22.63-13.24-26.87-9.48-.49-1.85-2.25-2.82-2.74-4.54-.87-3,.47-3.23.6-6,.12-2.52-2.7-7.42-1.82-9.49,2.18-5.13,14.27-4.73,16.33-10.64,1.57-4.51-3.17-6.25,3.12-8.64-3.72-3.43-2.8-10.72-1.72-15.21-5,3.22-11.4,1.07-16.07-.67-.46-.18-1.38,1.2-2,.88-1.13-.58-1.7-2.19-2.81-2.88s-1.4-2.07-2.51-2.68c-6-3.34-14.87-1.45-21.11-3.72-6.84-2.48-10.58-10.93-17.41-13,.51,2.31,2.57,8.17-2.34,7-1.71-.39-4.81-8.29-5.86-9.55-2.58-3.13-4.65-7.44-9.51-6.25,4.81-4.54,6.37-5.67,7-12.13.85-9.47,1.62-18.94,2.42-28.4s-3-18.79-4.94-28.28c-1.59-7.77-8.81-24.42-.35-29.58-4.12-1.2-4.29-4.12-4.77-7.54-.1-.72-1.33-2.25-1.27-3.05.13-1.81,2.93-4.83,3.09-8,.38-7.55-2.72-19.95-12.19-21-4-.45-9.55,4.33-14.64,4.53a14,14,0,0,1-7.15-1.24,32.21,32.21,0,0,1-3.38-3.44c-.34-.36-1.89-.13-2.38-.73-5.14-6.37-4.42-16.77-3.78-23.94,2.4,1.15.93.83,2.36-1.26,1.22,2.58,3.84,1.66,4.45,2.3s-.32,2,.52,2.78,2.06,3.08,4.3,2.43c4.8-1.41-.62-3.41-1.78-4.71-1.42-1.58-3.69-2.67-3.51-5.18.33-4.78,3.35-1.88,6.86-1.45,6.44.8,6.06-4.44,2.23-2-.41-1.52-1.75-5.19-.79-6.66,2.07-3.16,1.23,1.1,2.44,1.3.47.08,1.46,1.86,2.28,2,1,.2,1.86-2,3-2.33,2.27-.59,3-1.83,5.25-.61-4.21-11.44,14.54-6.48,17-12.75.47-1.2-1.17-3.05-1.31-4.08.31,2.21,1.11-4.06.64-2.47.18-.62-1-1.48-.38-2.34,3.9-5.91,7.55-1.46,10.15,1.57,1.05-2.95,2.21-5.46,2.66-7.24.59-2.32.29-4.94,2.31-4.76,1-5.87,4.48-9.18,5.64-15,.84-4.21-2.82-12-6.52-13.36.76-2.14,2.55-3.53,5-2.5-.29-1.92.06-.77,1.37-2.24,1.83-2.05,1.73-4,2.39-7.77.31-1.78,0-4.9,2.62-6.77,1.75-1.27,9.06-1.26,7.32-5.47-1-2.4-4.55.71-5.61-2.87-.41,2.06-1.17,2.58-3.12,2,.06-3.68,2.71-2.29,4.36-4.42,2.49-3.24,2.72-8.29,3.68-12.37a14,14,0,0,1,1.42,1.81c1.79-2.21,3.49-.72,4.78,1.59,1.67-6.37,3.85-4.14,9.14-2.2a35.29,35.29,0,0,1,7.63,3.53c3.17,1.94,4.35,4.69,6.76,6.57,3.15,2.46,4.63,2.2,6.64,5.38s-1.14,4.77,4.48,4.59c3.72-.11,4.39-2.73,6.15-3.54,5.57-2.53,10-1.18,14.78-1,3.7.11,17.84.19,17.94-3.86,2.77.93,7.63,1,10.63,1.2,6.11.41,5-.74,7.72-3.26a30.23,30.23,0,0,0,2.94-1.09c2-.68.26-1,3.24-1.07s7.09,2.93,10.11,3.84c-1.69,3.25-6.09,16.8.08,15.83-3.7,6.23-4.37,15.63-5.19,22.9a62.27,62.27,0,0,0-.27,11c.2,3-.87,2.43.78,4.46,1.18,1.47,4.44,2.38,6.13,3.25,4.39,2.25,7.1,4,10.2,8.2,1.24,1.68,3.34,3.22,4.07,4.67,1.26,2.49-.31,4.76,2.84,6.81,1.18.77,6.63,1.34,8.19,1.15,2.15-.27,4.92-3.59,7.5-2.67,2.75,1,4.64,7.05,5.27,10,5.18-2.49,18.14-.17,11.52,7.55a13.89,13.89,0,0,1,9.08,2.36c.74.47,1.28,2.08,2,2.55.93.66,3.45.66,4.62.75,5.86.48,7.11-1,10.52-5.31,2-2.55,3.81-3.37,4.89-6.54.75-2.18-.38-6.48.73-8.14,1.68-2.5,7-1.57,9.59-3.31,2.29,3.83,8.19,7.56,12.28,10.25,2.79,1.84,2.81-.62,3.76,2.55.05.14-1.14,3.64-1.25,4.39-.37,2.43-1,6.18,3,4.8a4.81,4.81,0,0,0,4.63,4.27c-1.16,4.28-4.71,11.85,2.12,13.48-1,6.07,3.88.57,6-2s3.68-12.49,5.9-13.74,4.39,1.51,6.07,2.88c3.39,2.74,2.19.78,3.39,4.36,1.48,4.41,1.06,8.13,2.5,12.41C1688.32,416.69,1691.89,420.1,1691.4,424.13Z" fill="none" stroke="#000" stroke-miterlimit="10" fill-rule="evenodd"/></g><g id="b2c7fab3-0f05-4089-8b83-39c0434d5d24" data-name="HATCH"><path d="M1889.55,284.31a.83.83,0,0,0-.84.84c-3-.48-5.71,7.34-7.21,10.11a17,17,0,0,1-7,7c-2,1-4.08,1.19-6.26,2.57-1.69,1.07-4.87,3.23-6.39,3.52-2.2.44-5.52-1.62-7.16-.59-1.27.79-1-.15-1,2.85,0,1,2.37,2,2.55,3,.23,1.22-1.9,2.93-1.64,4.14.3,1.39,1.47,1.43,2.89,1.32,0,1.82.81,2.4.88,4.38a6.21,6.21,0,0,1-5.15,6.58c-2.83.6-5.66-1.17-7.82-.91-5,.6-5.16,5.82-6.78,8.82-1.28,2.34-1.91,6-3.58,7.94-2.17,2.59-1.8.89-4.44,2.45-4,2.38-6.83,2.76-11,4.09s-14.18,4.46-19.67,1.78c-1.53-.74-3.83-4.23-5.54-5.65a54.35,54.35,0,0,0-9.91-6.86c-2.86-1.4-5.48-2.08-9.07.39s-3.55,4.63-4.47,8.82c-1.4,6.44-2.85,10.1-1.72,15.73-2.63-.46-5.22.18-5.42-2.62-4.14-1-8.18,1.31-12.77-.64-3.52-1.49-6.88-7.7-11.09-6.82,1.8,6.22-.29,8.7-4.62,11.23-.85.5-2.28,2.31-3.43,2.57-4.9,1.14-4.73-2.08-6.63,3.21-.67,1.86.57,3.68-.19,6.55-1.17,4.47-1,1.62-4.05,3.61-2.64,1.71-3.81.53-5.32,4.3-.24.61-.15,3.05-.34,4.13s.14,3.78-.25,4.43c-.91,1.51-3.79,2.2-4.13,2.67-1.06,1.46-2.44,7.76-3.11,10.53-1,4-1.89,11.6-5.3,13.21-2.62,1.23-10.77-1.65-12.23-3-1.91-1.74-3.12-5.73-4.21-9.16-.94-3,0-8.72-1.43-11.68-.71-1.49-7.37-7.09-9.44-6.13-2.32,1.09-3.74,10.93-5.89,13.51s-7.32,8.45-6.33,2.35c-6.83-1.63-3.28-9.2-2.12-13.48a4.82,4.82,0,0,1-4.63-4.27c-4.09,1.39-3.26-2.25-3-4.61.08-.77,1.25-4.48,1.22-4.58-1-3.16-1-.73-3.76-2.55-3.84-2.52-10.42-6.56-12.28-10.25-2.64,1.74-7.91.81-9.59,3.31-1.11,1.66,0,6-.73,8.14-1.08,3.18-2.89,4-4.89,6.54-3.41,4.35-4.65,5.79-10.52,5.31-1.17-.09-3.69-.09-4.62-.75-.67-.47-1.21-2.08-2-2.55a13.89,13.89,0,0,0-9.08-2.36c1.07-1.26,2.68-4.52,1.82-6.21-1-2-2-.53-4.22-.95-2.67-.5-6.66-1.67-9.12-.39-.47-1.82-2.13-8.39-3.9-9.47-2.91-1.79-5.42,1.81-6.76,2.1-2.43.53-6.25-.26-8.34-1-4.07-1.46-2.72-2-4.69-5.41-2.54-4.39-6.7-10.5-12.65-13.71-2.8-1.51-8.19-2.82-9.28-5.31-.82-1.85.5-8.84.69-11.32.59-7.87,1.42-18.83,5.41-25.61-6.23.94-1.77-12.59-.08-15.83-3-.9-7-3.91-10.11-3.84-3.34.09-.79.24-3.24,1.07a30.23,30.23,0,0,1-2.94,1.09c-2.74,2.56-1.47,3.68-7.72,3.26-3-.2-7.84-.27-10.63-1.2-.1,4-14.24,4-17.94,3.86-4.75-.15-9.21-1.5-14.78,1-1.56.71-2.65,3.44-6.15,3.54-5.62.18-2.43-1.33-4.48-4.59s-3.44-2.89-6.64-5.38c-2.41-1.87-3.6-4.63-6.76-6.57a35.33,35.33,0,0,0-7.63-3.53c-5.29-1.94-7.47-4.17-9.14,2.2-1.25-2.41-3-3.91-4.78-1.59-2.07-2.69-3.82-5.86-6.59-5.32,3.8-5.11-6-9.49-5.81-12.47.14-2.3,2-1.69,2.48-2.73.07-.13.49-2.81,1.2-3.46,3.1-2.85,3.93-1.46,6.51-6,1.64-2.84,3.11-2.05,3.22-5.08.91,1,3.7,2.93,5.4,3.1,1,.1,1.12-2.67,3.26-1.26,3.21,2.12-.09,3.1,1.28,6.46,4.72-2.07,5.94.56,9.63,1,1.79.21,4,.83,5.3-1s-1.42-1.16-1-2.41c1.78-5.25,5.75-5.89,9-10.43.41,3.38,3.67,15.16,9.28,8.34-2.2,6.28,2.44,1.57,5.34,2.51,4.26,1.36,1.82,5.19,7.31,2.93,1.69-.7.71-3.15,2-3.62s4.2,1.11,4.79,1.25c1.89.44,4.53,3.29,1.29-1.43,3.12-.76,5.56,2.48,8.46.84,4.5-2.54-2.25-3.74.14-7.12,2.12-3,2.48,3.09,4.37,3.14,4.43.14,2.58-7.43,3.09-10,2.09.54,3.79-1.33,6.34-1.12a16.44,16.44,0,0,0-3.41-3.49c-1.39-.89-3.87,2.14-4.27-1.75-.33-3.2,8.38,2.06,2-5.08-2-2.27-5.89-3.27-6.25-7s1.46-2,2.43-4.92a19.2,19.2,0,0,0-.31-11.79c3.5-1.77,4.46-9.55,9.32-7.07,1.67.85-.79,3.52,2,3.78,3,.28.27-3.28,2.83-5,4.3-2.82,7,6.38,6.72,1.09a19.54,19.54,0,0,0,5.16-.72c-.81-.4-1.6-1.26-2.44-1.7,3.77-1.33,5.46-7.28,8.79-4.14.1-3.1,5.31-1.42,6.77-4.93-.07.18-.43-.58-.43-.46,3.05-1.08,8.19,5.16,12.67,5.65,7.63.82,15.29-.81,22.53.39a11.67,11.67,0,0,1,1-2c1.29,1.74,1.69,7.75,4.34,2.06-4,0-2.09-7.43.49-1.61a8.15,8.15,0,0,1,5.39-2.75c-1.8,5.73.61,3.57,4.71,3.84-1.44-1.61-1-2.88-.27-4.87,2.67,2.75,2.12.68,3.52,0-.67.3,3.14-2,2.85-1.52,1.77-3.22-.64-5,4.91-6.09-2-2.64-.54-3.92.62-5-.11.1.47,3.54,1.52,2.86a4,4,0,0,0,.38-2.64c.52-.1-.46-3.9,1.77-.24,1,1.68,3.08,1.7.32,3.55a8.13,8.13,0,0,0,2.7,2.61c-2.43-3.74,3.38-1.18,1.7-6.43,6,2.91,9.76-2.68,13.67-2,3.74.67,1.84,3.13,5.17,1.18,2-1.14,1-4.45,5-5.27a22.12,22.12,0,0,1-1.08-2.69c.26.25,1.23.89,1.72,1.24a51.4,51.4,0,0,1,4.94-5.2c1.93-2,2.76-4.74,4.48-6.69,2.08-2.36,4.82-2.92,6.8-4.76,1.72-1.61.49-4.49,4.71-3.81-.51,1.24-.13,2.88-.75,4.1,1.6-.44,3.85-2.78,5.39-2.45s1.37,3.5,2.51,3.79c4.47,1.16,3.66-2.46,2.87-5.65,9.09,5.56,2.08-5.34,6.6-7.12,3.54-1.4.77,3.59,1.8,3,2.16-1.19,1.78-3.09-.73-4a8.53,8.53,0,0,1,4.23-2.79,8.31,8.31,0,0,0-2.18-.52c.85-3.25,4.82-2.29,5-2.69,1.14-2.12-1-4.14-3.73-4.5,2.35-2,5.2,3.4,5.36-1.42-3.57,0-3-3.39-1.73-5.76.69-1.27,3.21.13,3.55-.46s-1-3-1-2.94c-.37.38,1.71-2.07,1.62-1.94.43-.6,3.29-.9,4.25-2,1.78-2.06-.36-3.55,2.58-5.59,1.56-1.09,5.37-1.77,7.21-2.63,4.4-2.08,2.76-3,7.26,0,3,2,3.4,2.6,6.63,3.52,2.56.72,4-1.6,4.77,1.51.44,1.76-1.93,4.43-2.93,5.81-3.3,4.51-4.29-1.36-.06,4.91,1.76,2.6,1.89,5.38,4.74,7.16,2.44,1.52,9.64.84,11.32,2.3,2.6,2.25-.75,8.68-.67,11.42.1,3.46,5.3,5.48,6.35,9.16.63,2.21-.24,3.4.14,5.46.66,3.61,1.69,3.7,3.62,6.29,3.88,5.23,4,9.71,8.32,14.39,3.43-5.69,5.83-7.31,12.42-4.9-1.94-5.26,2.88.82,3.7,1.14a4.47,4.47,0,0,0,5.85-2.42c2.88,1.23,4.6-2.94,8.11.27,0,.12-.65.9-.66,1,.67,1.53,2.16.24-.43,2.76,6.75-.6,2.94,1.67,4.06,4.29a29.78,29.78,0,0,0,5,7.29c1,.86,4.65,2.69,6.4,4.18,1.53,1.3,3.16,0,3.74,2.14s-.63,3.39-2.42,3.33c1.46,5.4,4.1,9,7,13,2.64,3.63.15,1.23-.1,4.63,0,.47,1.65,1,1.62,1.51-.08,1.28-.9,2-.69,3.71a5.47,5.47,0,0,0,1.92,3.37c-1.84,1.22-1.86,1.61-2.53,3.65,2.41.64,4.88,2.43,7.59.66,0,0-.06.67,0,.67,3.35.87,8,5.15,12.46,4.59,4-.5,8.16-5.44,11.69-7.26s7.4-5,11.79-3.1c3.08,1.32.77,5.65,4.38,1.7.07-.08-2.68-1.73-.56-2.9,1.29-.71,2.18,1.72,3.16,1.58,1.36-.2,3.79-2.59,5.07-1.15s-1.81,2.83-1.07,4c2.79,4.46,1.09-2.15,3.46-2.91,5.59-1.8,3.35,7.08,3.85,9.23.09.36,2,2.61,2.4,3.42-1.17,3,2,0,4.78,3.11,1.36,1.5.59,3.18.6,4.66,0,1.06.7.84.3,2,0,.12.73.11.94.25-1.28,1.34.28,2.43,2.18,2.92-.17-.8,0-.84.08-1.72,3,.59,2.52,5,1.47,8.21-.51,1.55-1.81,3.07-2.29,4.24-.35.86-.86,3.85-1.37,4.67-1.68,2.71-5.18,3.12-6.28,6.53-1,2.95.09.67.45,2.68a3.47,3.47,0,0,1-.49,2.62c2.35-.9,3.47.19,5.11.66,0,.34-.4.69-.4,1.12.08.05.84-.59,1.09-.61-.06.52-.33,1.08-.38,1.61.5-.58.67-.51,1.54-.21.19-.46-.42-.56-.2-1.06,2.31,1.06,1.26,2.83.74,4.3.35-.34.53-.78.89-1.06.42.2-.27.88.2,1a21.23,21.23,0,0,1,4.86-.4c.82.72-.53,1.82-.82,2.2.79.79.33,1.12,1.82,1.78C1888.55,284.15,1889,284,1889.55,284.31Z" fill="none" stroke="#000" stroke-miterlimit="10" fill-rule="evenodd"/></g><g id="ed696116-de13-4746-b7dc-496d76339a0a" data-name="HATCH"><path d="M1691.33,125.65c-.17,4.8-3-.59-5.36,1.42,2.75.36,4.86,2.38,3.73,4.5-.24.44-4.2-.61-5,2.69a9.09,9.09,0,0,1,2.18.52,8.53,8.53,0,0,0-4.23,2.79c2.51.93,2.89,2.83.73,4-1,.57,1.74-4.42-1.8-3-4.52,1.78,2.49,12.68-6.6,7.12.78,3.19,1.61,6.81-2.87,5.65-1.14-.29-.89-3.39-2.51-3.79-1.42-.34-3.92,2-5.39,2.45.62-1.21.25-2.86.75-4.1-4.3-.71-2.84,2.23-4.56,3.74-2.09,1.83-4.81,2.46-6.95,4.83-1.63,1.8-2.55,4.55-4.36,6.48a54.88,54.88,0,0,0-5.06,5.41c-.5-.36-1.44-1-1.72-1.24a17.11,17.11,0,0,0,1.08,2.69c-4.06.82-3.08,4.12-5,5.27-3.28,1.92-1.35-.49-5.17-1.18s-7.74,4.87-13.67,2c1.63,5.2-4.13,2.7-1.7,6.43a8.43,8.43,0,0,1-2.7-2.61c2.74-1.82.69-1.87-.32-3.55-2.17-3.6-1.3.15-1.77.24.16,0,.17,2.35-.38,2.64-.93.48-1.71-2.65-1.52-2.86-1,1.12-2.65,2.23-.62,5-5.52,1.06-3.14,2.87-4.91,6.09a18.65,18.65,0,0,0-2.84,1.19c-1.36.59-.56,3.48-3.53.28-.72,2-1.16,3.22.27,4.87-4.07-.26-6.55,1.87-4.71-3.84a8.11,8.11,0,0,0-5.39,2.75c-2.54-5.77-4.55,1.61-.49,1.61-2.62,5.66-3-.33-4.34-2.06a12.46,12.46,0,0,0-1,2c-7.24-1.2-14.9.43-22.53-.39-4.51-.49-9.57-6.69-12.67-5.65,0-.12.36.63.43.46-1.42,3.59-6.72,1.75-6.77,4.93-3.33-3.14-5,2.81-8.79,4.14.86.42,1.63,1.3,2.44,1.7a17.68,17.68,0,0,1-5.16.72c.33,5-2.08-3.28-6.35-1.08-2.71,1.39-.48,4.86-3,5-2.72.21-.88-3.15-2.23-3.89-4.7-2.58-6,5.34-9.32,7.07a19.35,19.35,0,0,1,.31,11.79c-.81,2.86-2.78,1.26-2.43,4.92s4.24,4.67,6.25,7c6.34,7.24-2.33,1.79-2,5.08.4,3.93,2.87.85,4.27,1.75a17.18,17.18,0,0,1,3.41,3.49c-2.55-.21-4.25,1.66-6.34,1.12-.54,2.41,1.28,10-2.79,10-2.11,0-2.63-6-4.67-3.15-2.38,3.36,4,4.24.12,7-2.88,2.05-5.57-1.53-8.72-.7,3.26,4.77.54,1.81-1.29,1.43-.43-.09-3.44-1.7-4.57-1.31-1.6.55-.39,2.92-2.23,3.68-5.53,2.27-3-1.68-7.31-2.93-2.94-.86-7.5,3.68-5.34-2.51-1.44,1.8-5.48,1.83-7.4-.06-2.45-2.43-1.57-5.71-1.88-8.28-3.22,4.54-7.19,5.18-9,10.43-.43,1.25,2.34.49,1,2.41s-3.51,1.24-5.3,1c-3.69-.44-4.91-3.07-9.63-1-1.15-2.85,1.79-4.66-.95-6.3-2.44-1.46-2.39,1.22-3.59,1.1-1.7-.17-4.49-2.16-5.4-3.1-.12,3-1.51,2.3-3.22,5.08-2.69,4.38-3.17,3.25-6.51,6-.76.61-1.06,3.32-1.13,3.47-.51,1.09-2.34.3-2.55,2.72-.26,3,9.68,7.35,5.81,12.47a4.75,4.75,0,0,1,5.09,3.92c.59,2.88-1.89,9.73-3.6,12s-4.3.79-4.36,4.42c1.95.6,2.69.07,3.12-2,1,3.54,4.6.5,5.59,2.8,1.82,4.28-5.52,4.29-7.3,5.54-2.5,1.75-2.23,4.95-2.54,6.48-.73,3.61-.64,6-2.33,8-1.29,1.52-1.81.3-1.51,2.31-2.48-1-4.27.36-5,2.5,3.72,1.34,7.36,9.16,6.52,13.36-1.16,5.85-4.57,9.18-5.64,15-2-.18-1.72,2.44-2.31,4.76-.45,1.78-1.61,4.29-2.66,7.24-2.5-3.19-6.32-7.37-10.15-1.57-.51.77.42,1.55.24,2.19.45-1.59-.19,4.88-.5,2.62.13.92,1.74,3,1.31,4.08-2.48,6.32-21.16,1.28-17,12.75-2.15-1.19-2.86-.06-5,.47-1,.23-2.26,2.81-3.19,2.69-.7-.09-1.78-2.09-2.35-2.24-1.32-.35-.13-4.18-2.36-1.52-1.15,1.37.32,5.46.71,6.88,3.84-2.46,4.24,2.78-2.23,2-3.55-.43-6.52-3.33-6.86,1.45-.18,2.52,2.15,3.58,3.51,5.18,1.09,1.28,6.7,3.27,1.78,4.71-2.23.65-3.35-1.52-4.3-2.43s0-2.2-.52-2.78-3.23.28-4.45-2.3c-1.36,4.59-3.09,0-1.69-2.51-4.46.31-5.3-4.93-9.19-5a6.84,6.84,0,0,0-5.9,10.66c-3.2-.77-9-7.18-11.43-9.44-1.36-1.27-2.65-3.63-4.7-4.18-3.09-.83-6.08,3.2-8.26-1.64-.53,7-13.24,1.2-16.64-.63-3.08-1.66-6.39-5-8-6.14-.73-.56-2.91-1-3-2.54-.13-2.1,5.22-6.68,6.71-8.34-6.55-3.24-10.6-9.38-14.17-12.54-1.35-1.2-1.64.21-3.31-2-1.13-1.47-1.34-3.33-2-4.28-.88-1.34-2.82-2.78-3.28-3.57-3.92-6.65,2.1-9.54,1.11-16.94-.33-2.46-1.83-7.65-3.69-9.36-2.4-2.19-6.77-1.1-9.13-3s-3.89-7.53-3-9.72c1.15-3,5.81-5.61,7.76-1.46a5.75,5.75,0,0,1,4.84-1.23,8.63,8.63,0,0,1-1.51-5c2.6-.64,4-2.1,6.2-3.25-1-5.45-6.59-6.33-10.92-10-.81-.69-6-4.47-6.19-5.24-.24-1,2.34-2.58,2.92-3.65.77-1.42,2.61-4.79,2.81-5.19s1.34-.26,1.76-1.29c1-2.48,2-8.83,2.47-11.11.28-1.34,1-5.33.69-6.85s-3-4.67-3.73-6.71c6.72-1.9,6.94-3.16,3.84-9.77-1.36-2.89-2.87-5.7-3.15-8-.42-3.46,0-5.8-1.67-8.7-.68-1.2-3-6.86-6-7.91a4.79,4.79,0,0,1,1.18-.57,24.4,24.4,0,0,0-4.67-1.4c-1.4,1.24-5.94,2-7.62-.43-1.66,1.63-3.64,1.6-5.6,1.66,4,5.16-.09,6.2-3.09,9.51-1.62,1.79-2.86,5.51-3.8,7.73,1.82,1.47,1.17,5.16-1.39,4.24-1-.37-4.92-4.86-5.62-5.53-1.17-1.14-1.94-1-3-2.55-.2-.27,1.36-2.71-.24-3.39-1-.4-3.74,1.48-4.65,1.62a24.35,24.35,0,0,1-3.71-1.46,8.42,8.42,0,0,1-2.44,5.7c2.13,1.11,1.34,1.32.58,2.62-1.66,2.86-1.26.44-4,1.88-1.83,1-3.83,3.36-6,2.26-1.59-1.87-7.08.64-9.49-2.2-2.11-2.49.42-3-1.91-4.81-1.13-.9-4.57-1.13-5.46-1.91-1.63-1.43-1.28-2.29-2.14-4.59-1.29-3.46-.82-1.64-3-3.43-3-2.41-4.74-3.92-9.12-3.07-3.23.63-2.73,2.33-5.72-.08a7,7,0,0,1-2.66-4c-2.13-.09-4.57.38-6-1.11s.65-5.36-3.27-4.45c1.74-4.49,4.6-3.09,6.94-6.19-6.85-2.5,1.62-4.27,3.1-5.45,2.29-1.82,2.81-4.51,5.41-6.67,3.32-2.74,7.32-4.87,7.16-10.79,0-1.61-2.48-.85-1.68-3.16s2.29-1.06,4.31-.87c2.85.26,8.29,3.21,11.89,1.84,1.68-.64,2.07-1.55,2.83-2.29.12-.12-1.51-1.78-.87-2.37,1.16-1.05.92,1,1.81.44,4.06-2.34,3.87-1.09,5.81-5.3-.16.36-1.37-1.62-1.32-1.57,2.75-1.82,5.12-.64,7.53.91s5.58,4.85,8.72,5.13c1.26.12,3.74-1.21,5.15-1.53-3.34-4,1.32-1.52,2.39-2.74,1.31-1.49,1-6.89,4-5.82-.63-1.34.11-1-.88-1.63a10.11,10.11,0,0,0,.38-1.87c-.13.11.24.42.54.26a.83.83,0,0,1,.09-.16c-.4-2.85,5.27-4.64,7.39-7.7a24.93,24.93,0,0,0,2.42-4.14c-4.2-2.58,4.43-5.54,2.53-9.37,5-3,9.08-6.15,4.75-12.19,6.35-2.85,2.54-11.36,5.54-15.76,2-2.87,4.37-7.53,7.12-9.85,1-.8,3.67-1.28,4.69-1.58,0-1.95-.09-2.95-1.53-4.41,6-1.65,5.94-9.94,11.31-9.89,0,0,0-.22,0-.21-1.41-1.66-.16-8.37-.53-10.85-.18-1.24-.24-.49-.17-1.75-.69-1.1-.67-2.41.09-4.22-.29.2.79.27.74.29s-.55-.75-.47-.81a20.8,20.8,0,0,1,3.25-1.21c2.88,7.93,5.15.58,7.06-2.64,3.21,1.07,6.76,2.07,10.34,3.33,1.65-2.61,3.92-1.72,6.55-3.08,1.55-.81,2.59-2,4.25-2.79s3.3-2,3.83-.45l.06,0c1.82-3.24,5.88-5.42,9.26-3,2.69-2.17,12.31-7.12,12.28-1.9l.25,0c1.62-2.83,7.8-2.91,12.61-3.48,4.1-.5,11.48-4.06,14.76-3.5,1.23.22.55,5.9,4.18.3-.26,2-.23,4.19-1.35,5.78,0,0,.06.84.18.42,3.14-1.54,4.08,3.44,5.73,5.41a46.82,46.82,0,0,1,10.46-2.55c3.38-.36,3.13-1.11,5.28,1.93.71,1,1.12,4.44,1.4,5.87.5-.68,1.41-1.2,1.83-1.77-.34,1,0,2.22-.2,3.24,5.5-3.19,2.31,9.85,9.07,3.92.29.93,1.15,1.68,1.41,2.62,3.79-2.88,7-6.2,12.26-5.14,2.23.44,2.88,2.16,6.21,1.88a14,14,0,0,0,0,1.56c1.5-1,6.93-.35,9.06,1.55,3.37,3,.46,4.58,1.45,6.76,5.68,12.48,13.74-6.52,17.09-7.67,2.74-.94,6.13,1.8,7.13-1.69.32.11.46.82.83.84.27-.36.13-1.08.32-1.5l0,0c2,1.62,4.73.09,4.29-2.7a14.61,14.61,0,0,1,1.88.78c.48-2.49,2.36-2.46,4.32-1-.32-4.25,7.83,2.19,9.55,2.74,2.27.73,4.53,1.18,6.79,2.13a3.25,3.25,0,0,0,3.06-1.82,8.74,8.74,0,0,1-1.75.45c.81-.88,3.17-2,3.56-2.79.27-.57-1.12-2.45-.95-3.1-.17.64,2-1.64,2.48-3-1,2.91-1.48-5.15-.36-1.62.06.18,3.54-2.36-1-1.22.44-2,.6-2.11,2.43-2.68a8.61,8.61,0,0,0-.58,1.69c3.91-1.26,7.88-.39,12.12-.56,2.28-.09,4.37-1.58,7.11-1.67,5.07-.15,3.77,3.69,6-3.12.79-2.37.46-4.32,3.18-4.77,3.38-.56,3.44,4.7,6.28,2.72,2.08,2.46,7.71,8.55,10.09,6.3a1.22,1.22,0,0,0,.52.06c.56,2.3.2,1.87,2.25,2a.44.44,0,0,0,.19.25,2.8,2.8,0,0,1-.57.77c3.8.2,4.07,12.79,8.88,15.81,1.51.95,2.19,2.17,5.22.23,1.17,6.48,5.89-.1,7.88-.54,1.38-.29,1.67,1.27,2.9,1.71,3.49,1.25-.08-2.64,2.86,2.34a17.42,17.42,0,0,1,2,5.7c.4,1.82.37,4.86.72,5.77-2.58,2,1,3.69,1.71,5.49.23.59-.72,2-.14,3.2.3.65.38.64.58,1.17.29-.17.21,0,.28.07,1.38-.65,3.83,3.33,4.32,4.28.08.16.61,1.91.54,1.32.55,2.23,1.25,5.36,2.79,5.87.75,3.38-.33,9.08,1.56,11.07.8.85,5.47.14,7.15,2.39.9,1.2,1.36,3.48,1.77,4,1.07,1.52,1.49,2.53,2.54,4.08.65,1,.6,3.91,2.81,5,1.37.66,3.49-.26,4.78.17,3.94,1.33,4.23,3.08,8.22,3.52,2.1.23,4.36-1,6.11-.8,1.47.16,4.28,2.56,4.88,2.72-.22-.05-.23.83-.23.85,4.3-.4,4.66-1.17,4.68-5.25s.14-9.13,5.75-7.1c.56.2,1,3,1.69,3.6.51.43-.51-1.9.26-1.85.94.06,1.56,2.08,2.5,1.74.4-.15-.6-2.33.24-2.15,2.67.56,1,2.43,3.12.48-.83.76-1-2.58-.48-3.25.68-1,2.38.29.84.81-3.24,1.1,4.89-.21,2.39,0,.17,0,.37-.91,2-.42.27.08,1.36-.63,1.51-.78.28,2,2.74,3.13,4.88,2.5,1.33-.39-1.9-2.19-1.17-3-.4.45,3.34-1.52,3.31-1.51,1.75-1,3.84-2.5,5.56-1,.93-1.39,4.69-.45,5.76-.94a4.61,4.61,0,0,1,.65,1.45c1.3-1.3,7-4,9.82-5.2a14.56,14.56,0,0,0-.69-1.37c3.37.66,6.35,4.44,9.52,5.76.22-2.13,2.07-2.11,3.51-1.5.13-1.32.57-.87,1.19-2.13,2,1.94,2.22,3.73,2.65,6.09.37-1,1.27-1.57,1.67-2.71,2.45,2.17,3.23-1.85,5.21-1C1691.06,120.86,1686.33,125.69,1691.33,125.65Z" fill="none" stroke="#000" stroke-miterlimit="10" fill-rule="evenodd"/></g><g id="a313e275-a1b4-41c9-ace5-713b82b25d57" data-name="HATCH"><path d="M1341.41,399.34c-2.6,3-2.34,4.24-5.77,5.32-2.4.75-6.58-2.11-8.48,1.92-1.49,3.16,2.45,7.67,0,10.88-1.11,1.44-4.11.46-5,2.54-1.58,3.77,2.48,2.39,2.94,4.58.55,2.67-.79,4.52-2.88,6s-7.75-.1-8.66.8c-.26.27,1.62,4.59,1.06,6.05-.42,1.09-5.45,3.71-6.21,4.09-6.11,3.08-10.84,7.28-16.42,10.63-2.71,1.62-5.47,2.21-8.46,3.29-5.87,2.12-6.36,2.65-8.22,8.43-.87,2.66-.94,5.06-3.6,6.94-3.41,2.41-5.18-.12-8.18.95-7,2.5-4.26,10.59-10.23,14.37-7.09,4.49-11,2.83-13.75-3.39,1.38-.76,1.57-2.17.93-3.87-5,3.14-9,2.64-13-.92-2.38-2.13-10.61-11.25-10.84-14.77-.31-5,4.61-8.51,3.2-13.68-2.15-7.9-5.2-6.6-11.6-9.26.66-.91.65-2.3,1.31-3.21a10.06,10.06,0,0,1-6-2.17c-2.11-1.64-.42-2-1.35-3.43-1.11-1.67-3-3.25-3.71-4.61-1-1.89-1-5.58-2.09-7.47-3.81-6.44-21,2-27.39,4.71,2.77,3.45,2.65,7.13,7.43,9.39-1.15.46-4.6,4.47-5,4.54-1.38.2-6.52-2.95-8-3.5-5-1.87-10.67-3-14.64-6.48-1.17-1-4.31-3.49-4.59-5.24s2.14-4.43,2.32-6.57c.27-3.15-.81-2.87-1.86-6.1s-.81-6.73-1.27-10.09c-.5-3.64-3.34-10.48-7.81-9-1.6.52-2,2.63-3.62,3.6-1.92,1.13-5.09,1.07-7.27,2-3.15,1.31-3.92,2.49-7,1.85-1.53-.31-3.87-3-4.81-3.13-3.7-.64-2.68-.36-3.41,4.6-.61,4.06,0,6.93-2,9.24-1.82,2.15-4.25,3.33-6.12,5.86-1.75,2.36-4.09,4.8-5.72,7.49-4.72-4-12.31-10.92-18.64-10.13a33.24,33.24,0,0,0-8.58,3.42c-3.73,2.91-2.52,5-2.12,9.81-2.3.3-5.23-1.27-7.5-2.05s-2.24,1.78-4.53-1.48c-1.33-1.9-.07-2-.55-4.12-1-4.45-1.39-8.81-4.83-12,4.81-4.63-3.83-4.5-6.48-7.62-2.21-2.59-6.37-12.18-2.79-13.89-3.11-2.33,1-3.18.93-5.82s-5.69-8.17-8.7-10.12c3.85-4,10.85-13.86,15-7.34a15.51,15.51,0,0,0,3.59-11.09c-.12-2.42-4.91-15.61,3.28-10.84-.84,2,3.1,7.51,2.74.37,2,.31,3.72-.93,4.63-1.27,1.62-.61-.66-2.21,1-2.5.54-.09,1.22.49,1.68.35,1.84-.59,4,1.67,6.61.46-3.59-4.05,3.42-11.43,6.51-14.55,2.09-2.1,8.56-13,3.47-12.42,2-3.62,1.83-7.12,6.19-5.13,1.75.8,5.13,4.83,6.51,6,1.62,1.37,5,4.95,7.1,4.46,4.13-1,1.51-5.73,4.88-6.4-2.21-2.78-4-4.91-6-2.91l.8.81c-2.33.45-7.64-2-5.35-4.15-1.37-1.54-.49-3.45-1.26-6,3.79-.59,7.65-1.94,12.07-2.15.38,0,3.87-.73,4-.69,2.54.64,1.46.91,3.38,2.09,1.16.72,2,2.35,3.07,2.89,1.91,1,2.71-1.28,4.59.49.33-.88,1.31-2,1.64-2.91-.3.23-.15.28.43.15l-.16,1.9c1.06-2,2.36-2.35,3.41-4.5.56-1.17.48-3.85,1.22-4.68,2.34-2.62,6.68-.66,7.64-5.34.43-2.1-2.15-4.14-1.22-6.24.47-1.05,4.14-1,4.85-2.64.87-2-2.12-2.42-1.66-5,.58-3.35,4.21-2.11,5-5.81,2.35,1.85,6.48.25,9.06-.15-.33-3.26-2.88-1.65-4-3.86-1.07-2-.37-4.63-.59-6.47-.26-2.26-2.73-8.16,1.19-7.33-1.94-1.39-3.48-1.65-3.33-3-3.36.22-3.5-4.21-4.91-5.64-2.49-2.52-2.43.15-3.18-3.57-.39-1.92-2.12-2.26.78-4.1.5.72,15.28-3.23,16.91-4.94,1-1.12.82-2.89,1.21-3.51,1.58-2.52.29-.89,3.27-2.16,2.43-1,1.81,1,3.74-.76,1.33-1.24.35-3.23,1.6-4.76,3-3.71,4.78-.6,8.22-.92s4.41-2.56,8.44-.62a11.67,11.67,0,0,1,5.5,5.08c1.75,3.48.62,4,4.32,5.94,1.61.84,4.17,1,5.31,2.29.32.35-.48,3.08,1.4,4.43,2.7,1.93,6.83,0,8.18,1.74,2.18,1.11,4.2-1.3,6-2.26,2.67-1.39,2.28.92,4-1.7.89-1.36,1.55-1.71-.54-2.8a8.22,8.22,0,0,0,2.44-5.7,36.55,36.55,0,0,0,3.49,1.38c.81-.14,4.07-1.87,4.87-1.54,1.71.72,0,3.06.24,3.39,1.11,1.53,1.81,1.41,3,2.55.65.61,4.68,5.25,5.62,5.53,2.45.74,3.34-2.61,1.39-4.24.92-2.22,2.18-5.94,3.8-7.73,3-3.27,7.2-4.37,3.09-9.51,2-.06,3.94,0,5.6-1.66,1.74,2.2,6.21,1.83,7.62.43a25.38,25.38,0,0,1,4.67,1.4,5,5,0,0,0-1.18.57c3,1,5.39,6.72,6,7.91,1.53,2.9,1.16,5.33,1.67,8.7.35,2.31,1.78,5.07,3.15,8,3.09,6.6,2.86,7.87-3.84,9.77,1.71,5,4.18,6.21,3,11.58-.71,3.23-1,8.62-2.13,12.07-.65,1.93-2.54,1.65-2.82,2.15-.06.12-4.5,8.32-4.37,7.25-.35,2.91,2.38,3.79,4.94,5.81,1.75,1.38,3.26,3.74,5.54,4.94,2.7,1.42,5.16,1.61,6,6.27-2.16,1.18-3.62,2.5-6.2,3.25a8.74,8.74,0,0,0,1.51,5,5.75,5.75,0,0,0-4.84,1.23c-2.85-6.14-11.1,2.66-6.07,9.18,4.54,5.89,10.83,2.3,13.06,11.66,1.85,7.77-3.55,12.22-.21,18.71,1.3,2.52,4.31,8,6.72,10.87-.6-.72,3,1.78,2.81,1.66a34.24,34.24,0,0,1,3,1.95c2.5,2.23,6.46,6.85,10.45,8.82-1.63,1.8-6.62,5.89-6.57,8.34,0,1.47,2,1.84,2.86,2.54,1.64,1.24,24,17.65,24.59,6.77,2.18,4.84,5.17.81,8.26,1.64,2,.55,3.34,2.91,4.7,4.18C1332.41,392.16,1338.21,398.57,1341.41,399.34Z" fill="none" stroke="#000" stroke-miterlimit="10" fill-rule="evenodd"/></g><g id="baa55228-ecb7-42a4-9401-b8b15addc3a1" data-name="HATCH"><path d="M1166.5,211.28c-1.22,1.15-3.32,2.28-3.78,3-1,1.55.35,3-1.12,4.28-2,1.69-5-.45-7,1.56-1,1.06.13,3.92-2.42,5.48-1.44.89-5.24,1.17-7.12,1.9-2.11.82-7.06,4.42-8.53,2.25-2.77,1.76-1.26,2.1-.93,4.1.59,3.56.93,1.14,3.33,3.57,1.41,1.42,1.55,5.86,4.91,5.64-.16,1.32,1.42,1.59,3.33,3-3.92-.83-1.45,5.07-1.19,7.33.21,1.8-.49,4.33.52,6.34,1.16,2.31,3.78.71,4.11,4-2.57.41-6.72,2-9.06.15-.8,3.72-4.45,2.49-5,5.81-.46,2.63,2.55,3,1.66,5-.71,1.63-4.24,1.52-4.69,2.43-1.13,2.26,1.54,4.14,1.06,6.45-1,4.69-5.3,2.72-7.64,5.34-.71.8-.68,3.57-1.22,4.68-1,2.12-2.28,2.6-3.41,4.5l.16-1.9c-.58.13-.73.08-.43-.15-.33.89-1.31,2-1.64,2.91-1.82-1.7-2.7.45-4.52-.49-1-.52-1.85-1.95-3-2.66-2-1.21-.68-1.6-3.34-2.24-.36-.09-3.61.58-4.16.61-4.45.23-8.25,1.43-12.07,2.15.77,2.57-.11,4.48,1.26,6-2.5,2.19,3.16,4.52,5.35,4.15l-.8-.81c2-2,3.77.13,6,2.91-3.26.81-.83,4.87-4.58,6.18-2.36.83-5.54-2.7-7.4-4.24-6-5-8.39-10.32-12.7-.87,5.22-.5-1.36,10.3-3.47,12.42-3.06,3.08-10.1,10.57-6.51,14.55-2.56,1.2-5-1.06-6.61-.46a25.82,25.82,0,0,0-2.52,1.32c-1.49.5-1,2.69-4.78,2.1.89,6.75-3.76,2-2.74-.37-8.44-3.69-3.46,7.7-3.28,10.84a15.49,15.49,0,0,1-3.59,11.09c-3.38-5.3-5-1.73-7.87,1.11a51.36,51.36,0,0,1-5.55,4.49c-3.71,1.68-1.65,0-5.81-.92-3.88-.87-2.68-1.58-5.54.84-1.25,1.05-2.22,3.34-3.09,4.21-2.15,2.2-8,3.77-8.19,8.28,2.14-.39,6.51.69,5.5,3.69-.12.34-7.58,3.29-8.59,3.72-1.46-3.28-2.59-7.48-4.17-9.94-.22-.34-2.58-1.79-3.18-2.49a28.46,28.46,0,0,1-2.5-4.36c-1.09-2.54-2-3.82-1.23-6.91.61-2.42,4.61-2.38,2.84-6.2-.9-1.93-5.61-2.52-7.77-2.13.62-5.55,2.56-9.53,8-12-3.91-3.84-9.44-7.29-15-7.52-5-.21-6.8,1.89-12.15-1.09s-6.2-2.39-12.71-1.16c-4.07.77-10.16,1.75-14.2.76C943.22,333,942,331,939.54,329a18.74,18.74,0,0,0-10.63-4c-1.6-.06-.5,1.26-1.67,1.21-2.18-.1-4.89-1.39-7.28-1.73-5-.7-6.19.19-9.63,1.87-1,.49-1.73,2.1-3.44,2.43-1-1-2.31-3.72-3.2-4.68A23.39,23.39,0,0,0,899,321c-2.88-2-1.76-3.2-2.92-6.29-2.1-5.65-7.2-4.51-11.67-9.95-4.13-5-7.28-8.08-10.82-13-2.07-2.89-3.06-2.59-2.79-5.86.17-2.14-2.33,1-.29-2.42.8-1.34,3.46-2.77,4.83-3.74,2.52-1.79,5.21-3.34,7.73-5.14-3.28-4,1.6-3.19,2.66-5.35,1.26-2.54-1.25-3.94.7-6.53-.85.18-.81,0-1.76.15.49-.65.9-2.1,1.31-2.78-2.38-2-2.3-3.42-5.11-4.47-1.72-.64-1.47,1.69-2.63,1.64-.57,0-1.93-1.31-2.67-1.55-3.13-1-1.19.16-4.16-3.56a52.21,52.21,0,0,1-5.39-7.49c3.53-1.33,10.32-.85,12,.83a4.29,4.29,0,0,0,4.36-1.28c-.06-.1-.47-.31-.5-.14.36-2.73,5-3.85,4.76-5.89.54,0,.26.58,1.18.22-.34-.21-.86-.53-1.14-.68,0,0,.19-.48.2-.45.58-.17.29.46.52.53,1.18-1.21.42-.95,1.83-1.14a2.31,2.31,0,0,0-.87.86c.92.27.92.16,1.56,1.82,1.45,0,1.11.08,2.6,1.45.06.06,0-.68.21-.59.14.57.29,1,.4,1.63.57-.38.23-.38.58-.84,2.37.19,5,2.74,6.77,2.62,1.24-.08,4.12-4.75,5.59-4.89,3.84-.36,5.81,2.77,9.65,1.68,1.8-.5,1.73-2.22,4.41-1.92,1.53.17,2.13,1.78,3.66,2.44,6.22,2.69,12.69-.15,18.43,2.1,3.07,1.2,3.21,4.18,6.33,1.24.78-.74.35-3.6,1.46-4.65a17.67,17.67,0,0,1,2.33-1.36c.81-.57,1.93.39,2.5,0,.94-.57,1.72-2.15,2.37-2.54a24.29,24.29,0,0,1,11.91-3.92c4.76-.19,8.62,1.74,10.52,1.7.56,0,.72-.42,1.21-.5-.19-.25-.38-.13-.7-.76a14.39,14.39,0,0,1,4.19-1c.18.24-.44.12-.21.52.3.18.24-.41.47-.3.07,1.08.31.53,1,1.41,0,.09-.58,0-.55.49,2,.16.77.21,1.56,1.05-.52-.4,1.06-.18,1-.2a.13.13,0,0,1,0,.06c0-.12-.31.55-.32.65a4,4,0,0,1,.48,0c1.59-3,3.33-1.31,5.23-2.3,1.42-.74,3.21-4,3.84-4.38,1.21-.69,3.36-.54,4.84-.69-.1-.23-.81,7.48,2.27,7.1,0,0,5.38-6.32,6.11-7.16.52-.59,1.73-3.56,1.09-4.13a11.26,11.26,0,0,0,1.17-3.22c0-.39-.27-.67-.26-1.11-.26.55.6-.4.68-.49-.48-.59-.9-4.57-.81-5.08a8.35,8.35,0,0,0,0-1.32l.07,0c.38.07,0,.37.75.16-.25-1.27,0-.49.68-.33A14,14,0,0,0,1016,208c.77-2.3.44-4,0-6.48-.32-1.93-2.19-1.46,0-2.51-.19-.38-.76-.64-.55-1.3.43,0,.62.43,1.09.35-.09-2.73,1.56-1,2.46-2.24,1.47-2.06.7-4.56,1.33-6,1.76-4.12,3.87-2.23,6-3.17a40.69,40.69,0,0,0,10-6.55c3-2.58,5.16-6.67,9-8.13.2-.08,1.41-1.7,1.57-1.7,2,0,3.29,3.77,4.8,4.22,3.79,1.13,4.51-2.61,6.54,2.58,1.31,3.34.35,5.39,3,8.28a5.11,5.11,0,0,1,1.54,2.58c3.4,0,6,1.77,9-.49s2.55-6,7.6-3.52c2.79,1.4,4.16,4.69,7.5,6.41-.16-.09,2.14,1.86,1.78,1.54.87.78,1.26-1.12,2.16.12,2.52,3.5.11,4-1.71,6.73-1.45,2.2-2.94,3.72-1.73,6,1.07,2.06,2.81,3.13,5.06,2.4-.63-2.62,1.71-5.57,4.08-5.68s1.82,1,1.31,2c5.42,2.36,3.51-2,6.26-4.4s.37.93,1.18,1.14c-.25-.06,3.72.55,3.46.41,2.25,1.19,4.25,3.57,7.51,1.82.93,3.57,3.28,6.68,3,8.93-.22,1.74-.49,1.24-1,2.06a8,8,0,0,0-1.3,1.8c-.82,2.35-1.17,2.16,1.17,2.52.83.12,6.12-1.72,8.07-1.7-.57-4.54,5.23-7.88,7.66-9.85,1.65-1.33,2.1-2.5,3.6-3.45-.09.05,1.35,1.52,2,1.3s.27-2.16.9-2.39a34.9,34.9,0,0,0,3.44-1.3c1.64-.8,2-.46,2.76-1.63,2.88-1.16,4.68.17,7,1.37.22.11-.23,1.68.35,2,1.3.7,3.27-.81,4.14-.1,1.25,1,.1,3.83,1.4,5,1,.87,4.1.39,5.57.45A16.28,16.28,0,0,1,1166.5,211.28Z" fill="none" stroke="#000" stroke-miterlimit="10" fill-rule="evenodd"/></g><g id="fc63c2c5-6834-4096-9cd1-9d6e3c373418" data-name="HATCH"><path d="M694.27,640.59c-7.65,2.79-15.18,8.06-14.3,18.29-2.18-3.84-5-7.72-8.56-8.54-3.89-.89-9.64,2.1-15.53,4.46-9.75,3.92-17.22,9.35-26.4,14.25-6.19,3.3-19.94,5.12-24.45,10-2.66,2.86-.09,1.18-.83,5-.48,2.56-.41,3.94-1.87,6-4.71,6.75-7.73,1.15-13.08,1.77-3.29.37-10.21,7.69-13,9.37-4.51,2.73-9.24,4.28-14.25,5.85-10.2,3.21-17.37,10.69-27.21,14.3a194.1,194.1,0,0,0-28.07,13.1c-8.25,4.7-13.54,7.85-22.83,8.91-6.87.8-14.13-9.64-19-14.65-3.09-3.16-2.45-5.39-4.49-9.23-1.66-3.14-6.4-5.2-7.46-7.73-1.56-3.72,2.07-6.5,2.36-9.67.26-2.8-3.17-3.34-3.54-5.09-.69-3.22,2.24-3.25,1.28-6.64-.8-2.85-4-2.13-5.53-3.9-1.7-2-.18-5.91-4.61-7.52-3.09-1.12-6.56.22-9.75-.35-11.93-2.12.56-6.7-2.74-13.17,1,0,2-.76,3-.79-2.3-4.32-2.88-8.84-5.07-11.68-1.88-2.44-5.74-3.82-6.12-6.77-.85,2.81-5.29,3.86-6.83,2.32,0,.06-.51,1.24-.4,1.17-4.8-4.22-9.33,2.26-9.22-7-4.11.65-21.46-12.68-17.53-18,1.19-1.62,9.64-2.13,12.7-3.64s7.52-5.43,9.2.07c.31-1.08,1.23-2.07,1.51-3.07.62,1.73,3.65,5,5.58,5.06,2.86.07,2-1.35,3.8-3.41,2.88-3.24,2.86-1.07,3.54-5.31.36-2.28-.91-6.07-1.13-8.3.2,0,.2,0,0,.14,1.07,0,1-.66,2.71-1.07-5.74-1.61-7.35-16.39-6.19-19.89.83-2.46,2.32-3.55,2.85-6.17s0-6.05,1.35-9.72c-2.74-.76-1.32-11.59-2.24-15.78-1.16-5.28-1.48-7.17.74-11.67.37.76,1.08,1.38,1.49,2.14,2.14-2.58,1.4-6.61-.22-9.4,3.44-1.27,4.42-5.9,8.86-7,2-.53,4.12.55,6,0,2.45-.67,4.35-2.65,6.55-4.2-4.5-4-8.42-5.59-13.48-8.39-6.29-3.48-8.85-5.11-14.14-11.56l5.1-4.18c-8-2.06-5.23-11.47-9.33-15.3,1.33-.83.79-1.14,2.27-1.95,0-1.86,0-1.37,1.82-2.51.54,0,0,.79.17.87.44-.95.33-.71,1.15-.46a.73.73,0,0,0-.31-.72c.14,0,.19,0,.14-.15,2.24,3.38,2.81,3.73,7.5,5.19,0-.64.29-2.1.23-2.62,1.22.7.66.11,1.74,0-.23.07.8.79.88.85a6,6,0,0,0,.12-1.31,7.35,7.35,0,0,1,.77,2c1.79.56,5.7-.59,7.54.7.23.39-.52.5-.56.73.9.22,1.85.32,2.32.39-.34-2.56,1.16,0,3-.29,1-.13,2.19.59,2.76.45,2.1-.53,1.34-3,4.79-2.58.48-3.38,6.36-1.5,8.08-1.19,1.15-2.43,2.85-.57,4.31-1.55a21,21,0,0,0,5.31-5.56c1.81-3.57-.63-6.68,2.31-10.58.23,2.93,6.25.32,8.32,3,.84,1.11-1.1,5.54,1.4,8.32,2.68,3,3.47,1.56,4.89,5.56.64,1.82-1.17,3,.46,4.89s2.68,1.83,3.76-.26c3.63,2.14,6.47,2.37,9.09-1.2,1.41-1.92,4.33-8.33,4.29-10.1.67-1,1.89-2.48,2.68-3.68,1.56,4.7,5.88,6.34,8.3,10.44,1.46-1.33,4.52-1.89,5.44-3.45,1.33-2.25-1.33-4.31,2.32-7.16a9.92,9.92,0,0,1,3.86,5c1.41-1.08,2.88-2.39,4.28-3.57,1.35,2.83,3.17,5.3,5.7,2.95a12.79,12.79,0,0,1-.25,2.33c1.07-.67,3.61-1.27,4.31-1.9a28.57,28.57,0,0,0,1.84-2.57c.79-1,1.83-6.57,4.46-1.24,2-.92,3.5-.84,5.32-2.56,4.41,4.63-2.21,4.5.29,9,2.14-1.19,6.52.42,7.09-.71.34-.67-2.38-3.12-2.39-3.88,0,.2,1.2-2.72,1.26-2.92a7.16,7.16,0,0,0,.45,1.3c2.21-8,9.15,11.49,10.77,14.26,1.71,2.94,7,9.07,1.66,11.08,2.16,2.38,1.65,7.24-3.23,5.85,1.76,7.8-7.45,8.59-10.28,12.13-1.83,2.31-.11,10.08,2,12.21,3.29,3.31,6.29-.47,7.18,6.65.4,3.22.26,10.52,2.16,11.12.56.17,4-2,4.62-2.22-3.12-3.21-3.29-15.6.28-18.25a6.11,6.11,0,0,0,4.94,1.66c3.12-.34,2.5-1.14,3.78-2.74,1.57-1.94,1.88-4.64,3.75-5.63-1.5-3.8-3.34-4.49-.49-8.19,1.93-2.5,4.9-3.91,7.43-5.11,2.68-1.26,4.83.19,5.37-3.85,5.88,5.07,9.07-2.53,14.71,2.76s-.66,4.1-3.57,7.95c6.54-2.31,9,7.14,9.25,10.88,1.34-3.12,6.05-2.46,8.09-.25,3-2.91,6.09-2,8.8-.34,1.68,1,5.1,3.93,6.92,5.38,2.76,2.19,2.6-.48.56,3.58-1.7,3.38-3.64,3.81-1.77,8.78s.78,1.25,3.93,2.92c2.59,1.36,2.3,1,4.23,3.42,3.47,4.41,3.34,8.52,9.1,7.27,4.14-.91,5.66-6.19,10.48-4.29,3.59,1.42,3.51,7.38,5.3,10a15,15,0,0,0,5.82,5.36c3.21,1.39,4.39-1.63,5.73,3.12,1.26,4.47-3,11.27,1,15.74-1-.23-1.58.1-2.59-.12a3.42,3.42,0,0,1,.39,3.1c-.57,1.5-1.09,1-1.47,3.7-.51,3.53,1.52,7.16,2.12,10.51s.72,6.79,1.11,10.09c.45,3.77,2.48.29.19,3.68-1.2,1.77-5.34,2.59-6,4.93-.4,1.51,1.33,5.42,1.7,6.93,1.44,6,5.83,9.55,7.41,15.41C690.76,640.07,693.64,637.33,694.27,640.59Z" fill="none" stroke="#000" stroke-miterlimit="10" fill-rule="evenodd"/></g><g id="b076de09-6854-4541-80b6-3cfff5cb84f6" data-name="HATCH"><path d="M1408.14,513.27c-1,11.31-1.86,22.62-2.88,33.92-.44,4.9-.24,5.3-2.58,8.66-1.83,2.61-4.48,3.74-5.61,6.83-6.07-7.26-8.71,12.1-10.67,14.2-1.16,1.24-3.11.39-5.13,1.31-.65.3-2.49,2.49-3.52,3-4.52,2.15-16,6.11-15.71,12.73.08,1.73,2.84,8.17,4.26,8.62-4.09,1.18-4.81.41-6,3.68-.74,2.08,1.26,4.15-.29,6.71.7,0,1.46.31,2.14.34-1.17,2.9-2.27,4-1.38,6.81.79,2.42,6,2.8,2.4,5A4.63,4.63,0,0,0,1360,622c-.11,1.28-.88,2.35-.8,3.73-2.41.48-6.12,4.5-9.74,5.11.92.83,1.31,2.24,2.22,3.08-4.27,1.12-9,.36-13.37.85.9-6.12-3-8.59-7.51-3.44-1.17,1.36-1.1,3.62-1.92,5.42-1.36-1.29-2.29-1-3.84-1.76a30.9,30.9,0,0,0-1,4.62c0,.55-.82,2.57-.58,3.34.41,1.27,2,0,2.34,1,.5,1.52,1.52,3.23,1.86,4.27-2.13,2.21-3.27,9,.52,9.37-4.44.78,1.41,1.89,1.41,4.31,0,4.82-2.23-.61-4.1.66-4.26,2.9,2.31,1.64,3.14,2.37a5.46,5.46,0,0,1,1.29,5.07c-.61,3.06-3.65,5.84-6,8s-1.55,2.77-4.44,3.65c-1.65.5-3.59-.42-5.67.31s-4.25,3.81-6.41,3.69c-2.92-.15-5.82-5.68-8.59-6.08-2.46-.36-2.22,1.31-4.6,1.66-2.53.38-5.32-.59-7.73-.42-1.49.11-.86-1.92-3.12-.38-.78.53.38,2.83-.45,3.78-6.12,7-12.73,4.82-18.85,2.48-6.38-2.43-5.55,2.62-9.33,7.92-1.54,2.17-5.31,3.69-6.37,5.85-1.31,2.7.65,6.28,1.23,9.47,1.26,6.88,4.73,15.06-2.92,18-3.51,1.34-11.74-.19-14.19,2.55-2.72,3,.14,6.29-4.7,7.38-4.17.94-9.76-2.58-12-4.78-3.43-3.39-5.81-9.1-11.65-8.86-2,.08-2.73.1-4.1,1.59-.88,1-.66,3.29-.33,2.86-1.14,1.52-1.54,1.38-3,2.18-2.41,1.29-1.55-1.75-4.46,2.08-4.47,5.87-2.47,9.39-10.74,4-1.81-1.19-6.48-6.45-8.59-7-4.86-1.34-2.6,1.1-3.84,4.11-.21.51.92,6.53-3.51,3.17-.35-.27-.35-6.93-1.57-8.26-1.58-1.73-3.47-.5-4.9-2.5-1.59-2.26-.37-5.82-1.54-8.06-.4-.78-4.66-3.85-5.1-3.72-4.4,1.25,0,3.54.15,5.53.4,8.08-8.24,3.15-9.42-1.56-.9-3.56,1.45-4,4.57-5.11,1.4-.47,3.23-.13,4.58-.8,1.58-.78.77-2.35,1.94-3,4.84-2.78,17.79,1.93,17.37-4.08-.15-2.13-5.9-7.1-7.06-10a24.22,24.22,0,0,0,7.53-6.07c1-1.31,1.69-5.26,2.22-5.79,3.42-3.44,9.75.19,9.2-7.21a8.2,8.2,0,0,0-4.11-6c-3.68-1.95-4.73,1-7.33.73-3-.26-4.39-3.67-.65-6.77,3.5-2.9,3.92,1.09,5.22-3.81.58-2.2-3.4-4,1.66-6.31-2.13-3.34-10.41-6.1-11.5-8.94-.55-1.45,3.31-5.74,3.57-7.34.59-3.52.31-2.64-1.45-5.71-.39-.69-2.36-.3-2.87-1s-.66-2.91-1-3.7c-1-2.37-1-5.12-2-7.48-1.63-3.89-4.13-5.81-5.27-9.58-.92-3-2.57-7.77-2.4-11.86.21-4.82,3.58-7.36,6.48-10.69,4.08-4.69,5.69-6.45,4.61-12.16a45.19,45.19,0,0,0-4.53-11.38c-2-2.77-8.3-6.86-11.44-8.42-2.32-1.15-5.32-1.19-7.54-2.52-4.27-2.56-2.78.05-2.37-4.53.44-4.88,5.07-9,5.67-13.45s-4.49-8.4-5.85-13.2c-1.11-4-.67-4.54-3.19-8.21-3.26-4.75-6.08-6.73-11-9.34-8.79-4.64-16.18-11.32-24.35-16.67-1.68-1.1-4.48-2.42-5.29-3.52s-.59-5.69-1.82-7.6c-3-4.65-8.5-7-12.93-10.41-3.18-2.46-3.72-2.58-3.16-5.61.15-.83,3.58-6.28,4-7.06,2-3.57,8.79-7.68,2.27-10.33-.51,1.22-1.94,2-2.45,3.27-2.62-3.9-5.65,1.17-7.67-3.4-.49.91-6.42,7.14-7.12,7.31-3.93.91-3.22-1.44-6.48-4.62-2.08-2-6.39-3.22-7.8-5.61s2.87-4.08-.9-5.94c2.49-3,1.18-10.17,6.26-11.08,3.19-.57,4.43,2.59,7.5,2.05-.36-4.42-1.55-6.8,1.76-9.57,1.28-1.07,7.34-3.46,8.94-3.66,6.35-.79,13.89,6.11,18.64,10.13a71.51,71.51,0,0,1,9.71-12.44c.86-.89,3.49-.69,4.07-1.7.45-.76-.92-2.62-.73-3.52.41-1.91.16-9.18,1.58-10.08s7.23,4.35,10.13,4.05c2-.2,5.7-2.53,7.8-3.35.85-.34,2.4-.21,3.1-.64s2.3-2.71,2.71-2.85c3.15-1.06,8.09,0,9.37,5.78.38,1.7.09,5.11.48,7.7.42,2.77,2.45,5.54,2.76,7.87.71,5.44-4.1,7.22-.25,12.23,3.49,4.55,10,6.47,15.44,8.54,2,.77,6.16,3.2,8.12,3.16,2.49-.05,3.31-2.42,6.48-3.77-4.57-2.33-4.82-5.89-7.43-9.39,6.66-2.7,23.29-11.1,27.39-4.71,1.1,1.7,1.14,5.73,2.09,7.47.77,1.44,2.64,2.81,3.71,4.61.52.87-.3,2,.88,3.08a10,10,0,0,0,6.49,2.52c-.66.91-.65,2.3-1.31,3.21,6.11,2.59,8.94.91,11.21,8.34,1.89,6.18-3.18,8.59-2.81,14.6.22,3.4,8.07,11.9,10.26,14,4.1,4,8.12,5.34,13.61,1.66.63,1.7.43,3.09-.93,3.87,1.63,3.56.74,5.09,5.13,5.94,3,.59,7.13-1.49,9.44-3.19,5.63-4.14,2.86-11.54,10.66-13.86,4.2-1.25,6.39,1.53,9.67-4.22,2-3.5,1.08-7.36,4-9.89,3.13-2.67,8.94-2.55,12.61-4.64,2.19-1.26,4.49-3.63,6.66-5.19,4.28-3.07,9.16-4.94,13.34-8.15,3.26-2.5,2-1.4,3.56-5.22,2-4.86-4.55-.77,3.78-2.35,3-.57,7.2-2.58,6.8-6.39-.26-2.54-4.18-1.78-3.27-5.11.67-2.46,4.08-1.89,5.31-3.62,3-4.24-4.17-10.13,3.17-12.68,3.89-1.35,9.13,2.83,10.38-4.13.68-3.76-2.42-4.11.56-8,6.68-8.64,8.87,2,15.08,1.62a34.63,34.63,0,0,0,0,19.46c4.24,13.92,13.68,14.75,26.37,10.54,4.13-1.36,3.74-2.25,8.07.86,2.65,1.91,3.9,2.78,5.69,5.78a19.86,19.86,0,0,1,2.57,11.26c-.08,3-1.85,6.06-2.14,8.36-.25,2,.66,1.59.73,3.82.12,3.66.16,6.76,4.53,8.13-7.82,4.95-2,18-.56,25.13C1403.52,496,1405.86,504.51,1408.14,513.27Z" fill="none" stroke="#000" stroke-miterlimit="10" fill-rule="evenodd"/></g><g id="e9e3e38b-7162-491d-8cd5-00097a4a8825" data-name="HATCH"><path d="M970.94,472.39c-3,2.36-7.21,1.47-10,3.61-1.89,1.46-1.91,4.79-3.66,6.11-2.48,1.87-5-1.6-5.63,4l-1.33-.72c-1.08,3.74-3.48,4.63-4.76,1.14-1,.77-3.23,2.26-4.18,4.16-.76,1.5,3,5.31-1.19,4.6-3,3.71-4,8-6.56,12-3.45,5.32-9.76,3.31-12.83,8.34-2.45-3.75-13.7-9.94-9.07-14.23-4.46-1.22-3.63-6.82-7.76-6.44-4.87.45-1,5.85-5.51,4-.23.79-.52,1.55-.73,2.35-1.88.41-2.85.4-5.38.78-3.41-1.92-8.86-1.6-14.36,1.36-4.16,2.24-3.65,4.27-5-.76a10.44,10.44,0,0,1-.26-5.07c.09-.7,1.71-1.22,2-3,.11-.81-.92-1.75-.82-2.54.49-3.66,2.3-3.58,4.14-6.68,1.57-2.65,2.19-7-1.15-8.42,5.28-2,2.4-9.83-1.76-12.28-2.22-1.3-5.57,1-6.59-2.78-.47-1.77.27-2.27,1.82-2.44.47-1.93-.55-3.32-2.77-3.86,1.53-2.46,3.75-4.56.38-5.94a12.73,12.73,0,0,1-2.17.14c1.48-.71-.18-.57,2.17-.14a32.12,32.12,0,0,1,.11-7.9,21,21,0,0,1-2.47-.05c2.17-1.05,5.33-3,2.06-4.61,2-3.43-3.66-6.26,2-8.62,2.13-.9,7,.49,9.13,1.6,1.37-1.58,2.11-3.39.15-4.52,2.45-1.89,4.28.73,7,.59,2.95-.15,4.18-2.05,7.63-1.05-.34-4.27-3.41-6.28.55-8.26,1.61-.81,3.51-.62,5.41-.29,6.61,1.13,3.18,1.86,3.54,7.57,3.28-1.78,4.34-8.8,8.72-8.41.13,0,3.64,3.91,5.32,4.81,3.15,1.7,4.92-.28,7.24,5.32,0,.09-1.2,1.13-1.1,1.28-.29-.42.17,2.26.51,2.94-.69-1.39,5.21,3,5.89,3.69-1.23.32-2.29,1.47-3.42,1.82,3.15,3,4.21,6.1,7.73,7.67,1.83.82,3.11-.71,4.71-.35s2.68,2.19,4.27,2.55c3.22.74,3.32-1.72,6.08.72,2.05,1.8,3.21,6.41,3.69,9,4.39-1.22,9.55-1.87,14.15-2.73,1,3.12-2,5.57-.89,9.16.59,1.84,2.8,3.14,3.59,4.92C970.36,468.58,969.63,470.37,970.94,472.39Z" fill="none" stroke="#000" stroke-miterlimit="10" fill-rule="evenodd"/></g></svg>